<svg width="2960" height="512" viewBox="0 0 2960 512" fill="none" xmlns="http://www.w3.org/2000/svg">
<path d="M256 0L316.433 195.567H512L353.783 316.433L414.217 512L256 391.133L97.7831 512L158.217 316.433L0 195.567H195.567L256 0Z" fill="#D6D6D6"/>
<path d="M868 0L928.433 195.567H1124L965.783 316.433L1026.22 512L868 391.133L709.783 512L770.217 316.433L612 195.567H807.567L868 0Z" fill="#D6D6D6"/>
<path d="M1480 0L1540.43 195.567H1736L1577.78 316.433L1638.22 512L1480 391.133L1321.78 512L1382.22 316.433L1224 195.567H1419.57L1480 0Z" fill="#D6D6D6"/>
<path d="M2092 0L2152.43 195.567H2348L2189.78 316.433L2250.22 512L2092 391.133L1933.78 512L1994.22 316.433L1836 195.567H2031.57L2092 0Z" fill="#D6D6D6"/>
<path d="M2704 0L2764.43 195.567H2960L2801.78 316.433L2862.22 512L2704 391.133L2545.78 512L2606.22 316.433L2448 195.567H2643.57L2704 0Z" fill="#D6D6D6"/>
</svg>
