<svg width="2960" height="512" viewBox="0 0 2960 512" fill="none" xmlns="http://www.w3.org/2000/svg">
<path d="M256 0L316.444 195.574H512L353.778 316.426L414.222 512L256 391.148L97.7778 512L158.222 316.426L0 195.574H195.556L256 0Z" fill="#727272"/>
<path d="M868 0L928.444 195.574H1124L965.778 316.426L1026.22 512L868 391.148L709.778 512L770.222 316.426L612 195.574H807.556L868 0Z" fill="#727272"/>
<path d="M1480 0L1540.44 195.574H1736L1577.78 316.426L1638.22 512L1480 391.148L1321.78 512L1382.22 316.426L1224 195.574H1419.56L1480 0Z" fill="#D6D6D6"/>
<path d="M2219.52 467.62L2101.54 377.49L2092 370.205L2082.46 377.49L1964.48 467.62L2009.6 321.627L2013.19 309.999L2003.75 302.79L1885.51 212.464H2031.57H2043.33L2046.95 200.761L2092 54.9648L2137.05 200.761L2140.67 212.464H2152.43H2298.49L2180.25 302.79L2170.81 309.999L2174.4 321.627L2219.52 467.62Z" fill="#D6D6D6"/>
<path d="M2092 109.929L2055.09 229.361H1935.03L2032.16 303.566L1995.18 423.241L2092 349.278L2188.82 423.241L2151.84 303.566L2248.97 229.361H2128.91L2092 109.929ZM2092 0L2152.43 195.567H2348L2189.78 316.433L2250.22 512L2092 391.133L1933.78 512L1994.22 316.433L1836 195.567H2031.57L2092 0Z" fill="#D6D6D6"/>
<path d="M2704 0L2764.43 195.567H2960L2801.78 316.433L2862.22 512L2704 391.133L2545.78 512L2606.22 316.433L2448 195.567H2643.57L2704 0Z" fill="#D6D6D6"/>
</svg>
