<svg width="2960" height="512" viewBox="0 0 2960 512" fill="none" xmlns="http://www.w3.org/2000/svg">
<path d="M256 0L316.444 195.574H512L353.778 316.426L414.222 512L256 391.148L97.7778 512L158.222 316.426L0 195.574H195.556L256 0Z" fill="#727272"/>
<path d="M868 0L928.444 195.574H1124L965.778 316.426L1026.22 512L868 391.148L709.778 512L770.222 316.426L612 195.574H807.556L868 0Z" fill="#727272"/>
<path d="M1480 0L1540.44 195.574H1736L1577.78 316.426L1638.22 512L1480 391.148L1321.78 512L1382.22 316.426L1224 195.574H1419.56L1480 0Z" fill="#727272"/>
<path d="M2092 0L2152.43 195.567H2348L2189.78 316.433L2250.22 512L2092 391.133L1933.78 512L1994.22 316.433L1836 195.567H2031.57L2092 0Z" fill="#727272"/>
<path d="M2704 0L2764.43 195.567H2960L2801.78 316.433L2862.22 512L2704 391.133L2545.78 512L2606.22 316.433L2448 195.567H2643.57L2704 0Z" fill="#D6D6D6"/>
</svg>
