<svg width="532" height="336" viewBox="0 0 532 336" fill="none" xmlns="http://www.w3.org/2000/svg">
<g opacity="0.33">
<path d="M3.85109 226.609C7.32376 232.443 11.7341 236.089 17.0821 237.548C22.4301 239.006 26.0071 239.736 27.8131 239.736C35.2444 239.736 43.2664 235.846 51.8791 228.068C53.2729 226.565 54.0535 224.595 54.0671 222.546V221.817C53.9284 219.594 52.2951 217.337 49.1671 215.045L17.9151 194.313C11.3864 189.729 7.21909 185.526 5.41309 181.704C3.60709 177.882 2.70443 174.931 2.70509 172.852C2.70509 168.268 4.68443 163.093 8.64309 157.329C26.9098 132.047 47.9544 119.337 71.7771 119.199C75.9141 119.447 79.9892 120.323 83.8621 121.799C91.3634 126.521 95.1141 133.293 95.1141 142.114C95.1141 150.101 91.9888 159.825 85.7381 171.285C82.7514 175.73 79.6088 178.161 76.3101 178.578C73.0114 178.994 70.9448 179.203 70.1101 179.203C68.1028 179.276 66.1089 178.848 64.3083 177.958C62.5076 177.067 60.957 175.743 59.7961 174.104C59.6624 173.846 59.5911 173.561 59.5881 173.271C59.5942 173.093 59.6279 172.917 59.6881 172.75C59.8217 172.276 60.0142 171.821 60.2611 171.396C60.5044 170.979 60.6608 170.701 60.7301 170.563C70.6634 157.436 75.7684 149.293 76.0451 146.133C76.3218 142.973 76.4608 141.149 76.4621 140.663C76.4621 136.217 74.6564 133.995 71.0451 133.995H70.3161C59.7608 137.813 51.5311 143.264 45.6271 150.349C39.7231 157.433 35.4171 163.823 32.7091 169.518C32.4398 170.431 32.2994 171.378 32.2921 172.331C32.2876 173.317 32.4786 174.294 32.8542 175.206C33.2298 176.118 33.7824 176.947 34.4801 177.644C36.5634 179.936 40.0361 182.61 44.8981 185.666C59.5528 194.278 69.3458 201.71 74.2771 207.961C79.2084 214.211 81.6751 219.941 81.6771 225.151C81.6167 229.11 80.7312 233.013 79.0771 236.611C76.2231 243.417 69.8828 249.859 60.0561 255.936C50.2294 262.012 41.9991 265.624 35.3651 266.771C30.9817 267.645 26.5437 268.22 22.0821 268.49C14.7201 268.49 8.85109 266.198 4.47509 261.614C1.48909 258.488 -0.00390625 253.87 -0.00390625 247.758C-0.00390625 241.993 1.28109 234.943 3.85109 226.609ZM126.889 258.593C121.248 252.51 116.765 245.449 113.658 237.757L104.49 268.074C97.2668 265.712 92.4571 262.952 90.0611 259.792C87.7474 256.87 86.4815 253.256 86.4661 249.529C86.647 244.458 87.5595 239.439 89.1751 234.629C90.8418 229.35 94.2624 218.237 99.4371 201.291C104.612 184.344 109.56 167.52 114.283 150.818C119.006 134.114 121.506 123.539 121.783 119.095C135.05 121.109 141.683 127.846 141.683 139.306C141.585 143.729 140.849 148.115 139.496 152.328L128.765 187.958C135.71 181.707 143.42 178.512 151.893 178.373C155.998 178.956 159.744 181.032 162.414 184.204C166.929 189.899 169.186 195.594 169.186 201.29C169.114 205.708 167.855 210.026 165.54 213.79C159.777 223.586 149.637 230.881 135.119 235.673C143.523 246.23 152.76 254.321 162.831 259.947C158.733 265.642 153.733 268.49 147.831 268.49C147.206 268.49 146.546 268.456 145.852 268.39C139.113 267.692 132.793 264.427 126.889 258.593ZM129.389 217.65C137.168 216.191 143.939 211.607 149.704 203.898C151.927 199.452 153.038 196.119 153.038 193.898C153.038 191.676 151.927 190.565 149.704 190.564C147.343 190.564 143.801 191.744 139.078 194.106C138.105 194.87 137.202 195.564 136.369 196.19C133.87 197.964 131.487 199.895 129.233 201.972C126.929 204.216 124.979 206.798 123.451 209.629C122.626 211.177 122.129 212.879 121.992 214.629C121.962 215.032 122.02 215.438 122.164 215.816C122.308 216.194 122.534 216.536 122.825 216.817C123.898 217.636 125.229 218.043 126.576 217.963C127.522 217.95 128.464 217.846 129.389 217.65ZM167.936 305.995C168.631 306.061 169.325 306.095 170.02 306.095C179.883 306.095 188.426 302.379 195.649 294.948C203.655 286.502 210.029 276.647 214.449 265.881C218.817 255.877 222.286 245.505 224.815 234.887C226.898 225.615 227.94 219.381 227.94 216.187V215.354C223.703 228.272 219.57 237.718 215.54 243.691C211.51 249.663 205.677 256.33 198.04 263.691C196.752 265.019 195.215 266.081 193.516 266.814C191.817 267.547 189.99 267.937 188.14 267.962C186.44 267.945 184.753 267.664 183.14 267.129C177.514 265.323 172.444 261.711 167.93 256.294C166.596 253.95 165.946 251.279 166.055 248.585C166.114 245.662 166.534 242.758 167.305 239.938C169.35 231.883 171.854 223.953 174.805 216.185C177.444 209.101 179.615 202.607 181.316 196.703C182.841 191.875 183.7 186.862 183.868 181.803C183.868 180.9 183.835 180.033 183.768 179.203C192.658 181.078 198.527 183.943 201.375 187.798C204.223 191.652 205.647 195.455 205.646 199.206C205.491 203.757 204.502 208.242 202.729 212.437L188.251 253.804C195.598 246.806 201.99 238.871 207.264 230.204C212.021 222.182 217.074 211.364 222.422 197.752C222.948 196.942 223.678 196.285 224.538 195.847C225.398 195.408 226.358 195.203 227.322 195.252H227.843C238.886 195.807 244.408 204.176 244.408 220.36C244.408 234.876 239.998 255.642 231.177 282.66C223.954 301.412 216.592 312.351 209.091 315.477C201.59 318.602 196.242 320.165 193.047 320.165C184.571 320.164 176.201 315.441 167.936 305.995ZM271.596 268.49C264.095 266.89 258.695 264.164 255.396 260.312C252.261 256.877 250.499 252.408 250.447 247.758C250.505 244.47 251.032 241.208 252.01 238.069L270.763 178.998C273.886 180.166 277.089 181.106 280.348 181.811C285.696 182.713 289.151 184.085 290.714 185.926C292.187 187.537 293.02 189.63 293.058 191.812C293.058 194.798 292.051 198.896 290.037 204.105L303.579 183.374C305.94 180.387 308.718 178.894 311.913 178.894C313.452 178.924 314.971 179.242 316.393 179.832C321.393 181.707 326.081 185.388 330.457 190.875C332.68 193.861 333.791 196.57 333.791 199.001V199.626C333.522 202.359 332.819 205.032 331.707 207.544C330.734 209.909 329.95 212.347 329.363 214.837C328.782 217.261 328.484 219.744 328.477 222.237C328.484 223.875 328.589 225.511 328.79 227.137C319.831 225.192 313.806 222.275 310.715 218.386C307.624 214.496 306.079 210.607 306.079 206.718C306.232 202.309 307.187 197.964 308.896 193.897L309.209 193.376L282.431 233.381C282.094 235.008 281.641 236.609 281.077 238.173C280.313 240.465 279.41 243.104 278.368 246.091C276.909 250.397 275.52 254.651 274.201 258.853C273.157 262.015 272.288 265.232 271.596 268.49ZM404.531 192.021C390.83 195.652 378.631 203.529 369.682 214.521C360.549 225.633 355.67 237.233 355.045 249.321C355.045 250.987 355.427 251.96 356.191 252.238C356.722 252.461 357.284 252.602 357.858 252.655C358.257 252.629 358.647 252.523 359.005 252.344C359.363 252.165 359.682 251.917 359.942 251.613C369.942 239.181 381.471 222.408 394.53 201.294C400.92 204.141 405.261 207.162 407.553 210.358C409.845 213.553 410.991 216.574 410.991 219.422C410.922 222.039 410.356 224.62 409.324 227.027L395.155 268.491L388.487 264.532C388.07 264.254 387.688 263.976 387.341 263.699C385.191 262.413 383.271 260.776 381.663 258.855C380.264 257.019 379.546 254.754 379.631 252.448C379.63 251.821 379.663 251.195 379.731 250.573C380.148 247.1 381.988 242.169 385.253 235.779L372.543 258.074C368.237 264.602 364.417 267.953 361.083 268.127C357.749 268.3 355.943 268.387 355.666 268.387C349.623 268.387 344.067 264.949 338.997 258.073C336.476 252.77 335.193 246.963 335.246 241.092C335.403 233.509 336.959 226.021 339.834 219.004C345.599 203.863 354.489 192.299 366.504 184.312C372.755 180.7 378.867 178.895 384.84 178.895C386.166 178.895 387.49 179 388.799 179.208C396.022 180.249 401.266 184.52 404.531 192.021ZM485.896 192.021C472.195 195.652 459.996 203.529 451.047 214.521C441.914 225.633 437.035 237.233 436.41 249.321C436.41 250.987 436.792 251.96 437.556 252.238C438.087 252.461 438.649 252.602 439.223 252.655C439.622 252.629 440.012 252.523 440.37 252.344C440.728 252.165 441.047 251.917 441.307 251.613C451.307 239.181 462.836 222.408 475.895 201.294C482.285 204.141 486.626 207.162 488.918 210.358C491.21 213.553 492.356 216.574 492.356 219.422C492.287 222.039 491.721 224.62 490.689 227.027L476.52 268.491L469.852 264.532C469.435 264.254 469.053 263.976 468.706 263.699C466.556 262.413 464.636 260.776 463.028 258.855C461.629 257.018 460.911 254.753 460.996 252.446C460.995 251.819 461.028 251.193 461.096 250.571C461.513 247.098 463.353 242.167 466.618 235.777L453.908 258.072C449.602 264.6 445.782 267.951 442.448 268.125C439.114 268.298 437.308 268.385 437.031 268.385C430.988 268.385 425.432 264.947 420.362 258.071C417.841 252.768 416.558 246.961 416.611 241.09C416.768 233.508 418.322 226.021 421.196 219.004C426.961 203.863 435.851 192.299 447.866 184.312C454.117 180.7 460.229 178.895 466.202 178.895C467.528 178.895 468.852 179 470.161 179.208C477.384 180.249 482.629 184.52 485.896 192.021Z" fill="url(#paint0_linear_157_6624)"/>
<path d="M247.993 281.938L248.293 281.688H248.593C248.793 281.488 248.893 281.355 248.893 281.288C248.888 281.142 248.836 281.002 248.743 280.888C248.65 280.775 248.598 280.635 248.593 280.488C248.574 280.178 248.656 279.87 248.826 279.61C248.997 279.349 249.246 279.151 249.538 279.043C249.421 278.655 249.37 278.249 249.388 277.843C249.407 277.5 249.559 277.177 249.812 276.943C250.195 276.434 250.459 275.846 250.586 275.221C250.654 274.851 250.835 274.511 251.103 274.248C251.372 273.984 251.715 273.81 252.086 273.748V273.548L251.886 272.999C251.939 272.67 252.077 272.36 252.286 272.099V271.599C252.271 271.408 252.33 271.219 252.451 271.07C252.572 270.921 252.745 270.824 252.935 270.799C253.368 270.699 253.584 270.583 253.584 270.45C253.676 269.879 253.979 269.362 254.433 269.002L254.233 268.202C254.233 267.936 254.533 267.569 255.133 267.102C256.232 266.004 256.781 265.171 256.781 264.602V264.102C256.781 263.803 257.264 263.254 258.229 262.455C258.227 262.442 258.228 262.428 258.233 262.415C258.237 262.402 258.244 262.39 258.254 262.38C258.264 262.371 258.275 262.363 258.289 262.359C258.302 262.355 258.315 262.353 258.329 262.355L259.029 262.455C259.166 261.973 259.266 261.48 259.329 260.982C259.396 260.466 260.045 259.676 261.277 258.611L261.377 258.262C261.614 257.906 261.881 257.571 262.177 257.262L262.626 257.162C262.924 256.663 263.191 256.146 263.426 255.614C263.559 255.281 263.726 255.098 263.926 255.065C264.151 255.017 264.354 254.894 264.5 254.716C264.708 254.503 264.98 254.363 265.274 254.316C265.707 253.75 266.114 253.168 266.497 252.569C266.914 251.937 267.469 251.408 268.12 251.021C268.253 249.79 268.603 249.174 269.169 249.174L269.869 249.274C270.486 248.11 271.399 247.129 272.516 246.429L274.363 245.081H274.663C274.97 244.875 275.227 244.601 275.413 244.281L276.113 243.781C276.18 243.149 276.48 242.833 277.013 242.833H277.462C277.867 242.276 278.381 241.807 278.973 241.455C279.566 241.103 280.224 240.875 280.907 240.786C281.161 240.867 281.42 240.934 281.681 240.986C281.86 241.04 282.024 241.137 282.159 241.267C282.294 241.397 282.395 241.558 282.455 241.735L282.955 242.635C283.088 243.102 283.222 243.335 283.355 243.335L284.004 242.735C285.976 242.393 287.85 241.627 289.496 240.489C289.856 240.588 290.224 240.655 290.596 240.689C290.795 240.701 290.986 240.77 291.145 240.889H291.345C291.6 240.804 291.843 240.687 292.069 240.54C292.295 240.394 292.538 240.277 292.793 240.191L294.44 240.291L295.94 240.591L298.04 240.491C299.028 240.631 299.95 241.066 300.686 241.739C301.052 242.505 301.443 242.946 301.859 243.062C302.275 243.179 302.857 244.094 303.606 245.808C304.152 246.867 304.531 248.004 304.729 249.178V250.027L304.529 251.627L304.629 252.775C304.653 253.234 304.511 253.686 304.229 254.048C303.929 254.478 303.787 254.999 303.829 255.521C303.708 256.948 303.292 258.333 302.606 259.589C302.007 260.652 301.593 261.808 301.383 263.009C300.583 265.106 299.967 266.154 299.536 266.154L298.436 268.999C298.271 269.525 297.948 269.987 297.511 270.322C297.161 270.538 296.853 270.746 296.586 270.946L296.686 272.394C296.686 272.728 296.236 273.244 295.337 273.942C295.07 274.542 294.796 275.133 294.513 275.714C294.26 276.26 293.873 276.732 293.388 277.087C292.467 278.225 291.679 279.465 291.039 280.781C290.755 281.034 290.454 281.268 290.139 281.481C289.413 282.366 288.737 283.291 288.115 284.252C287.703 284.949 287.17 285.566 286.54 286.074L285.84 286.823C285.532 287.162 285.133 287.405 284.69 287.523C284.762 287.68 284.796 287.851 284.79 288.023C284.778 288.386 284.667 288.738 284.469 289.042C284.27 289.346 283.992 289.589 283.665 289.745C283.135 290.023 282.654 290.385 282.241 290.818L280.081 292.868C279.774 293.122 279.511 293.427 279.306 293.768C279.028 294.189 278.701 294.574 278.332 294.916L277.632 296.016C275.399 297.514 274.233 298.262 274.132 298.262C273.88 298.579 273.677 298.932 273.532 299.31L272.583 299.61C272.391 300.091 272.087 300.519 271.695 300.858C271.304 301.197 270.837 301.437 270.333 301.557L269.833 301.757C269.728 301.922 269.569 302.045 269.384 302.106C269.168 302.197 268.96 302.306 268.761 302.43C268.306 302.652 267.829 302.827 267.339 302.954L266.239 303.303L265.739 303.203C265.733 303.355 265.698 303.503 265.634 303.641C265.57 303.778 265.48 303.902 265.369 304.004C265.257 304.106 265.126 304.185 264.984 304.237C264.841 304.288 264.69 304.311 264.539 304.303H263.991C263.708 304.473 263.406 304.607 263.091 304.703L262.891 304.803C262.792 305.07 262.657 305.322 262.491 305.552L260.945 305.452C260.621 305.645 260.267 305.781 259.897 305.852C259.728 305.833 259.561 305.8 259.397 305.752L258.897 306.252C258.647 306.088 258.379 305.953 258.097 305.852L257.748 305.952C257.163 306.119 256.561 306.22 255.953 306.252L255.305 306.052C254.788 305.751 254.235 305.515 253.659 305.352L251.764 305.452C251.697 305.452 251.473 305.244 251.09 304.828C250.603 304.326 250.059 303.882 249.469 303.505C248.522 302.703 247.798 301.67 247.369 300.505C246.871 299.583 246.518 298.59 246.321 297.56L246.021 294.715L246.121 293.866L245.821 291.12C245.869 290.155 246.219 289.23 246.821 288.474C246.764 288.094 246.731 287.711 246.721 287.326V286.626L246.821 285.478C246.834 285.204 246.909 284.936 247.038 284.694C247.168 284.452 247.349 284.242 247.57 284.078L247.47 282.83C247.686 282.56 247.863 282.259 247.993 281.938ZM272.401 292.568L272.501 292.318V291.718C272.501 291.152 272.917 290.819 273.75 290.718C274.191 290.227 274.569 289.682 274.874 289.096C275.224 288.448 275.499 288.123 275.699 288.123H276.199C276.399 288.123 276.499 288.057 276.499 287.923L276.399 287.123C276.775 286.576 277.202 286.067 277.674 285.6C278.323 284.918 278.964 284.211 279.597 283.478C280.199 282.786 280.75 282.051 281.246 281.278C281.655 280.626 282.105 280.001 282.595 279.406C282.944 279.001 283.27 278.576 283.57 278.133C283.925 277.687 284.378 277.328 284.894 277.085L285.094 276.885V275.885C285.438 275.251 285.82 274.639 286.238 274.051C287.405 273.153 288.038 272.396 288.138 271.78C288.245 271.147 288.502 270.548 288.887 270.033C289.222 269.601 289.492 269.122 289.687 268.61C290.253 268.277 290.536 268.044 290.536 267.91L290.936 267.21C291.164 266.742 291.365 266.26 291.538 265.768L292.387 264.968C292.824 264.406 293.116 263.745 293.238 263.043C293.243 262.794 293.312 262.551 293.439 262.337C293.566 262.122 293.746 261.944 293.962 261.82C294.346 261.652 294.538 261.502 294.538 261.368C294.494 261.161 294.427 260.96 294.338 260.768V260.518C294.387 260.088 294.602 259.693 294.938 259.418C295.469 258.414 295.926 257.374 296.308 256.304C296.479 255.742 296.741 255.211 297.082 254.732L296.882 253.384C296.982 253.001 297.19 252.653 297.482 252.384C297.215 251.419 297.082 250.903 297.082 250.836C297.18 250.333 297.348 249.845 297.582 249.388L297.482 248.388L297.682 247.739C297.619 247.076 297.295 246.465 296.782 246.039C296.782 245.007 295.849 244.491 293.982 244.491L293.082 244.591L291.134 244.291C289.721 245.012 288.202 245.501 286.634 245.739C286.37 245.776 286.117 245.865 285.889 246.003C285.661 246.141 285.464 246.323 285.309 246.539C285.075 246.846 284.797 247.115 284.484 247.339L283.984 247.139H283.784C283.551 247.139 283.401 247.414 283.334 247.963C283.303 248.231 283.201 248.486 283.038 248.701C282.875 248.916 282.658 249.084 282.409 249.186C281.504 249.726 280.673 250.382 279.938 251.137C279.118 251.852 278.389 252.665 277.767 253.558C277.438 254.118 277.005 254.609 276.492 255.006C275.947 255.465 275.583 256.103 275.467 256.806C275.305 257.569 274.989 258.29 274.538 258.925L273.838 260.025V260.768C273.838 260.968 273.605 261.202 273.138 261.468L273.338 262.068L273.238 262.668L273.338 263.517L273.138 264.717L273.638 267.017C273.638 269.58 272.689 270.861 270.79 270.861C270.205 270.899 269.623 270.76 269.118 270.461C268.574 269.845 268.257 269.062 268.218 268.24C268.064 267.491 267.956 266.732 267.894 265.969C267.894 265.936 268.035 265.395 268.318 264.347C268.462 263.655 268.708 262.988 269.047 262.368C269.218 262.173 269.323 261.928 269.347 261.668C269.345 261.63 269.334 261.593 269.317 261.558C269.3 261.524 269.276 261.493 269.247 261.468C269.913 261.028 270.4 260.364 270.62 259.596C270.833 258.812 271.161 258.064 271.593 257.375C273.052 255.545 274.294 253.552 275.293 251.435C275.945 250.819 276.627 250.237 277.338 249.69C277.477 249.219 277.756 248.8 278.138 248.49L278.838 247.542L279.988 246.542C280.451 246.272 280.858 245.917 281.188 245.494C280.265 245.63 279.389 245.991 278.638 246.545L277.038 247.793C276.684 248.129 276.279 248.407 275.838 248.617C275.447 248.818 275.125 249.132 274.913 249.517C274.626 249.966 274.283 250.376 273.893 250.738C273.462 251.143 273.069 251.586 272.718 252.061C272.449 252.469 272.101 252.817 271.693 253.084C271.16 253.218 270.811 253.7 270.647 254.532C270.38 254.956 270.079 255.357 269.747 255.732L269.447 256.581C269.266 256.837 269.057 257.072 268.825 257.281C268.483 257.618 268.175 257.986 267.903 258.381C267.491 258.667 267.056 258.917 266.603 259.13C266.674 259.357 266.707 259.593 266.703 259.83C266.467 260.412 266.16 260.962 265.789 261.468C265.262 262.257 264.826 263.103 264.489 263.989C264.36 264.532 264.055 265.017 263.622 265.368C263.104 265.878 262.749 266.529 262.601 267.24C262.205 268.379 261.633 269.448 260.907 270.41C260.408 271.036 259.966 271.706 259.586 272.41C259.262 273.027 258.877 273.61 258.438 274.15C258.115 274.804 257.865 275.49 257.691 276.197L256.891 276.997L255.745 280.791C255.745 280.891 255.578 281.091 255.245 281.391C255.203 282.111 254.921 282.797 254.445 283.338C254.439 283.632 254.371 283.922 254.245 284.187L253.845 285.587L252.996 286.535V286.735L253.196 287.235V287.435C253.113 287.927 252.926 288.395 252.647 288.808C252.252 289.572 252.046 290.42 252.047 291.279C252.068 291.976 251.958 292.67 251.723 293.326C251.54 293.693 251.43 294.091 251.399 294.499C251.383 294.812 251.333 295.122 251.249 295.423L251.449 296.223L251.249 297.771C251.308 297.936 251.384 298.095 251.474 298.245C251.576 298.407 251.652 298.584 251.699 298.769L251.449 299.418C251.42 299.443 251.396 299.474 251.379 299.508C251.362 299.543 251.352 299.58 251.349 299.618C251.324 300.151 251.477 300.676 251.786 301.111C252.094 301.546 252.538 301.866 253.049 302.018C253.905 302.389 254.818 302.608 255.749 302.667C256.76 302.562 257.751 302.309 258.689 301.918C259.69 301.635 260.622 301.151 261.43 300.495C261.826 300.071 262.311 299.738 262.85 299.522C263.339 299.337 263.8 299.085 264.22 298.773C264.953 297.84 265.51 297.34 265.889 297.273C266.56 297.012 267.152 296.582 267.609 296.025L268.209 295.725C268.574 295.059 268.79 294.725 268.857 294.725L269.557 294.276C270.024 293.41 270.357 292.976 270.557 292.976L271.307 293.076C271.345 293.074 271.383 293.064 271.417 293.047C271.451 293.029 271.482 293.006 271.507 292.976C271.788 292.805 272.088 292.669 272.401 292.568ZM301.828 280.291L302.577 280.091L302.877 279.442C304.192 278.733 305.375 277.804 306.377 276.696C306.486 276.523 306.642 276.385 306.826 276.296C307.116 276.111 307.37 275.874 307.575 275.596C308.142 275.005 308.825 274.536 309.58 274.218C310.336 273.9 311.148 273.741 311.968 273.749C313.968 273.749 315.033 274.964 315.163 277.393L315.463 278.142C315.912 279.059 316.288 280.011 316.586 280.987C316.921 281.841 317.164 282.728 317.31 283.633C317.292 284.596 316.997 285.533 316.461 286.333C315.187 287.429 314.062 288.688 313.116 290.077L312.616 290.426C312.33 291.061 311.979 291.664 311.568 292.226C310.901 292.459 310.568 292.709 310.568 292.975V293.875C310.526 294.025 310.449 294.162 310.343 294.275C310.102 294.639 309.893 295.023 309.719 295.423L309.319 296.023C309.129 296.267 308.993 296.548 308.919 296.847C308.792 297.251 308.598 297.631 308.345 297.97C308.143 298.194 308.013 298.472 307.971 298.77C307.971 299.27 308.62 299.519 309.918 299.519C310.178 299.447 310.429 299.346 310.667 299.219L311.367 299.419C311.555 299.348 311.725 299.237 311.867 299.095C312.232 298.835 312.65 298.656 313.09 298.571C313.603 298.453 314.092 298.251 314.538 297.971C315.008 297.679 315.512 297.444 316.038 297.271C316.651 297.054 317.218 296.724 317.71 296.298C318.177 295.89 318.708 295.561 319.282 295.325C319.819 295.112 320.311 294.799 320.73 294.401C321.203 293.967 321.713 293.575 322.253 293.228C323.223 292.511 324.127 291.707 324.953 290.828C325.437 290.386 325.994 290.031 326.6 289.78C326.949 289.38 327.243 288.935 327.474 288.457C327.99 287.575 328.581 287.134 329.246 287.134C329.945 287.134 330.294 287.468 330.294 288.134C330.286 288.334 330.237 288.529 330.151 288.709C330.065 288.89 329.944 289.05 329.794 289.182V289.482L329.894 290.282C329.97 290.419 330.004 290.575 329.994 290.731C329.994 290.865 329.869 291.065 329.62 291.331C329.359 291.62 329.178 291.973 329.096 292.354C329.036 292.569 328.914 292.762 328.745 292.908C328.577 293.055 328.369 293.149 328.148 293.178C327.948 293.912 327.69 294.328 327.374 294.426C326.868 294.663 326.417 295.004 326.051 295.426C325.299 296.149 324.497 296.817 323.651 297.426C322.896 297.957 322.187 298.55 321.53 299.198C321.147 299.614 320.889 299.822 320.756 299.822C320.61 299.786 320.473 299.718 320.356 299.622C320.239 299.527 320.102 299.459 319.956 299.422C319.756 299.422 319.623 299.656 319.556 300.122L319.356 300.622C319.125 300.788 318.873 300.922 318.607 301.022L318.307 300.922H318.107C317.707 300.922 317.507 301.072 317.507 301.371L317.807 301.871V301.971C317.807 302.438 317.54 302.671 317.007 302.671C316.641 302.671 315.576 303.287 313.813 304.518L312.365 304.818L311.165 305.467C310.937 305.309 310.684 305.191 310.416 305.118L309.616 305.368L308.168 305.468C308.135 305.468 307.527 305.135 306.346 304.468C305.43 304.066 304.681 303.359 304.225 302.468C303.978 301.772 303.677 301.096 303.325 300.446C303.048 300.014 302.862 299.53 302.776 299.023C302.717 297.869 302.853 296.713 303.176 295.603C303.382 295.11 303.549 294.6 303.676 294.08C303.777 293.681 303.974 293.313 304.25 293.007C304.643 292.448 304.907 291.809 305.024 291.135C305.588 289.899 306.257 288.713 307.024 287.591C307.411 287.12 307.7 286.576 307.873 285.991L308.522 285.091C308.662 284.851 308.763 284.589 308.822 284.317C308.955 283.868 309.122 283.61 309.322 283.543C309.509 283.27 309.645 282.965 309.722 282.643C309.722 281.678 309.289 281.195 308.422 281.195C308.255 281.195 308.072 281.37 307.873 281.719C307.524 282.186 307.047 282.542 306.5 282.742C306.028 282.932 305.583 283.184 305.177 283.491C304.853 283.753 304.491 283.964 304.103 284.115C303.537 284.379 303.047 284.783 302.68 285.288L301.831 285.688C301.564 286.32 301.331 286.67 301.131 286.736C300.931 286.803 300.315 286.97 299.284 287.236C299.092 287.413 298.923 287.615 298.784 287.836C298.653 288.016 298.48 288.161 298.279 288.257C298.079 288.353 297.857 288.397 297.635 288.385C297.203 288.823 296.802 289.291 296.435 289.785C296.068 289.868 295.716 290.003 295.387 290.185L294.387 290.435C294.052 290.708 293.758 291.027 293.513 291.383C293.29 291.624 293.013 291.809 292.705 291.922C292.397 292.035 292.066 292.073 291.74 292.032C291.241 292.032 290.991 291.632 290.991 290.832C290.961 290.095 291.101 289.36 291.399 288.685C291.698 288.01 292.147 287.413 292.713 286.938C293.418 286.225 294.284 285.691 295.238 285.382C295.444 285.385 295.647 285.331 295.823 285.225C296 285.119 296.144 284.965 296.238 284.782C296.338 284.587 296.475 284.414 296.642 284.273C296.809 284.131 297.002 284.024 297.211 283.958C297.904 283.605 298.517 283.112 299.011 282.51C299.607 281.82 300.373 281.295 301.232 280.987L301.828 280.291ZM326.711 334.753L325.911 335.302C325.596 335.497 325.233 335.601 324.863 335.602C324.357 335.543 323.872 335.362 323.451 335.075C323.03 334.788 322.683 334.404 322.442 333.955C321.701 332.977 321.29 331.788 321.269 330.56C321.177 329.044 321.389 327.525 321.893 326.092C322.218 325.469 322.461 324.806 322.617 324.12C322.617 324.087 322.975 323.263 323.69 321.649C324.226 320.355 324.904 319.125 325.712 317.98C326.29 317.23 326.824 316.447 327.312 315.634L327.512 315.234C327.873 314.589 328.366 314.028 328.96 313.587C328.96 313.387 329.601 312.697 330.882 311.515C332.032 310.443 333.24 309.435 334.501 308.495L335.001 307.795C335.43 307.482 335.902 307.229 336.401 307.046L339.301 306.246C339.918 305.696 340.564 305.18 341.238 304.701H341.638L342.986 304.301C344.085 303.866 345.229 303.556 346.398 303.377C347.94 303.095 348.816 302.761 349.027 302.377C349.238 301.993 349.416 301.636 349.561 301.304C349.706 300.971 350.07 300.271 350.653 299.204C350.786 298.638 350.903 298.189 351.002 297.856C351.041 297.626 351.155 297.415 351.326 297.256C351.58 296.974 351.776 296.643 351.9 296.283C352.128 295.772 352.395 295.28 352.7 294.81C352.714 294.812 352.728 294.811 352.741 294.807C352.754 294.803 352.766 294.795 352.775 294.786C352.785 294.776 352.792 294.764 352.797 294.751C352.801 294.738 352.802 294.724 352.8 294.71L352.5 293.861C352.623 293.3 352.91 292.787 353.324 292.388C353.607 292.205 353.748 292.08 353.748 292.014L353.399 291.114L354.248 289.267C354.252 289.24 354.25 289.212 354.241 289.186C354.232 289.16 354.218 289.136 354.198 289.117C354.179 289.098 354.155 289.083 354.129 289.074C354.103 289.066 354.075 289.063 354.048 289.067C353.114 289.836 352.069 290.458 350.948 290.914C350.609 291.339 350.241 291.74 349.848 292.114C349.591 292.192 349.354 292.327 349.156 292.508C348.957 292.69 348.802 292.913 348.701 293.162L348.301 293.262L348.001 293.762C348.001 293.829 347.885 293.912 347.652 294.012C347.17 294.252 346.703 294.519 346.252 294.812L345.652 294.712C345.519 294.712 345.352 295.046 345.152 295.712C344.74 296.266 344.178 296.691 343.532 296.935C343.161 297.002 342.82 297.186 342.561 297.459L342.161 297.959L341.661 297.859C340.963 297.859 340.614 298.126 340.614 298.659C340.554 299.072 340.34 299.447 340.014 299.707C339.662 299.731 339.321 299.834 339.014 300.007H338.266C338.106 300.366 337.857 300.677 337.543 300.913C337.229 301.149 336.861 301.301 336.472 301.355L335.026 302.355L334.179 302.655C333.761 302.866 333.36 303.108 332.979 303.379C332.354 303.726 331.65 303.906 330.935 303.903C330.255 303.557 329.534 303.297 328.79 303.129C327.825 302.88 327.142 301.258 326.743 298.262H326.643C326.329 298.278 326.026 298.382 325.769 298.562C325.571 298.714 325.34 298.817 325.095 298.862C324.295 298.862 323.895 298.529 323.895 297.862C323.824 297.254 323.95 296.639 324.257 296.108C324.563 295.577 325.032 295.16 325.595 294.917L326.87 293.368L330.065 290.223C332.3 287.993 333.8 286.562 334.565 285.93C335.366 285.273 336.201 284.656 337.065 284.083L339.616 282.383C340.116 282.021 340.652 281.711 341.216 281.459C341.445 281.395 341.658 281.285 341.842 281.135C342.419 280.814 343.032 280.562 343.668 280.386L344.568 279.986C345.726 279.528 346.935 279.21 348.168 279.038L348.868 279.138C349.254 279.131 349.626 278.99 349.919 278.738C350.725 278.58 351.47 278.199 352.071 277.638L353.871 277.138C354.273 276.991 354.695 276.906 355.122 276.888H356.071C356.77 276.888 357.227 277.437 357.444 278.535C357.661 279.633 357.852 280.182 358.018 280.182C358.085 280.182 358.285 279.933 358.618 279.433L359.318 278.933C359.598 278.707 359.921 278.537 360.266 278.433C360.594 278.393 360.926 278.472 361.202 278.655C361.477 278.839 361.677 279.115 361.766 279.433V279.533L361.966 279.783C362.176 280.755 362.326 281.738 362.415 282.728C362.493 284.055 362.134 285.37 361.392 286.472C360.908 287.053 360.498 287.691 360.169 288.372C359.705 290.464 359.036 292.504 358.169 294.462C358.002 294.828 357.602 295.795 356.969 297.362L356.469 297.862C356.409 297.887 356.358 297.928 356.323 297.982C356.287 298.035 356.268 298.098 356.269 298.162L356.369 298.862C355.903 299.491 355.61 300.232 355.52 301.009C355.376 301.671 355.104 302.298 354.72 302.856C354.998 303.053 355.29 303.228 355.595 303.38C356.269 303.804 356.861 304.346 357.343 304.98C357.839 305.46 358.178 306.077 358.316 306.752C358.316 306.852 358.133 307.501 357.767 308.699C356.916 309.454 355.851 309.925 354.72 310.047C354.187 309.965 353.686 309.741 353.269 309.398L352.969 309.498V309.298C352.61 309.227 352.264 309.101 351.943 308.924C351.726 308.785 351.476 308.707 351.218 308.699C351.164 308.692 351.108 308.697 351.056 308.714C351.004 308.732 350.957 308.761 350.918 308.8C350.879 308.838 350.85 308.886 350.833 308.938C350.815 308.99 350.81 309.045 350.818 309.099C350.819 309.239 350.854 309.376 350.918 309.499C350.718 309.666 350.451 309.916 350.118 310.248C349.932 310.761 349.698 311.254 349.418 311.721C349.112 312.383 348.688 312.984 348.167 313.493C347.434 313.527 346.934 314.076 346.667 315.14C346.554 315.9 346.225 316.61 345.719 317.187L345.219 316.987C344.402 318.81 343.256 320.467 341.838 321.874C341.139 322.041 340.782 322.166 340.765 322.248C340.748 322.331 340.715 322.547 340.665 322.897C340.416 323.542 340.002 324.11 339.465 324.544C338.714 325.294 338.271 325.668 338.138 325.668L337.638 325.768L337.338 326.068C337.371 326.735 336.489 327.8 334.692 329.263C333.727 329.797 333.211 330.163 333.144 330.363C332.877 330.995 331.896 331.744 330.199 332.609L329.251 333.458C328.875 333.821 328.434 334.109 327.951 334.307L326.711 334.753ZM343.838 293.168L344.438 292.319C344.704 292.012 345.063 291.801 345.461 291.719C345.942 291.588 346.359 291.286 346.634 290.87C347.352 289.807 348.332 288.946 349.479 288.37L349.979 288.021C350.478 287.056 350.928 286.532 351.327 286.449C351.556 286.383 351.768 286.268 351.948 286.113C352.129 285.958 352.275 285.766 352.375 285.549C352.629 285.169 352.784 284.732 352.824 284.276C352.824 284.143 352.724 284.076 352.524 284.076C352.083 284.068 351.652 284.209 351.301 284.476C351.098 284.669 350.848 284.807 350.577 284.876L349.577 284.776C348.977 285.11 348.144 285.51 347.077 285.976L346.177 286.725C345.854 286.957 345.49 287.127 345.104 287.225C344.942 287.263 344.791 287.34 344.665 287.448C344.539 287.557 344.441 287.695 344.38 287.849C344.213 288.199 343.997 288.373 343.731 288.373L343.331 288.573C342.978 288.756 342.577 288.825 342.183 288.773C341.806 289.01 341.462 289.295 341.16 289.622C340.811 289.988 340.603 290.171 340.536 290.171C340.003 290.828 339.329 291.357 338.564 291.719C338.338 291.782 338.127 291.889 337.943 292.035C337.76 292.181 337.607 292.362 337.495 292.568C336.847 292.744 336.281 293.142 335.895 293.691C335.579 294.158 335.182 294.565 334.722 294.891C334.369 295.111 334.056 295.39 333.798 295.715L333.298 296.115C332.935 296.494 332.654 296.945 332.474 297.438C332.205 297.926 332.028 298.459 331.95 299.01C331.95 299.21 332.066 299.31 332.299 299.31C332.964 299.192 333.599 298.946 334.171 298.586C334.808 298.289 335.405 297.914 335.948 297.468C336.215 297.202 336.398 297.068 336.497 297.068L338.397 297.168C338.491 296.958 338.633 296.772 338.81 296.625C338.987 296.478 339.196 296.373 339.42 296.319C339.89 296.193 340.291 295.887 340.538 295.468C341.145 294.806 341.922 294.322 342.784 294.068L343.333 293.168H343.838ZM344.73 309.092L343.23 309.292C342.991 309.081 342.696 308.942 342.381 308.892C342.248 308.892 342.148 308.992 342.081 309.192C341.359 309.903 340.437 310.374 339.438 310.542C338.453 310.747 337.514 311.128 336.665 311.668C336.322 311.984 335.899 312.199 335.442 312.292C335.109 312.326 334.942 312.392 334.942 312.492C334.67 312.701 334.42 312.936 334.193 313.192C333.828 313.345 333.49 313.556 333.193 313.816C332.897 314.081 332.535 314.262 332.145 314.34C331.545 315.638 331.112 316.287 330.845 316.287C330.676 316.268 330.509 316.235 330.345 316.187H330.245C330.026 316.755 329.684 317.267 329.245 317.687C329.003 317.829 328.797 318.026 328.645 318.261C328.379 318.598 328.048 318.879 327.672 319.085C327.415 319.26 327.197 319.486 327.03 319.747C326.862 320.009 326.75 320.302 326.699 320.608C326.619 321.137 326.404 321.635 326.075 322.056C325.746 322.55 325.58 323.135 325.601 323.728L325.301 324.428C325.107 324.988 324.965 325.565 324.877 326.15C324.694 327.099 324.602 327.59 324.602 327.623C324.606 327.862 324.662 328.098 324.765 328.313C324.869 328.529 325.018 328.719 325.202 328.871C325.436 328.659 325.736 328.536 326.051 328.522L328.996 327.322C329.096 327.256 329.463 326.948 330.096 326.398C330.582 325.941 331.149 325.577 331.768 325.325C332.277 325.141 332.732 324.831 333.091 324.425C333.349 324.034 333.679 323.694 334.064 323.425C334.239 323.314 334.39 323.168 334.506 322.996C334.622 322.824 334.701 322.63 334.738 322.425C335.503 321.759 336.203 321.135 336.838 320.553C337.327 320.146 337.741 319.656 338.061 319.105C338.258 318.707 338.56 318.371 338.935 318.132L339.135 317.483C339.272 317.428 339.414 317.387 339.559 317.358C339.775 317.308 340.133 316.768 340.632 315.736L341.98 313.49C342.827 312.617 343.489 311.581 343.927 310.445L344.627 309.845C344.76 309.779 344.827 309.629 344.827 309.396L344.73 309.092ZM404.189 291.62L404.989 290.92C405.197 290.946 405.407 290.89 405.575 290.764C405.742 290.639 405.855 290.453 405.889 290.246C405.967 289.994 406.105 289.765 406.291 289.578C406.478 289.391 406.707 289.252 406.959 289.173C407.677 288.812 408.274 288.248 408.676 287.551C409.209 286.736 409.757 286.328 410.318 286.328C410.518 286.328 410.751 286.495 411.018 286.828C411.231 287.047 411.371 287.327 411.418 287.628C411.389 288.828 411.044 289.999 410.418 291.023L410.218 292.423L409.869 293.072C409.467 293.251 409.128 293.547 408.896 293.921C408.594 294.372 408.193 294.748 407.724 295.021L407.224 295.721C406.909 295.795 406.613 295.936 406.357 296.134C406.1 296.332 405.889 296.582 405.738 296.868C405.656 297.096 405.516 297.299 405.333 297.457C405.149 297.614 404.928 297.722 404.69 297.768C404.1 297.925 403.581 298.278 403.218 298.768C402.833 298.954 402.431 299.105 402.018 299.217L401.918 299.717C401.47 300.112 400.929 300.387 400.346 300.517C399.795 300.656 399.259 300.848 398.746 301.091C398.525 301.229 398.28 301.323 398.023 301.366C397.42 301.373 396.823 301.245 396.276 300.992C395.756 300.746 395.2 300.586 394.629 300.518C394.444 300.346 394.322 300.118 394.28 299.869C394.19 299.526 394.019 299.209 393.78 298.945C393.459 298.485 393.303 297.929 393.338 297.368L393.538 296.42C393.512 296.231 393.424 296.055 393.288 295.92C393.152 295.786 393.064 295.61 393.038 295.42C393.034 295.366 393.041 295.312 393.058 295.26C393.075 295.209 393.102 295.161 393.138 295.12C393.174 295.08 393.201 295.032 393.218 294.981C393.236 294.929 393.242 294.875 393.238 294.82C393.234 294.633 393.201 294.448 393.138 294.271C393.079 294.111 393.045 293.942 393.038 293.771L393.338 291.325C393.338 291.125 393.271 291.025 393.138 291.025C393.005 291.025 392.763 291.192 392.414 291.525C392.253 291.685 392.062 291.812 391.853 291.898C391.643 291.983 391.418 292.027 391.191 292.025C390.848 292.361 390.619 292.796 390.538 293.268C390.253 293.618 389.916 293.922 389.538 294.168L389.338 294.468C389.271 294.701 389.022 294.892 388.589 295.042C388.238 295.138 387.924 295.338 387.689 295.616L387.189 296.116L386.241 296.016C386.037 296.294 385.853 296.586 385.691 296.89C385.404 297.392 385.013 297.826 384.543 298.163L380.748 301.263C380.183 301.626 379.6 301.96 379.001 302.263L378.701 302.563C376.038 304.327 374.158 305.209 373.059 305.209C371.972 305.166 370.903 304.912 369.913 304.46C368.713 303.961 368.064 303.361 367.966 302.66L367.466 300.613C367.135 300.02 366.979 299.345 367.017 298.666C366.998 298.396 367.032 298.124 367.117 297.866V297.566L367.017 295.919C367.017 295.519 367.333 295.319 367.965 295.319L367.865 293.971C368.088 293.412 368.382 292.884 368.739 292.399C369.056 291.824 369.451 291.295 369.912 290.827L370.412 290.178C370.423 289.927 370.492 289.681 370.613 289.46C370.734 289.239 370.905 289.049 371.112 288.905C371.571 288.503 371.975 288.041 372.312 287.532C372.775 286.913 373.352 286.388 374.012 285.984L375.512 284.484C376.624 283.358 377.907 282.413 379.312 281.684C379.77 281.417 380.183 281.08 380.536 280.684C381.133 280.098 381.849 279.646 382.636 279.361C383.433 279.072 384.203 278.713 384.936 278.288C385.466 277.931 386.075 277.708 386.711 277.639H387.111C388.023 277.287 388.908 276.87 389.76 276.391H390.06C390.396 276.471 390.717 276.606 391.009 276.791H391.109L391.909 276.391C392.066 276.32 392.237 276.286 392.409 276.291C394.476 276.291 395.609 277.722 395.809 280.584C395.876 281.184 396.042 281.484 396.309 281.484C396.642 281.484 397.117 280.877 397.733 279.662C398.349 278.448 399.656 277.84 401.654 277.84C403.085 277.84 403.801 278.756 403.801 280.586C403.758 281.753 403.478 282.898 402.98 283.953C402.481 285.009 401.774 285.952 400.901 286.726C400.761 287.012 400.66 287.314 400.601 287.626L399.901 289.673V289.773C399.848 290.085 399.7 290.373 399.477 290.597C399.236 290.849 399.087 291.175 399.053 291.521L399.153 292.769L398.953 294.169C398.924 294.39 398.939 294.615 398.999 294.829C399.059 295.044 399.162 295.244 399.302 295.417C400.2 295.248 401.015 294.782 401.617 294.094C401.88 293.683 402.228 293.333 402.638 293.068L403.138 292.868C403.415 292.397 403.769 291.976 404.186 291.622L404.189 291.62ZM387.612 291.62C387.673 291.266 387.815 290.931 388.028 290.641C388.24 290.351 388.517 290.114 388.836 289.948C389.37 289.715 389.804 289.3 390.059 288.775C391.024 288.007 391.933 287.172 392.78 286.275C393.962 285.075 394.553 284.342 394.553 284.075C394.553 283.975 394.486 283.925 394.353 283.925H394.253L393.853 284.175L392.953 284.075L392.004 284.175L391.304 283.826L390.655 283.926L389.655 283.726C389.177 283.713 388.704 283.825 388.282 284.05C387.579 284.377 386.841 284.62 386.082 284.774C385.025 285.029 384.031 285.496 383.161 286.147C382.628 286.639 381.971 286.975 381.261 287.12C380.641 287.995 379.841 288.727 378.915 289.267C378.525 289.395 378.176 289.624 377.904 289.931C377.632 290.238 377.447 290.612 377.367 291.014C376.5 291.713 376.067 292.113 376.067 292.214L375.718 293.063C375.422 293.313 375.083 293.508 374.718 293.637C374.512 293.725 374.336 293.871 374.211 294.057C374.087 294.243 374.02 294.461 374.018 294.685C373.949 295.242 373.714 295.764 373.344 296.185C373.042 296.472 372.841 296.848 372.77 297.258C372.77 298.889 373.086 299.704 373.718 299.704C374.298 299.613 374.862 299.437 375.39 299.18C375.909 299.002 376.404 298.758 376.863 298.456C377.099 298.269 377.371 298.133 377.663 298.056L378.612 297.556C378.733 297.43 378.89 297.343 379.061 297.306C379.258 297.254 379.433 297.141 379.561 296.982C379.824 296.732 380.129 296.529 380.461 296.382C380.869 296.189 381.215 295.886 381.461 295.508C382.027 295.175 382.942 294.659 384.207 293.96L385.255 293.16C385.761 292.979 386.221 292.689 386.603 292.311C386.878 292.004 387.223 291.768 387.609 291.622L387.612 291.62ZM453.965 294.72H454.165L454.665 294.92C454.703 294.918 454.741 294.908 454.775 294.891C454.809 294.873 454.84 294.85 454.865 294.82C454.87 294.532 454.945 294.249 455.085 293.997C455.224 293.744 455.424 293.53 455.665 293.372C455.742 293.066 455.882 292.78 456.076 292.53C456.27 292.281 456.513 292.075 456.791 291.924C457.375 291.591 458.301 291.042 459.568 290.277L460.818 289.177L461.418 288.877L461.818 288.377C461.936 288.2 462.092 288.05 462.273 287.938C462.454 287.826 462.658 287.755 462.869 287.728C463.369 287.728 463.619 287.911 463.619 288.277L463.169 289.277L463.369 290.924C463.372 291.518 463.149 292.09 462.744 292.524C462.327 292.991 461.686 293.673 460.82 294.571L458.27 297.271L456.921 297.971C456.593 298.167 456.291 298.402 456.021 298.671L454.071 300.318C454.085 300.516 454.052 300.714 453.973 300.897C453.895 301.079 453.775 301.24 453.622 301.366H452.822L452.422 301.566C451.976 302.403 451.251 303.057 450.372 303.413L449.672 303.913C449.498 304.087 449.267 304.194 449.022 304.213L447.622 304.013L446.673 304.213C446.287 304.172 445.917 304.034 445.598 303.813C445.165 303.555 444.704 303.345 444.224 303.189C443.757 303.039 443.166 302.424 442.45 301.342C441.961 300.693 441.566 299.979 441.275 299.22C441.243 298.984 441.167 298.755 441.05 298.546C440.95 298.366 440.874 298.173 440.825 297.972C440.944 297.626 441.095 297.291 441.275 296.972V296.872C441.222 296.626 441.129 296.389 441 296.172C440.805 295.751 440.711 295.289 440.725 294.824C440.7 294.426 440.599 294.036 440.425 293.676C440.692 293.41 440.825 293.21 440.825 293.076C440.809 292.878 440.758 292.684 440.675 292.502C440.592 292.321 440.541 292.127 440.525 291.928L440.825 289.482L440.625 288.234L440.725 287.034C440.725 286.336 440.425 285.986 439.825 285.986C439.44 286.047 439.088 286.242 438.831 286.535L438.483 286.635C437.821 286.933 437.188 287.292 436.593 287.708C436.271 287.976 435.867 288.125 435.448 288.132C435.114 288.401 434.722 288.589 434.304 288.681L433.904 288.981C433.655 289.204 433.387 289.404 433.104 289.581C432.547 290.207 431.922 290.768 431.239 291.253C429.996 292.269 428.876 293.225 427.881 294.123C427.279 294.77 426.54 295.274 425.717 295.596C425.269 295.68 425.045 296.104 425.045 296.869C425.045 297.003 424.745 297.269 424.145 297.669C423.754 297.993 423.404 298.362 423.101 298.769C422.827 298.532 422.525 298.331 422.201 298.169C421.767 298.169 421.45 298.718 421.25 299.816C421.05 300.249 420.517 300.516 419.65 300.616C419.484 300.84 419.365 301.095 419.299 301.365L419.099 301.565H418.599C418.335 301.716 418.098 301.91 417.899 302.139C417.604 302.452 417.245 302.699 416.848 302.863C416.414 303.762 416.047 304.211 415.748 304.211C415.544 304.189 415.347 304.12 415.172 304.011C414.877 303.861 414.567 303.744 414.247 303.662C413.88 303.562 413.473 303.155 413.024 302.439C412.638 301.905 412.405 301.275 412.35 300.617C412.35 296.923 413.066 294.91 414.497 294.577L414.597 294.377V293.977C414.586 293.783 414.636 293.59 414.738 293.425C414.841 293.26 414.992 293.13 415.171 293.053C415.645 292.787 416.048 292.41 416.344 291.953C416.56 291.605 416.83 291.293 417.144 291.029H417.793C417.926 291.029 417.993 290.68 417.993 289.981C417.995 289.878 418.018 289.776 418.061 289.681C418.104 289.587 418.166 289.502 418.243 289.432C418.424 289.233 418.53 288.977 418.543 288.708C418.683 288.151 418.928 287.625 419.267 287.16C419.555 286.772 419.782 286.343 419.941 285.887L419.841 285.687C419.344 286.235 418.728 286.661 418.041 286.935C417.675 287.002 417.175 287.485 416.541 288.383L415.741 288.233C414.923 288.885 414.054 289.47 413.141 289.98C412.671 290.248 412.289 290.647 412.041 291.128C412.041 291.328 411.924 291.462 411.69 291.528C411.222 291.734 410.784 292.003 410.39 292.328H410.09C409.255 292.328 408.838 291.728 408.838 290.528L409.886 287.683C410.276 286.683 411.034 285.871 412.005 285.412C412.982 284.883 413.923 284.292 414.823 283.64C415.48 283.116 416.28 282.802 417.118 282.74L417.467 282.24C417.97 282.077 418.434 281.81 418.829 281.458C419.224 281.106 419.541 280.675 419.761 280.193C420.161 279.26 420.71 278.793 421.407 278.793C422.219 278.751 423.029 278.914 423.761 279.267C424.493 279.621 425.124 280.153 425.596 280.815C426.378 281.727 426.88 282.845 427.042 284.035L427.142 285.383C427.114 286.041 427.013 286.694 426.842 287.33C426.529 287.72 426.322 288.185 426.242 288.678C426.242 288.945 426.409 289.078 426.742 289.078C427.048 289.028 427.328 288.879 427.542 288.654C427.89 288.361 428.266 288.101 428.664 287.88C428.958 287.755 429.209 287.546 429.387 287.28C429.541 286.896 429.777 286.549 430.078 286.265C430.379 285.98 430.739 285.765 431.132 285.633C431.687 285.475 432.21 285.222 432.678 284.884L433.178 284.484L433.578 283.735C434.242 283.486 434.853 283.113 435.378 282.635C435.695 282.292 436.117 282.064 436.578 281.986C437.206 281.821 437.788 281.513 438.278 281.086L439.026 280.886L439.726 280.486C439.909 280.367 440.113 280.283 440.326 280.236C440.659 280.136 441.15 279.962 441.797 279.712C442.734 279.267 443.804 279.192 444.793 279.502C445.783 279.812 446.619 280.484 447.134 281.384C447.934 282.316 448.446 283.461 448.605 284.679L448.505 285.579L448.705 286.927V287.127L448.305 289.873L448.405 290.821C448.47 291.402 448.415 291.99 448.243 292.548C448.071 293.106 447.786 293.623 447.405 294.066C447.238 294.133 447.155 294.3 447.155 294.566V295.015L448.155 297.115C448.455 297.849 448.688 298.215 448.855 298.215L450.455 297.766C450.709 297.681 450.942 297.543 451.14 297.363C451.338 297.182 451.497 296.963 451.606 296.718C452.121 296.379 452.592 295.976 453.006 295.518C453.21 294.984 453.529 294.717 453.962 294.717L453.965 294.72ZM484.438 262.268L484.138 260.321V260.021C484.138 258.457 484.671 257.591 485.738 257.421C486.45 257.245 487.151 257.029 487.838 256.772C488.629 257.057 489.293 257.614 489.71 258.344C490.273 259.034 490.612 259.878 490.683 260.765C490.655 260.922 490.605 261.073 490.533 261.214C490.4 261.643 490.333 262.089 490.333 262.537C490.308 262.875 490.207 263.203 490.039 263.498C489.871 263.792 489.639 264.044 489.36 264.237C488.805 264.698 488.109 264.954 487.388 264.961C486.703 264.851 486.077 264.507 485.616 263.988C485.042 263.563 484.627 262.957 484.438 262.268ZM462.873 287.228L463.673 286.528H463.973C464.206 286.528 464.555 286.279 465.022 285.779L465.522 285.579C465.918 284.836 466.527 284.227 467.271 283.832L468.071 283.232C468.237 283.079 468.432 282.96 468.645 282.883C469.096 282.627 469.501 282.299 469.845 281.91C470.174 281.487 470.644 281.195 471.169 281.086C471.439 281.078 471.709 281.112 471.969 281.186C472.259 280.696 472.673 280.292 473.169 280.013C473.74 279.658 474.233 279.191 474.619 278.64L475.269 278.34C475.796 278.079 476.277 277.733 476.693 277.317C476.907 277.108 477.161 276.945 477.441 276.838C477.72 276.731 478.018 276.682 478.317 276.693C479.475 276.782 480.556 277.31 481.338 278.168C481.779 278.506 482.145 278.931 482.416 279.416C482.686 279.901 482.854 280.436 482.91 280.988L482.061 284.882C481.495 287.744 480.862 289.242 480.161 289.375L479.961 290.423C479.494 290.757 479.261 291.023 479.261 291.223L479.561 292.423C479.561 292.59 479.378 292.84 479.012 293.172C478.945 293.172 478.912 293.272 478.912 293.472V295.519C478.912 295.885 478.679 296.185 478.212 296.419C478.301 296.501 478.402 296.569 478.512 296.619C478.913 296.366 479.389 296.259 479.86 296.319L480.66 296.419L481.76 295.319C482.102 295.201 482.428 295.042 482.732 294.845C483.414 294.471 484.122 294.146 484.851 293.872L491.382 288.88C492.279 287.982 492.961 287.532 493.426 287.532C493.925 287.532 494.174 287.848 494.174 288.48C494.198 289.115 494.051 289.744 493.75 290.302C493.435 290.858 493.175 291.443 492.976 292.049C492.83 292.587 492.547 293.078 492.153 293.472C491.852 293.722 491.591 294.017 491.38 294.346C490.921 294.892 490.372 295.356 489.758 295.719C488.954 296.255 488.202 296.865 487.512 297.541C487.047 298.028 486.537 298.471 485.99 298.864L483.838 300.408L483.538 300.908C483.247 301.084 482.938 301.226 482.615 301.332C482.088 301.536 481.592 301.814 481.142 302.156L480.242 302.656C479.943 302.817 479.609 302.903 479.269 302.906C478.819 302.94 478.399 303.146 478.096 303.48C477.763 303.83 477.496 304.004 477.296 304.004L476.547 303.904L475.547 304.204C474.762 304.104 474.032 303.744 473.475 303.181C473.121 302.934 472.827 302.611 472.616 302.235C472.404 301.859 472.28 301.44 472.252 301.009V300.709L472.352 300.009C472.292 299.658 472.192 299.315 472.052 298.986C471.929 298.686 471.829 298.378 471.752 298.062L471.852 297.362L471.752 297.062C471.704 296.488 471.772 295.91 471.952 295.362C472.108 295.058 472.21 294.729 472.252 294.389C472.319 293.973 472.385 293.632 472.452 293.366L472.702 292.118C472.778 291.805 472.954 291.524 473.202 291.318C473.269 291.052 473.402 290.602 473.602 289.97L473.802 289.07L474.302 288.37C474.58 288.079 474.747 287.699 474.776 287.297C474.846 286.791 475.025 286.306 475.3 285.874C475.495 285.599 475.646 285.296 475.749 284.974C475.761 284.893 475.754 284.81 475.728 284.731C475.702 284.653 475.658 284.582 475.6 284.524C475.541 284.465 475.47 284.422 475.392 284.396C475.314 284.37 475.231 284.362 475.149 284.374C474.691 284.568 474.268 284.839 473.901 285.174L473.001 284.874C472.934 284.874 472.751 285.041 472.452 285.374C472.452 285.508 472.302 285.608 472.003 285.674C471.819 285.737 471.649 285.835 471.503 285.964C471.358 286.092 471.239 286.249 471.154 286.423L470.754 286.523L470.105 286.223H469.905C469.572 286.223 469.372 286.59 469.305 287.323C468.965 287.837 468.451 288.209 467.857 288.371L466.757 288.671C466.564 288.75 466.391 288.872 466.252 289.028C466.114 289.184 466.013 289.37 465.957 289.571C465.754 290.084 465.407 290.526 464.957 290.844C464.674 291.113 464.331 291.31 463.957 291.418C463.024 291.418 462.557 290.902 462.557 289.87L462.957 287.524L462.873 287.228ZM498.123 290.073V289.573C498.313 288.799 498.652 288.07 499.123 287.426C499.627 286.475 500.435 285.719 501.418 285.279C501.432 285.281 501.446 285.28 501.459 285.276C501.472 285.272 501.483 285.264 501.493 285.255C501.503 285.245 501.51 285.233 501.515 285.22C501.519 285.207 501.52 285.193 501.518 285.179L501.418 284.379C501.551 284.246 501.885 283.813 502.418 283.079C502.951 282.346 503.467 282.03 503.964 282.131C504.333 281.597 504.81 281.146 505.364 280.808C505.952 280.439 506.474 279.975 506.91 279.435L508.755 278.287C509.578 277.621 510.556 277.174 511.598 276.987H512.347C512.495 276.689 512.723 276.438 513.006 276.261C513.288 276.084 513.614 275.99 513.947 275.987C514.385 275.934 514.828 276.04 515.194 276.287C515.219 276.317 515.25 276.34 515.284 276.358C515.318 276.375 515.356 276.385 515.394 276.387C515.606 276.274 515.807 276.14 515.994 275.987C516.388 275.712 516.861 275.572 517.341 275.587C518.106 275.803 518.856 276.07 519.585 276.387C519.727 276.217 519.902 276.076 520.099 275.973C520.296 275.87 520.511 275.807 520.732 275.787C520.985 275.834 521.224 275.937 521.432 276.087C521.761 276.285 522.103 276.46 522.455 276.611C522.804 276.761 523.145 277.377 523.478 278.458C523.685 279.054 523.852 279.663 523.978 280.28C523.978 280.814 523.538 281.438 522.658 282.152C521.984 282.782 521.113 283.161 520.193 283.225C519.926 283.225 519.593 282.992 519.193 282.525C518.323 282.363 517.472 282.112 516.653 281.776C515.904 281.911 515.181 282.164 514.511 282.525H514.411L513.963 282.125L513.563 282.025H513.463C513.312 282.248 513.178 282.482 513.063 282.725C512.645 283.033 512.184 283.277 511.694 283.449C511.343 283.547 511.025 283.736 510.772 283.998C510.43 284.323 510.034 284.585 509.601 284.772C509.091 285.005 508.664 285.389 508.38 285.872C507.927 286.147 507.441 286.365 506.935 286.521H506.635C506.096 287.454 505.48 288.339 504.792 289.167L503.497 291.314C503.198 291.581 502.831 291.889 502.397 292.238C501.963 292.588 501.747 292.896 501.748 293.162C501.767 293.332 501.801 293.499 501.848 293.662V294.162C501.848 294.362 501.69 294.604 501.374 294.886C501.058 295.169 500.9 295.377 500.9 295.51L501 296.61L500.6 298.357C500.6 299.389 501.349 299.905 502.846 299.905H503.595L505.739 299.556C506.437 299.456 507.019 299.356 507.484 299.256C507.748 299.192 508.015 299.142 508.284 299.106C508.575 298.962 508.845 298.777 509.084 298.557H509.584L510.032 298.457C510.165 297.759 511.113 297.176 512.874 296.71C513.37 296.045 514.085 295.577 514.893 295.387C515.975 295.016 516.954 294.393 517.747 293.568H518.495C518.833 293.431 519.145 293.237 519.418 292.994C519.913 292.624 520.45 292.314 521.018 292.07C521.396 291.943 521.744 291.739 522.04 291.47C522.246 291.258 522.504 291.103 522.788 291.021C523.259 290.191 524.024 289.568 524.932 289.274L525.132 289.074C525.665 288.608 525.999 288.374 526.132 288.374L526.732 288.474C527.065 288.474 527.273 288.266 527.355 287.85C527.437 287.434 527.97 286.868 528.955 286.15C529.497 285.667 530.134 285.302 530.825 285.077C531.457 285.077 531.773 285.411 531.773 286.077C531.773 286.577 531.49 286.86 530.924 286.926C531.147 287.393 531.33 287.877 531.473 288.374C531.501 288.87 531.35 289.359 531.048 289.753C530.745 290.147 530.312 290.42 529.826 290.521C529.766 290.546 529.715 290.587 529.68 290.641C529.644 290.694 529.625 290.757 529.626 290.821L529.526 291.721C529.559 291.721 529.559 291.746 529.526 291.796C529.466 291.877 529.399 291.952 529.326 292.021L528.577 292.121L528.377 292.421C527.439 292.984 526.582 293.673 525.831 294.468L524.831 295.516H524.681C524.482 295.26 524.199 295.083 523.881 295.016C523.748 295.016 523.581 295.25 523.381 295.716C522.694 296.511 521.865 297.172 520.936 297.663C520.545 297.87 520.19 298.14 519.888 298.463L518.888 299.112H518.138C518.022 299.236 517.929 299.38 517.863 299.536C517.631 299.868 517.334 300.148 516.99 300.36C516.59 300.635 516.229 300.962 515.917 301.333C515.68 301.631 515.357 301.848 514.993 301.957L514.093 301.757C513.922 302.032 513.676 302.253 513.385 302.394C513.093 302.536 512.768 302.592 512.446 302.557C512.133 302.789 511.84 303.048 511.572 303.331C511.189 303.714 510.931 303.905 510.798 303.905C510.414 303.773 510.059 303.569 509.75 303.305H509.65C509.317 303.305 509.15 303.555 509.15 304.054C509.15 304.554 508.842 304.82 508.227 304.854C507.622 304.885 507.032 305.056 506.505 305.354H506.405C505.824 305.407 505.242 305.257 504.758 304.93C504.484 304.688 504.182 304.478 503.858 304.306C502.827 304.64 502.278 304.806 502.211 304.806C501.779 304.792 501.368 304.613 501.063 304.306L498.917 303.206C498.612 302.798 498.376 302.343 498.217 301.858L497.917 301.458C496.85 301.258 496.135 300.16 495.77 298.163L495.37 296.963C495.285 296.83 495.25 296.671 495.27 296.514C495.318 295.988 495.453 295.473 495.67 294.991C496 294.096 496.267 293.178 496.47 292.245C496.531 291.771 496.715 291.321 497.005 290.94C497.295 290.559 497.679 290.261 498.12 290.075L498.123 290.073Z" fill="url(#paint1_linear_157_6624)"/>
<path d="M218.115 178.958L170.468 167.493C171.92 168.501 268.187 166.812 313.975 158.795C318.813 158.12 323.292 155.866 326.716 152.383C329.573 149.43 333.287 147.279 336.741 144.954C337.518 144.431 338.802 144.656 339.852 144.537C339.627 145.634 339.718 146.963 339.115 147.78C337.615 149.818 335.801 151.625 334.106 153.517C333.857 153.794 333.556 154.024 333.307 154.3C329.337 158.723 329.374 159.232 333.632 163.393C334.775 164.51 336.597 165.878 335.297 167.491C333.955 169.156 332.107 167.878 330.726 166.83C325.386 162.775 319.344 162.302 312.999 163.228C299.743 165.156 286.509 167.328 273.21 168.934C247.863 171.995 222.367 173.662 196.837 173.928C196.24 173.899 195.647 174.043 195.129 174.342L218.115 178.958Z" fill="url(#paint2_linear_157_6624)"/>
<path d="M525.779 85.7102C520.921 88.7232 516.073 91.7558 511.203 94.7465C503.956 99.194 496.441 103.262 489.513 108.161C484.121 111.974 479.445 116.798 474.466 121.187C471.008 124.237 466.89 124.96 462.517 124.404C458.065 123.841 456.283 120.478 458.549 116.597C461.732 111.146 466.216 107.897 472.981 107.518C477.283 107.278 481.594 105.693 485.729 104.226C499.104 99.4444 511.975 93.3568 524.156 86.0511C524.597 85.7867 525.052 85.541 525.501 85.284L525.779 85.7102Z" fill="url(#paint3_linear_157_6624)"/>
<path d="M439.024 155.472C434.245 156.559 429.481 157.712 424.686 158.719C412.353 161.238 399.807 162.567 387.22 162.687C380.675 162.791 375.859 159.39 372.034 154.486C370.11 152.028 370.921 149.629 373.933 148.711C379.772 146.927 385.323 147.346 390.059 151.72C394.118 155.444 399.313 157.693 404.807 158.104C413.613 158.957 422.287 157.826 430.943 156.384C433.599 155.942 436.256 155.501 438.914 155.062L439.024 155.472Z" fill="url(#paint4_linear_157_6624)"/>
<path d="M463.328 145.025C458.19 146.71 453.074 148.464 447.908 150.062C436.02 153.67 423.814 156.128 411.456 157.4C405.145 158.086 400.123 155.303 396.073 150.732C393.923 148.301 394.412 146.139 397.344 144.797C402.378 142.494 407.945 141.861 412.313 145.302C420.279 151.581 429.079 152.062 438.253 150.393C446.178 148.951 453.96 146.734 461.808 144.862C462.266 144.752 462.73 144.662 463.19 144.562L463.328 145.025Z" fill="url(#paint5_linear_157_6624)"/>
<path d="M510.348 115.246C501.545 119.919 492.898 124.928 483.887 129.161C475.944 132.801 467.82 136.031 459.546 138.837C453.848 140.828 448.472 139.09 443.854 135.357C441.729 133.639 441.736 131.471 443.9 129.872C448.913 126.173 454.478 124.287 460.447 127.202C468.202 130.988 475.861 129.831 483.262 126.854C491.687 123.464 499.814 119.331 508.065 115.513C508.737 115.205 509.383 114.843 510.037 114.502L510.348 115.246Z" fill="url(#paint6_linear_157_6624)"/>
<path d="M486.652 132.716C486.168 132.971 485.696 133.255 485.195 133.477C469.094 140.753 452.143 145.982 434.741 149.044C428.556 150.096 423.446 147.656 419.256 143.257C417.251 141.155 417.607 138.936 420.197 137.518C425.429 134.655 431.075 133.8 436.151 137.302C442.58 141.738 449.424 142.258 456.719 141.141C466.09 139.707 475.003 136.662 483.858 133.415C484.747 133.089 485.626 132.751 486.511 132.418L486.652 132.716Z" fill="url(#paint7_linear_157_6624)"/>
<path d="M439.827 103.266C437.931 104.229 436.014 105.158 434.137 106.157C425.166 110.91 416.234 115.715 408.569 122.523C404.895 125.948 401.95 130.079 399.909 134.669C397.397 139.914 392.978 142.799 387.557 144.179C384.039 145.073 382.395 143.408 383.359 139.921C385.08 133.677 388.253 128.108 394.131 125.121C408.963 117.576 424.006 110.441 438.97 103.151C439.177 103.069 439.392 103.006 439.61 102.963L439.827 103.266Z" fill="url(#paint8_linear_157_6624)"/>
<path d="M462.586 98.2734C461.97 98.5951 461.359 98.9271 460.737 99.2356C451.033 104.048 441.374 108.93 432.919 115.834C428.86 119.164 425.578 123.339 423.301 128.069C422.108 130.494 420.391 132.624 418.274 134.304C416.157 135.984 413.693 137.172 411.06 137.782C409.73 138.143 407.656 137.922 406.769 137.079C406.028 136.373 406.076 134.201 406.543 132.968C408.904 126.654 412.495 121.208 418.838 118.214C432.952 111.561 447.106 104.995 461.248 98.401C461.627 98.2222 462.036 98.1044 462.431 97.9582L462.586 98.2734Z" fill="url(#paint9_linear_157_6624)"/>
<path d="M490.121 90.2365C486.056 92.2318 481.949 94.1482 477.93 96.2374C470.175 100.271 462.4 104.371 456.338 110.829C453.815 113.682 451.588 116.784 449.691 120.086C448.32 122.365 446.486 124.329 444.307 125.853C442.128 127.377 439.653 128.425 437.043 128.931C433.473 129.724 431.891 127.957 433.185 124.53C435.584 118.157 439.232 112.523 445.621 109.586C459.863 103.033 474.246 96.7761 488.572 90.4048C489.045 90.1953 489.552 90.0631 490.043 89.8942L490.121 90.2365Z" fill="url(#paint10_linear_157_6624)"/>
<path d="M390.97 165.468C381.1 167.389 371.6 168.779 361.982 166.552C357.542 165.525 353.718 163.484 351.658 159.088C349.855 155.246 350.992 152.967 355.222 152.519C360.364 151.978 365.029 152.866 368.208 157.608C369.464 159.48 371.11 161.059 373.031 162.237C374.953 163.415 377.106 164.166 379.344 164.437C383.021 164.986 386.761 165.111 390.97 165.468Z" fill="url(#paint11_linear_157_6624)"/>
<path d="M394.262 121.738C391.208 123.831 388.067 125.81 385.12 128.042C381.1 130.993 378.264 135.282 377.123 140.136C375.801 145.67 371.857 148.659 366.859 150.45C363.13 151.784 361.261 150.204 361.519 146.219C361.828 141.377 364.519 137.876 368.046 134.903C375.734 128.428 384.902 124.852 394.262 121.738Z" fill="url(#paint12_linear_157_6624)"/>
<path d="M363.213 132.371C359.106 136.049 356.253 140.92 355.053 146.3C353.987 150.767 350.481 153.376 346.232 154.793C343.959 155.553 342.612 154.612 342.258 152.235C342.041 150.556 342.191 148.85 342.696 147.234C343.2 145.619 344.048 144.131 345.181 142.874C349.854 137.145 356.16 134.125 363.213 132.371Z" fill="url(#paint13_linear_157_6624)"/>
<path d="M362.141 170.162C353.608 171.436 345.811 171.694 339.244 166.142C337.506 164.672 336.373 162.224 335.55 160.002C334.821 158.025 335.95 156.682 338.091 156.409C342.435 155.849 346.581 156.88 349.197 160.369C354.307 167.169 354.911 166.757 362.141 170.162Z" fill="url(#paint14_linear_157_6624)"/>
</g>
<defs>
<linearGradient id="paint0_linear_157_6624" x1="246.176" y1="119.095" x2="246.176" y2="320.165" gradientUnits="userSpaceOnUse">
<stop stop-color="#4CAF50"/>
<stop offset="1" stop-color="white"/>
</linearGradient>
<linearGradient id="paint1_linear_157_6624" x1="388.797" y1="240.191" x2="388.797" y2="335.602" gradientUnits="userSpaceOnUse">
<stop stop-color="#4CAF50"/>
<stop offset="1" stop-color="white"/>
</linearGradient>
<linearGradient id="paint2_linear_157_6624" x1="292.321" y1="111.225" x2="225.737" y2="206.229" gradientUnits="userSpaceOnUse">
<stop stop-color="#4CAF50"/>
<stop offset="1" stop-color="white"/>
</linearGradient>
<linearGradient id="paint3_linear_157_6624" x1="510.568" y1="74.8187" x2="470.929" y2="131.378" gradientUnits="userSpaceOnUse">
<stop stop-color="#4CAF50"/>
<stop offset="1" stop-color="white"/>
</linearGradient>
<linearGradient id="paint4_linear_157_6624" x1="415.323" y1="138.528" x2="392.881" y2="170.55" gradientUnits="userSpaceOnUse">
<stop stop-color="#4CAF50"/>
<stop offset="1" stop-color="white"/>
</linearGradient>
<linearGradient id="paint5_linear_157_6624" x1="440.989" y1="129.002" x2="415.585" y2="165.25" gradientUnits="userSpaceOnUse">
<stop stop-color="#4CAF50"/>
<stop offset="1" stop-color="white"/>
</linearGradient>
<linearGradient id="paint6_linear_157_6624" x1="491.643" y1="101.611" x2="460.007" y2="146.75" gradientUnits="userSpaceOnUse">
<stop stop-color="#4CAF50"/>
<stop offset="1" stop-color="white"/>
</linearGradient>
<linearGradient id="paint7_linear_157_6624" x1="465.358" y1="117.593" x2="437.836" y2="156.863" gradientUnits="userSpaceOnUse">
<stop stop-color="#4CAF50"/>
<stop offset="1" stop-color="white"/>
</linearGradient>
<linearGradient id="paint8_linear_157_6624" x1="428.835" y1="95.411" x2="391.281" y2="148.993" gradientUnits="userSpaceOnUse">
<stop stop-color="#4CAF50"/>
<stop offset="1" stop-color="white"/>
</linearGradient>
<linearGradient id="paint9_linear_157_6624" x1="451.564" y1="90.3424" x2="414.83" y2="142.755" gradientUnits="userSpaceOnUse">
<stop stop-color="#4CAF50"/>
<stop offset="1" stop-color="white"/>
</linearGradient>
<linearGradient id="paint10_linear_157_6624" x1="478.735" y1="81.9693" x2="441.952" y2="134.452" gradientUnits="userSpaceOnUse">
<stop stop-color="#4CAF50"/>
<stop offset="1" stop-color="white"/>
</linearGradient>
<linearGradient id="paint11_linear_157_6624" x1="375.049" y1="154.31" x2="364.155" y2="169.853" gradientUnits="userSpaceOnUse">
<stop stop-color="#4CAF50"/>
<stop offset="1" stop-color="white"/>
</linearGradient>
<linearGradient id="paint12_linear_157_6624" x1="388.222" y1="117.505" x2="364.383" y2="151.519" gradientUnits="userSpaceOnUse">
<stop stop-color="#4CAF50"/>
<stop offset="1" stop-color="white"/>
</linearGradient>
<linearGradient id="paint13_linear_157_6624" x1="360.44" y1="130.428" x2="343.465" y2="154.649" gradientUnits="userSpaceOnUse">
<stop stop-color="#4CAF50"/>
<stop offset="1" stop-color="white"/>
</linearGradient>
<linearGradient id="paint14_linear_157_6624" x1="350.955" y1="160.993" x2="344.628" y2="170.019" gradientUnits="userSpaceOnUse">
<stop stop-color="#4CAF50"/>
<stop offset="1" stop-color="white"/>
</linearGradient>
</defs>
</svg>
