<svg width="83" height="84" viewBox="0 0 83 84" fill="none" xmlns="http://www.w3.org/2000/svg">
<path d="M76.1785 19.9967V7.13438C76.1785 6.21959 75.8151 5.34226 75.1682 4.69541C74.5213 4.04855 73.644 3.68515 72.7292 3.68515C71.8144 3.68515 70.9371 4.04855 70.2903 4.69541C69.6434 5.34226 69.28 6.21959 69.28 7.13438V15.2805L51.3114 3.21996C48.4651 1.28845 45.1045 0.255859 41.6647 0.255859C38.2249 0.255859 34.8643 1.28845 32.018 3.21996L7.8712 19.5122C5.53325 21.0924 3.61928 23.2227 2.29754 25.7159C0.975805 28.2091 0.28678 30.9889 0.291035 33.8107V65.8078C0.295575 70.3809 2.11426 74.7655 5.34796 77.9992C8.58167 81.2329 12.9662 83.0516 17.5393 83.0561H27.8849C28.7946 83.0561 29.667 82.6947 30.3102 82.0515C30.9535 81.4083 31.3148 80.5359 31.3148 79.6262V52.0109C31.3205 51.1029 31.6836 50.2338 32.3257 49.5917C32.9677 48.9497 33.8368 48.5865 34.7448 48.5809H48.5417C49.4497 48.5865 50.3188 48.9497 50.9608 49.5917C51.6029 50.2338 51.966 51.1029 51.9717 52.0109V79.5919C51.9717 80.5016 52.333 81.374 52.9763 82.0172C53.6195 82.6604 54.4919 83.0218 55.4016 83.0218H65.7514C70.3246 83.0173 74.7091 81.1986 77.9428 77.9649C81.1765 74.7312 82.9952 70.3466 82.9998 65.7735V33.8107C83.0126 31.1368 82.4029 28.4965 81.219 26.0989C80.0351 23.7013 78.3094 21.6121 76.1785 19.9967ZM76.1785 65.7906C76.1802 67.1513 75.9138 68.4989 75.3945 69.7566C74.8752 71.0143 74.1133 72.1573 73.1521 73.1204C72.191 74.0836 71.0495 74.8479 69.793 75.3698C68.5364 75.8916 67.1893 76.1608 65.8286 76.1619H58.9302V52.0109C58.9279 49.2666 57.8367 46.6354 55.8962 44.6949C53.9558 42.7544 51.3246 41.6633 48.5803 41.661H34.7834C32.0391 41.6633 29.4079 42.7544 27.4674 44.6949C25.527 46.6354 24.4358 49.2666 24.4335 52.0109V76.1619H17.5393C14.7951 76.1597 12.1639 75.0685 10.2234 73.128C8.28293 71.1875 7.19177 68.5563 7.1895 65.8121V33.8107C7.18849 32.117 7.60405 30.449 8.39956 28.9536C9.19508 27.4583 10.3461 26.1816 11.7513 25.2359L35.8767 8.93939C37.5835 7.77814 39.6003 7.15716 41.6647 7.15716C43.7291 7.15716 45.7458 7.77814 47.4527 8.93939L71.5995 25.2316C73.0047 26.1773 74.1557 27.454 74.9513 28.9493C75.7468 30.4447 76.1623 32.1127 76.1613 33.8065V65.8035L76.1785 65.7906Z" fill="black"/>
</svg>
