<svg width="100" height="100" viewBox="0 0 100 100" fill="none" xmlns="http://www.w3.org/2000/svg">
<path d="M93.0426 36.4255V38.295C92.9706 38.5372 92.9187 38.7848 92.8872 39.0355C92.6718 41.9785 91.9318 44.8595 90.7022 47.5421C88.67 52.0381 85.9667 56.1994 82.6848 59.8836C80.8683 62.0185 78.9333 64.0498 76.8889 65.9676C74.3566 68.3536 71.7282 70.6482 69.0405 72.856C66.5951 74.8626 64.0811 76.8053 61.4665 78.5925C57.7092 81.1614 53.8376 83.5702 49.998 86.0111C49.8331 86.0898 49.6527 86.1308 49.47 86.1308C49.2873 86.1308 49.1069 86.0898 48.9421 86.0111C48.0279 85.4991 47.1914 84.8867 46.3321 84.3108C43.1324 82.1533 39.8459 80.0689 36.6965 77.8154C33.9539 75.8407 31.2525 73.7565 28.6471 71.5807C26.0417 69.4049 23.6511 67.2382 21.2833 64.9299C19.2216 62.9509 17.2815 60.8491 15.4737 58.6358C13.5317 56.2418 11.7497 53.7222 10.1394 51.0936C6.80906 45.9898 5.41918 39.8612 6.22205 33.8201C6.98023 28.6294 9.35354 23.8092 13.0053 20.0432C15.6496 17.4179 18.855 15.4268 22.3803 14.2199C24.0377 13.6379 25.7657 13.2812 27.5181 13.1594C32.0536 12.6648 36.6299 13.6082 40.6001 15.8563C43.1845 17.1647 45.4645 19.0024 47.292 21.25C47.9822 22.1641 48.7227 23.0509 49.4815 23.9926C50.3957 22.795 51.2458 21.5791 52.224 20.5049C55.076 17.4312 58.71 15.1908 62.7372 14.0233C67.6053 12.4517 72.8778 12.6969 77.579 14.7135C81.5951 16.2753 85.1182 18.8866 87.7804 22.2748C90.4426 25.6631 92.1462 29.7039 92.7134 33.9755C92.8094 34.7891 92.9283 35.6165 93.0426 36.4255Z" stroke="black" stroke-width="6.85642"/>
</svg>
