<svg width="94" height="94" viewBox="0 0 94 94" fill="none" xmlns="http://www.w3.org/2000/svg">
<path d="M70.7121 65.0034L85.1457 79.437C86.7221 81.0134 86.7221 83.5693 85.1457 85.1457C83.5693 86.7221 81.0134 86.7221 79.437 85.1457L65.0034 70.7121C58.7873 75.6853 50.9041 78.6603 42.3302 78.6603C22.2759 78.6603 6 62.3844 6 42.3302C6 22.2759 22.2759 6 42.3302 6C62.3844 6 78.6603 22.2759 78.6603 42.3302C78.6603 50.9041 75.6853 58.7873 70.7121 65.0034ZM62.6133 62.0082C67.5493 56.9212 70.587 49.9821 70.587 42.3302C70.587 26.7183 57.942 14.0734 42.3302 14.0734C26.7183 14.0734 14.0734 26.7183 14.0734 42.3302C14.0734 57.942 26.7183 70.587 42.3302 70.587C49.9821 70.587 56.9212 67.5493 62.0082 62.6133L62.6133 62.0082Z" fill="black"/>
</svg>
