<svg width="60" height="80" viewBox="0 0 60 80" fill="none" xmlns="http://www.w3.org/2000/svg">
<path d="M29.8529 39.8053C33.7892 39.8053 37.6372 38.6381 40.9102 36.4511C44.1832 34.2642 46.7341 31.1558 48.2405 27.5191C49.7469 23.8824 50.1411 19.8806 49.3731 16.0199C48.6052 12.1591 46.7096 8.6128 43.9262 5.82936C41.1427 3.04593 37.5964 1.15038 33.7357 0.382433C29.8749 -0.385516 25.8732 0.00862352 22.2364 1.51501C18.5997 3.02139 15.4913 5.57237 13.3044 8.84535C11.1175 12.1183 9.9502 15.9663 9.9502 19.9027C9.9502 25.1812 12.0471 30.2435 15.7796 33.976C19.512 37.7085 24.5743 39.8053 29.8529 39.8053ZM29.8529 6.63423C32.4771 6.63423 35.0424 7.41241 37.2244 8.87037C39.4064 10.3283 41.107 12.4006 42.1113 14.8251C43.1156 17.2496 43.3783 19.9174 42.8664 22.4912C42.3544 25.065 41.0907 27.4293 39.2351 29.2849C37.3794 31.1405 35.0152 32.4042 32.4414 32.9162C29.8676 33.4281 27.1997 33.1654 24.7752 32.1611C22.3508 31.1569 20.2785 29.4562 18.8206 27.2742C17.3626 25.0922 16.5844 22.5269 16.5844 19.9027C16.5844 16.3837 17.9823 13.0088 20.4707 10.5205C22.959 8.03215 26.3339 6.63423 29.8529 6.63423Z" fill="black"/>
<path d="M29.854 46.4355C21.9389 46.4444 14.3506 49.5926 8.75381 55.1894C3.15701 60.7861 0.00884612 68.3745 0 76.2895C-9.17977e-09 76.7252 0.0857994 77.1565 0.2525 77.5589C0.4192 77.9614 0.663538 78.3271 0.97156 78.6351C1.27958 78.9431 1.64526 79.1875 2.04771 79.3542C2.45016 79.5209 2.8815 79.6067 3.31711 79.6067C3.75272 79.6067 4.18406 79.5209 4.58652 79.3542C4.98897 79.1875 5.35464 78.9431 5.66266 78.6351C5.97069 78.3271 6.21502 77.9614 6.38172 77.5589C6.54842 77.1565 6.63422 76.7252 6.63422 76.2895C6.63422 70.1313 9.08058 64.2252 13.4351 59.8707C17.7897 55.5161 23.6957 53.0698 29.854 53.0698C36.0123 53.0698 41.9183 55.5161 46.2729 59.8707C50.6274 64.2252 53.0738 70.1313 53.0738 76.2895C53.0738 77.1693 53.4233 78.013 54.0453 78.6351C54.6674 79.2572 55.5111 79.6067 56.3909 79.6067C57.2706 79.6067 58.1144 79.2572 58.7364 78.6351C59.3585 78.013 59.708 77.1693 59.708 76.2895C59.6992 68.3745 56.551 60.7861 50.9542 55.1894C45.3574 49.5926 37.7691 46.4444 29.854 46.4355Z" fill="black"/>
</svg>
