<svg width="100" height="100" viewBox="0 0 100 100" fill="none" xmlns="http://www.w3.org/2000/svg">
<path d="M33.4655 89.5619C37.1107 89.5619 40.0658 86.6068 40.0658 82.9616C40.0658 79.3164 37.1107 76.3613 33.4655 76.3613C29.8203 76.3613 26.8652 79.3164 26.8652 82.9616C26.8652 86.6068 29.8203 89.5619 33.4655 89.5619Z" fill="#030303"/>
<path d="M66.4582 89.5619C70.1034 89.5619 73.0585 86.6068 73.0585 82.9616C73.0585 79.3164 70.1034 76.3613 66.4582 76.3613C62.813 76.3613 59.8579 79.3164 59.8579 82.9616C59.8579 86.6068 62.813 89.5619 66.4582 89.5619Z" fill="#030303"/>
<path d="M86.255 20.2673H79.6547V13.6712C79.6547 12.796 79.307 11.9566 78.6881 11.3377C78.0692 10.7188 77.2298 10.3711 76.3546 10.3711C75.4793 10.3711 74.6399 10.7188 74.021 11.3377C73.4021 11.9566 73.0544 12.796 73.0544 13.6712V20.2715H66.4583C65.5831 20.2715 64.7437 20.6192 64.1248 21.2381C63.5059 21.857 63.1582 22.6964 63.1582 23.5716C63.1582 24.4469 63.5059 25.2863 64.1248 25.9052C64.7437 26.5241 65.5831 26.8718 66.4583 26.8718H73.0586V33.4721C73.0586 34.3473 73.4063 35.1867 74.0252 35.8056C74.6441 36.4245 75.4835 36.7722 76.3588 36.7722C77.234 36.7722 78.0734 36.4245 78.6923 35.8056C79.3112 35.1867 79.6589 34.3473 79.6589 33.4721V26.8676H86.2592C87.1344 26.8676 87.9738 26.5199 88.5927 25.901C89.2116 25.2821 89.5593 24.4427 89.5593 23.5675C89.5593 22.6922 89.2116 21.8528 88.5927 21.2339C87.9738 20.615 87.1344 20.2673 86.2592 20.2673H86.255Z" fill="#030303"/>
<path d="M82.1979 42.4618C81.7711 42.3818 81.3327 42.3874 80.908 42.4782C80.4834 42.569 80.081 42.7432 79.7243 42.9908C79.3675 43.2383 79.0635 43.5543 78.8298 43.9202C78.5961 44.2862 78.4375 44.695 78.3631 45.1228C77.9517 47.4061 76.7513 49.4722 74.9715 50.9604C73.1917 52.4485 70.9456 53.2641 68.6256 53.2645H28.2427L25.1431 26.8676H53.2611C54.1364 26.8676 54.9758 26.5199 55.5947 25.901C56.2136 25.2821 56.5613 24.4427 56.5613 23.5675C56.5613 22.6922 56.2136 21.8528 55.5947 21.2339C54.9758 20.615 54.1364 20.2673 53.2611 20.2673H24.3619L24.2241 19.106C23.9397 16.6997 22.7824 14.4813 20.9715 12.8713C19.1606 11.2614 16.8219 10.3717 14.3989 10.3711H13.6678C13.2344 10.3711 12.8053 10.4565 12.4049 10.6223C12.0045 10.7881 11.6407 11.0312 11.3343 11.3377C11.0278 11.6441 10.7847 12.0079 10.6189 12.4083C10.453 12.8087 10.3677 13.2379 10.3677 13.6712C10.3677 14.1046 10.453 14.5337 10.6189 14.9341C10.7847 15.3345 11.0278 15.6983 11.3343 16.0048C11.6407 16.3112 12.0045 16.5543 12.4049 16.7202C12.8053 16.886 13.2344 16.9714 13.6678 16.9714H14.3989C15.2084 16.9722 15.9894 17.2706 16.5932 17.8098C17.1971 18.349 17.5817 19.0913 17.6739 19.8955L22.2148 58.4988C22.6856 62.5136 24.6142 66.2158 27.6344 68.9025C30.6546 71.5893 34.5562 73.0736 38.5985 73.0737H73.0536C73.9288 73.0737 74.7682 72.726 75.3871 72.1071C76.006 71.4882 76.3537 70.6488 76.3537 69.7736C76.3537 68.8983 76.006 68.0589 75.3871 67.44C74.7682 66.8211 73.9288 66.4734 73.0536 66.4734H38.5985C36.5515 66.473 34.5549 65.8381 32.8836 64.6561C31.2123 63.4741 29.9485 61.8031 29.2662 59.8732H68.6256C72.4938 59.8725 76.2388 58.5126 79.2061 56.0309C82.1734 53.5493 84.1742 50.1038 84.8589 46.2966C85.0134 45.4359 84.82 44.5489 84.3211 43.8307C83.8221 43.1124 83.0585 42.6174 82.1979 42.4618Z" fill="#030303"/>
</svg>
