<svg width="100" height="100" viewBox="0 0 100 100" fill="none" xmlns="http://www.w3.org/2000/svg">
<path d="M86.6444 83.2781C78.6149 92.1199 67.6594 97.7603 55.798 99.1593C43.9366 100.558 31.9694 97.6214 22.1032 90.8903C12.237 84.1593 5.1372 74.0879 2.11305 62.5336C-0.911102 50.9792 0.344353 38.721 5.6479 28.0195C10.9514 17.3181 19.9454 8.895 30.9712 4.30366C41.997 -0.287691 54.3111 -0.737691 65.6427 3.03664C76.9742 6.81097 86.559 14.5551 92.6295 24.8409C98.7 35.1267 100.847 47.2606 98.674 59.0049" stroke="#727272" stroke-linecap="round"/>
<path d="M96.6859 66.4522C95.4193 70.0465 93.7418 73.4825 91.6868 76.6919" stroke="#727272" stroke-linecap="round"/>
<path d="M24.3458 17.3793C32.2631 11.1528 42.1748 8.01822 52.2326 8.5601C62.2905 9.10198 71.808 13.2833 79.0105 20.3244C86.2131 27.3655 90.609 36.7858 91.3787 46.8288C92.1483 56.8718 89.2392 66.8519 83.1937 74.9084C77.1482 82.9648 68.379 88.5476 58.5212 90.6157C48.6634 92.6839 38.3899 91.0963 29.6162 86.149C20.8425 81.2016 14.1675 73.2322 10.8359 63.7268C7.5043 54.2213 7.74344 43.8285 11.5087 34.4864" stroke="#727272" stroke-linecap="round"/>
<path d="M86.6444 83.2781C78.6149 92.1199 67.6594 97.7603 55.798 99.1593C43.9366 100.558 31.9694 97.6214 22.1032 90.8903C12.237 84.1593 5.1372 74.0879 2.11305 62.5336C-0.911102 50.9792 0.344353 38.721 5.6479 28.0195C10.9514 17.3181 19.9454 8.895 30.9712 4.30366C41.997 -0.287691 54.3111 -0.737691 65.6427 3.03664C76.9742 6.81097 86.559 14.5551 92.6295 24.8409C98.7 35.1267 100.847 47.2606 98.674 59.0049" stroke="#727272" stroke-linecap="round"/>
<path d="M96.6859 66.4522C95.4193 70.0465 93.7418 73.4825 91.6868 76.6919" stroke="#727272" stroke-linecap="round"/>
<path d="M24.3458 17.3793C32.2631 11.1528 42.1748 8.01822 52.2326 8.5601C62.2905 9.10198 71.808 13.2833 79.0105 20.3244C86.2131 27.3655 90.609 36.7858 91.3787 46.8288C92.1483 56.8718 89.2392 66.8519 83.1937 74.9084C77.1482 82.9648 68.379 88.5476 58.5212 90.6157C48.6634 92.6839 38.3899 91.0963 29.6162 86.149C20.8425 81.2016 14.1675 73.2322 10.8359 63.7268C7.5043 54.2213 7.74344 43.8285 11.5087 34.4864" stroke="#727272" stroke-linecap="round"/>
<path fill-rule="evenodd" clip-rule="evenodd" d="M45.9445 32V41.0007C45.9445 41.7964 46.2606 42.5595 46.8232 43.1221C47.3859 43.6848 48.149 44.0009 48.9447 44.0009C49.7404 44.0009 50.5035 43.6848 51.0662 43.1221C51.6288 42.5595 51.9449 41.7964 51.9449 41.0007V32H45.9445ZM66.946 39.5006H54.9451V32H59.4455C61.434 32.0024 63.3404 32.7934 64.7465 34.1995C66.1527 35.6056 66.9437 37.512 66.946 39.5006ZM38.4439 32H42.9443V39.5006H30.9434C30.9457 37.512 31.7367 35.6056 33.1429 34.1995C34.549 32.7934 36.4554 32.0024 38.4439 32ZM66.946 51.7377V42.5008H54.7321C54.4047 43.7873 53.658 44.928 52.6099 45.7427C51.5618 46.5574 50.2722 46.9997 48.9447 46.9997C47.6172 46.9997 46.3276 46.5574 45.2795 45.7427C44.2314 44.928 43.4847 43.7873 43.1573 42.5008H30.9434V60.5021C30.9457 62.4907 31.7367 64.3971 33.1429 65.8032C34.549 67.2093 36.4554 68.0003 38.4439 68.0027H55.0203C52.6899 66.1543 51.1953 63.2979 51.1953 60.0925C51.1953 54.5196 55.713 50.0019 61.2859 50.0019C63.3837 50.0019 65.332 50.6421 66.946 51.7377Z" fill="#727272"/>
<path fill-rule="evenodd" clip-rule="evenodd" d="M61.2857 67.8607C65.577 67.8607 69.0558 64.3819 69.0558 60.0905C69.0558 55.7992 65.577 52.3204 61.2857 52.3204C56.9944 52.3204 53.5156 55.7992 53.5156 60.0905C53.5156 64.3819 56.9944 67.8607 61.2857 67.8607ZM64.2271 56.2503L61.3206 59.1568L58.4142 56.2503C58.1466 55.9828 57.7129 55.9828 57.4454 56.2503C57.1778 56.5179 57.1778 56.9516 57.4454 57.2192L60.3518 60.1256L57.4454 63.032C57.1778 63.2996 57.1778 63.7333 57.4454 64.0009C57.7129 64.2684 58.1466 64.2684 58.4142 64.0009L61.3206 61.0944L64.2271 64.0009C64.4947 64.2684 64.9284 64.2684 65.1959 64.0009C65.4635 63.7333 65.4635 63.2996 65.1959 63.032L62.2894 60.1256L65.1959 57.2191C65.4635 56.9516 65.4635 56.5179 65.1959 56.2503C64.9284 55.9828 64.4946 55.9828 64.2271 56.2503Z" fill="#727272"/>
</svg>
