<svg width="14" height="14" viewBox="0 0 14 14" fill="none" xmlns="http://www.w3.org/2000/svg">
<path d="M13.6743 0.325691C13.4657 0.117151 13.1828 0 12.8879 0C12.5929 0 12.31 0.117151 12.1014 0.325691L7 5.42709L1.8986 0.325691C1.69 0.117151 1.40711 0 1.11215 0C0.817183 0 0.534294 0.117151 0.325691 0.325691C0.117151 0.534294 0 0.817183 0 1.11215C0 1.40711 0.117151 1.69 0.325691 1.8986L5.42709 7L0.325691 12.1014C0.117151 12.31 0 12.5929 0 12.8879C0 13.1828 0.117151 13.4657 0.325691 13.6743C0.534294 13.8829 0.817183 14 1.11215 14C1.40711 14 1.69 13.8829 1.8986 13.6743L7 8.57291L12.1014 13.6743C12.31 13.8829 12.5929 14 12.8879 14C13.1828 14 13.4657 13.8829 13.6743 13.6743C13.8829 13.4657 14 13.1828 14 12.8879C14 12.5929 13.8829 12.31 13.6743 12.1014L8.57291 7L13.6743 1.8986C13.8829 1.69 14 1.40711 14 1.11215C14 0.817183 13.8829 0.534294 13.6743 0.325691Z" fill="#B7B7B7"/>
</svg>
