<svg width="18" height="18" viewBox="0 0 18 18" fill="none" xmlns="http://www.w3.org/2000/svg">
<path d="M17.1574 0.842525C16.9024 0.587643 16.5567 0.444458 16.1962 0.444458C15.8356 0.444458 15.4899 0.587643 15.2349 0.842525L8.99989 7.07757L2.76485 0.842525C2.50989 0.587643 2.16414 0.444458 1.80363 0.444458C1.44311 0.444458 1.09736 0.587643 0.842403 0.842525C0.587521 1.09748 0.444336 1.44324 0.444336 1.80375C0.444336 2.16426 0.587521 2.51001 0.842403 2.76497L7.07745 9.00002L0.842403 15.2351C0.587521 15.49 0.444336 15.8358 0.444336 16.1963C0.444336 16.5568 0.587521 16.9025 0.842403 17.1575C1.09736 17.4124 1.44311 17.5556 1.80363 17.5556C2.16414 17.5556 2.50989 17.4124 2.76485 17.1575L8.99989 10.9225L15.2349 17.1575C15.4899 17.4124 15.8356 17.5556 16.1962 17.5556C16.5567 17.5556 16.9024 17.4124 17.1574 17.1575C17.4123 16.9025 17.5554 16.5568 17.5554 16.1963C17.5554 15.8358 17.4123 15.49 17.1574 15.2351L10.9223 9.00002L17.1574 2.76497C17.4123 2.51001 17.5554 2.16426 17.5554 1.80375C17.5554 1.44324 17.4123 1.09748 17.1574 0.842525Z" fill="#B7B7B7"/>
</svg>
