<svg width="100" height="100" viewBox="0 0 100 100" fill="none" xmlns="http://www.w3.org/2000/svg">
<path d="M86.6444 83.2781C78.6149 92.1199 67.6594 97.7603 55.798 99.1593C43.9366 100.558 31.9694 97.6214 22.1032 90.8903C12.237 84.1593 5.1372 74.0879 2.11305 62.5336C-0.911102 50.9792 0.344353 38.721 5.6479 28.0195C10.9514 17.3181 19.9454 8.895 30.9712 4.30366C41.997 -0.287691 54.3111 -0.737691 65.6427 3.03664C76.9742 6.81097 86.559 14.5551 92.6295 24.8409C98.7 35.1267 100.847 47.2606 98.674 59.0049" stroke="#727272" stroke-linecap="round"/>
<path d="M96.6859 66.4522C95.4193 70.0465 93.7418 73.4825 91.6868 76.6919" stroke="#727272" stroke-linecap="round"/>
<path d="M24.3458 17.3793C32.2631 11.1528 42.1748 8.01822 52.2326 8.5601C62.2905 9.10198 71.808 13.2833 79.0105 20.3244C86.2131 27.3655 90.609 36.7858 91.3787 46.8288C92.1483 56.8718 89.2392 66.8519 83.1937 74.9084C77.1482 82.9648 68.379 88.5476 58.5212 90.6157C48.6634 92.6839 38.3899 91.0963 29.6162 86.149C20.8425 81.2016 14.1675 73.2322 10.8359 63.7268C7.5043 54.2213 7.74344 43.8285 11.5087 34.4864" stroke="#727272" stroke-linecap="round"/>
<path d="M86.6444 83.2781C78.6149 92.1199 67.6594 97.7603 55.798 99.1593C43.9366 100.558 31.9694 97.6214 22.1032 90.8903C12.237 84.1593 5.1372 74.0879 2.11305 62.5336C-0.911102 50.9792 0.344353 38.721 5.6479 28.0195C10.9514 17.3181 19.9454 8.895 30.9712 4.30366C41.997 -0.287691 54.3111 -0.737691 65.6427 3.03664C76.9742 6.81097 86.559 14.5551 92.6295 24.8409C98.7 35.1267 100.847 47.2606 98.674 59.0049" stroke="#727272" stroke-linecap="round"/>
<path d="M96.6859 66.4522C95.4193 70.0465 93.7418 73.4825 91.6868 76.6919" stroke="#727272" stroke-linecap="round"/>
<path d="M24.3458 17.3793C32.2631 11.1528 42.1748 8.01822 52.2326 8.5601C62.2905 9.10198 71.808 13.2833 79.0105 20.3244C86.2131 27.3655 90.609 36.7858 91.3787 46.8288C92.1483 56.8718 89.2392 66.8519 83.1937 74.9084C77.1482 82.9648 68.379 88.5476 58.5212 90.6157C48.6634 92.6839 38.3899 91.0963 29.6162 86.149C20.8425 81.2016 14.1675 73.2322 10.8359 63.7268C7.5043 54.2213 7.74344 43.8285 11.5087 34.4864" stroke="#727272" stroke-linecap="round"/>
<g clip-path="url(#clip0_1247_10)">
<path d="M43.0001 45C43.0001 46.102 43.2561 47.146 43.7121 48.074C42.7321 49.33 42.1221 50.888 42.0401 52.586C40.1581 50.61 39.0001 47.938 39.0001 45.002C39.0001 38.18 45.2441 32.788 52.3181 34.24C56.4821 35.096 59.8561 38.45 60.7441 42.608C61.0121 43.864 61.0621 45.094 60.9261 46.27C60.8101 47.266 59.9361 48.002 58.9321 48.002H58.8421C57.6581 48.002 56.8261 46.948 56.9561 45.772C57.0441 44.982 56.9981 44.152 56.7961 43.306C56.2001 40.8 54.1561 38.77 51.6461 38.192C47.0741 37.142 42.9981 40.606 42.9981 45.002L43.0001 45ZM35.2201 42.41C35.7681 39.224 37.3261 36.32 39.7421 34.054C42.8001 31.188 46.8041 29.772 51.0021 30.032C58.9081 30.544 65.0901 37.47 64.9981 45.762C64.9601 49.234 62.0521 51.998 58.5821 51.998H53.7701C53.2821 50.34 51.7661 49.12 49.9501 49.12C47.7401 49.12 45.9501 50.91 45.9501 53.12C45.9501 55.33 47.7401 57.12 49.9501 57.12C51.0261 57.12 52.0001 56.69 52.7181 55.998H58.5821C64.2201 55.998 68.9181 51.508 68.9981 45.872C69.1461 35.43 61.3021 26.69 51.2601 26.042C45.9321 25.696 40.8781 27.506 37.0081 31.138C34.0101 33.948 32.0161 37.668 31.2981 41.67C31.0801 42.886 32.0421 44.002 33.2761 44.002C34.2201 44.002 35.0621 43.344 35.2201 42.412V42.41ZM50.0001 60C42.6101 60 36.2161 64.584 34.0901 71.404C33.7601 72.458 34.3501 73.58 35.4041 73.91C36.4561 74.228 37.5781 73.648 37.9081 72.596C39.4861 67.536 44.4561 64 49.9981 64C55.5401 64 60.5121 67.536 62.0881 72.596C62.3561 73.452 63.1441 74 63.9981 74C64.1961 74 64.3941 73.97 64.5941 73.91C65.6481 73.58 66.2361 72.458 65.9081 71.404C63.7821 64.584 57.3881 60 49.9981 60H50.0001Z" fill="#727272"/>
</g>
<defs>
<clipPath id="clip0_1247_10">
<rect width="48" height="48" fill="white" transform="translate(26 26)"/>
</clipPath>
</defs>
</svg>
