<svg width="100" height="100" viewBox="0 0 100 100" fill="none" xmlns="http://www.w3.org/2000/svg">
<path d="M86.6444 83.2781C78.6149 92.1199 67.6594 97.7603 55.798 99.1593C43.9366 100.558 31.9694 97.6214 22.1032 90.8903C12.237 84.1593 5.1372 74.0879 2.11305 62.5336C-0.911102 50.9792 0.344353 38.721 5.6479 28.0195C10.9514 17.3181 19.9454 8.895 30.9712 4.30366C41.997 -0.287691 54.3111 -0.737691 65.6427 3.03664C76.9742 6.81097 86.559 14.5551 92.6295 24.8409C98.7 35.1267 100.847 47.2606 98.674 59.0049" stroke="#727272" stroke-linecap="round"/>
<path d="M96.6859 66.4522C95.4193 70.0465 93.7418 73.4825 91.6868 76.6919" stroke="#727272" stroke-linecap="round"/>
<path d="M24.3458 17.3793C32.2631 11.1528 42.1748 8.01822 52.2326 8.5601C62.2905 9.10198 71.808 13.2833 79.0105 20.3244C86.2131 27.3655 90.609 36.7858 91.3787 46.8288C92.1483 56.8718 89.2392 66.8519 83.1937 74.9084C77.1482 82.9648 68.379 88.5476 58.5212 90.6157C48.6634 92.6839 38.3899 91.0963 29.6162 86.149C20.8425 81.2016 14.1675 73.2322 10.8359 63.7268C7.5043 54.2213 7.74344 43.8285 11.5087 34.4864" stroke="#727272" stroke-linecap="round"/>
<g clip-path="url(#clip0_1250_41)">
<path d="M65 47H63.5C62.6716 47 62 47.6716 62 48.5C62 49.3284 62.6716 50 63.5 50H65C67.49 50 69.5 52.01 69.5 54.5V59C69.5 59.8284 70.1716 60.5 71 60.5C71.8284 60.5 72.5 59.8284 72.5 59V54.5C72.5 50.36 69.14 47 65 47Z" fill="#727272"/>
<path d="M62 32C64.49 32 66.5 34.01 66.5 36.5C66.5 38.99 64.49 41 62 41C59.51 41 57.5 38.99 57.5 36.5C57.5 34.01 59.51 32 62 32ZM62 29C57.86 29 54.5 32.36 54.5 36.5C54.5 40.64 57.86 44 62 44C66.14 44 69.5 40.64 69.5 36.5C69.5 32.36 66.14 29 62 29Z" fill="#727272"/>
<path d="M60.5 69.5C60.5 70.3284 59.8284 71 59 71C58.1716 71 57.5 70.3284 57.5 69.5V68C57.5 65.51 55.49 63.5 53 63.5H47C44.51 63.5 42.5 65.51 42.5 68V69.5C42.5 70.3284 41.8284 71 41 71C40.1716 71 39.5 70.3284 39.5 69.5V68C39.5 63.86 42.86 60.5 47 60.5H53C57.14 60.5 60.5 63.86 60.5 68V69.5Z" fill="#727272"/>
<path d="M50 45.5C52.49 45.5 54.5 47.51 54.5 50C54.5 52.49 52.49 54.5 50 54.5C47.51 54.5 45.5 52.49 45.5 50C45.5 47.51 47.51 45.5 50 45.5ZM50 42.5C45.86 42.5 42.5 45.86 42.5 50C42.5 54.14 45.86 57.5 50 57.5C54.14 57.5 57.5 54.14 57.5 50C57.5 45.86 54.14 42.5 50 42.5Z" fill="#727272"/>
<path d="M38 48.5C38 47.6716 37.3284 47 36.5 47H35C30.86 47 27.5 50.36 27.5 54.5V59C27.5 59.8284 28.1716 60.5 29 60.5C29.8284 60.5 30.5 59.8284 30.5 59V54.5C30.5 52.01 32.51 50 35 50H36.5C37.3284 50 38 49.3284 38 48.5Z" fill="#727272"/>
<path d="M38 32C40.49 32 42.5 34.01 42.5 36.5C42.5 38.99 40.49 41 38 41C35.51 41 33.5 38.99 33.5 36.5C33.5 34.01 35.51 32 38 32ZM38 29C33.86 29 30.5 32.36 30.5 36.5C30.5 40.64 33.86 44 38 44C42.14 44 45.5 40.64 45.5 36.5C45.5 32.36 42.14 29 38 29Z" fill="#727272"/>
</g>
<defs>
<clipPath id="clip0_1250_41">
<rect width="48" height="48" fill="white" transform="translate(26 26)"/>
</clipPath>
</defs>
</svg>
