<svg width="147" height="40" viewBox="0 0 147 40" fill="none" xmlns="http://www.w3.org/2000/svg">
<path opacity="0.1" fill-rule="evenodd" clip-rule="evenodd" d="M0 4C0 1.79086 1.79086 0 4 0H143C145.209 0 147 1.79086 147 4V11C147 11 147 11 146.999 11C141.995 11 137.938 15.0294 137.938 20C137.938 24.9706 141.995 29 146.999 29C147 29 147 29 147 29V36C147 38.2091 145.209 40 143 40H4C1.79086 40 0 38.2091 0 36V29C5.00429 28.9996 9.06095 24.9703 9.06095 20C9.06095 15.0297 5.00429 11.0004 0 11V4Z" fill="#8BC34A"/>
</svg>
