<svg width="122" height="122" viewBox="0 0 122 122" fill="none" xmlns="http://www.w3.org/2000/svg">
<circle cx="61" cy="61" r="60.5" fill="#F2F2F2" stroke="#999999"/>
<circle cx="61" cy="60.9993" r="52.1594" fill="#FCFCFC"/>
<g clip-path="url(#clip0_959_624)">
<path d="M58.9343 85.4591C59.4149 85.3728 59.7345 84.9133 59.6482 84.4327C59.5619 83.9521 59.1024 83.6325 58.6219 83.7188C58.1413 83.8051 57.8217 84.2646 57.9079 84.7451C57.9942 85.2257 58.4537 85.5453 58.9343 85.4591Z" fill="#999999"/>
<path d="M81.5581 81.3966C82.0387 81.3103 82.3583 80.8508 82.272 80.3702C82.1857 79.8896 81.7262 79.57 81.2456 79.6563C80.7651 79.7426 80.4454 80.2021 80.5317 80.6826C80.618 81.1632 81.0775 81.4828 81.5581 81.3966Z" fill="#999999"/>
<path d="M85.3394 69.941L83.3485 70.2985L83.7121 43.458C83.7139 43.3277 83.6868 43.1986 83.6328 43.0799C83.5789 42.9613 83.4993 42.8561 83.3999 42.7718C83.3005 42.6875 83.1836 42.6262 83.0577 42.5924C82.9319 42.5585 82.8001 42.5529 82.6718 42.576L45.0815 49.3249L42.7605 42.7358C42.4154 41.7437 41.7269 40.9077 40.8194 40.3788C39.9119 39.8499 38.8452 39.663 37.8119 39.8518L32.504 40.8048C31.6963 40.9498 30.9793 41.4098 30.5107 42.0834C30.0421 42.7571 29.8603 43.5894 30.0053 44.3971C30.1503 45.2048 30.6103 45.9218 31.2839 46.3904C31.9576 46.859 32.7899 47.0408 33.5976 46.8958L36.7727 46.3257L48.3319 79.1003C48.6771 80.0923 49.3656 80.9281 50.2731 81.457C51.1806 81.9859 52.2472 82.1729 53.2805 81.9843L54.2724 81.8062C53.732 82.6775 53.4558 83.6869 53.4771 84.712C53.4984 85.7371 53.8164 86.734 54.3925 87.5822C54.9686 88.4304 55.7782 89.0934 56.7233 89.491C57.6684 89.8886 58.7085 90.0038 59.7177 89.8226C60.7268 89.6414 61.6619 89.1716 62.4096 88.4701C63.1574 87.7685 63.6858 86.8653 63.9309 85.8697C64.176 84.8741 64.1272 83.8288 63.7906 82.8603C63.454 81.8918 62.8439 81.0416 62.0341 80.4126L76.8962 77.7443C76.3558 78.6157 76.0796 79.625 76.1009 80.6501C76.1222 81.6752 76.4401 82.6722 77.0162 83.5203C77.5924 84.3685 78.402 85.0315 79.3471 85.4291C80.2921 85.8267 81.3322 85.9419 82.3414 85.7607C83.3506 85.5795 84.2857 85.1097 85.0334 84.4082C85.7812 83.7066 86.3096 82.8034 86.5546 81.8078C86.7997 80.8122 86.751 79.7669 86.4144 78.7984C86.0778 77.8299 85.4676 76.9797 84.6579 76.3507L86.433 76.032C87.2407 75.887 87.9577 75.4271 88.4263 74.7534C88.8949 74.0797 89.0767 73.2475 88.9317 72.4398C88.7867 71.632 88.3267 70.915 87.6531 70.4464C86.9794 69.9778 86.1471 69.796 85.3394 69.941ZM62.2588 83.9651C62.3824 84.6535 62.299 85.3631 62.0194 86.0041C61.7397 86.6451 61.2762 87.1888 60.6875 87.5665C60.0988 87.9441 59.4113 88.1387 58.7121 88.1256C58.0128 88.1125 57.3331 87.8924 56.7589 87.493C56.1848 87.0936 55.7419 86.533 55.4864 85.8819C55.2309 85.2308 55.1742 84.5186 55.3234 83.8354C55.4727 83.1521 55.8212 82.5284 56.3249 82.0432C56.8286 81.5579 57.4649 81.233 58.1533 81.1094C59.0764 80.9437 60.0275 81.1514 60.7974 81.687C61.5674 82.2225 62.093 83.042 62.2588 83.9651ZM84.8825 79.9032C85.0061 80.5916 84.9228 81.3012 84.6431 81.9422C84.3634 82.5833 83.8999 83.127 83.3112 83.5046C82.7226 83.8822 82.0351 84.0768 81.3358 84.0637C80.6365 84.0506 79.9568 83.8305 79.3827 83.4311C78.8085 83.0317 78.3657 82.4711 78.1102 81.82C77.8546 81.169 77.7979 80.4568 77.9472 79.7735C78.0964 79.0902 78.4449 78.4665 78.9487 77.9813C79.4524 77.4961 80.0887 77.1711 80.777 77.0475C81.7002 76.8818 82.6513 77.0895 83.4212 77.6251C84.1911 78.1606 84.7168 78.9801 84.8825 79.9032ZM86.1205 74.2918L52.968 80.244C52.3482 80.3573 51.7083 80.2453 51.1638 79.9284C50.6192 79.6115 50.2058 79.1104 49.9981 78.5155L38.1907 45.0284C38.1209 44.8305 37.9829 44.664 37.8016 44.5585C37.6202 44.453 37.4073 44.4154 37.2008 44.4525L33.2851 45.1555C32.939 45.2177 32.5823 45.1398 32.2936 44.9389C32.0048 44.7381 31.8077 44.4308 31.7456 44.0846C31.6834 43.7385 31.7613 43.3818 31.9622 43.0931C32.163 42.8044 32.4703 42.6072 32.8165 42.5451L38.1243 41.5921C38.744 41.4791 39.3837 41.5911 39.9281 41.908C40.4725 42.225 40.8857 42.726 41.0933 43.3207L52.9017 76.8077C52.9715 77.0056 53.1094 77.1721 53.2908 77.2776C53.4721 77.3831 53.6851 77.4207 53.8916 77.3836L85.6519 71.6813C85.998 71.6192 86.3547 71.6971 86.6434 71.8979C86.9321 72.0987 87.1293 72.406 87.1914 72.7522C87.2536 73.0984 87.1757 73.455 86.9748 73.7438C86.774 74.0325 86.4667 74.2296 86.1205 74.2918Z" fill="#727272"/>
<path d="M60.651 60.0042C61.3394 59.8806 61.9757 59.5557 62.4794 59.0705C62.9831 58.5852 63.3317 57.9616 63.4809 57.2783C63.6302 56.595 63.5734 55.8828 63.3179 55.2317C63.0624 54.5807 62.6196 54.02 62.0454 53.6206C61.4712 53.2213 60.7915 53.0011 60.0923 52.988C59.393 52.975 58.7055 53.1695 58.1168 53.5471C57.5281 53.9248 57.0647 54.4685 56.785 55.1095C56.5053 55.7506 56.422 56.4602 56.5456 57.1486C56.7113 58.0717 57.2369 58.8911 58.0069 59.4267C58.7768 59.9622 59.7279 60.17 60.651 60.0042ZM59.7137 54.7834C60.0579 54.7216 60.4127 54.7632 60.7332 54.9031C61.0537 55.0429 61.3256 55.2746 61.5144 55.569C61.7032 55.8633 61.8005 56.2071 61.7939 56.5567C61.7874 56.9064 61.6773 57.2462 61.4776 57.5333C61.278 57.8204 60.9976 58.0418 60.6721 58.1695C60.3466 58.2973 59.9905 58.3257 59.6488 58.251C59.3072 58.1764 58.9953 58.0022 58.7527 57.7503C58.5101 57.4984 58.3476 57.1803 58.2858 56.8361C58.203 56.3745 58.3069 55.899 58.5746 55.514C58.8424 55.129 59.2521 54.8662 59.7137 54.7834Z" fill="#FCFCFC"/>
<path d="M71.7176 61.6095C71.0292 61.7331 70.393 62.058 69.8892 62.5432C69.3855 63.0284 69.037 63.6521 68.8878 64.3354C68.7385 65.0187 68.7952 65.7309 69.0508 66.382C69.3063 67.033 69.7491 67.5937 70.3233 67.9931C70.8974 68.3924 71.5771 68.6126 72.2764 68.6257C72.9757 68.6387 73.6631 68.4442 74.2518 68.0665C74.8405 67.6889 75.304 67.1452 75.5837 66.5042C75.8634 65.8631 75.9467 65.1535 75.8231 64.4651C75.6574 63.542 75.1317 62.7226 74.3618 62.187C73.5919 61.6515 72.6407 61.4437 71.7176 61.6095ZM72.655 66.8303C72.3108 66.8921 71.956 66.8505 71.6355 66.7106C71.315 66.5708 71.0431 66.339 70.8543 66.0447C70.6655 65.7503 70.5682 65.4066 70.5747 65.057C70.5813 64.7073 70.6914 64.3675 70.891 64.0804C71.0907 63.7933 71.3711 63.5719 71.6966 63.4442C72.0221 63.3164 72.3782 63.288 72.7199 63.3627C73.0615 63.4373 73.3733 63.6115 73.616 63.8634C73.8586 64.1153 74.021 64.4334 74.0828 64.7776C74.1657 65.2392 74.0618 65.7147 73.7941 66.0997C73.5263 66.4846 73.1166 66.7475 72.655 66.8303Z" fill="#FCFCFC"/>
<path d="M59.1878 67.4501C59.2834 67.9867 59.5364 68.4827 59.9146 68.8752C60.2927 69.2677 60.779 69.5389 61.3116 69.6545C61.8442 69.7701 62.3992 69.7247 62.906 69.5242C63.4128 69.3237 63.8486 68.9771 64.158 68.5284L72.645 56.1616C73.0408 55.5823 73.1931 54.8706 73.0691 54.18C72.9451 53.4894 72.5547 52.8751 71.9821 52.4696C71.3991 52.0883 70.6924 51.9444 70.0067 52.0675C69.321 52.1907 68.7084 52.5714 68.2945 53.1317L59.6481 65.3914C59.4389 65.687 59.2905 66.0212 59.2115 66.3746C59.1325 66.728 59.1244 67.0936 59.1878 67.4501Z" fill="#FCFCFC"/>
<path d="M50.3482 39.5146L49.4052 39.1315L49.0221 38.1885C48.9926 38.0707 48.8748 38.0117 48.7569 38.0117C48.639 38.0117 48.5211 38.0707 48.4917 38.1885L48.1086 39.1315L47.1656 39.5146C47.0477 39.5441 46.9888 39.662 46.9888 39.7798C46.9888 39.8977 47.0477 40.0156 47.1656 40.0451L48.1086 40.4281L48.4917 41.3711C48.5506 41.489 48.639 41.548 48.7569 41.548C48.8748 41.548 48.9926 41.489 49.0221 41.3711L49.4052 40.4281L50.3482 40.0451C50.4661 39.9861 50.525 39.8977 50.525 39.7798C50.525 39.662 50.4661 39.5441 50.3482 39.5146ZM49.081 39.9272C49.0221 39.9566 48.9632 40.0156 48.9337 40.0745L48.7569 40.4871L48.6095 40.104C48.5801 40.0451 48.5211 39.9861 48.4622 39.9566L48.0496 39.7798L48.4327 39.6325C48.4917 39.603 48.5506 39.5441 48.5801 39.4851L48.7274 39.1021L48.8748 39.4851C48.9042 39.5441 48.9632 39.603 49.0221 39.6325L49.4052 39.7798L49.081 39.9272Z" fill="#727272"/>
</g>
<path d="M39.3407 81.5502L36.9832 80.5925L36.0255 78.235C35.9518 77.9403 35.6571 77.793 35.3624 77.793C35.0677 77.793 34.7731 77.9403 34.6994 78.235L33.7417 80.5925L31.3842 81.5502C31.0895 81.6239 30.9421 81.9186 30.9421 82.2133C30.9421 82.5079 31.0895 82.8026 31.3842 82.8763L33.7417 83.834L34.6994 86.1915C34.8467 86.4862 35.0677 86.6335 35.3624 86.6335C35.6571 86.6335 35.9518 86.4862 36.0255 86.1915L36.9832 83.834L39.3407 82.8763C39.6354 82.729 39.7827 82.5079 39.7827 82.2133C39.7827 81.9186 39.6354 81.6239 39.3407 81.5502ZM36.1728 82.5816C36.0255 82.6553 35.8781 82.8026 35.8045 82.95L35.3624 83.9814L34.9941 83.0236C34.9204 82.8763 34.7731 82.729 34.6257 82.6553L33.5943 82.2133L34.552 81.8449C34.6994 81.7712 34.8467 81.6239 34.9204 81.4765L35.2888 80.5188L35.6571 81.4765C35.7308 81.6239 35.8781 81.7712 36.0255 81.8449L36.9832 82.2133L36.1728 82.5816Z" fill="#727272"/>
<path d="M89.6434 28.3759L86.8145 27.2266L85.6652 24.3976C85.5768 24.044 85.2232 23.8672 84.8695 23.8672C84.5159 23.8672 84.1623 24.044 84.0739 24.3976L82.9246 27.2266L80.0956 28.3759C79.742 28.4643 79.5652 28.8179 79.5652 29.1715C79.5652 29.5252 79.742 29.8788 80.0956 29.9672L82.9246 31.1165L84.0739 33.9454C84.2507 34.2991 84.5159 34.4759 84.8695 34.4759C85.2232 34.4759 85.5768 34.2991 85.6652 33.9454L86.8145 31.1165L89.6434 29.9672C89.9971 29.7904 90.1739 29.5252 90.1739 29.1715C90.1739 28.8179 89.9971 28.4643 89.6434 28.3759ZM85.842 29.6136C85.6652 29.702 85.4884 29.8788 85.4 30.0556L84.8695 31.2933L84.4275 30.144C84.3391 29.9672 84.1623 29.7904 83.9855 29.702L82.7478 29.1715L83.8971 28.7295C84.0739 28.6411 84.2507 28.4643 84.3391 28.2875L84.7811 27.1382L85.2232 28.2875C85.3116 28.4643 85.4884 28.6411 85.6652 28.7295L86.8145 29.1715L85.842 29.6136Z" fill="#999999"/>
<path d="M95.213 52.645L93.7985 52.0703L93.2238 50.6558C93.1796 50.479 93.0028 50.3906 92.826 50.3906C92.6492 50.3906 92.4724 50.479 92.4282 50.6558L91.8535 52.0703L90.439 52.645C90.2622 52.6892 90.1738 52.866 90.1738 53.0428C90.1738 53.2196 90.2622 53.3964 90.439 53.4406L91.8535 54.0153L92.4282 55.4298C92.5166 55.6066 92.6492 55.695 92.826 55.695C93.0028 55.695 93.1796 55.6066 93.2238 55.4298L93.7985 54.0153L95.213 53.4406C95.3898 53.3522 95.4782 53.2196 95.4782 53.0428C95.4782 52.866 95.3898 52.6892 95.213 52.645ZM93.3122 53.2638C93.2238 53.308 93.1354 53.3964 93.0912 53.4848L92.826 54.1037L92.605 53.529C92.5608 53.4406 92.4724 53.3522 92.384 53.308L91.7651 53.0428L92.3398 52.8218C92.4282 52.7776 92.5166 52.6892 92.5608 52.6008L92.7818 52.0261L93.0028 52.6008C93.047 52.6892 93.1354 52.7776 93.2238 52.8218L93.7985 53.0428L93.3122 53.2638Z" fill="#999999"/>
<defs>
<clipPath id="clip0_959_624">
<rect width="56.5797" height="56.5797" fill="white" transform="translate(27.4058 39.9219) rotate(-10.1785)"/>
</clipPath>
</defs>
</svg>
