<svg width="27" height="26" viewBox="0 0 27 26" fill="none" xmlns="http://www.w3.org/2000/svg">
<g clip-path="url(#clip0_78_256)">
<path d="M13.6422 4.33726C17.0385 4.33726 20.4348 4.33726 23.8311 4.33726C24.3449 4.31471 24.8505 4.47214 25.2607 4.78242C25.6709 5.0927 25.9599 5.53637 26.0781 6.03694C26.108 6.14033 26.1257 6.24689 26.1308 6.35441C26.1354 7.21399 26.1703 8.07873 26.1245 8.93717C26.1024 9.31202 25.9808 9.67422 25.7722 9.98646C25.5636 10.2987 25.2755 10.5497 24.9377 10.7136C24.5685 10.9168 24.2602 11.2148 24.0448 11.577C23.8293 11.9391 23.7145 12.3522 23.7121 12.7736C23.7098 13.195 23.82 13.6094 24.0315 13.9739C24.2429 14.3384 24.5478 14.6399 24.9148 14.8471C25.3045 15.047 25.6283 15.3552 25.847 15.7347C26.0658 16.1142 26.1703 16.5488 26.148 16.9863C26.1394 17.7725 26.1743 18.5633 26.1033 19.3438C26.0408 19.8592 25.7945 20.3347 25.4097 20.6832C25.0248 21.0316 24.5272 21.2295 24.0082 21.2406C23.9318 21.2429 23.8573 21.2441 23.7847 21.2441C17.0169 21.2441 10.2492 21.2441 3.48139 21.2441C2.9937 21.2741 2.50974 21.1424 2.1046 20.8692C1.69945 20.5961 1.3958 20.1969 1.24075 19.7335C1.17474 19.5549 1.13611 19.3673 1.12615 19.1771C1.11297 18.349 1.08833 17.5192 1.12615 16.6929C1.14123 16.3175 1.25577 15.9529 1.45806 15.6363C1.66034 15.3197 1.94311 15.0626 2.27741 14.8912C2.65956 14.6941 2.97924 14.3944 3.2006 14.0257C3.42196 13.6571 3.53626 13.2341 3.53067 12.8041C3.55121 12.3945 3.45675 11.9872 3.25796 11.6284C3.05917 11.2697 2.76399 10.9736 2.40578 10.7738C1.97938 10.5552 1.62794 10.2142 1.3965 9.79459C1.16506 9.37499 1.06414 8.89586 1.10667 8.41855C1.12901 7.83117 1.10666 7.24265 1.11125 6.65412C1.09753 6.34643 1.14797 6.03926 1.25936 5.75211C1.37074 5.46497 1.54065 5.20413 1.75828 4.98619C1.9759 4.76824 2.23648 4.59796 2.52346 4.48614C2.81043 4.37432 3.11753 4.32343 3.42524 4.33669C6.45707 4.33211 9.48892 4.33211 12.5208 4.33669L13.6422 4.33726ZM9.05779 19.9713H23.6867C23.7532 19.9713 23.8191 19.9713 23.8856 19.9713C24.0188 19.9775 24.1518 19.9554 24.2758 19.9064C24.3998 19.8574 24.512 19.7826 24.6049 19.687C24.6979 19.5914 24.7695 19.4771 24.815 19.3518C24.8605 19.2264 24.8789 19.0929 24.8689 18.9599C24.8718 18.2888 24.8609 17.6178 24.8729 16.9467C24.8847 16.7479 24.8383 16.5499 24.7395 16.3769C24.6407 16.204 24.4937 16.0635 24.3165 15.9726C23.7491 15.6558 23.2767 15.1931 22.9483 14.6324C22.6199 14.0717 22.4474 13.4333 22.4487 12.7835C22.45 12.1337 22.625 11.4961 22.9556 10.9367C23.2863 10.3772 23.7605 9.91641 24.3291 9.60191C24.5025 9.51187 24.6461 9.37351 24.7425 9.20357C24.8389 9.03362 24.884 8.83938 24.8724 8.64434C24.862 8.00653 24.8724 7.36872 24.8724 6.73091C24.8976 6.57769 24.886 6.42065 24.8385 6.27281C24.791 6.12496 24.709 5.99056 24.5992 5.88072C24.4894 5.77089 24.3551 5.68878 24.2073 5.64121C24.0594 5.59363 23.9024 5.58196 23.7492 5.60715C18.9443 5.60715 14.1396 5.60715 9.33514 5.60715H9.05893C9.05893 5.77906 9.06351 5.90858 9.05893 6.03981C9.05951 6.27092 9.04458 6.5018 9.01423 6.73091C8.99002 6.87329 8.91578 7.00235 8.80487 7.09486C8.69397 7.18737 8.55369 7.23725 8.40927 7.23552C8.26486 7.23379 8.1258 7.18057 8.01714 7.08544C7.90847 6.9903 7.83734 6.8595 7.81655 6.71658C7.7881 6.47888 7.77432 6.23966 7.77529 6.00027C7.77071 5.87821 7.77529 5.75614 7.77529 5.63867C7.74529 5.626 7.71396 5.61678 7.68189 5.61116C6.22404 5.61116 4.76618 5.5997 3.30833 5.61976C3.18312 5.61901 3.05914 5.64421 2.94415 5.69376C2.82917 5.74332 2.7257 5.81615 2.64026 5.90767C2.55482 5.9992 2.48925 6.10743 2.44771 6.22554C2.40618 6.34365 2.38955 6.46909 2.39889 6.59395C2.39488 7.28161 2.40463 7.96928 2.39546 8.65694C2.38501 8.84783 2.42942 9.03771 2.52346 9.20415C2.61749 9.37059 2.75721 9.50663 2.92611 9.59618C3.50025 9.91039 3.9792 10.3734 4.31268 10.9366C4.64615 11.4997 4.82187 12.1423 4.82134 12.7968C4.82081 13.4513 4.64407 14.0936 4.30969 14.6562C3.9753 15.2188 3.49559 15.681 2.92095 15.9943C2.75523 16.0813 2.61779 16.2138 2.5248 16.3762C2.43181 16.5387 2.38715 16.7243 2.39604 16.9112C2.40291 17.5989 2.39603 18.2865 2.39946 18.9742C2.39787 19.0815 2.41098 19.1885 2.43843 19.2923C2.50001 19.5105 2.63743 19.6997 2.82597 19.8257C3.01451 19.9518 3.24183 20.0064 3.46707 19.9799C4.83399 19.9834 6.20092 19.9834 7.56785 19.9799C7.63203 19.9799 7.69621 19.9685 7.773 19.9616C7.773 19.7828 7.7667 19.6178 7.773 19.4533C7.77455 19.2387 7.79256 19.0245 7.82686 18.8126C7.86035 18.6812 7.93676 18.5647 8.04398 18.4817C8.1512 18.3987 8.28306 18.3538 8.41866 18.3543C8.55427 18.3547 8.68584 18.4005 8.79249 18.4842C8.89914 18.568 8.97477 18.685 9.00735 18.8166C9.04031 18.9953 9.05776 19.1765 9.0595 19.3582C9.06466 19.5513 9.05779 19.7484 9.05779 19.9719V19.9713Z" fill="#B7B7B7"/>
<path d="M20.7588 9.23391C20.675 9.39315 20.5732 9.54234 20.4556 9.6786C18.5837 11.5532 16.7075 13.4233 14.8271 15.2888C14.2923 15.8202 13.7574 16.3512 13.2226 16.8819C13.1366 16.979 13.0228 17.0472 12.8967 17.0772C12.7705 17.1073 12.6382 17.0977 12.5177 17.0498C12.4029 17.0101 12.3029 16.9367 12.2306 16.8391C12.1583 16.7416 12.1171 16.6244 12.1126 16.5031C12.1095 16.3911 12.1325 16.28 12.1797 16.1785C12.227 16.0769 12.2972 15.9878 12.3848 15.918C13.367 14.945 14.3475 13.9708 15.3262 12.9954C16.7459 11.5819 18.1652 10.1684 19.584 8.75484C19.6655 8.64962 19.7757 8.57028 19.9013 8.52644C20.0269 8.4826 20.1626 8.47614 20.2918 8.50785C20.4425 8.55468 20.572 8.65313 20.6574 8.7859C20.7428 8.91868 20.7787 9.0773 20.7588 9.23391Z" fill="#B7B7B7"/>
<path d="M11.9902 10.2214C11.9968 9.71395 12.2047 9.22989 12.5682 8.87573C12.9317 8.52156 13.421 8.32631 13.9285 8.33293C14.436 8.33954 14.92 8.54747 15.2742 8.91098C15.6284 9.27449 15.8236 9.7638 15.817 10.2713C15.8104 10.7787 15.6025 11.2628 15.2389 11.617C14.8754 11.9711 14.3861 12.1664 13.8787 12.1598C13.3712 12.1532 12.8871 11.9452 12.533 11.5817C12.1788 11.2182 11.9835 10.7289 11.9902 10.2214ZM13.9019 10.9091C14.0739 10.9061 14.238 10.8362 14.3593 10.7141C14.4806 10.592 14.5494 10.4274 14.5512 10.2553C14.553 10.0833 14.4876 9.91727 14.3689 9.79269C14.2502 9.6681 14.0876 9.59473 13.9156 9.5882C13.7435 9.59114 13.5795 9.66111 13.4582 9.7832C13.3369 9.90529 13.268 10.0699 13.2662 10.2419C13.2644 10.414 13.3299 10.58 13.4486 10.7046C13.5673 10.8292 13.7299 10.9026 13.9019 10.9091Z" fill="#B7B7B7"/>
<path d="M20.9007 15.3465C20.9037 15.6005 20.8562 15.8525 20.7609 16.0879C20.6656 16.3233 20.5243 16.5373 20.3454 16.7175C20.1665 16.8978 19.9535 17.0406 19.7188 17.1377C19.4841 17.2348 19.2325 17.2841 18.9785 17.283C18.7246 17.2818 18.4734 17.2301 18.2396 17.1308C18.0059 17.0316 17.7942 16.8868 17.617 16.7049C17.4397 16.523 17.3005 16.3076 17.2074 16.0714C17.1142 15.8351 17.069 15.5827 17.0744 15.3288C17.0714 15.0748 17.1189 14.8228 17.2142 14.5874C17.3095 14.3521 17.4508 14.138 17.6297 13.9578C17.8086 13.7775 18.0216 13.6347 18.2563 13.5376C18.491 13.4406 18.7426 13.3912 18.9966 13.3924C19.2505 13.3935 19.5017 13.4453 19.7355 13.5445C19.9692 13.6438 20.1809 13.7885 20.3581 13.9704C20.5354 14.1523 20.6746 14.3677 20.7678 14.6039C20.8609 14.8402 20.9061 15.0926 20.9007 15.3465ZM18.9947 15.9815C19.0819 15.9861 19.169 15.9723 19.2505 15.9411C19.332 15.9099 19.4061 15.8619 19.4679 15.8003C19.5297 15.7387 19.5778 15.6648 19.6093 15.5833C19.6407 15.5019 19.6547 15.4148 19.6503 15.3276C19.6517 15.2424 19.6359 15.1577 19.6036 15.0788C19.5714 14.9998 19.5235 14.9282 19.4628 14.8683C19.4021 14.8084 19.3299 14.7615 19.2505 14.7303C19.1711 14.6991 19.0862 14.6844 19.001 14.687C18.9139 14.6828 18.8268 14.6965 18.7451 14.7273C18.6635 14.7581 18.589 14.8053 18.5263 14.866C18.4636 14.9266 18.414 14.9995 18.3805 15.0801C18.347 15.1607 18.3304 15.2473 18.3317 15.3345C18.3282 15.4218 18.3431 15.5087 18.3754 15.5899C18.4077 15.671 18.4568 15.7444 18.5193 15.8053C18.5818 15.8663 18.6564 15.9134 18.7383 15.9437C18.8203 15.9739 18.9076 15.9866 18.9947 15.9809V15.9815Z" fill="#B7B7B7"/>
<path d="M9.05439 10.4799C9.05439 10.728 9.05898 10.9762 9.05439 11.2249C9.06038 11.3119 9.04834 11.3993 9.01905 11.4814C8.98975 11.5636 8.94383 11.6389 8.88413 11.7025C8.82443 11.7661 8.75225 11.8168 8.6721 11.8512C8.59195 11.8857 8.50554 11.9032 8.41829 11.9028C8.33297 11.9047 8.24818 11.889 8.16912 11.8569C8.09007 11.8247 8.01842 11.7768 7.95862 11.7159C7.89881 11.655 7.8521 11.5825 7.82137 11.5029C7.79063 11.4233 7.77654 11.3382 7.77992 11.253C7.7677 10.7238 7.7677 10.1945 7.77992 9.66503C7.77682 9.5799 7.791 9.49503 7.82161 9.41554C7.85222 9.33605 7.89862 9.26359 7.95802 9.20253C8.01742 9.14148 8.08856 9.09309 8.16718 9.0603C8.2458 9.02751 8.33025 9.01099 8.41543 9.01175C8.50265 9.01094 8.58912 9.02812 8.66941 9.06223C8.74969 9.09635 8.82208 9.14666 8.88205 9.21001C8.94201 9.27336 8.98826 9.3484 9.01791 9.43044C9.04757 9.51248 9.05999 9.59975 9.05439 9.6868C9.05898 9.9504 9.05439 10.2157 9.05439 10.4799Z" fill="#B7B7B7"/>
<path d="M9.05431 15.1387C9.05431 15.3949 9.06004 15.6516 9.05431 15.9078C9.05896 15.9929 9.04631 16.078 9.01711 16.1581C8.98792 16.2382 8.9428 16.3115 8.88447 16.3736C8.82613 16.4358 8.75581 16.4854 8.67774 16.5196C8.59967 16.5538 8.51547 16.5718 8.43025 16.5725C8.3449 16.576 8.25977 16.5619 8.18009 16.5311C8.10042 16.5003 8.02793 16.4535 7.96711 16.3935C7.90628 16.3336 7.85842 16.2618 7.8265 16.1825C7.79458 16.1033 7.77929 16.0184 7.78156 15.933C7.7678 15.3958 7.7678 14.8583 7.78156 14.3204C7.7792 14.2351 7.79443 14.1502 7.82629 14.071C7.85815 13.9918 7.90595 13.92 7.96674 13.8601C8.02753 13.8001 8.1 13.7533 8.17964 13.7226C8.25928 13.6919 8.3444 13.6779 8.42969 13.6815C8.5148 13.6821 8.5989 13.7 8.67692 13.734C8.75493 13.7681 8.82524 13.8176 8.88361 13.8795C8.94198 13.9415 8.9872 14.0146 9.01654 14.0945C9.04587 14.1744 9.05873 14.2595 9.05431 14.3445C9.06004 14.6092 9.05431 14.874 9.05431 15.1387Z" fill="#B7B7B7"/>
</g>
<defs>
<clipPath id="clip0_78_256">
<rect width="26" height="26" fill="white" transform="translate(0.230469)"/>
</clipPath>
</defs>
</svg>
