<svg width="300" height="300" viewBox="0 0 300 300" fill="none" xmlns="http://www.w3.org/2000/svg">
<path fill-rule="evenodd" clip-rule="evenodd" d="M87.7021 211.742C80.0494 207.324 77.4274 197.538 81.8457 189.886L147.82 75.6146C152.238 67.9619 162.024 65.3399 169.677 69.7582L171.327 70.7111C172.033 71.1188 172.207 72.0573 171.799 72.7634C168.393 78.6631 171.256 86.6928 178.194 90.6984C185.131 94.7039 193.517 93.1685 196.923 87.2689C197.331 86.5627 198.23 86.2436 198.936 86.6513L206.919 91.2603C207.626 91.6681 207.799 92.6067 207.391 93.313C203.985 99.2126 206.848 107.242 213.786 111.248C220.724 115.253 229.109 113.718 232.515 107.818C232.923 107.112 233.823 106.793 234.529 107.201L236.703 108.456C244.356 112.874 246.978 122.66 242.559 130.312L176.585 244.583C172.167 252.236 162.381 254.858 154.728 250.44L152.93 249.401C152.002 248.866 151.804 247.615 152.34 246.687C155.746 240.787 152.883 232.758 145.945 228.752C139.007 224.746 130.622 226.282 127.215 232.181C126.68 233.109 125.497 233.563 124.57 233.028L117.337 228.852C116.409 228.316 116.212 227.065 116.747 226.137C120.153 220.238 117.29 212.208 110.352 208.202C103.415 204.197 95.0292 205.732 91.623 211.632C91.0873 212.56 89.9048 213.014 88.9769 212.478L87.7021 211.742Z" fill="#999999"/>
<mask id="path-2-inside-1_959_272" fill="white">
<path fill-rule="evenodd" clip-rule="evenodd" d="M56.9238 159.562C56.9238 154.616 60.9339 150.605 65.8805 150.605H240.603C245.641 150.605 249.726 154.69 249.726 159.728V168.24C249.726 169.206 248.877 169.946 247.912 169.946C239.901 169.946 233.406 176.44 233.406 184.451C233.406 192.463 239.901 198.957 247.912 198.957C248.877 198.957 249.726 199.697 249.726 200.663V209.339C249.726 210.305 248.877 211.045 247.912 211.045C239.901 211.045 233.406 217.539 233.406 225.551C233.406 233.562 239.901 240.056 247.912 240.056C248.877 240.056 249.726 240.796 249.726 241.762V250.595C249.726 255.79 245.515 260.001 240.32 260.001H66.1575C61.0579 260.001 56.9238 255.867 56.9238 250.767V242.284C56.9238 241.013 58.0704 240.056 59.3412 240.056C67.3523 240.056 73.8467 233.562 73.8467 225.551C73.8467 217.539 67.3523 211.045 59.3412 211.045C58.0704 211.045 56.9238 210.088 56.9238 208.817V201.185C56.9238 199.914 58.0704 198.957 59.3411 198.957C67.3522 198.957 73.8465 192.462 73.8465 184.451C73.8465 176.44 67.3522 169.946 59.3411 169.946C58.0704 169.946 56.9238 168.989 56.9238 167.718V159.562Z"/>
</mask>
<path fill-rule="evenodd" clip-rule="evenodd" d="M56.9238 159.562C56.9238 154.616 60.9339 150.605 65.8805 150.605H240.603C245.641 150.605 249.726 154.69 249.726 159.728V168.24C249.726 169.206 248.877 169.946 247.912 169.946C239.901 169.946 233.406 176.44 233.406 184.451C233.406 192.463 239.901 198.957 247.912 198.957C248.877 198.957 249.726 199.697 249.726 200.663V209.339C249.726 210.305 248.877 211.045 247.912 211.045C239.901 211.045 233.406 217.539 233.406 225.551C233.406 233.562 239.901 240.056 247.912 240.056C248.877 240.056 249.726 240.796 249.726 241.762V250.595C249.726 255.79 245.515 260.001 240.32 260.001H66.1575C61.0579 260.001 56.9238 255.867 56.9238 250.767V242.284C56.9238 241.013 58.0704 240.056 59.3412 240.056C67.3523 240.056 73.8467 233.562 73.8467 225.551C73.8467 217.539 67.3523 211.045 59.3412 211.045C58.0704 211.045 56.9238 210.088 56.9238 208.817V201.185C56.9238 199.914 58.0704 198.957 59.3411 198.957C67.3522 198.957 73.8465 192.462 73.8465 184.451C73.8465 176.44 67.3522 169.946 59.3411 169.946C58.0704 169.946 56.9238 168.989 56.9238 167.718V159.562Z" fill="#F2F2F2"/>
<path d="M59.3412 207.045C57.1321 207.045 55.3412 208.836 55.3412 211.045C55.3412 213.254 57.1321 215.045 59.3412 215.045V207.045ZM59.3411 165.946C57.1319 165.946 55.3411 167.737 55.3411 169.946C55.3411 172.155 57.1319 173.946 59.3411 173.946V165.946ZM240.603 146.605H65.8805V154.605H240.603V146.605ZM253.726 168.24V159.728H245.726V168.24H253.726ZM237.406 184.451C237.406 178.649 242.11 173.946 247.912 173.946V165.946C237.692 165.946 229.406 174.231 229.406 184.451H237.406ZM247.912 194.957C242.11 194.957 237.406 190.253 237.406 184.451H229.406C229.406 194.672 237.692 202.957 247.912 202.957V194.957ZM253.726 209.339V200.663H245.726V209.339H253.726ZM237.406 225.551C237.406 219.749 242.11 215.045 247.912 215.045V207.045C237.692 207.045 229.406 215.33 229.406 225.551H237.406ZM247.912 236.056C242.11 236.056 237.406 231.353 237.406 225.551H229.406C229.406 235.771 237.692 244.056 247.912 244.056V236.056ZM253.726 250.595V241.762H245.726V250.595H253.726ZM66.1575 264.001H240.32V256.001H66.1575V264.001ZM52.9238 242.284V250.767H60.9238V242.284H52.9238ZM69.8467 225.551C69.8467 231.353 65.1432 236.056 59.3412 236.056V244.056C69.5615 244.056 77.8467 235.771 77.8467 225.551H69.8467ZM59.3412 215.045C65.1432 215.045 69.8467 219.749 69.8467 225.551H77.8467C77.8467 215.33 69.5615 207.045 59.3412 207.045V215.045ZM52.9238 201.185V208.817H60.9238V201.185H52.9238ZM69.8465 184.451C69.8465 190.253 65.1431 194.957 59.3411 194.957V202.957C69.5613 202.957 77.8465 194.672 77.8465 184.451H69.8465ZM59.3411 173.946C65.1431 173.946 69.8465 178.649 69.8465 184.451H77.8465C77.8465 174.231 69.5613 165.946 59.3411 165.946V173.946ZM52.9238 159.562V167.718H60.9238V159.562H52.9238ZM60.9238 201.185C60.9238 201.815 60.6258 202.305 60.3214 202.577C60.0381 202.83 59.695 202.957 59.3411 202.957V194.957C56.2958 194.957 52.9238 197.294 52.9238 201.185H60.9238ZM60.9238 242.284C60.9238 242.914 60.6258 243.404 60.3214 243.676C60.0382 243.929 59.6951 244.056 59.3412 244.056V236.056C56.2959 236.056 52.9238 238.393 52.9238 242.284H60.9238ZM59.3412 207.045C59.6951 207.045 60.0382 207.172 60.3214 207.425C60.6258 207.697 60.9238 208.187 60.9238 208.817H52.9238C52.9238 212.708 56.2959 215.045 59.3412 215.045V207.045ZM245.726 209.339C245.726 207.785 246.993 207.045 247.912 207.045V215.045C250.762 215.045 253.726 212.825 253.726 209.339H245.726ZM66.1575 256.001C63.267 256.001 60.9238 253.658 60.9238 250.767H52.9238C52.9238 258.076 58.8487 264.001 66.1575 264.001V256.001ZM245.726 168.24C245.726 166.685 246.993 165.946 247.912 165.946V173.946C250.762 173.946 253.726 171.726 253.726 168.24H245.726ZM247.912 202.957C246.993 202.957 245.726 202.217 245.726 200.663H253.726C253.726 197.177 250.762 194.957 247.912 194.957V202.957ZM245.726 250.595C245.726 253.581 243.305 256.001 240.32 256.001V264.001C247.724 264.001 253.726 257.999 253.726 250.595H245.726ZM65.8805 146.605C58.7247 146.605 52.9238 152.406 52.9238 159.562H60.9238C60.9238 156.825 63.143 154.605 65.8805 154.605V146.605ZM247.912 244.056C246.993 244.056 245.726 243.317 245.726 241.762H253.726C253.726 238.276 250.762 236.056 247.912 236.056V244.056ZM59.3411 165.946C59.695 165.946 60.0381 166.073 60.3214 166.326C60.6258 166.598 60.9238 167.088 60.9238 167.718H52.9238C52.9238 171.609 56.2958 173.946 59.3411 173.946V165.946ZM240.603 154.605C243.432 154.605 245.726 156.899 245.726 159.728H253.726C253.726 152.48 247.851 146.605 240.603 146.605V154.605Z" fill="#999999" mask="url(#path-2-inside-1_959_272)"/>
<path d="M205.302 153.02V258.184" stroke="#999999" stroke-width="4" stroke-dasharray="16 16"/>
<path d="M134.049 229.553L161.263 180.673C162.146 179.088 163.817 178.105 165.632 178.105H167.912C170.189 178.105 171.636 180.544 170.545 182.543L143.583 231.929C142.882 233.213 141.535 234.012 140.072 234.012H136.67C134.382 234.012 132.936 231.552 134.049 229.553Z" fill="white"/>
<path d="M172.638 220.412C172.638 222.4 171.027 224.011 169.039 224.011C167.051 224.011 165.44 222.4 165.44 220.412C165.44 218.425 167.051 216.813 169.039 216.813C171.027 216.813 172.638 218.425 172.638 220.412ZM140.605 190.193C140.605 192.18 138.994 193.791 137.006 193.791C135.018 193.791 133.407 192.18 133.407 190.193C133.407 188.205 135.018 186.594 137.006 186.594C138.994 186.594 140.605 188.205 140.605 190.193Z" stroke="white" stroke-width="20"/>
<path d="M65.9725 118.82C65.1586 118.398 65.1266 117.124 65.9122 116.652C67.7517 115.545 68.9824 114.165 70.2581 111.974C70.6834 111.243 71.782 111.274 72.1767 112.022C73.2648 114.082 74.4106 115.409 76.1143 116.456C76.9455 116.966 76.8744 118.449 76.0337 118.944C74.5317 119.829 73.4321 121.138 72.3118 123.28C71.8968 124.074 70.6939 124.049 70.287 123.251C69.208 121.136 67.9573 119.849 65.9725 118.82Z" fill="#F2F2F2"/>
<path d="M17.472 160.947C16.8193 160.303 16.7673 158.939 17.3977 158.273C17.5203 158.144 17.638 158.006 17.7529 157.858C18.2714 157.19 19.3594 157.223 19.8708 157.896C19.9064 157.943 19.9425 157.989 19.9791 158.034C20.5712 158.759 20.7716 160.289 20.161 160.998C19.6005 161.65 18.2903 161.899 17.7402 161.239C17.6546 161.136 17.5655 161.039 17.472 160.947Z" fill="#999999"/>
<path d="M25.933 235.287C25.2803 234.643 25.2283 233.278 25.8587 232.613C25.9812 232.483 26.099 232.345 26.2139 232.198C26.7323 231.53 27.8203 231.563 28.3317 232.236C28.3673 232.283 28.4034 232.329 28.44 232.374C29.0321 233.099 29.2325 234.629 28.6219 235.338C28.0614 235.99 26.7512 236.239 26.2011 235.579C26.1156 235.476 26.0264 235.379 25.933 235.287Z" fill="#F2F2F2"/>
<path d="M97.4012 113.988C96.5873 113.566 96.5553 112.292 97.3409 111.82C99.1804 110.713 100.411 109.333 101.687 107.142C102.112 106.411 103.211 106.442 103.605 107.19C104.694 109.25 105.839 110.577 107.543 111.624C108.374 112.134 108.303 113.617 107.462 114.112C105.96 114.997 104.861 116.306 103.741 118.448C103.326 119.242 102.123 119.217 101.716 118.419C100.637 116.304 99.386 115.017 97.4012 113.988Z" fill="#FEFCFF"/>
<path d="M123.994 70.472C123.18 70.0499 123.148 68.7767 123.934 68.3041C125.773 67.1977 127.004 65.8171 128.28 63.6259C128.705 62.8955 129.803 62.9268 130.198 63.6742C131.286 65.7344 132.432 67.0611 134.136 68.108C134.967 68.6188 134.896 70.1018 134.055 70.5968C132.553 71.4812 131.454 72.7908 130.333 74.9328C129.918 75.7263 128.715 75.7015 128.308 74.9037C127.229 72.7883 125.979 71.5016 123.994 70.472Z" fill="#999999"/>
<path d="M166.302 48.7103C165.488 48.2882 165.456 47.015 166.241 46.5424C168.081 45.4359 169.311 44.0554 170.587 41.8642C171.012 41.1337 172.111 41.1651 172.506 41.9125C173.594 43.9727 174.74 45.2994 176.443 46.3463C177.275 46.8571 177.204 48.3401 176.363 48.8351C174.861 49.7194 173.761 51.029 172.641 53.171C172.226 53.9646 171.023 53.9398 170.616 53.142C169.537 51.0266 168.286 49.7398 166.302 48.7103Z" fill="#F2F2F2"/>
<path d="M194.103 75.9095C193.289 75.4874 193.257 74.2142 194.043 73.7416C195.883 72.6352 197.113 71.2546 198.389 69.0634C198.814 68.333 199.913 68.3643 200.308 69.1117C201.396 71.1719 202.541 72.4986 204.245 73.5455C205.076 74.0563 205.005 75.5393 204.165 76.0343C202.663 76.9187 201.563 78.2283 200.443 80.3703C200.028 81.1638 198.825 81.139 198.418 80.3412C197.339 78.2258 196.088 76.9391 194.103 75.9095Z" fill="#FEFCFF"/>
<path d="M225.068 64.1924C224.817 64.0793 224.808 63.7025 225.052 63.5749C226.103 63.0241 226.717 62.3412 227.394 61.1145C227.517 60.8925 227.847 60.9019 227.959 61.1294C228.548 62.3272 229.145 62.9969 230.176 63.525C230.437 63.6584 230.416 64.0866 230.148 64.2058C229.217 64.6211 228.63 65.2887 227.998 66.5852C227.881 66.8267 227.522 66.8196 227.41 66.5753C226.852 65.3553 226.22 64.7121 225.068 64.1924Z" fill="#999999"/>
<circle cx="47.8584" cy="138.517" r="4.04394" stroke="#999999" stroke-width="4"/>
<circle cx="254.561" cy="111.923" r="4.04394" stroke="#F2F2F2" stroke-width="4"/>
<circle cx="269.67" cy="191.704" r="4.04394" stroke="#FEFCFF" stroke-width="4"/>
<circle cx="285.989" cy="223.735" r="4.04394" stroke="#F2F2F2" stroke-width="4"/>
<circle cx="279.341" cy="166.318" r="2.12636" stroke="#999999" stroke-width="3"/>
<circle cx="79.2865" cy="74.4506" r="2.12636" stroke="#F2F2F2" stroke-width="3"/>
<circle cx="104.67" cy="66.5912" r="2.12636" stroke="#FEFCFF" stroke-width="3"/>
<circle cx="18.8467" cy="201.372" r="4.04394" stroke="#FEFCFF" stroke-width="4"/>
<circle cx="27.3084" cy="108.295" r="1.20879" fill="#F2F2F2"/>
<circle cx="55.7146" cy="76.2635" r="1.20879" fill="#999999"/>
<circle cx="119.177" cy="41.2088" r="1.20879" fill="#999999"/>
<circle cx="144.561" cy="50.2752" r="1.20879" fill="#FEFCFF"/>
<circle cx="206.813" cy="50.2752" r="1.20879" fill="#999999"/>
<circle cx="239.451" cy="85.3288" r="1.81318" fill="#FEFCFF"/>
<circle cx="254.561" cy="150.001" r="1.81318" fill="#F2F2F2"/>
<circle cx="295.055" cy="189.891" r="1.81318" fill="#999999"/>
<circle cx="263.022" cy="237.032" r="1.81318" fill="#F2F2F2"/>
<circle cx="285.989" cy="247.306" r="1.20879" fill="#999999"/>
<circle cx="284.177" cy="133.076" r="1.20879" fill="#FEFCFF"/>
<circle cx="296.263" cy="149.396" r="1.20879" fill="#D9D9D9"/>
<circle cx="222.528" cy="101.044" r="1.81318" fill="#F2F2F2"/>
<circle cx="1.20879" cy="1.20879" r="1.20879" transform="matrix(1 0 0 -1 275.109 102.254)" fill="#D9D9D9"/>
<circle cx="108.902" cy="90.1637" r="2.41758" fill="#F2F2F2"/>
<circle cx="44.8357" cy="184.451" r="1.20879" fill="#F2F2F2"/>
<circle cx="40.6053" cy="202.584" r="1.20879" fill="#FEFCFF"/>
<circle cx="3.73711" cy="252.142" r="1.20879" fill="#D9D9D9"/>
<circle cx="46.0446" cy="100.438" r="1.81318" fill="#FEFCFF"/>
</svg>
