<svg width="21" height="20" viewBox="0 0 21 20" fill="none" xmlns="http://www.w3.org/2000/svg">
<path d="M6.06467 -0.000488281H3.56315C2.67927 -0.000488281 1.83159 0.350632 1.20659 0.97563C0.581589 1.60063 0.230469 2.44831 0.230469 3.33219L0.230469 5.83372C0.230469 6.7176 0.581589 7.56528 1.20659 8.19028C1.83159 8.81528 2.67927 9.1664 3.56315 9.1664H6.06467C6.94856 9.1664 7.79624 8.81528 8.42123 8.19028C9.04623 7.56528 9.39735 6.7176 9.39735 5.83372V3.33219C9.39735 2.44831 9.04623 1.60063 8.42123 0.97563C7.79624 0.350632 6.94856 -0.000488281 6.06467 -0.000488281ZM7.73202 5.83372C7.73202 6.27593 7.55636 6.70002 7.24367 7.01271C6.93098 7.3254 6.50688 7.50107 6.06467 7.50107H3.56315C3.12129 7.50053 2.69771 7.32463 2.38546 7.012C2.07321 6.69937 1.89782 6.27558 1.89782 5.83372V3.33219C1.89835 2.89068 2.07398 2.46741 2.38617 2.15521C2.69837 1.84302 3.12164 1.66739 3.56315 1.66686H6.06467C6.50653 1.66686 6.93032 1.84225 7.24295 2.1545C7.55558 2.46675 7.73149 2.89033 7.73202 3.33219V5.83372Z" fill="black"/>
<path d="M16.8996 -0.000488281H14.3981C13.5142 -0.000488281 12.6665 0.350632 12.0415 0.97563C11.4166 1.60063 11.0654 2.44831 11.0654 3.33219V5.83372C11.0654 6.7176 11.4166 7.56528 12.0415 8.19028C12.6665 8.81528 13.5142 9.1664 14.3981 9.1664H16.8986C17.7825 9.1664 18.6302 8.81528 19.2552 8.19028C19.8802 7.56528 20.2313 6.7176 20.2313 5.83372V3.33219C20.2313 2.44848 19.8803 1.60096 19.2555 0.975987C18.6308 0.351018 17.7833 -0.000220492 16.8996 -0.000488281ZM18.567 5.83372C18.567 6.27593 18.3913 6.70002 18.0786 7.01271C17.7659 7.3254 17.3418 7.50107 16.8996 7.50107H14.3981C13.9559 7.50107 13.5318 7.3254 13.2191 7.01271C12.9064 6.70002 12.7308 6.27593 12.7308 5.83372V3.33219C12.7313 2.89033 12.9072 2.46675 13.2198 2.1545C13.5325 1.84225 13.9562 1.66686 14.3981 1.66686H16.8986C17.3407 1.66659 17.7647 1.84186 18.0776 2.15414C18.3904 2.46643 18.5664 2.89016 18.567 3.33219V5.83372Z" fill="black"/>
<path d="M6.06467 10.8326H3.56315C2.67927 10.8326 1.83159 11.1838 1.20659 11.8088C0.581589 12.4338 0.230469 13.2814 0.230469 14.1653L0.230469 16.6658C0.230469 17.5497 0.581589 18.3974 1.20659 19.0224C1.83159 19.6474 2.67927 19.9985 3.56315 19.9985H6.06467C6.94856 19.9985 7.79624 19.6474 8.42123 19.0224C9.04623 18.3974 9.39735 17.5497 9.39735 16.6658V14.1653C9.39735 13.2814 9.04623 12.4338 8.42123 11.8088C7.79624 11.1838 6.94856 10.8326 6.06467 10.8326ZM7.73202 16.6668C7.73202 17.1091 7.55636 17.5332 7.24367 17.8458C6.93098 18.1585 6.50688 18.3342 6.06467 18.3342H3.56315C3.12094 18.3342 2.69684 18.1585 2.38415 17.8458C2.07146 17.5332 1.8958 17.1091 1.8958 16.6668V14.1653C1.89633 13.7235 2.07224 13.2999 2.38487 12.9876C2.6975 12.6754 3.12129 12.5 3.56315 12.5H6.06467C6.50653 12.5 6.93032 12.6754 7.24295 12.9876C7.55558 13.2999 7.73149 13.7235 7.73202 14.1653V16.6668Z" fill="black"/>
<path d="M16.8996 10.8326H14.3981C13.5142 10.8326 12.6665 11.1838 12.0415 11.8088C11.4166 12.4338 11.0654 13.2814 11.0654 14.1653V16.6658C11.0654 17.5497 11.4166 18.3974 12.0415 19.0224C12.6665 19.6474 13.5142 19.9985 14.3981 19.9985H16.8986C17.7825 19.9985 18.6302 19.6474 19.2552 19.0224C19.8802 18.3974 20.2313 17.5497 20.2313 16.6658V14.1653C20.2313 13.2816 19.8803 12.4341 19.2555 11.8091C18.6308 11.1841 17.7833 10.8329 16.8996 10.8326ZM18.567 16.6668C18.567 17.1091 18.3913 17.5332 18.0786 17.8458C17.7659 18.1585 17.3418 18.3342 16.8996 18.3342H14.3981C13.9559 18.3342 13.5318 18.1585 13.2191 17.8458C12.9064 17.5332 12.7308 17.1091 12.7308 16.6668V14.1653C12.7313 13.7235 12.9072 13.2999 13.2198 12.9876C13.5325 12.6754 13.9562 12.5 14.3981 12.5H16.8986C17.3407 12.4997 17.7647 12.675 18.0776 12.9873C18.3904 13.2996 18.5664 13.7233 18.567 14.1653V16.6668Z" fill="black"/>
</svg>
