<svg width="19" height="22" viewBox="0 0 19 22" fill="none" xmlns="http://www.w3.org/2000/svg">
<path d="M10.6434 3.28125V4.80863C12.4469 5.12384 14.0814 6.06506 15.2594 7.46666C16.4373 8.86826 17.0832 10.6404 17.0833 12.4712C17.0834 13.4926 16.8823 14.5041 16.4916 15.4477C16.1008 16.3914 15.5278 17.2489 14.8056 17.9712C14.0834 18.6935 13.2261 19.2664 12.2825 19.6573C11.3389 20.0482 10.3275 20.2494 9.30612 20.2494C8.28468 20.2494 7.27319 20.0482 6.3295 19.6573C5.38581 19.2664 4.52821 18.6935 3.80594 17.9712C3.08368 17.249 2.51089 16.3915 2.12 15.4478C1.72911 14.5041 1.5278 13.4927 1.5278 12.4712C1.52806 10.6404 2.17406 8.8684 3.35195 7.46684C4.52984 6.06527 6.16425 5.12402 7.96767 4.80863V3.28125C5.75942 3.60299 3.74085 4.70892 2.28104 6.39678C0.821238 8.08463 0.0176533 10.2416 0.0175781 12.4732C0.0178313 14.9364 0.996663 17.2987 2.73854 19.0404C4.48041 20.7821 6.84287 21.7605 9.30612 21.7605C11.7692 21.7603 14.1313 20.7817 15.873 19.0401C17.6147 17.2984 18.5933 14.9363 18.5935 12.4732C18.5932 10.2417 17.7896 8.08479 16.3298 6.39698C14.87 4.70917 12.8516 3.60318 10.6434 3.28125Z" fill="black"/>
<path d="M8.55127 1.0768L8.55127 15.0675C8.55127 15.483 8.88805 15.8198 9.3035 15.8198C9.71895 15.8198 10.0557 15.483 10.0557 15.0675V1.0768C10.0557 0.661357 9.71895 0.324572 9.3035 0.324572C8.88805 0.324572 8.55127 0.661357 8.55127 1.0768Z" fill="black"/>
</svg>
