<svg width="20" height="20" viewBox="0 0 20 20" fill="none" xmlns="http://www.w3.org/2000/svg">
<path d="M16.575 13.0023C16.575 13.2373 16.5054 13.467 16.3749 13.6623C16.2444 13.8577 16.0589 14.0099 15.8419 14.0998C15.6248 14.1897 15.386 14.2133 15.1556 14.1674C14.9253 14.1216 14.7136 14.0085 14.5475 13.8423C14.3814 13.6762 14.2683 13.4645 14.2225 13.2341C14.1767 13.0037 14.2002 12.7648 14.2901 12.5478C14.38 12.3307 14.5322 12.1452 14.7275 12.0146C14.9228 11.8841 15.1524 11.8144 15.3874 11.8144C15.7023 11.8144 16.0044 11.9396 16.2272 12.1624C16.4499 12.3851 16.575 12.6873 16.575 13.0023ZM18.9504 6.67266C18.7404 6.67266 18.539 6.75609 18.3905 6.90461C18.242 7.05313 18.1586 7.25456 18.1586 7.4646V16.966C18.1584 17.1759 18.0749 17.3772 17.9264 17.5257C17.778 17.6741 17.5767 17.7576 17.3668 17.7579H4.70016C4.07041 17.7571 3.46667 17.5066 3.02137 17.0612C2.57607 16.6158 2.32556 16.0119 2.32479 15.3821V7.4529C3.00941 7.96796 3.84251 8.24719 4.69918 8.24874H12.6151C12.8251 8.24874 13.0265 8.1653 13.175 8.01678C13.3235 7.86827 13.4069 7.66683 13.4069 7.4568C13.4069 7.24676 13.3235 7.04533 13.175 6.89681C13.0265 6.74829 12.8251 6.66485 12.6151 6.66485H4.70016C4.3683 6.6624 4.04064 6.5904 3.73832 6.45349C3.43601 6.31658 3.16574 6.1178 2.94496 5.86998C3.16572 5.62256 3.43611 5.42443 3.73853 5.28848C4.04095 5.15254 4.3686 5.08183 4.70016 5.08097H10.2417C10.4517 5.08097 10.6531 4.99753 10.8016 4.84901C10.9501 4.7005 11.0335 4.49906 11.0335 4.28903C11.0335 4.07899 10.9501 3.87756 10.8016 3.72904C10.6531 3.58052 10.4517 3.49708 10.2417 3.49708H4.70016C3.65047 3.4994 2.64451 3.91777 1.90264 4.66051C1.16076 5.40326 0.743475 6.40984 0.742188 7.45972L0.742188 15.3772C0.743478 16.4267 1.16089 17.4329 1.90287 18.175C2.64486 18.9172 3.65083 19.3346 4.70016 19.3359H17.3668C17.9966 19.3352 18.6003 19.0846 19.0456 18.6392C19.4909 18.1938 19.7414 17.59 19.7422 16.9601V7.45972C19.7409 7.25053 19.6569 7.05035 19.5086 6.90288C19.3602 6.75542 19.1596 6.67265 18.9504 6.67266ZM13.9647 3.66776L14.9915 2.65345V7.45972C14.9915 7.66976 15.0749 7.87119 15.2234 8.01971C15.3719 8.16823 15.5732 8.25166 15.7832 8.25166C15.9932 8.25166 16.1946 8.16823 16.3431 8.01971C16.4916 7.87119 16.575 7.66976 16.575 7.45972V2.66808L17.6067 3.67166C17.7571 3.81807 17.9595 3.89872 18.1693 3.89589C18.3791 3.89305 18.5793 3.80696 18.7256 3.65654C18.872 3.50613 18.9527 3.30372 18.9498 3.09384C18.947 2.88395 18.8609 2.68379 18.7105 2.53739L16.9475 0.820862C16.6351 0.510269 16.2125 0.335938 15.772 0.335938C15.3315 0.335938 14.9089 0.510269 14.5965 0.820862L12.8511 2.54226C12.7771 2.6154 12.7183 2.70238 12.678 2.79825C12.6376 2.89412 12.6166 2.997 12.616 3.10102C12.6148 3.31108 12.6971 3.51302 12.8448 3.6624C12.9924 3.81177 13.1934 3.89636 13.4034 3.89755C13.6134 3.89874 13.8153 3.81643 13.9647 3.66874V3.66776Z" fill="black"/>
</svg>
