<svg width="20" height="21" viewBox="0 0 20 21" fill="none" xmlns="http://www.w3.org/2000/svg">
<path d="M7.2777 10.8774C8.25163 10.878 9.20385 10.5852 10.0139 10.0361C10.824 9.48698 11.4555 8.70624 11.8286 7.79262C12.2016 6.879 12.2995 5.87353 12.1099 4.9034C11.9202 3.93326 11.4515 3.04205 10.763 2.34247C10.0745 1.6429 9.19719 1.1664 8.24201 0.973237C7.28683 0.780077 6.2967 0.878935 5.39685 1.25731C4.497 1.63568 3.72787 2.27657 3.18672 3.09892C2.64558 3.92126 2.35674 4.88811 2.35674 5.87719C2.35891 7.20217 2.87798 8.4723 3.80029 9.40947C4.7226 10.3466 5.97299 10.8745 7.2777 10.8774ZM7.2777 2.5437C7.92691 2.5437 8.56154 2.7392 9.10134 3.10549C9.64114 3.47178 10.0619 3.9924 10.3103 4.60152C10.5587 5.21063 10.6237 5.88088 10.4971 6.52752C10.3704 7.17415 10.0578 7.76812 9.59875 8.23432C9.13969 8.70051 8.55481 9.018 7.91808 9.14662C7.28134 9.27525 6.62135 9.20923 6.02155 8.95693C5.42176 8.70462 4.90911 8.27736 4.54843 7.72917C4.18774 7.18098 3.99523 6.53649 3.99523 5.87719C3.9974 4.99402 4.34402 4.14771 4.95921 3.52348C5.5744 2.89925 6.40805 2.54795 7.2777 2.54648V2.5437ZM8.09147 13.3261C8.1173 13.545 8.05678 13.7654 7.92314 13.9392C7.7895 14.113 7.59358 14.226 7.37816 14.2536C5.99126 14.4339 4.71645 15.1209 3.792 16.1862C2.86754 17.2515 2.35669 18.6222 2.35491 20.0422C2.35491 20.2636 2.26831 20.4759 2.11416 20.6325C1.96 20.789 1.75093 20.877 1.53292 20.877C1.31492 20.877 1.10584 20.789 0.951692 20.6325C0.797539 20.4759 0.710938 20.2636 0.710938 20.0422C0.712238 18.2154 1.36937 16.4518 2.55921 15.0818C3.74905 13.7118 5.38995 12.8293 7.17449 12.5998C7.39007 12.5736 7.60712 12.635 7.77824 12.7708C7.94935 12.9065 8.06065 13.1054 8.08781 13.3242L8.09147 13.3261ZM19.3372 16.8219L18.538 16.3581C18.8422 15.512 18.8422 14.584 18.538 13.7379L19.3372 13.2741C19.5137 13.1575 19.6394 12.9766 19.6884 12.7686C19.7374 12.5606 19.7059 12.3415 19.6005 12.1564C19.4951 11.9713 19.3237 11.8344 19.1218 11.7738C18.9198 11.7132 18.7027 11.7337 18.5152 11.8309L17.7169 12.2947C17.1338 11.6172 16.3493 11.151 15.482 10.9665V10.0445C15.482 9.82312 15.3954 9.61079 15.2413 9.45424C15.0871 9.2977 14.8781 9.20975 14.6601 9.20975C14.442 9.20975 14.233 9.2977 14.0788 9.45424C13.9247 9.61079 13.8381 9.82312 13.8381 10.0445V10.9618C12.9711 11.147 12.1868 11.6132 11.6032 12.29L10.8049 11.8263C10.6174 11.729 10.4003 11.7086 10.1983 11.7692C9.9964 11.8297 9.82505 11.9667 9.71962 12.1518C9.6142 12.3369 9.58274 12.556 9.63173 12.764C9.68073 12.9719 9.80644 13.1529 9.98295 13.2695L10.7821 13.7332C10.4779 14.5793 10.4779 15.5074 10.7821 16.3535L9.98295 16.8172C9.88358 16.8687 9.79559 16.9403 9.72432 17.0274C9.65305 17.1146 9.6 17.2156 9.5684 17.3243C9.5368 17.4329 9.52731 17.547 9.54051 17.6595C9.55371 17.772 9.58933 17.8806 9.64519 17.9786C9.70105 18.0767 9.77598 18.1622 9.86543 18.2299C9.95487 18.2977 10.057 18.3462 10.1655 18.3725C10.274 18.3989 10.3866 18.4026 10.4966 18.3833C10.6065 18.364 10.7114 18.3222 10.8049 18.2604L11.6032 17.7967C12.1864 18.4741 12.9708 18.9404 13.8381 19.1249V20.0422C13.8381 20.2636 13.9247 20.4759 14.0788 20.6325C14.233 20.789 14.442 20.877 14.6601 20.877C14.8781 20.877 15.0871 20.789 15.2413 20.6325C15.3954 20.4759 15.482 20.2636 15.482 20.0422V19.1249C16.349 18.9397 17.1333 18.4735 17.7169 17.7967L18.5152 18.2604C18.7027 18.3577 18.9198 18.3781 19.1218 18.3175C19.3237 18.257 19.4951 18.12 19.6005 17.9349C19.7059 17.7498 19.7374 17.5307 19.6884 17.3227C19.6394 17.1148 19.5137 16.9338 19.3372 16.8172V16.8219ZM14.6628 17.5435C14.1751 17.5435 13.6983 17.3966 13.2928 17.1214C12.8873 16.8462 12.5712 16.4551 12.3845 15.9975C12.1979 15.5399 12.1491 15.0364 12.2442 14.5506C12.3394 14.0648 12.5742 13.6186 12.9191 13.2684C13.264 12.9181 13.7034 12.6796 14.1817 12.583C14.6601 12.4864 15.1559 12.536 15.6065 12.7255C16.0571 12.9151 16.4422 13.236 16.7132 13.6479C16.9841 14.0597 17.1288 14.5439 17.1288 15.0392C17.1289 15.368 17.0652 15.6937 16.9414 15.9976C16.8176 16.3015 16.636 16.5776 16.4071 16.8102C16.1782 17.0429 15.9065 17.2274 15.6073 17.3534C15.3082 17.4794 14.9875 17.5443 14.6637 17.5444L14.6628 17.5435Z" fill="black"/>
</svg>
