<svg width="20" height="21" viewBox="0 0 20 21" fill="none" xmlns="http://www.w3.org/2000/svg">
<path d="M19.9511 6.45847L19.2151 10.1168C19.0239 11.0599 18.5133 11.9081 17.7694 12.5184C17.0254 13.1287 16.0937 13.4638 15.1314 13.467H5.61173C5.78364 13.9542 6.10249 14.3761 6.52431 14.6745C6.94612 14.9729 7.45013 15.133 7.96682 15.1329H15.8343C16.0553 15.1329 16.2673 15.2207 16.4236 15.377C16.5799 15.5333 16.6678 15.7453 16.6678 15.9663C16.6678 16.1874 16.5799 16.3994 16.4236 16.5556C16.2673 16.7119 16.0553 16.7997 15.8343 16.7997H7.96682C6.94643 16.7978 5.96204 16.4225 5.19939 15.7446C4.43674 15.0668 3.94858 14.1333 3.82702 13.1202L2.67707 3.36952C2.65261 3.16698 2.55493 2.98036 2.40243 2.84482C2.24994 2.70928 2.05314 2.63416 1.84911 2.63362H0.83348C0.612427 2.63362 0.400428 2.54581 0.244121 2.38952C0.0878128 2.23322 0 2.02124 0 1.80021C0 1.57917 0.0878128 1.36719 0.244121 1.2109C0.400428 1.0546 0.612427 0.966797 0.83348 0.966797H1.85003C2.46241 0.967446 3.05332 1.19245 3.51102 1.59926C3.96872 2.00607 4.26147 2.56648 4.33391 3.17451L4.36703 3.46611H7.5004C7.72145 3.46611 7.93345 3.55391 8.08976 3.71021C8.24607 3.8665 8.33388 4.07848 8.33388 4.29952C8.33388 4.52055 8.24607 4.73253 8.08976 4.88883C7.93345 5.04512 7.72145 5.13293 7.5004 5.13293H4.56666L5.35046 11.7993H15.1342C15.7114 11.7979 16.2703 11.5973 16.7167 11.2314C17.163 10.8655 17.4694 10.3568 17.584 9.79119L18.32 6.13283C18.3433 6.01189 18.3398 5.88731 18.3096 5.76788C18.2795 5.64846 18.2235 5.53712 18.1455 5.44173C18.0676 5.34635 17.9697 5.26925 17.8587 5.21588C17.7476 5.16252 17.6263 5.1342 17.5031 5.13293H14.1673C13.9463 5.13293 13.7343 5.04512 13.578 4.88883C13.4217 4.73253 13.3338 4.52055 13.3338 4.29952C13.3338 4.07848 13.4217 3.8665 13.578 3.71021C13.7343 3.55391 13.9463 3.46611 14.1673 3.46611H17.5012C17.8712 3.46636 18.2365 3.54869 18.5708 3.70717C18.9051 3.86565 19.2 4.09633 19.4344 4.38258C19.6687 4.66882 19.8366 5.0035 19.926 5.36248C20.0153 5.72145 20.0239 6.09578 19.9511 6.45847ZM5.83344 17.6332C5.50375 17.6332 5.18146 17.7309 4.90733 17.9141C4.6332 18.0972 4.41954 18.3575 4.29337 18.6621C4.1672 18.9667 4.13419 19.3018 4.19851 19.6252C4.26283 19.9485 4.42159 20.2455 4.65472 20.4786C4.88785 20.7117 5.18487 20.8705 5.50823 20.9348C5.83159 20.9991 6.16676 20.9661 6.47136 20.8399C6.77596 20.7138 7.0363 20.5001 7.21947 20.226C7.40263 19.9519 7.5004 19.6296 7.5004 19.3C7.49919 18.8583 7.32317 18.435 7.01082 18.1227C6.69846 17.8104 6.27517 17.6344 5.83344 17.6332ZM14.1673 17.6332C13.8376 17.6332 13.5153 17.7309 13.2412 17.9141C12.9671 18.0972 12.7534 18.3575 12.6272 18.6621C12.5011 18.9667 12.4681 19.3018 12.5324 19.6252C12.5967 19.9485 12.7555 20.2455 12.9886 20.4786C13.2217 20.7117 13.5188 20.8705 13.8421 20.9348C14.1655 20.9991 14.5006 20.9661 14.8052 20.8399C15.1098 20.7138 15.3702 20.5001 15.5533 20.226C15.7365 19.9519 15.8343 19.6296 15.8343 19.3C15.8331 18.8583 15.6571 18.435 15.3447 18.1227C15.0323 17.8104 14.6091 17.6344 14.1673 17.6332ZM7.72763 7.00856C7.65281 7.0882 7.5945 7.18187 7.55607 7.28415C7.51763 7.38644 7.49982 7.49532 7.50367 7.60452C7.50752 7.71372 7.53294 7.82108 7.57849 7.92041C7.62403 8.01973 7.68879 8.10906 7.76903 8.18324L9.06709 9.40024C9.29977 9.63407 9.57647 9.81949 9.88122 9.9458C10.186 10.0721 10.5127 10.1368 10.8426 10.1361C11.1658 10.1377 11.4862 10.0751 11.7851 9.95214C12.084 9.82914 12.3555 9.64813 12.5841 9.41956L13.9088 8.186C14.0702 8.03572 14.1653 7.82748 14.1731 7.6071C14.181 7.38672 14.101 7.17224 13.9507 7.01086C13.8004 6.84947 13.5921 6.7544 13.3717 6.74655C13.1513 6.7387 12.9368 6.81872 12.7754 6.969L11.6715 7.99375V1.80021C11.6715 1.57917 11.5837 1.36719 11.4274 1.2109C11.2711 1.0546 11.0591 0.966797 10.838 0.966797C10.6169 0.966797 10.4049 1.0546 10.2486 1.2109C10.0923 1.36719 10.0045 1.57917 10.0045 1.80021V7.99191L8.90057 6.96716C8.82092 6.89235 8.72725 6.83405 8.62496 6.79562C8.52266 6.75718 8.41377 6.73937 8.30456 6.74322C8.19535 6.74707 8.08798 6.7725 7.98865 6.81804C7.88931 6.86358 7.79998 6.92833 7.72579 7.00856H7.72763Z" fill="black"/>
</svg>
