<svg width="14" height="14" viewBox="0 0 14 14" fill="none" xmlns="http://www.w3.org/2000/svg">
<path d="M10.883 0.541728L3.771 7.65373C3.49937 7.9239 3.28402 8.24526 3.13743 8.59922C2.99084 8.95318 2.91592 9.3327 2.917 9.71581V10.4992C2.917 10.6539 2.97846 10.8023 3.08786 10.9117C3.19725 11.0211 3.34563 11.0826 3.50034 11.0826H4.28375C4.66687 11.0836 5.04639 11.0087 5.40035 10.8621C5.7543 10.7155 6.07567 10.5002 6.34584 10.2286L13.4578 3.11656C13.7987 2.77483 13.9902 2.31184 13.9902 1.82914C13.9902 1.34645 13.7987 0.883462 13.4578 0.541728C13.1111 0.210333 12.65 0.0253906 12.1704 0.0253906C11.6908 0.0253906 11.2297 0.210333 10.883 0.541728ZM12.633 2.29173L5.521 9.40373C5.19208 9.73065 4.74751 9.91468 4.28375 9.91589H4.08367V9.71581C4.08489 9.25206 4.26892 8.80749 4.59584 8.47856L11.7078 1.36656C11.8324 1.24754 11.9981 1.18112 12.1704 1.18112C12.3427 1.18112 12.5084 1.24754 12.633 1.36656C12.7555 1.48936 12.8242 1.65571 12.8242 1.82914C12.8242 2.00258 12.7555 2.16893 12.633 2.29173Z" fill="#A1A1A1"/>
<path d="M13.4167 5.23775C13.262 5.23775 13.1136 5.29921 13.0042 5.40861C12.8948 5.518 12.8333 5.66637 12.8333 5.82108V8.75H10.5C10.0359 8.75 9.59075 8.93437 9.26256 9.26256C8.93437 9.59075 8.75 10.0359 8.75 10.5V12.8333H2.91667C2.45254 12.8333 2.00742 12.649 1.67923 12.3208C1.35104 11.9926 1.16667 11.5475 1.16667 11.0833V2.91667C1.16667 2.45254 1.35104 2.00742 1.67923 1.67923C2.00742 1.35104 2.45254 1.16667 2.91667 1.16667H8.19117C8.34588 1.16667 8.49425 1.10521 8.60365 0.995812C8.71304 0.886416 8.7745 0.738043 8.7745 0.583333C8.7745 0.428624 8.71304 0.280251 8.60365 0.170854C8.49425 0.0614582 8.34588 0 8.19117 0L2.91667 0C2.1434 0.00092625 1.40208 0.308515 0.855295 0.855295C0.308515 1.40208 0.00092625 2.1434 0 2.91667L0 11.0833C0.00092625 11.8566 0.308515 12.5979 0.855295 13.1447C1.40208 13.6915 2.1434 13.9991 2.91667 14H9.53342C9.91662 14.0011 10.2962 13.9262 10.6503 13.7796C11.0043 13.633 11.3258 13.4177 11.5961 13.146L13.1454 11.5955C13.4171 11.3253 13.6325 11.004 13.7792 10.65C13.9259 10.2961 14.0009 9.91656 14 9.53342V5.82108C14 5.66637 13.9385 5.518 13.8291 5.40861C13.7198 5.29921 13.5714 5.23775 13.4167 5.23775ZM10.7713 12.3212C10.5368 12.5551 10.2402 12.717 9.91667 12.7878V10.5C9.91667 10.3453 9.97812 10.1969 10.0875 10.0875C10.1969 9.97812 10.3453 9.91667 10.5 9.91667H12.7896C12.7174 10.2396 12.5557 10.5355 12.3229 10.7707L10.7713 12.3212Z" fill="#A1A1A1"/>
</svg>
