<svg width="141" height="141" viewBox="0 0 141 141" fill="none" xmlns="http://www.w3.org/2000/svg">
<g clip-path="url(#clip0_959_1593)">
<g clip-path="url(#clip1_959_1593)">
<path d="M61.5624 138.03C91.157 138.03 115.148 136.904 115.148 135.515C115.148 134.126 91.157 133 61.5624 133C31.9678 133 7.97656 134.126 7.97656 135.515C7.97656 136.904 31.9678 138.03 61.5624 138.03Z" fill="#FCFCFC"/>
<g opacity="0.1" filter="url(#filter0_f_959_1593)">
<path d="M68.5073 134.93C96.3192 133.441 118.826 131.511 118.779 130.618C118.731 129.726 96.1462 130.21 68.3343 131.699C40.5225 133.188 18.0153 135.118 18.0631 136.01C18.1108 136.903 40.6955 136.419 68.5073 134.93Z" fill="#747474"/>
</g>
<path d="M11.0599 32.1669L2.32752 34.4654C-0.716375 22.029 6.05698 20.6205 6.05698 20.6205C6.05698 20.6205 8.69772 24.9531 11.0599 32.1669Z" fill="#999999"/>
<path d="M86.5404 6.07061C86.5404 6.07061 99.7591 3.22094 103.436 23.5595C107.101 43.8322 103.048 87.919 113.065 105.548C89.8828 114.997 40.8049 117.081 40.8049 117.081C40.8049 117.081 48.7297 133.481 36.1277 135.759C23.5257 138.038 15.251 71.4577 14.6948 52.674C14.4706 45.6977 13.2456 38.7886 11.0577 32.1603C8.69548 24.9466 6.05859 20.6133 6.05859 20.6133L86.5404 6.07061Z" fill="#FCFCFC"/>
<path opacity="0.21" d="M85.3872 17.6678C85.5656 17.6313 85.7513 17.6672 85.9036 17.7678C86.056 17.8684 86.1626 18.0254 86.2002 18.2046C86.2196 18.2936 86.2211 18.3856 86.2045 18.4752C86.1879 18.5647 86.1536 18.6499 86.1035 18.7258C86.0022 18.878 85.8463 18.985 85.6683 19.0244L33.0417 29.9904C32.8627 30.0276 32.6763 29.9917 32.5234 29.8908C32.3705 29.7898 32.2637 29.632 32.2264 29.4521C32.1891 29.2722 32.2245 29.0849 32.3247 28.9315C32.4248 28.778 32.5816 28.671 32.7606 28.6338L85.3872 17.6678Z" fill="#999999"/>
<path opacity="0.21" d="M78.6862 21.8095C78.859 21.7735 79.0391 21.808 79.1869 21.9054C79.3347 22.0028 79.438 22.1551 79.4741 22.3288C79.5103 22.5026 79.4763 22.6835 79.3797 22.8318C79.2831 22.9801 79.1317 23.0837 78.9589 23.1197L33.5611 32.5788C33.3883 32.6149 33.2082 32.5804 33.0604 32.483C32.9126 32.3856 32.8093 32.2333 32.7732 32.0596C32.737 31.8858 32.771 31.7049 32.8676 31.5566C32.9642 31.4083 33.1156 31.3047 33.2884 31.2687L78.6862 21.8095Z" fill="#999999"/>
<path d="M29.533 25.9433L31.0154 36.3428L20.3139 38.5735L18.8308 28.17L29.533 25.9433Z" fill="#F2F2F2"/>
<path opacity="0.21" d="M87.033 38.0387C87.2007 38.0163 87.3707 38.0585 87.5089 38.1569C87.6471 38.2552 87.7432 38.4025 87.7778 38.569C87.8125 38.7356 87.7831 38.909 87.6956 39.0544C87.6081 39.1998 87.469 39.3064 87.3063 39.3527L36.9216 49.8495C36.8331 49.8747 36.7405 49.8813 36.6493 49.8689C36.5582 49.8565 36.4705 49.8253 36.3918 49.7774C36.3131 49.7295 36.245 49.6658 36.1918 49.5903C36.1387 49.5149 36.1015 49.4292 36.0827 49.3387C36.0638 49.2483 36.0638 49.1549 36.0824 49.0644C36.1011 48.974 36.1381 48.8884 36.1912 48.813C36.2442 48.7377 36.3122 48.6741 36.3908 48.6264C36.4695 48.5786 36.5571 48.5477 36.6482 48.5354L87.033 38.0387Z" fill="#999999"/>
<path opacity="0.21" d="M81.4614 36.1896C81.6342 36.1536 81.8143 36.188 81.9621 36.2854C82.1098 36.3828 82.2132 36.5351 82.2493 36.7088C82.2855 36.8826 82.2515 37.0635 82.1549 37.2118C82.0582 37.3601 81.9069 37.4637 81.734 37.4997L36.3209 46.9616C36.148 46.9977 35.9679 46.9632 35.8202 46.8658C35.6724 46.7684 35.5691 46.6161 35.5329 46.4424C35.4968 46.2686 35.5307 46.0877 35.6274 45.9394C35.724 45.7911 35.8754 45.6875 36.0482 45.6515L81.4614 36.1896Z" fill="#999999"/>
<path opacity="0.21" d="M67.4586 44.6931C67.6263 44.6706 67.7963 44.7128 67.9345 44.8112C68.0727 44.9096 68.1688 45.0569 68.2035 45.2234C68.2381 45.3899 68.2087 45.5633 68.1212 45.7087C68.0338 45.8541 67.8947 45.9607 67.7319 46.0071L37.0678 52.3947C36.9001 52.4171 36.7301 52.3749 36.5919 52.2765C36.4537 52.1782 36.3576 52.0309 36.3229 51.8644C36.2883 51.6978 36.3177 51.5244 36.4052 51.379C36.4927 51.2336 36.6317 51.127 36.7945 51.0806L67.4586 44.6931Z" fill="#999999"/>
<path d="M33.1365 43.2597L34.6204 53.667L23.9188 55.8976L22.435 45.4903L33.1365 43.2597Z" fill="#F2F2F2"/>
<path opacity="0.21" d="M89.9704 53.888C90.056 53.8702 90.1442 53.8695 90.2301 53.8859C90.316 53.9023 90.3979 53.9356 90.4711 53.9838C90.5443 54.0321 90.6073 54.0943 90.6566 54.1669C90.7059 54.2396 90.7404 54.3212 90.7583 54.4073C90.7762 54.4933 90.7771 54.582 90.7609 54.6683C90.7447 54.7546 90.7117 54.8368 90.6639 54.9103C90.616 54.9837 90.5543 55.0469 90.482 55.0963C90.4098 55.1457 90.3286 55.1803 90.2431 55.1981L39.8583 65.6949C39.7728 65.7127 39.6845 65.7134 39.5986 65.697C39.5127 65.6805 39.4308 65.6472 39.3576 65.599C39.2845 65.5508 39.2215 65.4886 39.1722 65.4159C39.1229 65.3433 39.0883 65.2616 39.0704 65.1756C39.0525 65.0896 39.0516 65.0009 39.0678 64.9146C39.084 64.8283 39.117 64.746 39.1648 64.6726C39.2127 64.5992 39.2745 64.5359 39.3467 64.4865C39.4189 64.4371 39.5001 64.4025 39.5857 64.3847L89.9704 53.888Z" fill="#999999"/>
<path opacity="0.21" d="M84.3796 52.0423C84.5473 52.0198 84.7173 52.062 84.8555 52.1604C84.9937 52.2588 85.0898 52.4061 85.1245 52.5726C85.1591 52.7391 85.1298 52.9125 85.0423 53.0579C84.9548 53.2033 84.8157 53.31 84.653 53.3563L39.2566 62.8232C39.1682 62.8484 39.0755 62.855 38.9843 62.8426C38.8932 62.8302 38.8055 62.7991 38.7268 62.7512C38.6481 62.7033 38.58 62.6396 38.5269 62.5641C38.4737 62.4886 38.4365 62.403 38.4177 62.3125C38.3989 62.222 38.3988 62.1286 38.4174 62.0382C38.4361 61.9477 38.4731 61.8622 38.5262 61.7868C38.5793 61.7114 38.6472 61.6479 38.7259 61.6001C38.8045 61.5524 38.8921 61.5214 38.9832 61.5092L84.3796 52.0423Z" fill="#999999"/>
<path opacity="0.21" d="M70.3928 60.5409C70.4784 60.5231 70.5667 60.5224 70.6526 60.5388C70.7385 60.5552 70.8204 60.5885 70.8935 60.6368C70.9667 60.685 71.0297 60.7472 71.079 60.8198C71.1283 60.8925 71.1629 60.9742 71.1808 61.0602C71.1987 61.1462 71.1996 61.2349 71.1834 61.3212C71.1672 61.4075 71.1342 61.4897 71.0863 61.5632C71.0385 61.6366 70.9767 61.6998 70.9045 61.7492C70.8323 61.7986 70.7511 61.8332 70.6655 61.8511L40.0014 68.2386C39.8286 68.2746 39.6485 68.2401 39.5007 68.1428C39.353 68.0454 39.2496 67.8931 39.2135 67.7193C39.1773 67.5456 39.2113 67.3647 39.3079 67.2163C39.4046 67.068 39.5559 66.9645 39.7287 66.9285L70.3928 60.5409Z" fill="#999999"/>
<path d="M36.7381 60.5761L38.2212 70.9795L27.5197 73.2102L26.0366 62.8067L36.7381 60.5761Z" fill="#F2F2F2"/>
<path opacity="0.21" d="M95.7414 69.1774C95.8766 69.1471 96.0177 69.1585 96.1465 69.2101C96.2753 69.2617 96.3857 69.3511 96.4632 69.4666C96.5408 69.5821 96.582 69.7183 96.5813 69.8575C96.5807 69.9968 96.5384 70.1325 96.4598 70.247C96.4112 70.3252 96.3474 70.3927 96.2722 70.4455C96.197 70.4983 96.1119 70.5352 96.0221 70.554L43.3954 81.52C43.2603 81.5503 43.1191 81.5389 42.9903 81.4873C42.8615 81.4357 42.7512 81.3464 42.6736 81.2309C42.596 81.1154 42.5548 80.9791 42.5555 80.8399C42.5561 80.7007 42.5984 80.5649 42.677 80.4504C42.7781 80.2984 42.9347 80.1925 43.113 80.1557L95.7414 69.1774Z" fill="#999999"/>
<path opacity="0.21" d="M89.0378 73.3174C89.2106 73.2813 89.3907 73.3158 89.5385 73.4132C89.6862 73.5106 89.7895 73.6629 89.8257 73.8366C89.8619 74.0104 89.8279 74.1913 89.7313 74.3396C89.6346 74.4879 89.4832 74.5915 89.3104 74.6275L43.9127 84.0866C43.7398 84.1227 43.5597 84.0882 43.412 83.9908C43.2642 83.8934 43.1609 83.7411 43.1247 83.5674C43.0886 83.3936 43.1225 83.2127 43.2192 83.0644C43.3158 82.9161 43.4672 82.8125 43.64 82.7765L89.0378 73.3174Z" fill="#999999"/>
<path d="M40.3416 77.8925L41.8247 88.2959L31.1232 90.5266L29.6355 80.12L40.3416 77.8925Z" fill="#F2F2F2"/>
<path opacity="0.21" d="M97.3884 89.5387C97.5561 89.5163 97.7262 89.5585 97.8644 89.6569C98.0026 89.7552 98.0987 89.9025 98.1333 90.069C98.168 90.2356 98.1386 90.409 98.0511 90.5544C97.9636 90.6998 97.8245 90.8064 97.6618 90.8527L47.2777 101.353C47.1893 101.379 47.0966 101.385 47.0055 101.373C46.9143 101.36 46.8267 101.329 46.748 101.281C46.6693 101.233 46.6012 101.17 46.548 101.094C46.4948 101.019 46.4577 100.933 46.4388 100.843C46.42 100.752 46.4199 100.659 46.4386 100.568C46.4573 100.478 46.4943 100.392 46.5474 100.317C46.6004 100.242 46.6684 100.178 46.747 100.13C46.8256 100.082 46.9132 100.052 47.0044 100.039L97.3884 89.5387Z" fill="#999999"/>
<path opacity="0.21" d="M91.8034 87.708C91.889 87.6901 91.9772 87.6894 92.0631 87.7059C92.149 87.7223 92.2309 87.7556 92.3041 87.8038C92.3773 87.852 92.4403 87.9143 92.4896 87.9869C92.5389 88.0596 92.5734 88.1412 92.5913 88.2273C92.6092 88.3133 92.6101 88.402 92.5939 88.4883C92.5777 88.5746 92.5447 88.6568 92.4969 88.7302C92.449 88.8037 92.3873 88.8669 92.315 88.9163C92.2428 88.9657 92.1616 89.0003 92.0761 89.0181L46.6783 98.4773C46.5927 98.4951 46.5045 98.4958 46.4185 98.4794C46.3326 98.4629 46.2508 98.4297 46.1776 98.3814C46.1044 98.3332 46.0414 98.271 45.9921 98.1983C45.9428 98.1257 45.9083 98.044 45.8903 97.958C45.8724 97.872 45.8716 97.7833 45.8878 97.697C45.904 97.6107 45.937 97.5285 45.9848 97.455C46.0326 97.3816 46.0944 97.3184 46.1666 97.269C46.2388 97.2196 46.32 97.185 46.4056 97.1671L91.8034 87.708Z" fill="#999999"/>
<path opacity="0.21" d="M77.8121 96.1931C77.9798 96.1706 78.1498 96.2128 78.2881 96.3112C78.4263 96.4096 78.5223 96.5569 78.557 96.7234C78.5916 96.8899 78.5622 97.0633 78.4748 97.2087C78.3873 97.3541 78.2482 97.4607 78.0855 97.5071L47.422 103.899C47.2544 103.921 47.0843 103.879 46.9461 103.78C46.8079 103.682 46.7118 103.535 46.6772 103.368C46.6425 103.202 46.6719 103.028 46.7594 102.883C46.8469 102.737 46.986 102.631 47.1487 102.585L77.8121 96.1931Z" fill="#999999"/>
<path d="M43.947 95.2082L45.4302 105.612L34.7241 107.839L33.2416 97.4395L43.947 95.2082Z" fill="#F2F2F2"/>
<path opacity="0.21" d="M103.277 101.629C103.456 101.592 103.642 101.628 103.795 101.729C103.948 101.829 104.056 101.986 104.094 102.165C104.13 102.345 104.095 102.532 103.997 102.686C103.948 102.763 103.883 102.829 103.808 102.88C103.733 102.932 103.648 102.968 103.558 102.986L50.9342 113.943C50.8457 113.962 50.7543 113.963 50.6653 113.946C50.5763 113.929 50.4914 113.895 50.4156 113.845C50.3397 113.795 50.2743 113.731 50.2232 113.656C50.172 113.581 50.1361 113.496 50.1174 113.407C50.0808 113.227 50.1154 113.04 50.2141 112.886C50.316 112.734 50.4716 112.628 50.6493 112.587L103.277 101.629Z" fill="#999999"/>
<path opacity="0.21" d="M102.224 107.903C102.309 107.885 102.398 107.884 102.484 107.901C102.569 107.917 102.651 107.951 102.724 107.999C102.798 108.047 102.861 108.109 102.91 108.182C102.959 108.255 102.994 108.336 103.012 108.422C103.03 108.508 103.03 108.597 103.014 108.683C102.998 108.77 102.965 108.852 102.917 108.925C102.869 108.999 102.808 109.062 102.735 109.111C102.663 109.161 102.582 109.195 102.496 109.213L52.1078 119.71C51.935 119.746 51.7549 119.712 51.6072 119.615C51.4594 119.517 51.3561 119.365 51.3199 119.191C51.2838 119.017 51.3177 118.837 51.4144 118.688C51.511 118.54 51.6624 118.436 51.8352 118.4L102.224 107.903Z" fill="#999999"/>
<path opacity="0.21" d="M96.636 106.061C96.8037 106.038 96.9737 106.08 97.1119 106.179C97.2502 106.277 97.3462 106.424 97.3809 106.591C97.4155 106.757 97.3862 106.931 97.2987 107.076C97.2112 107.222 97.0721 107.328 96.9094 107.375L51.4962 116.836C51.3285 116.859 51.1584 116.817 51.0202 116.718C50.882 116.62 50.7859 116.473 50.7513 116.306C50.7166 116.14 50.746 115.966 50.8335 115.821C50.921 115.675 51.0601 115.569 51.2228 115.522L96.636 106.061Z" fill="#999999"/>
<path d="M82.6443 114.556C82.812 114.534 82.982 114.576 83.1202 114.674C83.2584 114.773 83.3545 114.92 83.3892 115.087C83.4238 115.253 83.3944 115.427 83.307 115.572C83.2195 115.717 83.0804 115.824 82.9176 115.87L52.2535 122.258C52.0807 122.294 51.9006 122.259 51.7528 122.162C51.6051 122.065 51.5018 121.912 51.4656 121.739C51.4294 121.565 51.4634 121.384 51.5601 121.236C51.6567 121.087 51.8081 120.984 51.9809 120.948L82.6443 114.556Z" fill="#B1B1B1"/>
<path d="M47.5559 112.525L49.039 122.928L38.3337 125.159L36.8505 114.756L47.5559 112.525Z" fill="#F2F2F2"/>
<path d="M113.086 105.541C116.995 103.951 120.169 102.146 122.247 100.111C122.247 100.111 128.494 105.779 122.216 120.2L36.1274 135.764C48.7295 133.486 40.8148 117.076 40.8148 117.076C40.8148 117.076 89.8927 114.993 113.086 105.541Z" fill="#999999"/>
</g>
<path d="M96.2026 15.0171L96.9359 28.4659C96.9505 28.7336 96.7249 28.9522 96.4578 28.9292C96.2812 28.914 96.1309 28.7946 96.0762 28.6259L91.7595 15.3159C91.5559 14.6882 92.0316 14.047 92.6913 14.0598L95.2624 14.1095C95.7651 14.1192 96.1752 14.5151 96.2026 15.0171Z" fill="#999999"/>
<path d="M106.223 17.5828L100.41 35.2581C100.163 36.0074 99.0437 35.7345 99.1696 34.9559L102.155 16.495C102.216 16.1184 102.591 15.8784 102.959 15.9805L105.786 16.7661C106.138 16.8639 106.337 17.2358 106.223 17.5828Z" fill="#727272"/>
<path d="M87.5337 41.5942L89.0488 37.8193C89.2641 37.2827 89.9015 37.0568 90.4067 37.3379L92.868 38.7078C93.2985 38.9473 93.4778 39.4739 93.283 39.9264L91.3715 44.3664C91.1043 44.9869 90.2969 45.1448 89.8157 44.6706L87.7508 42.6357C87.4752 42.364 87.3896 41.9534 87.5337 41.5942Z" fill="#727272"/>
<path d="M91.9249 69.6386C89.7224 71.4928 88.6539 75.2363 88.3713 76.9948C88.3582 77.0763 88.354 77.1668 88.3659 77.2485C88.4529 77.8443 89.1243 78.0728 89.6941 77.8785C91.2128 77.3607 93.4086 76.6084 94.5883 76.1915C96.43 75.5406 102.529 76.9029 110.109 76.5178C115.962 76.0179 120.657 73.0264 122.273 71.5932C124.843 69.3177 129.549 62.6202 127.816 54.0338C125.649 43.3009 112.107 43.026 109.452 43.6169C106.796 44.2078 102.016 48.8587 101.365 50.0065C100.714 51.1543 101.511 54.8633 101.767 56.9276C102.024 58.992 104.311 59.1291 103.797 60.9793C103.283 62.8295 94.7431 67.2661 91.9249 69.6386Z" fill="#727272"/>
<path d="M81.667 45.1087C81.9908 46.2032 84.7576 50.4292 86.3233 52.7363C86.4914 52.9839 86.5707 53.2812 86.5268 53.5772C86.2831 55.219 85.4541 58.0451 83.5936 59.0966C81.0849 60.5144 80.9348 61.4721 82.1772 62.6377C82.2295 62.6868 82.2805 62.7407 82.3247 62.7973C85.1702 66.437 85.8264 69.4613 85.7331 71.3604C85.6909 72.2203 84.7297 72.4467 84.1009 71.8587L82.429 70.2952C82.3657 70.2361 82.3078 70.169 82.2567 70.099C79.025 65.6801 73.4973 67.046 65.3314 59.6695C58.7465 53.7212 58.0027 45.3986 58.454 41.9809C58.9853 38.4747 62.0368 31.1181 69.9927 29.7412C79.9376 28.02 84.006 34.2989 84.0573 35.3096C84.1087 36.3204 81.2388 43.661 81.667 45.1087Z" fill="#727272"/>
<path d="M91.423 59.6094C91.446 59.5265 92.6734 59.0724 93.8839 58.6449C94.7569 58.3366 95.7071 58.8425 95.9105 59.7457C96.0832 60.5126 96.2062 61.1952 96.1169 61.2457C95.9199 61.357 93.4271 63.1557 93.0759 63.2242C92.7247 63.2927 91.577 62.6417 91.0888 62.0078C90.6005 61.3739 91.3801 59.7636 91.423 59.6094Z" fill="#727272"/>
<circle cx="95.4924" cy="50.9406" r="1.76023" transform="rotate(15.5272 95.4924 50.9406)" fill="#999999"/>
<path d="M135.007 26.4272L122.334 35.3383C122.142 35.4733 122.041 35.7039 122.072 35.9365C122.128 36.3514 122.567 36.5968 122.95 36.4275L136.211 30.567C136.663 30.367 136.96 29.9241 136.973 29.4294L137.023 27.5077C137.05 26.4559 135.868 25.822 135.007 26.4272Z" fill="#727272"/>
<path d="M71.4599 8.99744L76.1381 20.6807C76.2616 20.9893 76.1554 21.3423 75.882 21.5314C75.5684 21.7482 75.1398 21.6798 74.9093 21.3762L67.7918 11.9974C67.4314 11.5224 67.4466 10.8614 67.8285 10.4035L69.2884 8.65333C69.9091 7.90912 71.0996 8.09777 71.4599 8.99744Z" fill="#999999"/>
<path d="M106.261 35.4981C105.856 35.6565 105.464 37.1646 105.19 38.6003C105.043 39.3656 105.844 39.9324 106.535 39.5712L110.183 37.6619C110.681 37.4011 110.849 36.7693 110.498 36.3302C110.039 35.7572 109.447 35.1398 108.916 34.9072C107.88 34.4532 107.006 35.2069 106.261 35.4981Z" fill="#999999"/>
<path d="M55.7716 74.9669L71.5394 68.321C71.7696 68.2239 72.036 68.3148 72.159 68.5323C72.2878 68.7602 72.2156 69.049 71.9949 69.1896L58.422 77.8316C58.0702 78.0557 57.6313 78.0942 57.2458 77.935L55.7802 77.3298C54.729 76.8957 54.7236 75.4087 55.7716 74.9669Z" fill="#999999"/>
<path d="M65.6369 79.4462L71.2862 75.1839C71.8779 74.7375 72.6285 75.4859 72.1838 76.0789L68.5648 80.9053C68.4066 81.1162 68.1353 81.2086 67.8813 81.138L65.8511 80.5739C65.3401 80.4319 65.2135 79.7657 65.6369 79.4462Z" fill="#727272"/>
<path d="M118.23 91.8242L111.64 83.4333C111.41 83.1414 110.973 83.1263 110.725 83.4018C110.575 83.5673 110.53 83.8024 110.608 84.0115L114.099 93.4084C114.315 93.9896 114.917 94.3325 115.527 94.2223L117.451 93.8746C118.4 93.7031 118.826 92.5829 118.23 91.8242Z" fill="#999999"/>
</g>
<defs>
<filter id="filter0_f_959_1593" x="13.3484" y="125.457" width="110.145" height="15.7143" filterUnits="userSpaceOnUse" color-interpolation-filters="sRGB">
<feFlood flood-opacity="0" result="BackgroundImageFix"/>
<feBlend mode="normal" in="SourceGraphic" in2="BackgroundImageFix" result="shape"/>
<feGaussianBlur stdDeviation="2.35729" result="effect1_foregroundBlur_959_1593"/>
</filter>
<clipPath id="clip0_959_1593">
<rect width="141" height="141" fill="white"/>
</clipPath>
<clipPath id="clip1_959_1593">
<rect width="125" height="152.083" fill="white" transform="translate(-8 0.449219) rotate(-3.0644)"/>
</clipPath>
</defs>
</svg>
