<svg width="200" height="141" viewBox="0 0 200 141" fill="none" xmlns="http://www.w3.org/2000/svg">
<path d="M30.6978 62.2031C28.5373 62.2031 27.0046 64.3099 27.6697 66.3655L45.9385 122.833C46.3634 124.146 47.5864 125.036 48.9667 125.036H118.257C119.637 125.036 120.86 124.146 121.285 122.833L139.554 66.3655C140.219 64.3099 138.686 62.2031 136.526 62.2031H30.6978Z" fill="#F2F2F2"/>
<path d="M50.3462 62.7441L65.1304 27.0898" stroke="#F2F2F2" stroke-width="4.77406" stroke-miterlimit="10" stroke-linecap="round"/>
<path d="M116.873 60.3542L102.089 27.0898" stroke="#F2F2F2" stroke-width="4.77406" stroke-miterlimit="10" stroke-linecap="round"/>
<rect x="110.068" y="76.6208" width="4.37622" height="15.5157" rx="2.18811" fill="white" stroke="#999999" stroke-width="0.397838"/>
<rect x="25.5291" y="62.0977" width="114.577" height="6.36541" rx="3.1827" fill="#727272"/>
<rect x="110.863" y="100.492" width="4.37622" height="15.5157" rx="2.18811" fill="white" stroke="#999999" stroke-width="0.397838"/>
<path d="M134.138 89.6715C146.525 89.6715 156.536 79.2697 156.536 66.4776C156.536 53.6854 146.525 43.2836 134.138 43.2836C121.75 43.2836 111.74 53.6854 111.74 66.4776C111.74 79.2697 121.75 89.6715 134.138 89.6715Z" fill="#FCFCFC" stroke="#727272" stroke-width="1.03438"/>
<path d="M39.7405 10.8008L40.908 14.0901" stroke="#999999" stroke-width="0.795676" stroke-linecap="round" stroke-linejoin="round"/>
<path d="M38.6794 13.0273L41.9687 11.8598" stroke="#999999" stroke-width="0.795676" stroke-linecap="round" stroke-linejoin="round"/>
<rect x="51.9841" y="76.6208" width="4.37622" height="15.5157" rx="2.18811" fill="white" stroke="#999999" stroke-width="0.397838"/>
<rect x="52.779" y="100.492" width="4.37622" height="15.5157" rx="2.18811" fill="white" stroke="#999999" stroke-width="0.397838"/>
<rect x="71.8769" y="76.6208" width="4.37622" height="15.5157" rx="2.18811" fill="white" stroke="#999999" stroke-width="0.397838"/>
<rect x="72.6721" y="100.492" width="4.37622" height="15.5157" rx="2.18811" fill="white" stroke="#999999" stroke-width="0.397838"/>
<rect x="90.9726" y="76.6208" width="4.37622" height="15.5157" rx="2.18811" fill="white" stroke="#999999" stroke-width="0.397838"/>
<rect x="91.7675" y="100.492" width="4.37622" height="15.5157" rx="2.18811" fill="white" stroke="#999999" stroke-width="0.397838"/>
<path d="M134.145 77.2176C132.386 77.2108 130.883 76.7866 129.636 75.9449C128.389 75.1032 127.436 73.8781 126.775 72.2694C126.115 70.6607 125.784 68.7228 125.784 66.4556C125.784 64.1953 126.115 62.2642 126.775 60.6623C127.443 59.0604 128.4 57.8386 129.647 56.9969C130.901 56.1552 132.401 55.7344 134.145 55.7344C135.889 55.7344 137.384 56.1586 138.631 57.0071C139.878 57.8488 140.831 59.0706 141.492 60.6725C142.16 62.2676 142.494 64.1953 142.494 66.4556C142.494 68.7295 142.163 70.6708 141.503 72.2795C140.842 73.8814 139.889 75.1066 138.642 75.9551C137.395 76.7968 135.896 77.2176 134.145 77.2176ZM134.145 74.4991C135.688 74.4991 136.894 73.8102 137.763 72.4323C138.638 71.0543 139.076 69.0621 139.076 66.4556C139.076 64.7248 138.876 63.262 138.475 62.0674C138.082 60.8659 137.514 59.9564 136.772 59.3387C136.037 58.7142 135.161 58.402 134.145 58.402C132.608 58.402 131.402 59.0943 130.527 60.479C129.651 61.8637 129.209 63.8559 129.202 66.4556C129.202 68.1933 129.399 69.6629 129.792 70.8643C130.193 72.0589 130.76 72.9651 131.495 73.5828C132.23 74.1937 133.113 74.4991 134.145 74.4991Z" fill="#727272" stroke="#F2F2F2" stroke-width="0.397838"/>
<path d="M15.748 37.9688L18.4097 45.4671" stroke="#999999" stroke-width="1.59135" stroke-linecap="round" stroke-linejoin="round"/>
<path d="M13.3301 43.0508L20.8285 40.3892" stroke="#999999" stroke-width="1.59135" stroke-linecap="round" stroke-linejoin="round"/>
<path d="M121.275 4.68359L119.904 11.2736" stroke="#999999" stroke-width="1.59135" stroke-linecap="round" stroke-linejoin="round"/>
<path d="M117.298 7.29297L123.888 8.66393" stroke="#999999" stroke-width="1.59135" stroke-linecap="round" stroke-linejoin="round"/>
<path d="M170.475 94.3633L173.383 98.2751" stroke="#999999" stroke-width="0.795676" stroke-linecap="round" stroke-linejoin="round"/>
<path d="M169.976 97.7695L173.888 94.8608" stroke="#999999" stroke-width="0.795676" stroke-linecap="round" stroke-linejoin="round"/>
<path d="M143.285 34.251L143.285 16.7461" stroke="#727272" stroke-width="1.59135" stroke-linecap="round"/>
<path d="M160.257 41.4472L174.58 27.125" stroke="#727272" stroke-width="1.59135" stroke-linecap="round"/>
<path d="M167.157 58.1211H187.049" stroke="#727272" stroke-width="1.59135" stroke-linecap="round"/>
</svg>
