<svg xmlns="http://www.w3.org/2000/svg" width="18" height="18" viewBox="0 0 18 18">
  <g id="Group_32244" data-name="Group 32244" transform="translate(-17 -252)">
    <rect id="Rectangle_12127" data-name="Rectangle 12127" width="18" height="18" transform="translate(17 252)" fill="rgba(255,255,255,0)"/>
    <path id="_3914366" data-name="3914366" d="M7.917,12.767a.532.532,0,0,1-.319-.106l-2.128-1.6a.532.532,0,0,1-.213-.426V7.65l-3.732-4.2A2.075,2.075,0,0,1,3.076,0H10.63a2.075,2.075,0,0,1,1.55,3.451L8.449,7.65v4.586A.532.532,0,0,1,7.917,12.767Zm-1.6-2.394,1.064.8V7.448a.532.532,0,0,1,.135-.353l3.866-4.35a1.011,1.011,0,0,0-.756-1.68H3.076a1.011,1.011,0,0,0-.756,1.68l3.867,4.35a.532.532,0,0,1,.134.353Z" transform="translate(18.998 254.699)"/>
  </g>
</svg>
