<svg width="93" height="134" viewBox="0 0 93 134" fill="none" xmlns="http://www.w3.org/2000/svg">
<g opacity="0.2">
<path d="M83.35 18.5078H22.489V54.6618C25.0323 51.2718 28.8173 48.4258 33.844 46.1238C38.889 43.8192 44.3756 42.6412 49.922 42.6718C60.0953 42.6718 68.362 44.8522 74.722 49.2128C80.8096 53.2427 85.5542 58.9996 88.347 65.7448C91.0778 72.4337 92.4671 79.5941 92.436 86.8188C92.5914 95.0765 90.8185 103.257 87.2581 110.709C83.8668 117.608 78.4884 123.334 71.8151 127.151C64.9711 131.147 56.5833 133.147 46.652 133.151C33.452 133.151 22.8543 129.881 14.859 123.341C6.86368 116.801 2.07975 108.141 0.50708 97.3618H20.673C21.8508 102.824 25.0245 107.65 29.573 110.896C34.173 114.229 39.9263 115.896 46.833 115.896C55.433 115.896 61.8824 113.292 66.181 108.085C70.4797 102.878 72.6296 95.9738 72.631 87.3738C72.631 78.6532 70.4511 71.9615 66.0911 67.2988C61.7311 62.6362 55.312 60.3048 46.834 60.3048C40.8973 60.3048 35.9014 61.7885 31.8461 64.7559C27.7417 67.786 24.6661 72.0029 23.035 76.8369H3.41309V0.34082H83.35V18.5078Z" fill="white"/>
</g>
</svg>
