<svg width="198" height="57" viewBox="0 0 198 57" fill="none" xmlns="http://www.w3.org/2000/svg">
<g clip-path="url(#clip0_296_2)">
<path d="M14.3664 44.1299V56.0508L0.928711 44.1299H14.3664Z" fill="#D42626"/>
<path d="M0.933105 0H198L179.694 21.3496L198 44.1343H0.933105V0Z" fill="#FF5252"/>
<path d="M23.5557 29V16.3965H27.5547C28.7734 16.3965 29.7373 16.6631 30.4463 17.1963C31.1611 17.7295 31.5186 18.4238 31.5186 19.2793C31.5186 19.9941 31.3164 20.6152 30.9121 21.1426C30.5078 21.6699 29.9482 22.0449 29.2334 22.2676V22.3027C30.1006 22.4023 30.792 22.7246 31.3076 23.2695C31.8291 23.8086 32.0898 24.5117 32.0898 25.3789C32.0898 26.457 31.665 27.3301 30.8154 27.998C29.9658 28.666 28.8936 29 27.5986 29H23.5557ZM25.6387 18.0752V21.6611H26.9922C27.7188 21.6611 28.2871 21.4912 28.6973 21.1514C29.1133 20.8057 29.3213 20.3193 29.3213 19.6924C29.3213 18.6143 28.6006 18.0752 27.1592 18.0752H25.6387ZM25.6387 23.3398V27.3301H27.4229C28.2021 27.3301 28.8027 27.1514 29.2246 26.7939C29.6523 26.4307 29.8662 25.9326 29.8662 25.2998C29.8662 23.9932 28.9609 23.3398 27.1504 23.3398H25.6387ZM41.8281 25.0537H35.6934C35.7168 25.8857 35.9717 26.5273 36.458 26.9785C36.9502 27.4297 37.624 27.6553 38.4795 27.6553C39.4404 27.6553 40.3223 27.3682 41.125 26.7939V28.4375C40.3047 28.9531 39.2207 29.2109 37.873 29.2109C36.5488 29.2109 35.5088 28.8037 34.7529 27.9893C34.0029 27.1689 33.6279 26.0176 33.6279 24.5352C33.6279 23.1348 34.041 21.9951 34.8672 21.1162C35.6992 20.2314 36.7305 19.7891 37.9609 19.7891C39.1914 19.7891 40.1436 20.1846 40.8174 20.9756C41.4912 21.7666 41.8281 22.8652 41.8281 24.2715V25.0537ZM39.8594 23.6123C39.8535 22.8799 39.6807 22.3115 39.3408 21.9072C39.001 21.4971 38.5322 21.292 37.9346 21.292C37.3486 21.292 36.8506 21.5059 36.4404 21.9336C36.0361 22.3613 35.7871 22.9209 35.6934 23.6123H39.8594ZM43.208 28.7188V26.8291C43.9697 27.4092 44.8105 27.6992 45.7305 27.6992C46.9609 27.6992 47.5762 27.3359 47.5762 26.6094C47.5762 26.4043 47.5234 26.2314 47.418 26.0908C47.3125 25.9443 47.1689 25.8154 46.9873 25.7041C46.8115 25.5928 46.6006 25.4932 46.3545 25.4053C46.1143 25.3174 45.8447 25.2178 45.5459 25.1064C45.1768 24.96 44.8428 24.8047 44.5439 24.6406C44.251 24.4766 44.0049 24.292 43.8057 24.0869C43.6123 23.876 43.4658 23.6387 43.3662 23.375C43.2666 23.1113 43.2168 22.8037 43.2168 22.4521C43.2168 22.0186 43.3193 21.6377 43.5244 21.3096C43.7295 20.9756 44.0049 20.6973 44.3506 20.4746C44.6963 20.2461 45.0889 20.0762 45.5283 19.9648C45.9678 19.8477 46.4219 19.7891 46.8906 19.7891C47.7227 19.7891 48.4668 19.915 49.123 20.167V21.9512C48.4902 21.5176 47.7637 21.3008 46.9434 21.3008C46.6855 21.3008 46.4512 21.3271 46.2402 21.3799C46.0352 21.4326 45.8594 21.5059 45.7129 21.5996C45.5664 21.6934 45.4521 21.8076 45.3701 21.9424C45.2881 22.0713 45.2471 22.2148 45.2471 22.373C45.2471 22.5664 45.2881 22.7305 45.3701 22.8652C45.4521 23 45.5723 23.1201 45.7305 23.2256C45.8945 23.3252 46.0879 23.4189 46.3105 23.5068C46.5391 23.5889 46.7998 23.6797 47.0928 23.7793C47.4795 23.9375 47.8252 24.0986 48.1299 24.2627C48.4404 24.4268 48.7041 24.6143 48.9209 24.8252C49.1377 25.0303 49.3047 25.2705 49.4219 25.5459C49.5391 25.8154 49.5977 26.1377 49.5977 26.5127C49.5977 26.9697 49.4922 27.3682 49.2812 27.708C49.0703 28.0479 48.7891 28.3291 48.4375 28.5518C48.0859 28.7744 47.6787 28.9385 47.2158 29.0439C46.7588 29.1553 46.2754 29.2109 45.7656 29.2109C44.7812 29.2109 43.9287 29.0469 43.208 28.7188ZM56.2861 28.9033C55.8877 29.1025 55.3633 29.2021 54.7129 29.2021C52.9668 29.2021 52.0938 28.3643 52.0938 26.6885V21.5996H50.5908V20H52.0938V17.917L54.1328 17.3369V20H56.2861V21.5996H54.1328V26.0996C54.1328 26.6328 54.2295 27.0137 54.4229 27.2422C54.6162 27.4707 54.9385 27.585 55.3896 27.585C55.7354 27.585 56.0342 27.4854 56.2861 27.2861V28.9033ZM62.6494 28.499V26.3457C62.8428 26.5215 63.0713 26.6797 63.335 26.8203C63.6045 26.9609 63.8887 27.0811 64.1875 27.1807C64.4863 27.2744 64.7852 27.3477 65.084 27.4004C65.3828 27.4531 65.6582 27.4795 65.9102 27.4795C66.7891 27.4795 67.4424 27.333 67.8701 27.04C68.3037 26.7471 68.5205 26.3223 68.5205 25.7656C68.5205 25.4668 68.4473 25.209 68.3008 24.9922C68.1602 24.7695 67.9609 24.5674 67.7031 24.3857C67.4453 24.2041 67.1406 24.0312 66.7891 23.8672C66.4434 23.6973 66.0713 23.5215 65.6729 23.3398C65.2451 23.1113 64.8467 22.8799 64.4775 22.6455C64.1084 22.4111 63.7861 22.1533 63.5107 21.8721C63.2412 21.585 63.0273 21.2627 62.8691 20.9053C62.7168 20.5479 62.6406 20.1289 62.6406 19.6484C62.6406 19.0566 62.7725 18.5439 63.0361 18.1104C63.3057 17.6709 63.6572 17.3105 64.0908 17.0293C64.5303 16.7422 65.0283 16.5312 65.585 16.3965C66.1416 16.2559 66.71 16.1855 67.29 16.1855C68.6084 16.1855 69.5693 16.335 70.1729 16.6338V18.6992C69.458 18.1836 68.5381 17.9258 67.4131 17.9258C67.1025 17.9258 66.792 17.9551 66.4814 18.0137C66.1768 18.0723 65.9014 18.1689 65.6553 18.3037C65.415 18.4385 65.2188 18.6113 65.0664 18.8223C64.9141 19.0332 64.8379 19.2881 64.8379 19.5869C64.8379 19.8682 64.8965 20.1113 65.0137 20.3164C65.1309 20.5215 65.3008 20.709 65.5234 20.8789C65.752 21.0488 66.0273 21.2158 66.3496 21.3799C66.6777 21.5381 67.0557 21.7109 67.4834 21.8984C67.9229 22.127 68.3359 22.3672 68.7227 22.6191C69.1152 22.8711 69.458 23.1494 69.751 23.4541C70.0498 23.7588 70.2842 24.0986 70.4541 24.4736C70.6299 24.8428 70.7178 25.2646 70.7178 25.7393C70.7178 26.3779 70.5889 26.917 70.3311 27.3564C70.0732 27.7959 69.7246 28.1533 69.2852 28.4287C68.8516 28.7041 68.3506 28.9033 67.7822 29.0264C67.2139 29.1494 66.6133 29.2109 65.9805 29.2109C65.7695 29.2109 65.5088 29.1934 65.1982 29.1582C64.8936 29.1289 64.5801 29.082 64.2578 29.0176C63.9355 28.959 63.6309 28.8857 63.3438 28.7979C63.0566 28.71 62.8252 28.6104 62.6494 28.499ZM80.4297 25.0537H74.2949C74.3184 25.8857 74.5732 26.5273 75.0596 26.9785C75.5518 27.4297 76.2256 27.6553 77.0811 27.6553C78.042 27.6553 78.9238 27.3682 79.7266 26.7939V28.4375C78.9062 28.9531 77.8223 29.2109 76.4746 29.2109C75.1504 29.2109 74.1104 28.8037 73.3545 27.9893C72.6045 27.1689 72.2295 26.0176 72.2295 24.5352C72.2295 23.1348 72.6426 21.9951 73.4688 21.1162C74.3008 20.2314 75.332 19.7891 76.5625 19.7891C77.793 19.7891 78.7451 20.1846 79.4189 20.9756C80.0928 21.7666 80.4297 22.8652 80.4297 24.2715V25.0537ZM78.4609 23.6123C78.4551 22.8799 78.2822 22.3115 77.9424 21.9072C77.6025 21.4971 77.1338 21.292 76.5361 21.292C75.9502 21.292 75.4521 21.5059 75.042 21.9336C74.6377 22.3613 74.3887 22.9209 74.2949 23.6123H78.4609ZM84.4199 29H82.3721V15.6758H84.4199V29ZM89.1309 29H87.083V15.6758H89.1309V29ZM99.4141 25.0537H93.2793C93.3027 25.8857 93.5576 26.5273 94.0439 26.9785C94.5361 27.4297 95.21 27.6553 96.0654 27.6553C97.0264 27.6553 97.9082 27.3682 98.7109 26.7939V28.4375C97.8906 28.9531 96.8066 29.2109 95.459 29.2109C94.1348 29.2109 93.0947 28.8037 92.3389 27.9893C91.5889 27.1689 91.2139 26.0176 91.2139 24.5352C91.2139 23.1348 91.627 21.9951 92.4531 21.1162C93.2852 20.2314 94.3164 19.7891 95.5469 19.7891C96.7773 19.7891 97.7295 20.1846 98.4033 20.9756C99.0771 21.7666 99.4141 22.8652 99.4141 24.2715V25.0537ZM97.4453 23.6123C97.4395 22.8799 97.2666 22.3115 96.9268 21.9072C96.5869 21.4971 96.1182 21.292 95.5205 21.292C94.9346 21.292 94.4365 21.5059 94.0264 21.9336C93.6221 22.3613 93.373 22.9209 93.2793 23.6123H97.4453ZM106.577 21.9424C106.331 21.749 105.977 21.6523 105.514 21.6523C104.91 21.6523 104.406 21.9248 104.002 22.4697C103.598 23.0146 103.396 23.7559 103.396 24.6934V29H101.356V20H103.396V21.8545H103.431C103.63 21.2217 103.935 20.7295 104.345 20.3779C104.761 20.0205 105.224 19.8418 105.733 19.8418C106.103 19.8418 106.384 19.8975 106.577 20.0088V21.9424Z" fill="white"/>
</g>
<defs>
<clipPath id="clip0_296_2">
<rect width="197.161" height="55.9617" fill="white" transform="translate(0.838867 0.0898438)"/>
</clipPath>
</defs>
</svg>
