<svg width="30" height="30" viewBox="0 0 30 30" fill="none" xmlns="http://www.w3.org/2000/svg">
<rect width="30" height="30" fill="white"/>
<path d="M9.75 28.875C9.75 28.944 9.69404 29 9.625 29H1.125C1.05596 29 1 28.944 1 28.875V1.125C1 1.05596 1.05596 1 1.125 1H9.625C9.69404 1 9.75 1.05596 9.75 1.125V28.875Z" fill="#D6D6D6"/>
<path d="M19.375 28.875C19.375 28.944 19.319 29 19.25 29H10.75C10.681 29 10.625 28.944 10.625 28.875V1.125C10.625 1.05596 10.681 1 10.75 1H19.25C19.319 1 19.375 1.05596 19.375 1.125V28.875Z" fill="#D6D6D6"/>
<path d="M29 28.875C29 28.944 28.944 29 28.875 29H20.375C20.306 29 20.25 28.944 20.25 28.875V1.125C20.25 1.05596 20.306 1 20.375 1H28.875C28.944 1 29 1.05596 29 1.125V28.875Z" fill="#D6D6D6"/>
</svg>
