<svg width="30" height="30" viewBox="0 0 30 30" fill="none" xmlns="http://www.w3.org/2000/svg">
<rect width="30" height="30" fill="white"/>
<path d="M8.50001 8.37501C8.50001 8.44404 8.44404 8.50001 8.37501 8.50001H1.125C1.05596 8.50001 1 8.44404 1 8.37501V1.125C1 1.05596 1.05596 1 1.125 1H8.37501C8.44404 1 8.50001 1.05596 8.50001 1.125V8.37501Z" fill="#D6D6D6"/>
<path d="M29 8.37501C29 8.44404 28.9441 8.50001 28.875 8.50001H10.125C10.056 8.50001 10 8.44404 10 8.37501V1.125C10 1.05596 10.056 1 10.125 1H28.875C28.9441 1 29 1.05596 29 1.125V8.37501Z" fill="#D6D6D6"/>
<path d="M8.50001 18.625C8.50001 18.694 8.44404 18.75 8.37501 18.75H1.125C1.05596 18.75 1 18.694 1 18.625V11.375C1 11.306 1.05596 11.25 1.125 11.25H8.37501C8.44404 11.25 8.50001 11.306 8.50001 11.375V18.625Z" fill="#D6D6D6"/>
<path d="M29 18.625C29 18.694 28.9441 18.75 28.875 18.75H10.125C10.056 18.75 10 18.694 10 18.625V11.375C10 11.306 10.056 11.25 10.125 11.25H28.875C28.9441 11.25 29 11.306 29 11.375V18.625Z" fill="#D6D6D6"/>
<path d="M8.50001 28.875C8.50001 28.944 8.44404 29 8.37501 29H1.125C1.05596 29 1 28.944 1 28.875V21.625C1 21.556 1.05596 21.5 1.125 21.5H8.37501C8.44404 21.5 8.50001 21.556 8.50001 21.625V28.875Z" fill="#D6D6D6"/>
<path d="M29 28.875C29 28.944 28.9441 29 28.875 29H10.125C10.056 29 10 28.944 10 28.875V21.625C10 21.556 10.056 21.5 10.125 21.5H28.875C28.9441 21.5 29 21.556 29 21.625V28.875Z" fill="#D6D6D6"/>
</svg>
