<svg width="30" height="30" viewBox="0 0 30 30" fill="none" xmlns="http://www.w3.org/2000/svg">
<rect width="30" height="30" fill="white"/>
<path d="M7.25 28.875C7.25 28.944 7.19404 29 7.125 29H1.125C1.05596 29 1 28.944 1 28.875V1.125C1 1.05596 1.05596 1 1.125 1H7.125C7.19404 1 7.25 1.05596 7.25 1.125V28.875Z" fill="#D6D6D6"/>
<path d="M14.5 28.875C14.5 28.944 14.444 29 14.375 29H8.375C8.30596 29 8.25 28.944 8.25 28.875V1.125C8.25 1.05596 8.30596 1 8.375 1H14.375C14.444 1 14.5 1.05596 14.5 1.125V28.875Z" fill="#D6D6D6"/>
<path d="M21.75 28.875C21.75 28.944 21.694 29 21.625 29H15.625C15.556 29 15.5 28.944 15.5 28.875V1.125C15.5 1.05596 15.556 1 15.625 1H21.625C21.694 1 21.75 1.05596 21.75 1.125V28.875Z" fill="#D6D6D6"/>
<path d="M29 28.875C29 28.944 28.944 29 28.875 29H22.875C22.806 29 22.75 28.944 22.75 28.875V1.125C22.75 1.05596 22.806 1 22.875 1H28.875C28.944 1 29 1.05596 29 1.125V28.875Z" fill="#D6D6D6"/>
</svg>
