<svg width="30" height="30" viewBox="0 0 30 30" fill="none" xmlns="http://www.w3.org/2000/svg">
<rect width="30" height="30" fill="white"/>
<path d="M14 28.875C14 28.944 13.944 29 13.875 29H1.125C1.05596 29 1 28.944 1 28.875V1.125C1 1.05596 1.05596 1 1.125 1H13.875C13.944 1 14 1.05596 14 1.125V28.875Z" fill="#D6D6D6"/>
<path d="M29 28.875C29 28.944 28.944 29 28.875 29H16.125C16.056 29 16 28.944 16 28.875V1.125C16 1.05596 16.056 1 16.125 1H28.875C28.944 1 29 1.05596 29 1.125V28.875Z" fill="#D6D6D6"/>
</svg>
