<svg width="20" height="20" viewBox="0 0 20 20" fill="none" xmlns="http://www.w3.org/2000/svg">
<path d="M18.046 4.94907V1.94907C18.046 1.73571 17.9612 1.53108 17.8103 1.38021C17.6594 1.22933 17.4548 1.14457 17.2415 1.14457C17.0281 1.14457 16.8235 1.22933 16.6726 1.38021C16.5217 1.53108 16.437 1.73571 16.437 1.94907V3.84907L12.246 1.03607C11.5821 0.585569 10.7983 0.344727 9.99595 0.344727C9.19365 0.344727 8.40983 0.585569 7.74595 1.03607L2.11395 4.83607C1.56865 5.20464 1.12223 5.70152 0.81395 6.28304C0.505668 6.86455 0.344959 7.5129 0.345952 8.17107V15.6341C0.347011 16.7007 0.771201 17.7234 1.52543 18.4776C2.27966 19.2318 3.30231 19.656 4.36895 19.6571H6.78195C6.99412 19.6571 7.19761 19.5728 7.34764 19.4228C7.49767 19.2727 7.58195 19.0692 7.58195 18.8571V12.4161C7.58326 12.2043 7.66797 12.0016 7.81772 11.8518C7.96746 11.7021 8.17018 11.6174 8.38195 11.6161H11.6C11.8117 11.6174 12.0144 11.7021 12.1642 11.8518C12.3139 12.0016 12.3986 12.2043 12.4 12.4161V18.8491C12.4 19.0612 12.4842 19.2647 12.6343 19.4148C12.7843 19.5648 12.9878 19.6491 13.2 19.6491H15.614C16.6806 19.648 17.7032 19.2238 18.4575 18.4696C19.2117 17.7154 19.6359 16.6927 19.637 15.6261V8.17107C19.6399 7.5474 19.4977 6.93158 19.2216 6.37236C18.9455 5.81314 18.543 5.32585 18.046 4.94907ZM18.046 15.6301C18.0463 15.9474 17.9842 16.2618 17.8631 16.5551C17.742 16.8484 17.5643 17.115 17.3401 17.3397C17.1159 17.5643 16.8497 17.7426 16.5566 17.8643C16.2635 17.986 15.9493 18.0488 15.632 18.0491H14.023V12.4161C14.0224 11.776 13.7679 11.1623 13.3153 10.7097C12.8627 10.2571 12.249 10.0026 11.609 10.0021H8.39095C7.75088 10.0026 7.13718 10.2571 6.68458 10.7097C6.23198 11.1623 5.97748 11.776 5.97695 12.4161V18.0491H4.36895C3.72888 18.0485 3.11518 17.794 2.66258 17.3414C2.20998 16.8888 1.95548 16.2751 1.95495 15.6351V8.17107C1.95472 7.77602 2.05164 7.38697 2.23719 7.0382C2.42273 6.68943 2.69121 6.39164 3.01895 6.17107L8.64595 2.37007C9.04406 2.09922 9.51444 1.95439 9.99595 1.95439C10.4775 1.95439 10.9478 2.09922 11.346 2.37007L16.978 6.17007C17.3057 6.39064 17.5742 6.68843 17.7597 7.0372C17.9453 7.38597 18.0422 7.77502 18.042 8.17007V15.6331L18.046 15.6301Z" fill="black"/>
</svg>
