<svg xmlns="http://www.w3.org/2000/svg" width="36" height="36" viewBox="0 0 36 36">
  <g id="Group_32139" data-name="Group 32139" transform="translate(-819 -528)">
    <rect id="Rectangle_12033" data-name="Rectangle 12033" width="36" height="36" transform="translate(819 528)" fill="rgba(255,255,255,0)"/>
    <path id="Path_50347" data-name="Path 50347" d="M145.216,353.88v.491a1.214,1.214,0,0,0-.041.194,6.5,6.5,0,0,1-.573,2.233,12.789,12.789,0,0,1-2.1,3.24,19.637,19.637,0,0,1-1.521,1.6c-.664.627-1.354,1.229-2.06,1.808-.642.527-1.3,1.037-1.988,1.506-.987.674-2,1.306-3.011,1.947a.322.322,0,0,1-.277,0c-.237-.134-.459-.3-.686-.447-.844-.566-1.7-1.114-2.529-1.7-.724-.518-1.429-1.065-2.113-1.636q-1-.835-1.933-1.746a18.6,18.6,0,0,1-1.524-1.652,18.4,18.4,0,0,1-1.4-1.98,6.685,6.685,0,0,1-1.029-4.534,6.556,6.556,0,0,1,1.781-3.616,6.464,6.464,0,0,1,2.458-1.525,5.146,5.146,0,0,1,1.348-.278,5.713,5.713,0,0,1,3.434.708,5.418,5.418,0,0,1,1.756,1.415c.181.242.376.473.575.722.245-.314.463-.634.72-.916a6.069,6.069,0,0,1,2.754-1.7,5.555,5.555,0,0,1,3.9.181,6.317,6.317,0,0,1,3.973,5.056C145.154,353.456,145.185,353.668,145.216,353.88Z" transform="translate(702.896 190.291)" fill="#fff" stroke="#ff5252" stroke-width="2"/>
  </g>
</svg>
