<svg width="189" height="90" viewBox="0 0 189 90" fill="none" xmlns="http://www.w3.org/2000/svg">
<path d="M1.38763 50.3804C1.87481 51.3057 2.54052 52.1254 3.3463 52.792C4.15208 53.4587 5.08196 53.959 6.08223 54.2642C7.32013 54.6565 8.59603 54.9168 9.88867 55.0407C12.5269 55.0407 15.375 53.6598 18.4328 50.898C18.9277 50.3647 19.2047 49.6653 19.2094 48.9377V48.684C19.11 48.1816 18.9033 47.7066 18.6032 47.2916C18.3032 46.8766 17.917 46.5314 17.4711 46.2796L6.37533 38.9205C4.55264 37.8127 3.02816 36.2765 1.93448 34.4454C1.40365 33.4735 1.07641 32.4037 0.972725 31.3012C1.11092 29.2921 1.84809 27.3705 3.0891 25.7844C9.57358 16.8089 17.0448 12.2965 25.5027 12.2475C26.9713 12.3361 28.4179 12.648 29.7925 13.1725C31.0476 13.9017 32.0817 14.9573 32.785 16.2271C33.4883 17.497 33.8345 18.9336 33.7867 20.3844C33.7867 23.2198 32.677 26.6718 30.4574 30.7404C30.1166 31.3859 29.6415 31.951 29.0642 32.3977C28.4869 32.8443 27.8206 33.1623 27.1103 33.3301C25.9387 33.4781 25.2053 33.5521 24.9101 33.5521C24.1973 33.5779 23.4893 33.4258 22.85 33.1095C22.2107 32.7931 21.6602 32.3226 21.2483 31.7402C21.201 31.6488 21.1757 31.5476 21.1748 31.4446C21.1756 31.3798 21.1867 31.3156 21.2077 31.2543C21.255 31.0861 21.3232 30.9246 21.4108 30.7734C21.4953 30.6254 21.5507 30.5268 21.577 30.4778C25.1034 25.8179 26.9157 22.9267 27.0138 21.8042C27.1119 20.6817 27.1614 20.0346 27.1623 19.8629C27.1623 18.2845 26.5211 17.4953 25.2388 17.4953H24.985C21.5955 18.611 18.568 20.6166 16.2188 23.3026C14.4171 25.3764 12.8766 27.6634 11.632 30.1124C11.5363 30.4367 11.4863 30.7728 11.4836 31.1109C11.4819 31.4611 11.5496 31.8082 11.6829 32.132C11.8162 32.4559 12.0124 32.7501 12.2601 32.9976C13.3671 34.1002 14.61 35.0574 15.9587 35.8461C21.1616 38.904 24.6382 41.5422 26.3883 43.761C27.9198 45.4455 28.8443 47.5937 29.0147 49.864C28.9928 51.2699 28.6777 52.6558 28.0898 53.933C27.0747 56.3497 24.8247 58.6365 21.3397 60.7935C18.6789 62.5992 15.71 63.9026 12.5798 64.6393C11.0235 64.9498 9.44776 65.1537 7.86364 65.2496C6.70802 65.3048 5.55371 65.116 4.47594 64.6954C3.39816 64.2748 2.42109 63.6318 1.6084 62.8084C0.457529 61.4386 -0.112928 59.6735 0.0185785 57.8892C0.107463 55.333 0.568666 52.8034 1.38763 50.3804ZM45.0677 61.735C43.0661 59.5752 41.4752 57.0684 40.3731 54.3378L37.1161 65.1011C35.162 64.6321 33.3836 63.6117 31.9926 62.1613C31.1738 61.1228 30.7271 59.8397 30.7238 58.5173C30.7881 56.7169 31.112 54.9353 31.6856 53.2276C32.2777 51.354 33.492 47.4088 35.3284 41.3921C37.1647 35.3754 38.9216 29.4023 40.599 23.4727C41.7712 19.7916 42.6619 16.0268 43.2635 12.2107C47.9733 12.9255 50.3282 15.3172 50.3282 19.3858C50.2935 20.9564 50.032 22.5137 49.5517 24.0094L45.7453 36.6594C47.9593 34.5445 50.8822 33.3307 53.9431 33.2552C55.4006 33.4622 56.7306 34.1995 57.6785 35.3259C59.152 37.0123 60.0009 39.1541 60.0829 41.3921C60.058 42.9617 59.611 44.4957 58.7887 45.8329C56.7425 49.3095 53.1429 51.8979 47.9898 53.5981C50.6748 57.0851 54.0173 60.0121 57.8282 62.2133C57.264 63.1237 56.4807 63.8783 55.5498 64.408C54.6189 64.9377 53.5701 65.2258 52.4992 65.2458C52.2776 65.2458 52.0433 65.2335 51.7963 65.209C49.2178 64.8683 46.8386 63.6399 45.0677 61.735ZM45.9559 47.1995C48.8994 46.5624 51.4831 44.8133 53.1678 42.3171C53.8049 41.2279 54.2081 40.018 54.3516 38.7644C54.3745 38.6036 54.3597 38.4397 54.3083 38.2856C54.2569 38.1316 54.1703 37.9916 54.0555 37.8767C53.9407 37.7619 53.8007 37.6754 53.6466 37.624C53.4925 37.5726 53.3286 37.5577 53.1678 37.5806C51.8368 37.7334 50.5522 38.1616 49.3957 38.838C49.0505 39.1095 48.73 39.3561 48.4339 39.5777C47.5454 40.2075 46.6978 40.8932 45.8963 41.6306C45.0781 42.4277 44.3858 43.3445 43.8433 44.3497C43.5503 44.8998 43.3741 45.5046 43.3257 46.126C43.3148 46.2692 43.3357 46.4131 43.3868 46.5473C43.4379 46.6815 43.518 46.8028 43.6213 46.9025C44.0018 47.1934 44.4742 47.338 44.9523 47.3098C45.2896 47.3061 45.6258 47.2691 45.9559 47.1995ZM59.6413 78.5645C59.8883 78.589 60.1349 78.6013 60.381 78.6013C62.0893 78.6119 63.781 78.2658 65.3477 77.585C66.9145 76.9042 68.3218 75.9037 69.4797 74.6477C72.3228 71.6493 74.5865 68.1506 76.1562 64.3284C77.7065 60.7771 78.9379 57.0948 79.8357 53.3253C80.4019 51.1493 80.7734 48.9273 80.9459 46.6856V46.3899C79.9171 49.9186 78.4377 53.2999 76.5444 56.4504C74.721 59.0256 72.6376 61.4065 70.3273 63.5557C69.8708 64.0284 69.3254 64.4062 68.7225 64.6675C68.1196 64.9288 67.471 65.0684 66.8139 65.0783C66.2101 65.0725 65.6108 64.9728 65.0376 64.7826C62.9048 64.0467 61.0298 62.7109 59.6375 60.9356C59.1637 60.1037 58.9329 59.1554 58.9714 58.1988C58.9924 57.1609 59.1415 56.1296 59.4155 55.1283C60.1421 52.2689 61.0317 49.4534 62.08 46.6957C63.0172 44.1809 63.7878 41.8755 64.3918 39.7794C64.9331 38.0657 65.2379 36.286 65.2977 34.4898C65.2977 34.1692 65.2854 33.8609 65.2609 33.5648C68.4168 34.2305 70.5002 35.2456 71.5111 36.6099C72.4446 37.759 72.979 39.1805 73.0336 40.66C72.9784 42.275 72.6275 43.8662 71.9983 45.3546L66.8532 60.0335C69.4636 57.5502 71.7353 54.7337 73.6097 51.6568C75.6988 47.9616 77.4979 44.1097 78.9907 40.136C79.1773 39.8487 79.4361 39.6155 79.7412 39.4596C80.0462 39.3038 80.3868 39.2307 80.729 39.2478H80.9142C84.8349 39.4449 86.7952 42.416 86.7952 48.1612C86.7952 53.3143 85.2303 60.6869 82.1006 70.2791C79.5359 76.937 76.9221 80.8204 74.2593 81.9294C72.4683 82.8018 70.5425 83.3646 68.5636 83.5941C65.5498 83.5941 62.5757 81.9175 59.6413 78.5645ZM96.4483 65.2496C94.2632 64.9343 92.2414 63.9125 90.6917 62.3402C89.5785 61.1206 88.953 59.534 88.9344 57.8829C88.9549 56.7158 89.1416 55.5575 89.4889 54.4431L96.1463 33.4722C97.255 33.8869 98.3923 34.2207 99.5493 34.4707C100.9 34.5536 102.189 35.0652 103.229 35.9311C103.753 36.5046 104.049 37.2503 104.061 38.0272C103.958 39.5331 103.596 41.0098 102.989 42.3919L107.798 35.0328C108.13 34.5529 108.572 34.1586 109.086 33.8822C109.6 33.6059 110.173 33.4554 110.757 33.443C111.303 33.4537 111.842 33.5665 112.347 33.7754C114.336 34.6053 116.061 35.9606 117.339 37.6961C118.031 38.5073 118.446 39.5181 118.523 40.5813V40.8034C118.428 41.7736 118.178 42.7223 117.783 43.6138C117.438 44.4528 117.16 45.3179 116.952 46.2009C116.746 47.0612 116.64 47.9426 116.638 48.8273C116.64 49.4085 116.678 49.9889 116.749 50.5656C113.569 49.8754 111.43 48.8396 110.332 47.4583C109.322 46.3081 108.739 44.8451 108.682 43.3156C108.736 41.751 109.075 40.2092 109.681 38.7657L109.791 38.5804L100.289 52.7848C100.169 53.3626 100.008 53.9312 99.8081 54.4862C99.5366 55.3 99.216 56.2368 98.8463 57.2967C98.3287 58.826 97.8355 60.338 97.3669 61.8327C96.9986 62.954 96.692 64.0947 96.4483 65.2496ZM143.648 38.097C138.783 39.3877 134.452 42.186 131.276 46.0905C128.24 49.5302 126.413 53.8686 126.074 58.4437C126.074 59.0358 126.21 59.3809 126.481 59.479C126.669 59.5584 126.869 59.6085 127.072 59.6275C127.214 59.6181 127.353 59.5805 127.48 59.5169C127.607 59.4533 127.72 59.3649 127.812 59.257C132.257 53.5515 136.357 47.5859 140.092 41.3921C141.88 42.0561 143.471 43.1633 144.715 44.6098C145.449 45.5285 145.874 46.6547 145.932 47.8288C145.908 48.7581 145.707 49.6744 145.341 50.5288L140.311 65.247L137.938 63.8437C137.79 63.7448 137.655 63.6462 137.531 63.5481C136.769 63.0926 136.089 62.5128 135.519 61.8327C135.022 61.1807 134.768 60.3766 134.798 59.5577C134.798 59.3351 134.81 59.1127 134.835 58.8916C135.201 57.045 135.864 55.2699 136.797 53.6349L132.285 61.5497C130.756 63.8674 129.4 65.0571 128.216 65.1189C127.031 65.1806 126.39 65.2115 126.292 65.2115C124.147 65.2115 122.174 63.9909 120.374 61.5497C119.479 59.6673 119.023 57.606 119.042 55.5216C119.098 52.83 119.65 50.1717 120.67 47.6803C122.433 42.6708 125.751 38.3556 130.139 35.364C132.1 34.1563 134.347 33.4924 136.649 33.4405C137.12 33.4404 137.59 33.4773 138.055 33.5508C139.312 33.7304 140.496 34.2495 141.48 35.0521C142.464 35.8548 143.21 36.9106 143.638 38.1059L143.648 38.097ZM172.535 38.097C167.67 39.3877 163.339 42.186 160.163 46.0905C157.127 49.5302 155.3 53.8686 154.961 58.4437C154.961 59.0358 155.097 59.3809 155.368 59.479C155.556 59.5584 155.756 59.6085 155.959 59.6275C156.101 59.6181 156.24 59.5805 156.367 59.5169C156.494 59.4533 156.607 59.3649 156.699 59.257C161.144 53.5515 165.244 47.5859 168.979 41.3921C170.764 42.058 172.351 43.1655 173.592 44.6111C174.327 45.5289 174.754 46.6547 174.813 47.8288C174.788 48.7581 174.588 49.6744 174.221 50.5288L169.192 65.247L166.824 63.8412C166.676 63.7422 166.54 63.6437 166.417 63.5456C165.656 63.0907 164.976 62.5118 164.406 61.8327C163.909 61.1807 163.655 60.3766 163.685 59.5577C163.685 59.3351 163.697 59.1127 163.722 58.8916C164.088 57.0469 164.75 55.2735 165.682 53.6399L161.17 61.5548C159.639 63.8699 158.282 65.0584 157.098 65.1202C155.913 65.1819 155.272 65.2128 155.174 65.2128C153.029 65.2128 151.056 63.9922 149.256 61.551C148.362 59.6679 147.908 57.6061 147.928 55.5216C147.983 52.83 148.535 50.1717 149.556 47.6803C151.319 42.6708 154.637 38.3556 159.025 35.364C160.986 34.1563 163.233 33.4924 165.535 33.4405C166.006 33.4404 166.476 33.4773 166.941 33.5508C168.198 33.7302 169.382 34.2491 170.366 35.0518C171.35 35.8545 172.097 36.9104 172.525 38.1059L172.535 38.097Z" fill="#4CAF50"/>
<path d="M88.0638 70.0228L88.1704 69.934H88.277C88.348 69.8629 88.3836 69.8156 88.3836 69.7919C88.3819 69.7399 88.3632 69.69 88.3303 69.6498C88.2974 69.6096 88.2786 69.5596 88.277 69.5077C88.2683 69.3964 88.2966 69.2854 88.3574 69.1918C88.4181 69.0982 88.5081 69.0273 88.6132 68.99C88.5719 68.854 88.5535 68.7121 88.5587 68.57C88.5659 68.4483 88.62 68.3341 88.7097 68.2515C88.8457 68.0707 88.9398 67.8618 88.985 67.64C89.0092 67.5088 89.0732 67.3883 89.1683 67.2947C89.2635 67.2012 89.3851 67.1392 89.5166 67.1172V67.0462L89.4468 66.8508C89.4658 66.7341 89.5148 66.6244 89.5889 66.5323V66.3547C89.5841 66.2872 89.6052 66.2203 89.6478 66.1678C89.6905 66.1152 89.7515 66.0809 89.8186 66.0717C89.9725 66.0362 90.0495 65.9939 90.0495 65.9448C90.0836 65.7443 90.1908 65.5635 90.3502 65.4373L90.2792 65.1544C90.2792 65.0596 90.3853 64.9298 90.5976 64.7648C90.9876 64.3749 91.1826 64.0788 91.1826 63.8767V63.699C91.1826 63.5925 91.3539 63.3975 91.6964 63.1141C91.6954 63.1092 91.6956 63.1042 91.6969 63.0994C91.6981 63.0945 91.7006 63.0901 91.7039 63.0864C91.7072 63.0827 91.7114 63.0798 91.7161 63.078C91.7207 63.0762 91.7257 63.0755 91.7307 63.0761L91.9845 63.1116C92.033 62.9402 92.0686 62.7655 92.091 62.5888C92.1147 62.4053 92.3452 62.1249 92.7825 61.7476L92.8181 61.6207C92.9017 61.4946 92.9964 61.3761 93.101 61.2667L93.2533 61.2325C93.3591 61.0553 93.454 60.8718 93.5375 60.6831C93.5848 60.5646 93.6441 60.4995 93.7151 60.4877C93.7956 60.4698 93.8677 60.4251 93.9194 60.3608C93.9934 60.285 94.09 60.2351 94.1947 60.2187C94.3487 60.0182 94.4933 59.8114 94.6287 59.5982C94.7766 59.3739 94.9736 59.186 95.2047 59.0488C95.2521 58.6115 95.3764 58.3929 95.5777 58.3929L95.8315 58.4284C96.05 58.0132 96.3744 57.663 96.7717 57.4133L97.4277 56.935H97.5342C97.6432 56.8619 97.7343 56.7652 97.8007 56.6521L98.0545 56.4744C98.0781 56.2503 98.1843 56.1382 98.3729 56.1382H98.5328C98.6765 55.9402 98.8591 55.7735 99.0694 55.6485C99.2797 55.5235 99.5133 55.4427 99.7559 55.4112C99.8463 55.4399 99.9382 55.4636 100.031 55.4822C100.095 55.5013 100.153 55.5355 100.201 55.5819C100.249 55.6282 100.285 55.6854 100.307 55.7487L100.484 56.0671C100.532 56.2363 100.579 56.3209 100.626 56.3209L100.857 56.1077C101.557 55.9861 102.223 55.7138 102.807 55.3097C102.935 55.3446 103.065 55.3683 103.197 55.3807C103.268 55.3846 103.336 55.4093 103.392 55.4518H103.463C103.553 55.4203 103.638 55.3777 103.717 55.3249C103.796 55.2721 103.881 55.2295 103.971 55.198L104.556 55.2335L105.087 55.3401L105.832 55.3046C106.183 55.3543 106.51 55.5087 106.771 55.7474C106.901 56.0189 107.04 56.1754 107.187 56.2169C107.335 56.2583 107.541 56.5831 107.808 57.1913C108.002 57.5672 108.136 57.9708 108.206 58.3878V58.6885L108.135 59.2557L108.171 59.6629C108.179 59.8257 108.129 59.986 108.029 60.1146C107.922 60.2671 107.872 60.4519 107.886 60.6374C107.844 61.1436 107.696 61.6354 107.453 62.0813C107.24 62.4584 107.093 62.8691 107.019 63.2956C106.735 64.0399 106.517 64.4121 106.363 64.4121L105.973 65.4272C105.915 65.6138 105.8 65.7777 105.644 65.8966C105.52 65.9736 105.411 66.0476 105.316 66.1187L105.351 66.6325C105.351 66.751 105.192 66.9341 104.872 67.1819C104.777 67.3942 104.679 67.6057 104.579 67.8163C104.489 68.0098 104.351 68.1773 104.179 68.3036C103.852 68.7077 103.572 69.1479 103.345 69.6155C103.245 69.7071 103.138 69.7919 103.026 69.8693C102.768 70.1833 102.528 70.5116 102.308 70.8526C102.161 71.0999 101.972 71.3191 101.748 71.4997L101.494 71.7661C101.385 71.8884 101.243 71.9765 101.086 72.0199C101.111 72.0755 101.123 72.1364 101.121 72.1975C101.117 72.3263 101.078 72.4515 101.007 72.5593C100.937 72.6672 100.838 72.7536 100.721 72.8091C100.533 72.9073 100.361 73.0359 100.214 73.1898L99.4527 73.9168C99.3435 74.0066 99.2504 74.1143 99.1773 74.2353C99.0786 74.3844 98.9623 74.5211 98.831 74.6425L98.5772 75.0321C97.7846 75.5641 97.3706 75.8301 97.335 75.8301C97.2454 75.9424 97.1735 76.0678 97.1219 76.2019L96.7844 76.3085C96.7168 76.4795 96.609 76.6316 96.4701 76.752C96.3311 76.8724 96.1652 76.9575 95.9863 77L95.8099 77.071C95.7731 77.1307 95.7165 77.1756 95.6501 77.1979C95.5735 77.2304 95.4996 77.269 95.4293 77.3134C95.2668 77.3923 95.0967 77.4548 94.9218 77.4999L94.5322 77.6268L94.3546 77.5913C94.3525 77.6448 94.3398 77.6974 94.3172 77.746C94.2947 77.7947 94.2627 77.8384 94.2232 77.8746C94.1837 77.9108 94.1374 77.9388 94.087 77.957C94.0366 77.9753 93.9831 77.9833 93.9295 77.9808H93.7468C93.6468 78.0408 93.5399 78.0885 93.4284 78.1229L93.3573 78.1584C93.3221 78.2532 93.2743 78.3428 93.2152 78.4249L92.6658 78.3893C92.5498 78.4489 92.4245 78.4883 92.2953 78.5061C92.2356 78.4992 92.1766 78.4873 92.1189 78.4705L91.9426 78.6482C91.8534 78.5896 91.7576 78.5419 91.6571 78.5061L91.5302 78.5416C91.3234 78.6005 91.1106 78.6363 90.8958 78.6482L90.6662 78.5771C90.4827 78.4681 90.2862 78.3828 90.0812 78.3234L89.4088 78.3589C89.3851 78.3589 89.3056 78.2849 89.1702 78.1369C88.9971 77.9585 88.8038 77.801 88.5942 77.6674C88.2589 77.383 88.0028 77.0167 87.8507 76.6041C87.6751 76.2802 87.5498 75.9316 87.4789 75.57L87.3723 74.555L87.4078 74.2543L87.3013 73.2798C87.3181 72.9375 87.442 72.6091 87.6553 72.3409C87.6351 72.206 87.6232 72.07 87.6197 71.9336V71.6799L87.6553 71.2726C87.6602 71.1753 87.6867 71.0804 87.7328 70.9946C87.7789 70.9088 87.8434 70.8343 87.9217 70.7765L87.8862 70.3413C87.9604 70.2442 88.0203 70.137 88.0638 70.0228ZM96.7285 73.7975L96.7641 73.7087V73.4968C96.7641 73.2963 96.9117 73.1783 97.2069 73.1428C97.3637 72.9683 97.4979 72.7747 97.6066 72.5668C97.7309 72.3367 97.8286 72.2216 97.8997 72.2216H98.0773C98.1483 72.2216 98.1839 72.198 98.1839 72.1506L98.1483 71.8676C98.2819 71.6735 98.4335 71.4926 98.6013 71.3271C98.8322 71.0852 99.0598 70.834 99.2839 70.5735C99.4976 70.3279 99.6931 70.0671 99.8689 69.7931C100.014 69.5614 100.174 69.3393 100.348 69.1283C100.473 68.9845 100.588 68.8337 100.695 68.6766C100.821 68.5182 100.981 68.391 101.164 68.3048L101.234 68.2287V67.8747C101.356 67.6479 101.492 67.4288 101.641 67.2187C102.056 66.8998 102.28 66.6308 102.315 66.4118C102.353 66.1867 102.445 65.974 102.582 65.7913C102.701 65.6371 102.797 65.4661 102.866 65.2838C103.067 65.1654 103.168 65.0808 103.168 65.03L103.31 64.7763C103.391 64.6092 103.462 64.4376 103.523 64.2624L103.825 63.9794C103.979 63.7798 104.083 63.5455 104.126 63.2968C104.127 63.2087 104.151 63.1223 104.195 63.0462C104.24 62.9701 104.303 62.907 104.379 62.8629C104.516 62.8037 104.584 62.7504 104.584 62.703C104.568 62.6295 104.544 62.558 104.513 62.4899V62.401C104.53 62.2484 104.607 62.1086 104.726 62.0115C104.915 61.6544 105.077 61.2843 105.213 60.9038C105.274 60.7041 105.367 60.5155 105.488 60.3456L105.417 59.8672C105.453 59.7313 105.527 59.6084 105.631 59.5132C105.536 59.1706 105.488 58.9875 105.488 58.9638C105.523 58.785 105.583 58.612 105.666 58.45L105.631 58.096L105.702 57.865C105.679 57.63 105.565 57.4133 105.383 57.2624C105.383 56.8961 105.052 56.713 104.391 56.713L104.072 56.7485L103.381 56.6419C102.879 56.8976 102.34 57.0711 101.783 57.1558C101.69 57.1685 101.6 57.2002 101.519 57.2488C101.438 57.2974 101.368 57.3621 101.313 57.4387C101.23 57.5471 101.131 57.6425 101.02 57.7217L100.842 57.6506H100.771C100.686 57.6506 100.633 57.7479 100.611 57.9424C100.6 58.0375 100.564 58.1279 100.506 58.2042C100.448 58.2805 100.371 58.3399 100.282 58.3764C99.961 58.5677 99.6658 58.8001 99.4045 59.0679C99.113 59.3214 98.8539 59.6099 98.633 59.9269C98.516 60.1253 98.3623 60.2997 98.1801 60.4407C97.9874 60.6024 97.8583 60.8272 97.8159 61.0751C97.7589 61.3461 97.6471 61.6026 97.4873 61.8288L97.2335 62.2183V62.4848C97.2335 62.5558 97.1489 62.6404 96.9798 62.7385L97.0597 62.9695L97.0242 63.1826L97.0597 63.4833L96.9925 63.9147L97.1701 64.7306C97.1701 65.6407 96.8317 66.0958 96.155 66.0958C95.9477 66.1057 95.7422 66.0531 95.565 65.9448C95.3723 65.7265 95.2596 65.4491 95.2453 65.1582C95.1904 64.8918 95.1518 64.6223 95.1298 64.3512C95.1298 64.3394 95.1802 64.1474 95.2808 63.7752C95.3305 63.5305 95.416 63.2945 95.5346 63.0748C95.5965 63.0039 95.6339 62.9149 95.6412 62.821C95.6403 62.8074 95.6368 62.7941 95.6306 62.7819C95.6245 62.7697 95.616 62.7588 95.6056 62.75C95.8421 62.5935 96.0148 62.3577 96.0929 62.0851C96.1682 61.8064 96.2845 61.5405 96.438 61.2959C96.9559 60.6462 97.3966 59.9385 97.7512 59.1871C97.9833 58.9681 98.2264 58.761 98.4795 58.5667C98.5291 58.3995 98.6282 58.2514 98.7637 58.1416L99.0175 57.8054L99.426 57.4514C99.5904 57.3556 99.7351 57.2294 99.8524 57.0796C99.5248 57.1274 99.2141 57.2551 98.9477 57.4514L98.3805 57.8942C98.2545 58.0132 98.1107 58.1116 97.9542 58.186C97.8154 58.2571 97.701 58.368 97.6256 58.5045C97.523 58.6639 97.4006 58.8098 97.2614 58.9385C97.1084 59.082 96.9687 59.2391 96.844 59.4079C96.7487 59.5525 96.6247 59.676 96.4799 59.7708C96.2912 59.8182 96.1673 59.9895 96.1081 60.2847C96.0143 60.4377 95.9082 60.5828 95.7909 60.7186L95.6843 61.0193C95.6203 61.1118 95.5463 61.1969 95.4635 61.2731C95.3423 61.3922 95.2327 61.5227 95.1362 61.6626C94.9903 61.764 94.8362 61.8531 94.6756 61.929C94.7013 62.0111 94.7133 62.0968 94.7111 62.1828C94.6266 62.3905 94.5166 62.587 94.3838 62.7677C94.1976 63.0477 94.0435 63.3478 93.9245 63.6622C93.8777 63.8543 93.7689 64.0255 93.6149 64.1495C93.4333 64.3275 93.3077 64.5546 93.2533 64.8029C93.1126 65.2071 92.9097 65.5868 92.6518 65.9283C92.4749 66.1503 92.3183 66.3877 92.1837 66.6376C92.0687 66.8574 91.9323 67.0652 91.7764 67.2581C91.6618 67.49 91.5728 67.7338 91.5112 67.9851L91.2232 68.268L90.8171 69.6155C90.8171 69.651 90.7579 69.7221 90.6395 69.8287C90.6249 70.0843 90.5253 70.3277 90.3566 70.5202C90.3542 70.6243 90.33 70.7267 90.2855 70.8209L90.1434 71.317L89.8414 71.6545V71.7255L89.9125 71.9032V71.9742C89.8828 72.1487 89.8162 72.3148 89.7171 72.4615C89.5768 72.7324 89.5037 73.0331 89.5039 73.3382C89.5116 73.5856 89.4729 73.8322 89.3897 74.0652C89.3247 74.1952 89.2855 74.3365 89.2743 74.4814C89.2687 74.5922 89.2508 74.7019 89.221 74.8088L89.292 75.0917L89.221 75.6411C89.242 75.6998 89.2688 75.7564 89.3009 75.8098C89.3371 75.8675 89.3641 75.9304 89.3809 75.9964L89.292 76.2273C89.2816 76.2361 89.2731 76.247 89.267 76.2592C89.2609 76.2714 89.2573 76.2847 89.2565 76.2983C89.248 76.4869 89.3026 76.673 89.4118 76.827C89.5209 76.981 89.6784 77.0941 89.8592 77.1484C90.1625 77.2798 90.4861 77.3579 90.8159 77.3794C91.1743 77.3406 91.5252 77.25 91.8576 77.1104C92.213 77.009 92.5441 76.8363 92.8308 76.6029C92.9724 76.4518 93.1457 76.3339 93.3383 76.2577C93.5117 76.1916 93.6752 76.1019 93.8242 75.9913C94.0831 75.6631 94.2806 75.4863 94.4168 75.4609C94.6554 75.3691 94.8665 75.2175 95.0296 75.0206L95.239 74.9141C95.3684 74.6781 95.4449 74.5601 95.4686 74.5601L95.7224 74.4002C95.8915 74.0931 96.01 73.9396 96.0776 73.9396L96.3441 73.9751C96.3695 73.9715 96.3927 73.9584 96.4088 73.9384C96.5094 73.8789 96.6168 73.8316 96.7285 73.7975ZM107.176 69.4379L107.442 69.3668L107.549 69.1359C108.015 68.8841 108.435 68.5545 108.79 68.1614C108.828 68.0998 108.884 68.0505 108.95 68.0193C109.053 67.9519 109.144 67.8659 109.216 67.7656C109.418 67.5555 109.66 67.389 109.928 67.2762C110.196 67.1633 110.485 67.1067 110.776 67.1096C111.484 67.1096 111.863 67.541 111.91 68.4038L112.016 68.6702C112.176 68.9974 112.309 69.3369 112.415 69.6853C112.533 69.9883 112.618 70.3031 112.669 70.6242C112.662 70.9653 112.558 71.2973 112.368 71.5809C111.915 71.9702 111.516 72.4172 111.18 72.9106L111.003 73.0375C110.901 73.2612 110.776 73.4738 110.631 73.6719C110.395 73.7565 110.277 73.8453 110.277 73.9384V74.2568C110.262 74.3098 110.234 74.3585 110.197 74.3989C110.111 74.528 110.037 74.6643 109.975 74.8062L109.833 75.0194C109.765 75.1056 109.717 75.205 109.691 75.3112C109.648 75.4558 109.582 75.5922 109.494 75.7147C109.425 75.7944 109.381 75.8929 109.367 75.9976C109.367 76.1753 109.598 76.2641 110.059 76.2641C110.151 76.2383 110.24 76.2025 110.325 76.1575L110.579 76.2286C110.646 76.203 110.706 76.1636 110.757 76.1131C110.886 76.0205 111.034 75.9569 111.19 75.9266C111.366 75.8831 111.534 75.8116 111.687 75.7147C111.853 75.6092 112.032 75.524 112.218 75.4609C112.436 75.3846 112.637 75.2684 112.812 75.1183C112.978 74.9733 113.166 74.8567 113.37 74.7732C113.561 74.6978 113.735 74.5867 113.884 74.4459C114.052 74.2918 114.233 74.1526 114.425 74.0297C114.768 73.7754 115.088 73.4909 115.381 73.1796C115.553 73.0226 115.751 72.8968 115.966 72.8078C116.09 72.6659 116.194 72.508 116.276 72.3384C116.459 72.0254 116.671 71.8689 116.91 71.8689C117.15 71.8689 117.274 71.9869 117.282 72.2229C117.279 72.2937 117.262 72.3631 117.231 72.4269C117.201 72.4908 117.158 72.5479 117.104 72.5947V72.7013L117.14 72.9842C117.167 73.033 117.179 73.0885 117.175 73.1441C117.175 73.1914 117.133 73.2625 117.049 73.3572C116.956 73.4597 116.891 73.5849 116.862 73.7201C116.841 73.7962 116.797 73.8644 116.737 73.9162C116.678 73.9681 116.604 74.0013 116.526 74.0119C116.455 74.2716 116.363 74.4192 116.25 74.4548C116.071 74.5386 115.911 74.6592 115.781 74.8088C115.515 75.0649 115.231 75.3019 114.931 75.518C114.662 75.7081 114.41 75.9203 114.177 76.1524C114.041 76.3005 113.949 76.3745 113.902 76.3745C113.85 76.3615 113.801 76.3372 113.76 76.3034C113.718 76.2696 113.67 76.2453 113.618 76.2324C113.547 76.2324 113.499 76.3169 113.476 76.4861L113.405 76.6638C113.322 76.7226 113.233 76.7704 113.138 76.8059L113.032 76.7703H112.96C112.818 76.7703 112.747 76.8236 112.747 76.9302L112.854 77.1078V77.1434C112.854 77.3125 112.76 77.3971 112.571 77.3971C112.158 77.5489 111.774 77.7708 111.437 78.0531L110.923 78.1597L110.498 78.3906C110.417 78.3332 110.327 78.2903 110.231 78.2637L109.948 78.3525L109.434 78.3881C109.423 78.3881 109.207 78.2701 108.787 78.0341C108.462 77.8915 108.196 77.641 108.034 77.3248C107.946 77.0775 107.84 76.8374 107.715 76.6067C107.616 76.4524 107.55 76.2798 107.52 76.0991C107.499 75.6893 107.547 75.2789 107.662 74.8849C107.735 74.7096 107.795 74.5289 107.84 74.3444C107.876 74.2027 107.946 74.0721 108.044 73.9637C108.183 73.7651 108.277 73.5381 108.319 73.2989C108.519 72.8597 108.756 72.4386 109.028 72.0402C109.165 71.8731 109.268 71.6802 109.329 71.473L109.56 71.1546C109.61 71.0689 109.646 70.976 109.667 70.8792C109.714 70.7194 109.773 70.6276 109.844 70.6039C109.911 70.5073 109.959 70.3994 109.986 70.2854C109.986 69.9429 109.833 69.7716 109.526 69.7716C109.467 69.7716 109.401 69.8337 109.33 69.9581C109.207 70.1236 109.037 70.2497 108.843 70.321C108.675 70.3884 108.518 70.478 108.374 70.5874C108.259 70.6804 108.131 70.7553 107.993 70.8095C107.791 70.9026 107.616 71.0459 107.486 71.2256L107.185 71.3677C107.09 71.5919 107.005 71.7158 106.931 71.7395C106.857 71.7632 106.638 71.8224 106.275 71.9171C106.207 71.98 106.147 72.0517 106.097 72.1303C106.051 72.1942 105.99 72.2456 105.919 72.2797C105.847 72.3138 105.769 72.3296 105.69 72.3257C105.537 72.4809 105.395 72.6467 105.265 72.8218C105.135 72.8513 105.01 72.8991 104.893 72.9639L104.538 73.0527C104.419 73.1495 104.315 73.2627 104.228 73.389C104.149 73.4754 104.05 73.5414 103.939 73.5816C103.829 73.6218 103.711 73.6349 103.594 73.6199C103.416 73.6199 103.328 73.4782 103.328 73.1948C103.317 72.9329 103.367 72.672 103.473 72.4322C103.579 72.1924 103.738 71.9802 103.939 71.8118C104.189 71.5597 104.496 71.3713 104.834 71.2624C104.907 71.2632 104.978 71.2437 105.041 71.2061C105.103 71.1684 105.154 71.1141 105.188 71.0493C105.223 70.9802 105.272 70.9188 105.331 70.8688C105.39 70.8187 105.459 70.7808 105.533 70.7574C105.777 70.6314 105.993 70.4565 106.167 70.2436C106.379 69.9983 106.651 69.812 106.956 69.7031L107.176 69.4379ZM116.009 88.7733L115.726 88.9687C115.615 89.0378 115.486 89.0747 115.355 89.0753C115.175 89.054 115.003 88.9897 114.854 88.8879C114.704 88.7861 114.581 88.6497 114.496 88.4904C114.233 88.1429 114.087 87.7207 114.08 87.285C114.047 86.7468 114.123 86.2076 114.302 85.699C114.416 85.4773 114.501 85.2419 114.555 84.9986C114.555 84.9867 114.682 84.6945 114.936 84.1218C115.127 83.6626 115.368 83.226 115.655 82.82C115.86 82.5537 116.05 82.2758 116.223 81.9877L116.294 81.8456C116.422 81.6165 116.597 81.4171 116.807 81.2607C116.807 81.1896 117.035 80.9443 117.49 80.5248C117.899 80.1441 118.328 79.7862 118.775 79.4526L118.953 79.1988C119.105 79.0873 119.272 78.9976 119.449 78.9324L120.477 78.6494C120.697 78.4549 120.927 78.2728 121.167 78.1039H121.309L121.788 77.9618C122.178 77.8072 122.584 77.6974 122.999 77.6344C123.547 77.5337 123.858 77.4157 123.933 77.2804C124.008 77.1451 124.071 77.0182 124.122 76.8998C124.174 76.7813 124.303 76.5331 124.509 76.155C124.557 75.9545 124.599 75.795 124.636 75.6766C124.649 75.5945 124.688 75.5187 124.748 75.4609C124.838 75.3614 124.907 75.2449 124.952 75.1183C125.032 74.937 125.127 74.7622 125.235 74.5956C125.24 74.5962 125.245 74.5957 125.249 74.5942C125.254 74.5926 125.258 74.59 125.261 74.5866C125.265 74.5831 125.267 74.579 125.269 74.5744C125.271 74.5698 125.271 74.5649 125.27 74.5601L125.164 74.2594C125.207 74.0601 125.309 73.8783 125.456 73.7366C125.556 73.6715 125.607 73.6292 125.607 73.6097L125.48 73.2913L125.781 72.6353C125.782 72.6256 125.781 72.6157 125.778 72.6064C125.775 72.5971 125.77 72.5886 125.763 72.5817C125.756 72.5748 125.748 72.5696 125.738 72.5665C125.729 72.5635 125.719 72.5627 125.709 72.5642C125.378 72.8369 125.008 73.0581 124.611 73.2202C124.491 73.3705 124.36 73.5125 124.221 73.6453C124.13 73.673 124.046 73.7208 123.975 73.7851C123.905 73.8494 123.85 73.9286 123.814 74.017L123.672 74.0525L123.565 74.2302C123.565 74.2539 123.523 74.2835 123.438 74.319C123.268 74.4036 123.103 74.4981 122.943 74.6019L122.739 74.5601C122.692 74.5601 122.633 74.6781 122.563 74.9141C122.417 75.1106 122.217 75.2612 121.988 75.348C121.856 75.3716 121.735 75.437 121.643 75.5345L121.501 75.7147L121.323 75.6766C121.075 75.6766 120.951 75.7709 120.951 75.9596C120.93 76.1058 120.855 76.2387 120.74 76.3313C120.615 76.3399 120.494 76.3763 120.386 76.4379H120.12C120.064 76.5647 119.976 76.675 119.865 76.7587C119.754 76.8423 119.623 76.8965 119.486 76.9163L118.978 77.2703L118.678 77.3768C118.53 77.4505 118.388 77.5353 118.253 77.6306C118.031 77.7538 117.781 77.818 117.527 77.8171C117.286 77.694 117.03 77.6015 116.766 77.5418C116.423 77.4572 116.181 76.8811 116.039 75.8137H116.003C115.892 75.8193 115.785 75.8563 115.693 75.9202C115.623 75.9741 115.541 76.0106 115.454 76.0268C115.17 76.0268 115.029 75.9088 115.029 75.6728C115.004 75.457 115.049 75.239 115.158 75.0508C115.266 74.8626 115.432 74.7142 115.631 74.6273L116.074 74.0779L117.208 72.9614C118.002 72.1696 118.535 71.6621 118.807 71.4388C119.092 71.2051 119.388 70.9862 119.695 70.7828L120.601 70.1801C120.778 70.0522 120.968 69.9429 121.167 69.854C121.248 69.8311 121.324 69.7918 121.389 69.7386C121.594 69.6242 121.812 69.5347 122.038 69.4721L122.357 69.33C122.767 69.1665 123.195 69.0523 123.631 68.99L123.885 69.0255C124.022 69.0229 124.154 68.9727 124.258 68.8834C124.543 68.8269 124.807 68.692 125.019 68.4939L125.654 68.3162C125.796 68.2638 125.946 68.2338 126.098 68.2274H126.435C126.683 68.2274 126.845 68.4224 126.922 68.8123C126.999 69.2023 127.068 69.3973 127.127 69.3973C127.15 69.3973 127.221 69.3085 127.34 69.1308L127.594 68.9532C127.693 68.8727 127.807 68.8123 127.93 68.7756C128.046 68.7615 128.164 68.7894 128.261 68.8543C128.359 68.9192 128.43 69.0168 128.462 69.1296V69.1651L128.533 69.2539C128.607 69.5988 128.661 69.9479 128.692 70.2994C128.72 70.7704 128.593 71.2375 128.33 71.6291C128.158 71.8351 128.012 72.0614 127.896 72.3029C127.731 73.0435 127.493 73.766 127.186 74.4598C127.127 74.5901 126.985 74.9327 126.761 75.4876L126.584 75.6652C126.562 75.6737 126.544 75.6884 126.532 75.7074C126.519 75.7265 126.512 75.7489 126.513 75.7718L126.548 76.0255C126.383 76.2487 126.279 76.5111 126.247 76.7868C126.196 77.0218 126.1 77.2446 125.963 77.4428C126.062 77.5129 126.166 77.5752 126.274 77.6293C126.513 77.7796 126.723 77.9717 126.895 78.1965C127.071 78.3681 127.192 78.5893 127.24 78.8309C127.24 78.8664 127.175 79.0969 127.044 79.5224C126.742 79.7902 126.364 79.9574 125.962 80.0007C125.772 79.9735 125.593 79.8955 125.443 79.7749L125.336 79.8104V79.7343C125.209 79.7107 125.087 79.6679 124.972 79.6074C124.896 79.5587 124.809 79.5311 124.719 79.5275C124.699 79.525 124.68 79.5269 124.661 79.5332C124.643 79.5395 124.626 79.5499 124.613 79.5636C124.599 79.5773 124.588 79.594 124.582 79.6124C124.576 79.6308 124.574 79.6503 124.576 79.6696C124.577 79.7191 124.589 79.7678 124.612 79.8117C124.541 79.8709 124.446 79.9597 124.328 80.0781C124.26 80.2601 124.175 80.4351 124.074 80.6009C123.966 80.8377 123.815 81.0527 123.63 81.2353C123.37 81.2471 123.193 81.4421 123.098 81.8202C123.058 82.0898 122.941 82.3422 122.762 82.5472L122.584 82.4762C122.293 83.1245 121.884 83.7134 121.379 84.2132C121.131 84.2724 121.004 84.3147 120.998 84.3401C120.992 84.3654 120.981 84.4424 120.963 84.571C120.875 84.7997 120.728 85.0014 120.538 85.1559C120.272 85.4215 120.116 85.5543 120.068 85.5543L119.891 85.5898L119.784 85.6964C119.796 85.9324 119.483 86.3105 118.845 86.8307C118.503 87.0194 118.319 87.1492 118.296 87.2203C118.201 87.4444 117.853 87.7105 117.25 88.0184L116.914 88.3191C116.781 88.4474 116.625 88.5495 116.453 88.6198L116.009 88.7733ZM122.09 74.0107L122.303 73.71C122.397 73.6009 122.524 73.526 122.666 73.4968C122.836 73.4501 122.984 73.3433 123.082 73.1961C123.338 72.8177 123.688 72.5117 124.097 72.3079L124.274 72.181C124.452 71.8385 124.612 71.6524 124.753 71.6228C124.834 71.5992 124.909 71.5586 124.973 71.5037C125.037 71.4488 125.089 71.3808 125.125 71.3043C125.215 71.1695 125.27 71.0142 125.284 70.8526C125.284 70.8052 125.249 70.7815 125.178 70.7815C125.021 70.7788 124.868 70.8289 124.744 70.9237C124.673 70.9916 124.585 71.0405 124.49 71.0658L124.136 71.0302C123.924 71.1487 123.628 71.2903 123.248 71.4553L122.93 71.7217C122.815 71.8041 122.686 71.8644 122.549 71.8994C122.492 71.9134 122.439 71.9409 122.395 71.9795C122.351 72.0181 122.317 72.0668 122.295 72.1214C122.236 72.2458 122.159 72.3079 122.064 72.3079L121.922 72.379C121.797 72.4436 121.655 72.4684 121.515 72.45C121.381 72.5337 121.259 72.6348 121.152 72.7507C121.028 72.881 120.954 72.9461 120.93 72.9461C120.74 73.1793 120.501 73.367 120.229 73.4955C120.149 73.5175 120.074 73.5555 120.009 73.6071C119.943 73.6588 119.889 73.7231 119.849 73.7962C119.619 73.8584 119.418 73.9994 119.282 74.1947C119.169 74.3601 119.029 74.504 118.866 74.6197C118.74 74.6975 118.63 74.7962 118.538 74.9115L118.361 75.0536C118.232 75.1882 118.132 75.3481 118.069 75.5231C117.973 75.6963 117.91 75.8855 117.882 76.0814C117.882 76.1524 117.924 76.188 118.009 76.188C118.245 76.1469 118.471 76.0608 118.674 75.9342C118.901 75.8284 119.114 75.6946 119.308 75.5358C119.403 75.441 119.468 75.3937 119.504 75.3937L120.152 75.4279C120.186 75.3535 120.236 75.2876 120.299 75.2355C120.362 75.1834 120.436 75.1463 120.515 75.1272C120.682 75.083 120.825 74.9751 120.913 74.8265C121.129 74.5916 121.405 74.4201 121.711 74.3304L121.907 74.0119L122.09 74.0107ZM122.405 79.6645L121.874 79.7356C121.789 79.6607 121.685 79.6114 121.573 79.5934C121.526 79.5934 121.49 79.629 121.467 79.7C121.21 79.952 120.882 80.119 120.528 80.1784C120.178 80.2506 119.845 80.3856 119.544 80.5768C119.423 80.6888 119.273 80.7656 119.11 80.7988C118.992 80.8107 118.933 80.8343 118.933 80.8699C118.836 80.9456 118.747 81.0306 118.666 81.1236C118.537 81.178 118.418 81.253 118.312 81.3457C118.207 81.4398 118.079 81.5042 117.941 81.5322C117.728 81.9932 117.575 82.2237 117.48 82.2237C117.42 82.2169 117.36 82.205 117.302 82.1882H117.267C117.189 82.3891 117.068 82.5706 116.913 82.7198C116.827 82.7702 116.754 82.8402 116.7 82.9241C116.605 83.0434 116.488 83.1426 116.355 83.2159C116.264 83.2781 116.186 83.358 116.127 83.4509C116.067 83.5438 116.028 83.6477 116.009 83.7564C115.981 83.9439 115.904 84.1209 115.787 84.2703C115.67 84.4457 115.611 84.6534 115.619 84.8641L115.512 85.1179C115.443 85.3166 115.392 85.5213 115.361 85.7294C115.296 86.0678 115.263 86.242 115.263 86.2522C115.265 86.337 115.285 86.4205 115.322 86.4969C115.358 86.5733 115.411 86.6409 115.477 86.695C115.559 86.6188 115.665 86.5739 115.777 86.5681L116.823 86.1431C116.858 86.1194 116.988 86.0103 117.212 85.8157C117.385 85.6533 117.586 85.5243 117.806 85.4351C117.987 85.3698 118.148 85.2603 118.276 85.1166C118.367 84.9779 118.484 84.8577 118.621 84.7626C118.683 84.7234 118.736 84.6717 118.778 84.6108C118.819 84.5498 118.847 84.481 118.86 84.4086C119.132 84.1726 119.38 83.951 119.605 83.7437C119.779 83.599 119.926 83.4251 120.039 83.2299C120.109 83.0887 120.216 82.9694 120.349 82.8847L120.42 82.6538C120.469 82.6343 120.519 82.6194 120.571 82.6094C120.648 82.5916 120.775 82.3996 120.951 82.0334L121.43 81.2353C121.731 80.9251 121.966 80.5575 122.121 80.1543L122.375 79.9411C122.416 79.9098 122.436 79.8544 122.436 79.7749L122.405 79.6645ZM143.515 73.4613L143.798 73.2075C143.871 73.2163 143.946 73.1963 144.005 73.1516C144.064 73.1069 144.104 73.041 144.116 72.9677C144.144 72.8781 144.193 72.7966 144.259 72.7303C144.326 72.664 144.407 72.6148 144.497 72.5871C144.752 72.4585 144.963 72.2583 145.106 72.011C145.294 71.7217 145.489 71.5771 145.688 71.5771C145.759 71.5771 145.844 71.6363 145.942 71.7547C146.017 71.8322 146.066 71.931 146.083 72.0377C146.073 72.4636 145.951 72.8793 145.729 73.243L145.655 73.7442L145.528 73.9751C145.386 74.0385 145.265 74.1433 145.183 74.2759C145.076 74.4356 144.934 74.5688 144.767 74.6654L144.589 74.9191C144.478 74.946 144.374 74.9962 144.284 75.0665C144.194 75.1367 144.12 75.2253 144.067 75.3264C144.038 75.4071 143.988 75.4789 143.923 75.5347C143.858 75.5905 143.779 75.6285 143.695 75.6449C143.486 75.7002 143.301 75.825 143.172 75.9989C143.036 76.0651 142.893 76.1186 142.747 76.1588L142.712 76.3364C142.552 76.4759 142.36 76.5731 142.153 76.6193C141.958 76.6687 141.768 76.7372 141.586 76.8236C141.509 76.8723 141.422 76.9055 141.332 76.9213C141.119 76.9255 140.907 76.8822 140.712 76.7944C140.527 76.7069 140.33 76.65 140.127 76.6257C140.06 76.565 140.016 76.4837 140 76.3948C139.968 76.273 139.907 76.1607 139.822 76.0674C139.708 75.9045 139.652 75.7079 139.663 75.5091L139.734 75.1729C139.724 75.1055 139.693 75.0431 139.645 74.9953C139.596 74.9475 139.565 74.885 139.556 74.8176C139.553 74.7965 139.555 74.7749 139.561 74.7545C139.568 74.7341 139.578 74.7154 139.593 74.6996C139.606 74.6851 139.615 74.6682 139.621 74.6499C139.627 74.6316 139.63 74.6123 139.628 74.5931C139.627 74.5264 139.615 74.4605 139.593 74.3977C139.572 74.3407 139.56 74.2807 139.557 74.22L139.664 73.3522C139.664 73.2811 139.64 73.2456 139.593 73.2456C139.545 73.2456 139.461 73.3048 139.339 73.4232C139.282 73.48 139.214 73.5249 139.14 73.5554C139.065 73.5858 138.986 73.6013 138.905 73.6008C138.783 73.7204 138.702 73.8754 138.674 74.0437C138.573 74.1674 138.454 74.2749 138.32 74.3621L138.245 74.4713C138.222 74.5558 138.133 74.6239 137.979 74.6755C137.855 74.7095 137.744 74.7803 137.662 74.8785L137.484 75.0562L137.147 75.0206C137.074 75.1203 137.009 75.225 136.951 75.334C136.849 75.5121 136.71 75.6662 136.544 75.7857L135.196 76.8845C134.996 77.0124 134.789 77.1301 134.576 77.2373L134.469 77.3438C133.887 77.813 133.199 78.1351 132.466 78.2828C132.08 78.2673 131.701 78.1768 131.349 78.0163C130.926 77.8387 130.696 77.6272 130.658 77.3819L130.48 76.6549C130.362 76.4443 130.307 76.2044 130.32 75.9634C130.314 75.8662 130.327 75.7688 130.358 75.6766V75.57L130.323 74.9851C130.323 74.843 130.435 74.772 130.659 74.772L130.624 74.2936C130.704 74.0948 130.809 73.9072 130.937 73.7353C131.049 73.531 131.189 73.3431 131.353 73.1771L131.531 72.9461C131.535 72.8563 131.561 72.7688 131.605 72.6904C131.649 72.6121 131.71 72.545 131.785 72.4944C131.948 72.3517 132.091 72.1878 132.211 72.0072C132.375 71.7874 132.58 71.601 132.815 71.4578L133.346 70.9262C133.741 70.5269 134.196 70.1921 134.695 69.934C134.856 69.839 135 69.7195 135.124 69.58C135.336 69.3719 135.59 69.2117 135.869 69.1105C136.152 69.008 136.425 68.8806 136.685 68.7299C136.874 68.6021 137.092 68.5229 137.319 68.499H137.461C137.785 68.3741 138.099 68.2261 138.401 68.0561H138.508C138.628 68.0843 138.742 68.1323 138.845 68.1982H138.881L139.165 68.0561C139.221 68.0307 139.282 68.0185 139.343 68.0206C140.076 68.0206 140.478 68.5281 140.55 69.5432C140.573 69.7555 140.632 69.8617 140.727 69.8617C140.846 69.8617 141.015 69.646 141.235 69.2146C141.379 68.9829 141.588 68.7983 141.836 68.6834C142.084 68.5685 142.36 68.5282 142.63 68.5675C143.138 68.5675 143.392 68.8923 143.392 69.5419C143.376 69.9558 143.278 70.3624 143.101 70.7371C142.924 71.1117 142.674 71.4467 142.364 71.7217C142.314 71.8227 142.279 71.9298 142.257 72.0402L142.004 72.7672V72.8028C141.985 72.9133 141.932 73.0152 141.853 73.0946C141.763 73.1853 141.707 73.304 141.695 73.4308L141.731 73.8736L141.66 74.3697C141.65 74.4483 141.656 74.5281 141.678 74.6042C141.699 74.6803 141.737 74.7512 141.787 74.8126C142.105 74.7525 142.395 74.5872 142.609 74.3431C142.702 74.1977 142.825 74.074 142.97 73.9802L143.147 73.9092C143.243 73.7402 143.368 73.5888 143.515 73.4613ZM137.63 73.4613C137.652 73.3355 137.702 73.2164 137.777 73.1134C137.852 73.0104 137.951 72.9262 138.064 72.8675C138.253 72.7848 138.407 72.6372 138.498 72.4513C138.84 72.1784 139.163 71.8816 139.463 71.5631C139.886 71.1402 140.098 70.8801 140.098 70.7828C140.098 70.7473 140.074 70.7295 140.027 70.7295H139.991L139.849 70.8183L139.531 70.7828L139.193 70.8183L138.939 70.6915L138.708 70.727L138.354 70.6559C138.185 70.6514 138.017 70.6912 137.867 70.7714C137.618 70.8861 137.356 70.9712 137.087 71.0252C136.712 71.1155 136.359 71.2813 136.05 71.5124C135.861 71.6866 135.628 71.806 135.377 71.8575C135.156 72.1675 134.873 72.427 134.544 72.6188C134.406 72.6642 134.282 72.7456 134.185 72.8546C134.089 72.9636 134.023 73.0964 133.995 73.2392C133.688 73.4871 133.534 73.6288 133.534 73.6643L133.407 73.965C133.303 74.0538 133.183 74.123 133.053 74.1693C132.979 74.1994 132.916 74.2508 132.87 74.3169C132.825 74.383 132.801 74.461 132.8 74.541C132.779 74.7398 132.699 74.9278 132.57 75.0803C132.463 75.1818 132.391 75.3153 132.366 75.4609C132.366 76.0395 132.478 76.3288 132.702 76.3288C132.908 76.2963 133.108 76.2334 133.296 76.1423C133.48 76.0798 133.655 75.9945 133.818 75.8885C133.902 75.822 133.998 75.7736 134.101 75.7464L134.439 75.5688C134.482 75.5237 134.538 75.4927 134.599 75.48C134.669 75.4615 134.731 75.421 134.776 75.3645C134.87 75.2758 134.977 75.2037 135.095 75.1513C135.239 75.0827 135.362 74.9756 135.449 74.8417C135.649 74.7233 135.974 74.5402 136.423 74.2923L136.795 74.0094C136.977 73.9461 137.143 73.8434 137.281 73.7087C137.376 73.5996 137.496 73.5148 137.63 73.4613ZM161.187 74.5601H161.262L161.439 74.6311C161.453 74.6303 161.466 74.6267 161.478 74.6206C161.491 74.6145 161.501 74.606 161.51 74.5956C161.512 74.4932 161.539 74.3929 161.588 74.3033C161.638 74.2137 161.709 74.1377 161.794 74.0817C161.822 73.9731 161.872 73.8714 161.94 73.7829C162.009 73.6945 162.096 73.6212 162.194 73.5679C162.401 73.4494 162.73 73.2545 163.18 72.9829L163.624 72.5934L163.837 72.4868L163.979 72.3092C164.021 72.2461 164.076 72.1929 164.141 72.153C164.205 72.1132 164.277 72.0877 164.352 72.0783C164.53 72.0783 164.619 72.1434 164.619 72.2737L164.459 72.6277L164.53 73.2126C164.531 73.4232 164.451 73.626 164.307 73.7797C164.159 73.9489 163.931 74.1913 163.624 74.5068L162.717 75.4609L162.237 75.7147C162.121 75.7857 162.013 75.8709 161.918 75.9684L161.225 76.5534C161.23 76.6236 161.218 76.6939 161.19 76.7586C161.162 76.8232 161.119 76.8803 161.065 76.9251H160.781L160.64 76.9835C160.481 77.2807 160.224 77.5129 159.912 77.6395L159.658 77.8171C159.596 77.879 159.514 77.9167 159.427 77.9237L158.93 77.8526L158.592 77.9237C158.455 77.9088 158.324 77.8599 158.211 77.7816C158.057 77.6895 157.894 77.615 157.723 77.5595C157.554 77.5063 157.342 77.2876 157.088 76.9036C156.915 76.6731 156.774 76.4194 156.671 76.1499C156.66 76.0656 156.633 75.9843 156.591 75.9101C156.56 75.8481 156.537 75.7825 156.523 75.7147C156.565 75.5921 156.619 75.4736 156.682 75.3607V75.3214C156.664 75.232 156.631 75.1462 156.585 75.0676C156.515 74.9179 156.482 74.7541 156.487 74.5893C156.477 74.4514 156.442 74.3166 156.382 74.1921C156.476 74.0974 156.524 74.0263 156.524 73.979C156.518 73.9083 156.5 73.8391 156.471 73.7747C156.441 73.7102 156.423 73.6411 156.417 73.5704L156.524 72.7025L156.453 72.2597L156.488 71.8347C156.488 71.5868 156.382 71.4629 156.17 71.4629C156.033 71.4847 155.908 71.5538 155.817 71.6583L155.69 71.6938C155.455 71.7994 155.23 71.9268 155.019 72.0745C154.905 72.1694 154.762 72.2227 154.613 72.2255C154.494 72.3209 154.356 72.3878 154.207 72.4209L154.066 72.5274C153.978 72.6063 153.883 72.6776 153.783 72.7406C153.585 72.9628 153.363 73.162 153.121 73.3344C152.679 73.6947 152.282 74.0331 151.928 74.3494C151.714 74.5792 151.452 74.7579 151.159 74.8722C151 74.9018 150.921 75.0524 150.921 75.3239C150.921 75.3713 150.815 75.4656 150.602 75.6068C150.464 75.7215 150.339 75.8523 150.232 75.9964C150.137 75.9126 150.031 75.841 149.918 75.7832C149.764 75.7832 149.652 75.9782 149.581 76.3681C149.51 76.5221 149.32 76.6164 149.012 76.6511C148.953 76.7305 148.91 76.8211 148.886 76.9175L148.815 76.9886H148.637C148.541 77.0417 148.455 77.1108 148.383 77.1929C148.278 77.3027 148.151 77.3891 148.01 77.4466C147.856 77.7655 147.726 77.925 147.619 77.925C147.547 77.9168 147.477 77.8925 147.415 77.8539C147.311 77.7996 147.2 77.7571 147.086 77.727C146.956 77.6915 146.812 77.5469 146.652 77.2931C146.515 77.1032 146.432 76.8795 146.413 76.646C146.413 75.3349 146.666 74.6201 147.174 74.5017L147.209 74.4306V74.2936C147.206 74.2247 147.223 74.1563 147.26 74.0977C147.297 74.0392 147.35 73.9933 147.414 73.9663C147.582 73.8719 147.725 73.7383 147.83 73.5767C147.907 73.4535 148.002 73.343 148.113 73.2494H148.344C148.391 73.2494 148.415 73.1255 148.415 72.8776C148.416 72.8407 148.424 72.8044 148.439 72.7708C148.454 72.7372 148.476 72.7071 148.504 72.6822C148.567 72.6123 148.605 72.5228 148.61 72.4285C148.659 72.2307 148.745 72.0442 148.864 71.8791C148.966 71.7414 149.047 71.5892 149.104 71.4274L149.081 71.3525C148.906 71.5461 148.689 71.6975 148.447 71.7953C148.316 71.819 148.139 71.9903 147.915 72.3092L147.632 72.2559C147.342 72.4874 147.033 72.6949 146.71 72.8764C146.543 72.9714 146.407 73.1129 146.319 73.2836C146.319 73.3547 146.276 73.4021 146.192 73.4258C146.026 73.4983 145.87 73.5935 145.73 73.7087H145.617C145.321 73.7087 145.173 73.4972 145.173 73.0743L145.545 72.0592C145.683 71.7039 145.952 71.4151 146.297 71.2523C146.644 71.0628 146.979 70.8509 147.298 70.6179C147.531 70.432 147.815 70.321 148.113 70.2994L148.24 70.1218C148.419 70.0636 148.583 69.969 148.723 69.8438C148.864 69.7187 148.976 69.5657 149.054 69.3947C149.196 69.064 149.391 68.8986 149.639 68.8986C149.928 68.885 150.215 68.9444 150.474 69.0713C150.733 69.1982 150.956 69.3884 151.123 69.6244C151.398 69.9485 151.574 70.3449 151.63 70.7663L151.666 71.2447C151.656 71.4784 151.62 71.7103 151.559 71.9362C151.448 72.0744 151.374 72.2393 151.346 72.4145C151.346 72.5092 151.405 72.5566 151.523 72.5566C151.632 72.5382 151.731 72.4852 151.806 72.4056C151.93 72.3011 152.063 72.2089 152.205 72.1303C152.308 72.0853 152.396 72.0112 152.459 71.9171C152.513 71.7806 152.597 71.6576 152.704 71.5566C152.811 71.4556 152.938 71.379 153.078 71.3322C153.275 71.276 153.461 71.1858 153.627 71.0658L153.804 70.9237L153.946 70.6572C154.18 70.5684 154.395 70.4362 154.58 70.2677C154.692 70.1459 154.842 70.0648 155.005 70.0368C155.228 69.9783 155.434 69.8693 155.608 69.7183L155.873 69.6472L156.127 69.5051C156.192 69.4627 156.264 69.4326 156.34 69.4163C156.458 69.3808 156.633 69.3186 156.863 69.2298C157.012 69.1645 157.17 69.1218 157.332 69.1029C157.612 69.0946 157.889 69.1568 158.138 69.2839C158.387 69.411 158.6 69.5988 158.757 69.8299C159.041 70.1607 159.223 70.5673 159.28 70.9998L159.244 71.3183L159.315 71.7966V71.8676L159.173 72.8421L159.209 73.1783C159.232 73.3844 159.213 73.593 159.152 73.7913C159.091 73.9895 158.99 74.173 158.855 74.3304C158.795 74.3541 158.766 74.4133 158.766 74.508V74.6679L159.12 75.4127C159.226 75.6724 159.311 75.8022 159.374 75.8022L159.942 75.6424C160.032 75.6119 160.115 75.5632 160.185 75.4992C160.256 75.4352 160.312 75.3574 160.351 75.2706C160.534 75.1504 160.701 75.0076 160.848 74.8456C160.92 74.6552 161.033 74.5601 161.187 74.5601ZM172.006 63.0405L171.899 62.349V62.2424C171.899 61.6875 172.088 61.3805 172.466 61.3213C172.719 61.2586 172.968 61.1815 173.211 61.0904C173.492 61.1913 173.728 61.3893 173.876 61.6486C174.076 61.8933 174.196 62.1929 174.221 62.5076C174.211 62.5632 174.193 62.6171 174.168 62.6675C174.121 62.8195 174.097 62.9778 174.097 63.137C174.088 63.2568 174.052 63.3731 173.992 63.4773C173.933 63.5816 173.851 63.6712 173.752 63.7396C173.554 63.902 173.307 63.9916 173.051 63.9934C172.806 63.9555 172.582 63.8335 172.417 63.6483C172.216 63.4969 172.072 63.2831 172.006 63.0405ZM164.35 71.9019L164.634 71.6481H164.741C164.825 71.6481 164.95 71.5593 165.114 71.3817L165.291 71.3106C165.432 71.0466 165.648 70.8305 165.912 70.6902L166.196 70.477C166.255 70.4214 166.324 70.3783 166.4 70.3501C166.56 70.2594 166.705 70.1428 166.827 70.005C166.944 69.8549 167.111 69.7514 167.297 69.7132C167.393 69.7102 167.489 69.7222 167.582 69.7487C167.684 69.5747 167.831 69.4311 168.008 69.3326C168.211 69.2064 168.386 69.0407 168.523 68.8453L168.754 68.7388C168.942 68.6461 169.113 68.5235 169.261 68.3759C169.337 68.3016 169.428 68.2436 169.527 68.2055C169.626 68.1673 169.731 68.1497 169.837 68.1538C170.249 68.1848 170.633 68.3718 170.911 68.6766C171.067 68.7966 171.198 68.9473 171.294 69.1194C171.39 69.2916 171.449 69.4816 171.469 69.6777L171.158 71.0683C170.958 72.0833 170.733 72.615 170.485 72.6632L170.414 73.035C170.244 73.1534 170.16 73.2477 170.16 73.3179L170.266 73.743C170.266 73.8022 170.201 73.891 170.071 74.0094C170.047 74.0094 170.035 74.0449 170.035 74.116V74.843C170.035 74.9733 169.951 75.0794 169.782 75.1615C169.813 75.1906 169.849 75.2146 169.888 75.2325C170.03 75.1424 170.2 75.1047 170.367 75.126L170.65 75.1615L171.039 74.772C171.16 74.7298 171.276 74.6731 171.384 74.6032C171.626 74.4704 171.878 74.3551 172.137 74.2581L174.455 72.4818C174.773 72.1629 175.015 72.0034 175.18 72.0034C175.346 72.0034 175.435 72.1155 175.446 72.3396C175.454 72.5649 175.402 72.7883 175.295 72.9867C175.183 73.1839 175.091 73.3918 175.021 73.6072C174.969 73.7989 174.868 73.9738 174.729 74.1147C174.622 74.2032 174.53 74.3076 174.455 74.4243C174.291 74.618 174.097 74.7827 173.879 74.9115C173.593 75.1018 173.327 75.3184 173.082 75.5586C172.917 75.7315 172.736 75.8886 172.541 76.0281L171.78 76.5775L171.673 76.7551C171.57 76.8175 171.46 76.8681 171.346 76.9061C171.159 76.9783 170.983 77.0766 170.823 77.1979L170.505 77.3756C170.399 77.4327 170.28 77.4631 170.16 77.4644C170 77.4765 169.851 77.5497 169.744 77.6687C169.625 77.793 169.531 77.8552 169.461 77.8552L169.194 77.8196L168.84 77.9262C168.564 77.8889 168.309 77.7613 168.113 77.5633C167.987 77.4759 167.883 77.361 167.808 77.2274C167.733 77.0938 167.689 76.9449 167.679 76.7919V76.6866L167.715 76.4328C167.694 76.3081 167.658 76.1863 167.608 76.07C167.564 75.9637 167.529 75.8542 167.502 75.7426L167.537 75.4888L167.505 75.3924C167.489 75.1888 167.513 74.9839 167.576 74.7897C167.632 74.6822 167.668 74.5658 167.683 74.4459C167.707 74.2978 167.73 74.1769 167.754 74.083L167.843 73.6402C167.87 73.5293 167.933 73.4301 168.021 73.3572C168.044 73.2625 168.092 73.103 168.163 72.8789L168.234 72.5604L168.411 72.3067C168.51 72.2032 168.57 72.0686 168.58 71.926C168.605 71.7454 168.669 71.5723 168.767 71.4185C168.836 71.3212 168.89 71.2137 168.926 71.1C168.93 71.0713 168.926 71.0422 168.917 71.015C168.907 70.9878 168.891 70.9632 168.87 70.9432C168.849 70.9232 168.824 70.9082 168.796 70.8996C168.769 70.8909 168.739 70.8887 168.711 70.8932C168.548 70.9617 168.398 71.0574 168.268 71.1761L167.948 71.0696C167.925 71.0696 167.859 71.1288 167.753 71.2472C167.753 71.2946 167.7 71.3301 167.593 71.3538C167.528 71.3761 167.468 71.4111 167.416 71.4569C167.364 71.5026 167.322 71.5581 167.292 71.6202L167.15 71.6558L166.919 71.5492H166.844C166.726 71.5492 166.655 71.679 166.631 71.9387C166.511 72.1207 166.328 72.2528 166.117 72.3105L165.728 72.417C165.659 72.4449 165.598 72.4881 165.549 72.5433C165.499 72.5985 165.464 72.6643 165.444 72.7355C165.372 72.9173 165.249 73.0742 165.09 73.1872C164.99 73.2825 164.868 73.3526 164.736 73.3915C164.405 73.3915 164.239 73.2084 164.239 72.8421L164.382 72.0098L164.35 71.9019ZM176.864 72.917V72.7393C176.931 72.4648 177.051 72.2062 177.218 71.978C177.397 71.6406 177.684 71.3727 178.033 71.2167C178.038 71.2174 178.042 71.2169 178.047 71.2153C178.052 71.2138 178.056 71.2112 178.059 71.2077C178.063 71.2043 178.065 71.2001 178.067 71.1955C178.068 71.1909 178.069 71.186 178.068 71.1812L178.033 70.8932C178.08 70.8458 178.198 70.6923 178.387 70.4326C178.575 70.1729 178.759 70.0609 178.936 70.0964C179.066 69.9059 179.236 69.7451 179.432 69.6244C179.641 69.4934 179.827 69.3288 179.982 69.1372L180.636 68.7299C180.93 68.4929 181.28 68.3344 181.651 68.2693H181.918C181.97 68.1633 182.051 68.0741 182.151 68.0115C182.251 67.949 182.367 67.9157 182.485 67.9153C182.641 67.8962 182.798 67.9341 182.928 68.0219C182.937 68.0323 182.948 68.0408 182.96 68.0469C182.972 68.053 182.985 68.0566 182.999 68.0574C183.074 68.0169 183.145 67.9693 183.211 67.9153C183.351 67.8175 183.519 67.7677 183.689 67.7732C183.961 67.8493 184.227 67.9438 184.486 68.0561C184.536 67.9956 184.598 67.9456 184.668 67.909C184.738 67.8724 184.815 67.85 184.893 67.843C184.985 67.8589 185.072 67.8953 185.147 67.9496C185.264 68.0199 185.385 68.0822 185.51 68.1361C185.634 68.1894 185.755 68.408 185.873 68.792C185.946 69.0036 186.006 69.2198 186.05 69.4391C186.05 69.6278 185.894 69.8494 185.582 70.104C185.343 70.3275 185.034 70.4619 184.707 70.4846C184.612 70.4846 184.494 70.4001 184.353 70.2309C184.044 70.1732 183.741 70.0839 183.451 69.9644C183.184 70.0123 182.927 70.1023 182.689 70.2309H182.654L182.495 70.0888L182.353 70.0532H182.318C182.263 70.1339 182.216 70.2188 182.175 70.307C182.027 70.4151 181.863 70.5006 181.689 70.5608C181.565 70.5955 181.452 70.663 181.362 70.7562C181.241 70.8715 181.1 70.9647 180.946 71.0315C180.765 71.1136 180.613 71.2496 180.512 71.421C180.353 71.5183 180.182 71.5959 180.004 71.652H179.898C179.707 71.9828 179.488 72.2969 179.243 72.5909L178.784 73.3522C178.677 73.4469 178.547 73.556 178.394 73.6795C178.241 73.803 178.164 73.9121 178.163 74.0069C178.17 74.067 178.182 74.1264 178.199 74.1845V74.3621C178.199 74.4332 178.143 74.5178 178.03 74.6159C177.918 74.714 177.861 74.788 177.861 74.8379L177.883 75.2338L177.741 75.8543C177.741 76.2205 178.007 76.4037 178.539 76.4037H178.805L179.567 76.2768C179.815 76.2412 180.021 76.2057 180.186 76.1702C180.279 76.1475 180.374 76.1297 180.469 76.1169C180.572 76.0654 180.667 75.9996 180.752 75.9215H180.929L181.088 75.886C181.135 75.6381 181.474 75.4313 182.103 75.2655C182.279 75.0294 182.533 74.8631 182.82 74.7961C183.205 74.6643 183.553 74.4424 183.835 74.149H184.1C184.22 74.0999 184.331 74.0309 184.428 73.9447C184.601 73.8148 184.789 73.7057 184.988 73.6199C185.123 73.5745 185.246 73.502 185.351 73.4067C185.424 73.3312 185.516 73.2761 185.616 73.2468C185.784 72.952 186.055 72.7306 186.378 72.6264L186.449 72.5553C186.637 72.3862 186.755 72.3016 186.803 72.3016L187.015 72.3371C187.132 72.3371 187.206 72.2631 187.235 72.1151C187.265 71.967 187.454 71.7661 187.803 71.5124C187.995 71.3409 188.221 71.2113 188.466 71.1317C188.69 71.1317 188.802 71.2497 188.802 71.4857C188.802 71.6634 188.702 71.7636 188.502 71.7864C188.581 71.9521 188.646 72.1239 188.697 72.3003C188.707 72.4762 188.653 72.6496 188.546 72.7892C188.438 72.9289 188.285 73.0255 188.112 73.0616C188.091 73.0701 188.073 73.0848 188.06 73.1038C188.047 73.1229 188.041 73.1453 188.041 73.1682L188.006 73.4867C188.017 73.4867 188.017 73.4955 188.006 73.5133C187.984 73.5419 187.961 73.5687 187.935 73.5932L187.668 73.6288L187.597 73.7353C187.264 73.9351 186.96 74.1798 186.694 74.4624L186.34 74.8341H186.286C186.216 74.7433 186.116 74.6803 186.003 74.6565C185.956 74.6565 185.897 74.7411 185.826 74.9103C185.582 75.1926 185.288 75.427 184.958 75.6018C184.819 75.6747 184.693 75.7704 184.586 75.8847L184.232 76.1156H183.973C183.932 76.1597 183.899 76.2109 183.876 76.2666C183.793 76.384 183.688 76.4833 183.566 76.5584C183.424 76.6558 183.296 76.7718 183.185 76.9036C183.101 77.0092 182.987 77.0867 182.858 77.1256L182.54 77.0546C182.479 77.1519 182.391 77.2301 182.288 77.2801C182.184 77.3302 182.069 77.3501 181.955 77.3375C181.844 77.4201 181.74 77.5122 181.645 77.6128C181.509 77.749 181.418 77.8171 181.371 77.8171C181.235 77.7699 181.109 77.6976 180.999 77.6039H180.964C180.845 77.6039 180.786 77.6928 180.786 77.8704C180.786 78.048 180.677 78.1423 180.459 78.1533C180.244 78.1642 180.034 78.225 179.847 78.331H179.812C179.605 78.3494 179.399 78.296 179.227 78.18C179.13 78.0937 179.023 78.0192 178.908 77.9579C178.542 78.0764 178.347 78.1356 178.323 78.1356C178.17 78.1305 178.024 78.067 177.916 77.9579L177.155 77.5684C177.045 77.4239 176.959 77.2623 176.901 77.0901L176.794 76.948C176.416 76.8769 176.163 76.487 176.033 75.7781L175.888 75.3569C175.859 75.3097 175.846 75.2537 175.853 75.1983C175.87 75.0114 175.918 74.8288 175.995 74.6578C176.112 74.3403 176.207 74.0151 176.279 73.6846C176.301 73.5154 176.366 73.3548 176.47 73.2192C176.573 73.0835 176.711 72.9775 176.868 72.9119L176.864 72.917Z" fill="#8BC34A"/>
<path d="M77.4983 33.7527L60.54 29.9642C61.0564 30.3165 95.2565 29.1059 111.503 25.9583C113.22 25.687 114.805 24.8547 116.012 23.5909C117.097 22.5696 118.283 21.6623 119.551 20.8835C119.826 20.6916 120.283 20.7631 120.659 20.7101C120.582 21.1018 120.618 21.5759 120.406 21.871C119.879 22.6078 119.239 23.263 118.642 23.9492C118.556 24.0456 118.451 24.1284 118.36 24.234C116.961 25.8361 116.976 26.0173 118.5 27.475C118.909 27.8656 119.56 28.3421 119.104 28.9247C118.63 29.5303 117.972 29.0817 117.479 28.7186C116.57 28.093 115.541 27.6656 114.455 27.4635C113.369 27.2615 112.25 27.2894 111.171 27.5453C106.464 28.3178 101.769 29.1753 97.0465 29.8346C88.0488 31.0855 78.9946 31.8401 69.9246 32.0952C69.7124 32.0888 69.5021 32.1437 69.3188 32.2534L77.4983 33.7527Z" fill="#8BC34A"/>
<path d="M186.685 0.149743C184.961 1.24685 183.24 2.35626 181.514 3.44281C178.943 5.06466 176.277 6.55283 173.821 8.332C171.963 9.80749 170.185 11.3794 168.494 13.041C167.917 13.5437 167.237 13.9136 166.502 14.1238C165.767 14.334 164.996 14.3793 164.244 14.2563C163.916 14.2752 163.59 14.2001 163.305 14.0399C163.021 13.8797 162.789 13.6412 162.638 13.3526C162.487 13.0641 162.422 12.7376 162.453 12.4119C162.483 12.0863 162.606 11.7752 162.809 11.5155C163.292 10.5624 164.022 9.75279 164.922 9.17074C165.823 8.58869 166.861 8.25545 167.929 8.20565C169.489 8.00231 171.015 7.58315 172.463 6.96036C177.216 5.18216 181.786 2.94434 186.107 0.279345C186.264 0.182551 186.425 0.0924478 186.584 -0.00012207L186.685 0.149743Z" fill="#8BC34A"/>
<path d="M155.883 24.9044C154.19 25.3231 152.502 25.7647 150.802 26.1553C146.431 27.1335 141.981 27.6878 137.513 27.8104C136.444 27.8191 135.393 27.5652 134.449 27.0707C133.505 26.5762 132.697 25.856 132.096 24.9726C131.931 24.8188 131.813 24.6203 131.756 24.4004C131.699 24.1804 131.706 23.9481 131.775 23.7305C131.845 23.513 131.974 23.3192 132.148 23.1719C132.322 23.0245 132.534 22.9297 132.758 22.8986C133.714 22.5041 134.758 22.3862 135.771 22.5583C136.784 22.7304 137.727 23.1857 138.491 23.8723C139.941 25.1761 141.789 25.9462 143.738 26.0587C146.849 26.2134 149.971 25.9534 153.022 25.2856L155.844 24.7596L155.883 24.9044Z" fill="#8BC34A"/>
<path d="M164.512 21.1907C162.691 21.824 160.875 22.4811 159.048 23.0853C154.835 24.4471 150.506 25.4003 146.12 25.9316C145.084 26.0463 144.039 25.8973 143.081 25.4983C142.123 25.0994 141.283 24.4633 140.638 23.6488C139.869 22.7963 140.037 22.0217 141.074 21.5244C141.884 21.0331 142.812 20.7804 143.753 20.7955C144.694 20.8106 145.609 21.0928 146.392 21.6097C149.237 23.8033 152.362 23.9222 155.622 23.2655C158.43 22.7039 161.191 21.8612 163.973 21.1434C164.136 21.0998 164.3 21.066 164.464 21.0277L164.512 21.1907Z" fill="#8BC34A"/>
<path d="M181.207 10.6207C178.09 12.3329 175.025 14.174 171.831 15.7348C169.015 17.0796 166.134 18.2794 163.198 19.3296C162.244 19.6541 161.223 19.7189 160.241 19.5176C159.258 19.3163 158.35 18.8561 157.61 18.1844C157.436 18.089 157.292 17.9488 157.192 17.7783C157.091 17.6078 157.038 17.4132 157.039 17.2144C157.039 17.0157 157.092 16.8201 157.193 16.6477C157.294 16.4754 157.438 16.3325 157.612 16.234C159.386 14.8869 161.36 14.182 163.491 15.1801C164.774 15.7327 166.165 15.9957 167.566 15.9504C168.968 15.9052 170.346 15.5529 171.602 14.9184C174.59 13.6607 177.47 12.1397 180.396 10.7304C180.63 10.6129 180.862 10.4838 181.095 10.3592L181.207 10.6207Z" fill="#8BC34A"/>
<path d="M172.794 16.8172C172.623 16.9109 172.455 17.0149 172.278 17.097C166.575 19.7914 160.565 21.762 154.389 22.9625C153.374 23.1427 152.332 23.0566 151.365 22.7126C150.398 22.3687 149.539 21.7785 148.871 20.9996C148.701 20.8732 148.57 20.7027 148.49 20.5063C148.41 20.3099 148.385 20.0949 148.418 19.8842C148.451 19.6736 148.54 19.4752 148.676 19.3102C148.811 19.1452 148.989 19.0199 149.189 18.9475C150.019 18.366 150.999 18.0394 152.006 18.0078C153.014 17.9762 154.006 18.241 154.859 18.7696C155.931 19.4545 157.13 19.9169 158.387 20.1296C159.644 20.3424 160.933 20.3013 162.179 20.0087C165.473 19.3582 168.697 18.3784 171.803 17.084C172.117 16.9625 172.431 16.8374 172.743 16.7126L172.794 16.8172Z" fill="#8BC34A"/>
<path d="M156.17 6.43001C155.495 6.78154 154.815 7.12218 154.147 7.48602C150.895 9.10343 147.848 11.1006 145.07 13.4344C143.768 14.6686 142.729 16.1478 142.013 17.7835C141.594 18.6485 140.982 19.4087 140.223 20.0056C139.464 20.6025 138.579 21.02 137.635 21.2262C136.383 21.5651 135.792 20.9862 136.125 19.7481C136.344 18.6506 136.796 17.6097 137.452 16.6951C138.107 15.7805 138.951 15.0134 139.927 14.4451C145.198 11.684 150.545 9.06643 155.864 6.39434C155.937 6.36402 156.013 6.34026 156.091 6.32334L156.17 6.43001Z" fill="#8BC34A"/>
<path d="M164.252 4.65785C164.032 4.77555 163.816 4.89712 163.595 5.00955C160.087 6.65178 156.772 8.67938 153.714 11.0539C152.275 12.2569 151.116 13.7542 150.316 15.4413C149.897 16.3066 149.291 17.0707 148.54 17.6782C147.789 18.2857 146.913 18.7214 145.976 18.9539C145.717 19.0284 145.446 19.047 145.181 19.0083C144.916 18.9696 144.663 18.8745 144.439 18.7295C144.173 18.4843 144.185 17.7167 144.348 17.2764C144.681 16.154 145.238 15.1071 145.984 14.1976C146.731 13.2881 147.652 12.5344 148.694 11.9812C153.715 9.54307 158.745 7.13126 163.773 4.70996C163.906 4.64615 164.053 4.60066 164.193 4.54636L164.252 4.65785Z" fill="#8BC34A"/>
<path d="M174.025 1.7996C172.581 2.53118 171.122 3.23462 169.692 4.00066C166.859 5.32708 164.27 7.11955 162.034 9.30136C161.14 10.3256 160.351 11.4362 159.681 12.6161C159.199 13.4312 158.549 14.1382 157.776 14.6912C157.003 15.2443 156.123 15.6309 155.192 15.8262C153.922 16.1279 153.356 15.5103 153.806 14.2927C154.142 13.1557 154.705 12.0949 155.46 11.1732C156.215 10.2515 157.147 9.48763 158.201 8.9269C163.269 6.51727 168.381 4.21276 173.473 1.8685C173.642 1.79154 173.821 1.74166 173.998 1.67948L174.025 1.7996Z" fill="#8BC34A"/>
<path d="M138.824 28.5497C135.471 29.4773 131.968 29.6716 128.55 29.1194C127.772 29.0157 127.032 28.7249 126.391 28.2715C125.75 27.8182 125.228 27.2152 124.867 26.5131C124.218 25.1468 124.615 24.3217 126.113 24.1338C126.972 23.9286 127.868 23.9845 128.69 24.2943C129.511 24.6042 130.221 25.1542 130.73 25.875C131.181 26.5383 131.768 27.0941 132.453 27.5045C133.138 27.9148 133.904 28.1701 134.699 28.2529C136.004 28.4273 137.331 28.4482 138.824 28.5497Z" fill="#8BC34A"/>
<path d="M139.993 13.0566C138.908 13.8152 137.793 14.535 136.747 15.3414C135.32 16.4094 134.319 17.9424 133.925 19.6647C133.701 20.5428 133.246 21.3485 132.606 21.9995C131.967 22.6505 131.165 23.1235 130.285 23.37C128.961 23.8603 128.286 23.319 128.371 21.9098C128.447 21.1175 128.692 20.3482 129.088 19.6524C129.484 18.9566 130.023 18.3499 130.671 17.872C133.444 15.6945 136.609 14.0598 139.993 13.0566Z" fill="#8BC34A"/>
<path d="M128.962 16.8683C127.507 18.1934 126.503 19.9315 126.089 21.8392C125.885 22.5741 125.488 23.2443 124.939 23.7812C124.39 24.3181 123.709 24.7026 122.964 24.8954C122.154 25.1773 121.671 24.8542 121.539 24.0169C121.458 23.4252 121.506 22.8217 121.682 22.2477C121.858 21.6738 122.157 21.143 122.558 20.6916C124.212 18.7531 126.465 17.4081 128.962 16.8683Z" fill="#8BC34A"/>
<path d="M128.59 30.2665C125.57 30.7794 122.809 30.922 120.467 28.9697C119.854 28.365 119.399 27.6154 119.142 26.7868C118.878 26.0805 119.275 25.5914 120.028 25.4748C120.749 25.3112 121.499 25.3511 122.195 25.59C122.892 25.829 123.509 26.2578 123.978 26.8298C125.807 29.2414 126.019 29.0897 128.59 30.2665Z" fill="#8BC34A"/>
</svg>
