<svg width="350" height="350" viewBox="0 0 350 350" fill="none" xmlns="http://www.w3.org/2000/svg">
<path d="M100.826 222.004L81.1182 235.964V263.821H311.949" stroke="#727272" stroke-width="7.76665" stroke-linecap="round" stroke-linejoin="round"/>
<path d="M122.825 325.279C134.642 325.279 144.222 315.699 144.222 303.881C144.222 292.064 134.642 282.484 122.825 282.484C111.008 282.484 101.428 292.064 101.428 303.881C101.428 315.699 111.008 325.279 122.825 325.279Z" stroke="#727272" stroke-width="7.76665" stroke-linecap="round" stroke-linejoin="round"/>
<path d="M266.755 325.279C278.572 325.279 288.152 315.699 288.152 303.881C288.152 292.064 278.572 282.484 266.755 282.484C254.937 282.484 245.357 292.064 245.357 303.881C245.357 315.699 254.937 325.279 266.755 325.279Z" stroke="#727272" stroke-width="7.76665" stroke-linecap="round" stroke-linejoin="round"/>
<path d="M69.2553 104.555L57.204 59.5024L8.23535 28.5977" stroke="#727272" stroke-width="7.76665" stroke-linecap="round" stroke-linejoin="round"/>
<path d="M321.03 104.559L289.465 222.579H288.857H100.826L69.2549 104.559H321.03Z" stroke="#727272" stroke-width="7.76665" stroke-linecap="round" stroke-linejoin="round"/>
<g style="mix-blend-mode:multiply">
<path d="M282.513 39.5733L144.26 19.3023C142.561 19.0543 140.834 19.4912 139.458 20.5168C138.081 21.5424 137.169 23.0728 136.92 24.7713L115.666 169.807C115.418 171.504 115.854 173.231 116.878 174.607C117.902 175.984 119.431 176.897 121.128 177.146L259.349 197.417C260.189 197.544 261.047 197.504 261.872 197.299C262.697 197.095 263.474 196.73 264.158 196.225C264.842 195.72 265.419 195.085 265.858 194.357C266.297 193.629 266.588 192.821 266.714 191.981L287.975 46.9451C288.103 46.1021 288.062 45.2423 287.857 44.4149C287.651 43.5875 287.284 42.809 286.776 42.124C286.268 41.439 285.63 40.861 284.899 40.4233C284.167 39.9856 283.356 39.6967 282.513 39.5733Z" fill="#F2F2F2"/>
</g>
<g style="mix-blend-mode:multiply">
<path d="M107.9 125.855H334.938C335.948 125.856 336.944 126.092 337.846 126.546C338.748 127 339.531 127.659 340.133 128.47C340.735 129.28 341.139 130.221 341.312 131.215C341.486 132.21 341.424 133.232 341.132 134.198L312.525 240.828C312.122 242.157 311.303 243.321 310.187 244.149C309.072 244.976 307.72 245.423 306.331 245.423H129.64C128.175 245.424 126.753 244.927 125.607 244.015C124.461 243.103 123.658 241.828 123.33 240.401L101.596 133.777C101.378 132.829 101.377 131.844 101.592 130.896C101.807 129.947 102.234 129.059 102.839 128.298C103.445 127.536 104.215 126.922 105.091 126.499C105.967 126.076 106.927 125.856 107.9 125.855Z" fill="#FCFCFC"/>
</g>
<g style="mix-blend-mode:multiply">
<path d="M163.194 326.502C173.675 316.021 173.675 299.026 163.194 288.545C152.712 278.063 135.717 278.063 125.236 288.545C114.754 299.026 114.754 316.021 125.236 326.502C135.718 336.984 152.712 336.984 163.194 326.502Z" fill="#F2F2F2"/>
</g>
<g style="mix-blend-mode:multiply">
<path d="M299.735 332.315C313.43 326.642 319.934 310.942 314.261 297.247C308.588 283.552 292.888 277.048 279.193 282.721C265.498 288.394 258.994 304.094 264.667 317.789C270.34 331.484 286.04 337.988 299.735 332.315Z" fill="#F2F2F2"/>
</g>
<path d="M301.448 43.8885L323.669 40.1134" stroke="#999999" stroke-width="5.17776" stroke-linecap="round"/>
<path d="M294.076 25.3397L303.785 4.99852" stroke="#999999" stroke-width="5.17776" stroke-linecap="round"/>
<path d="M273.406 29.2123L263.433 8.9993" stroke="#999999" stroke-width="5.17776" stroke-linecap="round"/>
<g opacity="0.9">
<mask id="path-13-inside-1_972_352" fill="white">
<path d="M52.2299 192.311L48.8862 192.595L46.3504 190.397C46.0876 190.095 45.6531 190.098 45.3067 190.274C44.9604 190.45 44.7021 190.8 44.7918 191.19L45.0762 194.534L42.8782 197.07C42.5759 197.333 42.579 197.767 42.7552 198.113C42.9315 198.46 43.2809 198.718 43.6713 198.628L47.0151 198.344L49.5508 200.542C49.9002 200.8 50.2481 200.841 50.5945 200.665C50.9409 200.489 51.1991 200.139 51.1094 199.749L50.825 196.405L53.023 193.869C53.2813 193.52 53.3223 193.172 53.146 192.826C52.9697 192.479 52.6203 192.221 52.2299 192.311Z"/>
</mask>
<path d="M48.0024 196.642L141.34 92.9485L136.334 88.4427L130.918 84.44L48.0024 196.642ZM47.3491 196.43L46.3602 56.9185L42.2605 56.9476L38.1696 57.2173L47.3491 196.43ZM45.8725 196.527L-57.8213 103.189L-287.477 358.325L55.052 335.739L45.8725 196.527ZM46.7778 195.521L150.472 288.859L154.977 283.853L158.98 278.437L46.7778 195.521ZM46.9904 194.868L186.502 193.879L186.454 187.144L185.758 180.445L46.9904 194.868ZM46.8505 193.522L140.188 89.8282L-129.415 -152.85L-91.9166 207.945L46.8505 193.522ZM47.8563 194.427L-45.4815 298.121L-40.4757 302.627L-35.0592 306.63L47.8563 194.427ZM48.5096 194.64L49.4985 334.151L56.2333 334.103L62.9322 333.407L48.5096 194.64ZM142.346 93.8539L141.34 92.9485L-45.3354 300.336L-44.3296 301.241L142.346 93.8539ZM130.918 84.44C106.466 66.3705 76.7635 56.703 46.3602 56.9185L48.338 335.941C30.9623 336.064 16.0799 332.916 4.51255 329.152C-7.05477 325.387 -20.9387 319.171 -34.9132 308.845L130.918 84.44ZM38.1696 57.2173L36.6929 57.3147L55.052 335.739L56.5286 335.642L38.1696 57.2173ZM149.566 289.865L150.472 288.859L-56.916 102.183L-57.8213 103.189L149.566 289.865ZM158.98 278.437C177.05 253.985 186.717 224.282 186.502 193.879L-92.5207 195.857C-92.6439 178.481 -89.4964 163.599 -85.7315 152.031C-81.9666 140.464 -75.7514 126.58 -65.4245 112.606L158.98 278.437ZM185.758 180.445L185.618 179.099L-91.9166 207.945L-91.7767 209.291L185.758 180.445ZM-46.4873 297.216L-45.4815 298.121L141.194 90.7336L140.188 89.8282L-46.4873 297.216ZM-35.0592 306.63C-10.6073 324.699 19.0952 334.367 49.4985 334.151L47.5207 55.1288C64.8964 55.0056 79.7788 58.1531 91.3461 61.918C102.913 65.6829 116.797 71.8982 130.772 82.2251L-35.0592 306.63ZM62.9322 333.407L64.2782 333.267L35.4329 55.7329L34.087 55.8728L62.9322 333.407ZM52.2299 192.311L75.8779 470.336L95.4979 468.667L114.689 464.26L52.2299 192.311ZM48.8862 192.595L-133.877 403.439L-44.8542 480.605L72.5342 470.62L48.8862 192.595ZM46.3504 190.397L-164.212 373.484L-151.292 388.343L-136.413 401.241L46.3504 190.397ZM44.7918 191.19L322.817 167.542L321.148 147.922L316.741 128.731L44.7918 191.19ZM45.0762 194.534L255.92 377.297L333.086 288.274L323.102 170.886L45.0762 194.534ZM42.8782 197.07L225.965 407.632L240.824 394.712L253.722 379.833L42.8782 197.07ZM43.6713 198.628L20.0233 -79.3971L0.403348 -77.7283L-18.7878 -73.3206L43.6713 198.628ZM47.0151 198.344L229.778 -12.4996L140.755 -89.6662L23.367 -79.6815L47.0151 198.344ZM49.5508 200.542L-133.212 411.385L-125.01 418.495L-116.28 424.946L49.5508 200.542ZM51.1094 199.749L-226.916 223.397L-225.247 243.017L-220.839 262.208L51.1094 199.749ZM50.825 196.405L-160.019 13.6419L-237.185 102.665L-227.2 220.053L50.825 196.405ZM53.023 193.869L263.867 376.632L270.976 368.43L277.428 359.7L53.023 193.869ZM28.5818 -85.7147L25.2381 -85.4303L72.5342 470.62L75.8779 470.336L28.5818 -85.7147ZM231.649 -18.2484L229.114 -20.4465L-136.413 401.241L-133.877 403.439L231.649 -18.2484ZM256.913 7.31009C140.704 -126.338 -16.8223 -91.1907 -81.2448 -58.4065L171.858 438.955C108.128 471.386 -48.5291 506.527 -164.212 373.484L256.913 7.31009ZM-81.2448 -58.4065C-145.667 -25.6224 -266.801 81.0386 -227.157 253.649L316.741 128.731C356.205 300.561 235.588 406.523 171.858 438.955L-81.2448 -58.4065ZM-233.234 214.838L-232.949 218.182L323.102 170.886L322.817 167.542L-233.234 214.838ZM-165.767 11.7708L-167.965 14.3065L253.722 379.833L255.92 377.297L-165.767 11.7708ZM-140.209 -13.4927C-273.856 102.716 -238.71 260.242 -205.925 324.665L291.436 71.5618C323.867 135.292 359.008 291.949 225.965 407.632L-140.209 -13.4927ZM-205.925 324.665C-173.141 389.087 -66.4803 510.221 106.13 470.577L-18.7878 -73.3206C153.042 -112.785 259.004 7.83194 291.436 71.5618L-205.925 324.665ZM67.3194 476.654L70.6631 476.369L23.367 -79.6815L20.0233 -79.3971L67.3194 476.654ZM-135.748 409.187L-133.212 411.385L232.314 -10.3016L229.778 -12.4996L-135.748 409.187ZM-116.28 424.946C-86.3424 447.07 -41.2747 470.964 17.4275 477.879C78.2147 485.04 133.457 471.578 177.146 449.345L-75.9571 -48.0157C-32.6147 -70.0723 22.2808 -83.4668 82.7201 -76.3466C141.074 -69.472 185.793 -45.728 215.382 -23.8626L-116.28 424.946ZM177.146 449.345C241.569 416.561 362.702 309.9 323.058 137.29L-220.839 262.208C-260.304 90.3782 -139.687 -15.584 -75.9571 -48.0157L177.146 449.345ZM329.135 176.101L328.85 172.757L-227.2 220.053L-226.916 223.397L329.135 176.101ZM261.669 379.168L263.867 376.632L-157.82 11.1062L-160.019 13.6419L261.669 379.168ZM277.428 359.7C299.551 329.762 323.445 284.695 330.36 225.993C337.522 165.205 324.059 109.963 301.827 66.274L-195.535 319.377C-217.591 276.035 -230.986 221.139 -223.865 160.7C-216.991 102.346 -193.247 57.6266 -171.381 28.0382L277.428 359.7ZM301.827 66.274C269.042 1.85119 162.381 -119.282 -10.2293 -79.6382L114.689 464.26C-57.1407 503.724 -163.103 383.107 -195.535 319.377L301.827 66.274Z" fill="#999999" mask="url(#path-13-inside-1_972_352)"/>
</g>
<g opacity="0.9">
<mask id="path-15-inside-2_972_352" fill="white">
<path d="M97.8437 29.7027L96.2489 29.2016L95.4957 27.7091C95.4317 27.5201 95.2309 27.4394 95.0379 27.4551C94.845 27.4709 94.6599 27.5831 94.6274 27.78L94.1263 29.3749L92.6338 30.128C92.4448 30.192 92.3641 30.3928 92.3798 30.5858C92.3956 30.7788 92.5078 30.9638 92.7047 30.9963L94.2996 31.4974L95.0527 32.9899C95.165 33.175 95.3176 33.2596 95.5105 33.2439C95.7035 33.2281 95.8886 33.1159 95.9211 32.919L96.4222 31.3241L97.9146 30.571C98.0997 30.4588 98.1844 30.3062 98.1686 30.1132C98.1529 29.9203 98.0406 29.7352 97.8437 29.7027Z"/>
</mask>
<path d="M95.0764 30.8998L220.785 -29.6122L217.864 -35.6806L214.372 -41.4395L95.0764 30.8998ZM94.8155 30.6783L146.848 -98.7703L143.044 -100.299L139.157 -101.602L94.8155 30.6783ZM94.1165 30.444L33.6045 -95.2645L-275.698 53.6239L49.7752 162.725L94.1165 30.444ZM94.7239 30.1516L155.236 155.86L161.304 152.939L167.063 149.447L94.7239 30.1516ZM94.9454 29.8907L224.394 81.9233L226.906 75.6743L228.804 69.2123L94.9454 29.8907ZM95.1354 29.2439L220.844 -31.268L63.5128 -358.11L-38.7233 -10.0776L95.1354 29.2439ZM95.4278 29.8514L-30.2807 90.3633L-27.3595 96.4318L-23.8674 102.191L95.4278 29.8514ZM95.6887 30.0729L43.6561 159.521L49.9052 162.033L56.3672 163.932L95.6887 30.0729ZM221.077 -29.0047L220.785 -29.6122L-30.6322 91.4118L-30.3398 92.0192L221.077 -29.0047ZM214.372 -41.4395C198.663 -67.344 174.957 -87.4716 146.848 -98.7703L42.7829 160.127C26.6099 153.626 13.9839 145.033 4.66485 137.121C-4.65417 129.209 -15.1809 118.144 -24.2189 103.239L214.372 -41.4395ZM139.157 -101.602L138.458 -101.837L49.7752 162.725L50.4741 162.959L139.157 -101.602ZM154.628 156.153L155.236 155.86L34.2119 -95.5569L33.6045 -95.2645L154.628 156.153ZM167.063 149.447C192.968 133.739 213.095 110.033 224.394 81.9233L-34.5032 -22.1418C-28.0024 -38.3149 -19.4097 -50.9409 -11.4974 -60.2599C-3.58508 -69.5789 7.48005 -80.1057 22.3845 -89.1436L167.063 149.447ZM228.804 69.2123L228.994 68.5655L-38.7233 -10.0776L-38.9133 -9.43084L228.804 69.2123ZM-30.5731 89.7559L-30.2807 90.3633L221.136 -30.6606L220.844 -31.268L-30.5731 89.7559ZM-23.8674 102.191C-8.15921 128.095 15.5469 148.223 43.6561 159.521L147.721 -99.3758C163.894 -92.8749 176.52 -84.2822 185.839 -76.3699C195.158 -68.4576 205.685 -57.3925 214.723 -42.488L-23.8674 102.191ZM56.3672 163.932L57.014 164.122L135.657 -103.596L135.01 -103.786L56.3672 163.932ZM97.8437 29.7027L14.2059 295.902L32.9913 301.804L52.4194 305.01L97.8437 29.7027ZM96.2489 29.2016L-152.86 154.908L-99.7841 260.087L12.611 295.401L96.2489 29.2016ZM95.4957 27.7091L-168.798 117.185L-162.484 135.836L-153.613 153.415L95.4957 27.7091ZM94.6274 27.78L360.827 111.418L366.729 92.6324L369.934 73.2043L94.6274 27.78ZM94.1263 29.3749L219.833 278.484L325.012 225.408L360.326 113.013L94.1263 29.3749ZM92.6338 30.128L182.11 294.422L200.761 288.108L218.34 279.237L92.6338 30.128ZM92.7047 30.9963L176.343 -235.203L157.557 -241.105L138.129 -244.311L92.7047 30.9963ZM94.2996 31.4974L343.409 -94.2088L290.333 -199.388L177.937 -234.702L94.2996 31.4974ZM95.0527 32.9899L-154.056 158.696L-149.166 168.387L-143.538 177.669L95.0527 32.9899ZM95.9211 32.919L-170.278 -50.7189L-176.18 -31.9335L-179.386 -12.5053L95.9211 32.919ZM96.4222 31.3241L-29.2842 -217.785L-134.463 -164.709L-169.777 -52.3138L96.4222 31.3241ZM97.9146 30.571L223.621 279.68L233.312 274.79L242.593 269.161L97.9146 30.571ZM181.482 -236.497L179.887 -236.998L12.611 295.401L14.2059 295.902L181.482 -236.497ZM345.358 -96.5047L344.605 -97.9972L-153.613 153.415L-152.86 154.908L345.358 -96.5047ZM359.79 -61.7668C303.062 -229.329 144.185 -256.515 72.3343 -250.649L117.742 305.559C46.277 311.393 -112.199 284.369 -168.798 117.185L359.79 -61.7668ZM72.3343 -250.649C0.483683 -244.783 -151.881 -192.188 -180.68 -17.6443L369.934 73.2043C341.201 247.354 189.206 299.725 117.742 305.559L72.3343 -250.649ZM-171.572 -55.8578L-172.073 -54.2629L360.326 113.013L360.827 111.418L-171.572 -55.8578ZM-31.5799 -219.734L-33.0724 -218.981L218.34 279.237L219.833 278.484L-31.5799 -219.734ZM3.15788 -234.166C-164.404 -177.439 -191.59 -18.5611 -185.724 53.2895L370.484 7.88211C376.318 79.3468 349.293 237.823 182.11 294.422L3.15788 -234.166ZM-185.724 53.2895C-179.859 125.14 -127.263 277.504 47.2804 306.303L138.129 -244.311C312.279 -215.577 364.65 -63.5825 370.484 7.88211L-185.724 53.2895ZM9.06687 297.196L10.6617 297.697L177.937 -234.702L176.343 -235.203L9.06687 297.196ZM-154.809 157.204L-154.056 158.696L344.162 -92.7164L343.409 -94.2088L-154.809 157.204ZM-143.538 177.669C-124.293 209.406 -91.7315 248.548 -40.1227 277.182C13.3218 306.835 69.4536 315.329 118.214 311.348L72.8068 -244.86C121.375 -248.825 177.334 -240.366 230.625 -210.798C282.082 -182.248 314.51 -143.241 333.643 -111.689L-143.538 177.669ZM118.214 311.348C190.065 305.482 342.429 252.887 371.228 78.3433L-179.386 -12.5053C-150.652 -186.655 1.3419 -239.026 72.8068 -244.86L118.214 311.348ZM362.12 116.557L362.621 114.962L-169.777 -52.3138L-170.278 -50.7189L362.12 116.557ZM222.128 280.433L223.621 279.68L-27.7917 -218.538L-29.2842 -217.785L222.128 280.433ZM242.593 269.161C274.331 249.916 313.473 217.355 342.107 165.746C371.76 112.302 380.253 56.1702 376.273 7.40953L-179.935 52.8169C-183.9 4.24921 -175.441 -51.7098 -145.873 -105.002C-117.324 -156.458 -78.3162 -188.887 -46.7641 -208.019L242.593 269.161ZM376.273 7.40953C370.407 -64.4413 317.812 -216.805 143.268 -245.604L52.4194 305.01C-121.73 276.276 -174.101 124.282 -179.935 52.8169L376.273 7.40953Z" fill="#999999" mask="url(#path-15-inside-2_972_352)"/>
</g>
<g opacity="0.9">
<mask id="path-17-inside-3_972_352" fill="white">
<path d="M329.315 83.8536L327.421 83.2584L326.526 81.4859C326.45 81.2614 326.212 81.1655 325.982 81.1842C325.753 81.2029 325.533 81.3362 325.495 81.5701L324.9 83.4642L323.127 84.3587C322.903 84.4347 322.807 84.6732 322.826 84.9024C322.844 85.1316 322.978 85.3514 323.211 85.39L325.106 85.9851L326 87.7577C326.133 87.9775 326.315 88.078 326.544 88.0593C326.773 88.0406 326.993 87.9073 327.031 87.6735L327.626 85.7793L329.399 84.8848C329.619 84.7515 329.719 84.5703 329.701 84.3411C329.682 84.112 329.549 83.8922 329.315 83.8536Z"/>
</mask>
<path d="M326.028 85.2754L451.737 24.7634L448.815 18.6949L445.323 12.936L326.028 85.2754ZM325.718 85.0123L377.751 -44.4363L373.947 -45.9654L370.06 -47.2684L325.718 85.0123ZM324.888 84.734L264.376 -40.9745L-44.9269 107.914L280.547 217.015L324.888 84.734ZM325.61 84.3868L386.121 210.095L392.19 207.174L397.949 203.682L325.61 84.3868ZM325.873 84.0769L455.321 136.109L457.833 129.86L459.731 123.398L325.873 84.0769ZM326.098 83.3087L451.807 22.7968L294.476 -304.045L192.24 43.9871L326.098 83.3087ZM326.446 84.0301L200.737 144.542L203.658 150.611L207.15 156.369L326.446 84.0301ZM326.755 84.2932L274.723 213.742L280.972 216.254L287.434 218.152L326.755 84.2932ZM452.084 25.4848L451.737 24.7634L200.32 145.787L200.667 146.509L452.084 25.4848ZM445.323 12.936C429.605 -12.9858 405.879 -33.1301 377.751 -44.4363L273.686 214.461C257.522 207.964 244.906 199.377 235.595 191.472C226.285 183.567 215.766 172.511 206.733 157.615L445.323 12.936ZM370.06 -47.2684L369.229 -47.5467L280.547 217.015L281.377 217.293L370.06 -47.2684ZM385.4 210.443L386.121 210.095L265.098 -41.3218L264.376 -40.9745L385.4 210.443ZM397.949 203.682C423.871 187.963 444.015 164.238 455.321 136.109L196.424 32.0443C202.921 15.8807 211.508 3.26434 219.413 -6.04611C227.318 -15.3566 238.374 -25.8758 253.27 -34.9085L397.949 203.682ZM459.731 123.398L459.957 122.63L192.24 43.9871L192.014 44.7553L459.731 123.398ZM200.39 143.821L200.737 144.542L452.154 23.5182L451.807 22.7968L200.39 143.821ZM207.15 156.369C222.869 182.291 246.595 202.436 274.723 213.742L378.788 -45.1554C394.952 -38.6584 407.568 -30.0717 416.878 -22.1667C426.189 -14.2617 436.708 -3.20504 445.741 11.6908L207.15 156.369ZM287.434 218.152L288.202 218.378L366.845 -49.3398L366.077 -49.5655L287.434 218.152ZM329.315 83.8536L245.677 350.053L264.462 355.955L283.89 359.161L329.315 83.8536ZM327.421 83.2584L78.3117 208.965L131.388 314.144L243.783 349.458L327.421 83.2584ZM326.526 81.4859L62.2321 170.962L68.5463 189.613L77.4172 207.192L326.526 81.4859ZM325.495 81.5701L591.694 165.208L597.596 146.422L600.802 126.994L325.495 81.5701ZM324.9 83.4642L450.606 332.573L555.785 279.497L591.099 167.102L324.9 83.4642ZM323.127 84.3587L412.603 348.653L431.254 342.339L448.833 333.468L323.127 84.3587ZM323.211 85.39L406.849 -180.809L388.064 -186.712L368.636 -189.917L323.211 85.39ZM325.106 85.9851L574.215 -39.7211L521.139 -144.9L408.743 -180.214L325.106 85.9851ZM326 87.7577L76.8911 213.464L81.7813 223.155L87.4096 232.436L326 87.7577ZM327.031 87.6735L60.8321 4.03559L54.9298 22.821L51.7243 42.2492L327.031 87.6735ZM327.626 85.7793L201.92 -163.33L96.7409 -110.254L61.4272 2.14142L327.626 85.7793ZM329.399 84.8848L455.105 333.994L464.796 329.104L474.078 323.475L329.399 84.8848ZM412.953 -182.346L411.058 -182.941L243.783 349.458L245.677 350.053L412.953 -182.346ZM576.53 -42.4478L575.635 -44.2204L77.4172 207.192L78.3117 208.965L576.53 -42.4478ZM590.82 -7.99009C534.081 -175.587 375.166 -202.789 303.279 -196.92L348.686 359.288C277.258 365.12 118.82 338.11 62.2321 170.962L590.82 -7.99009ZM303.279 -196.92C231.392 -191.051 78.9929 -138.435 50.1879 36.1457L600.802 126.994C572.074 301.108 420.115 353.457 348.686 359.288L303.279 -196.92ZM59.2956 -2.06774L58.7005 -0.173568L591.099 167.102L591.694 165.208L59.2956 -2.06774ZM199.194 -165.645L197.421 -164.75L448.833 333.468L450.606 332.573L199.194 -165.645ZM233.651 -179.935C66.0541 -123.196 38.8528 35.7193 44.7215 107.606L600.93 62.1987C606.761 133.627 579.751 292.065 412.603 348.653L233.651 -179.935ZM44.7215 107.606C50.5901 179.493 103.206 331.892 277.787 360.697L368.636 -189.917C542.749 -161.189 595.098 -9.22972 600.93 62.1987L44.7215 107.606ZM239.574 351.589L241.468 352.184L408.743 -180.214L406.849 -180.809L239.574 351.589ZM75.9966 211.691L76.8911 213.464L575.109 -37.9486L574.215 -39.7211L75.9966 211.691ZM87.4096 232.436C106.665 264.191 139.239 303.346 190.862 331.988C244.321 361.649 300.469 370.146 349.247 366.163L303.84 -190.045C352.39 -194.008 408.332 -185.552 461.61 -155.992C513.052 -127.45 545.468 -88.4558 564.591 -56.921L87.4096 232.436ZM349.247 366.163C421.135 360.295 573.533 307.678 602.338 133.098L51.7243 42.2492C80.4521 -131.864 232.411 -184.213 303.84 -190.045L349.247 366.163ZM593.231 171.311L593.826 169.417L61.4272 2.14142L60.8321 4.03559L593.231 171.311ZM453.333 334.888L455.105 333.994L203.693 -164.224L201.92 -163.33L453.333 334.888ZM474.078 323.475C505.832 304.22 544.987 271.646 573.629 220.023C603.29 166.564 611.787 110.416 607.805 61.6374L51.5966 107.045C47.6331 58.4952 56.0889 2.55246 85.6491 -50.7251C114.191 -102.167 153.186 -134.583 184.72 -153.706L474.078 323.475ZM607.805 61.6374C601.936 -10.2496 549.32 -162.649 374.739 -191.453L283.89 359.161C109.778 330.433 57.4279 178.474 51.5966 107.045L607.805 61.6374Z" fill="#999999" mask="url(#path-17-inside-3_972_352)"/>
</g>
</svg>
