<svg width="100" height="100" viewBox="0 0 100 100" fill="none" xmlns="http://www.w3.org/2000/svg">
<path d="M85.8739 96.9825L17.1729 99.0818L15.3875 40.6527L49.0625 17.6771L84.0884 38.5533L85.8739 96.9825Z" fill="#727272"/>
<path opacity="0.2" d="M85.8739 96.9825L17.1729 99.0818L15.3875 40.6527L49.0625 17.6771L84.0884 38.5533L85.8739 96.9825Z" fill="#727272"/>
<path d="M76.4651 14.0572L21.51 15.7365C19.8539 15.7871 18.5524 17.1706 18.603 18.8267L20.8236 91.4978C20.8742 93.1538 22.2578 94.4553 23.9139 94.4047L78.869 92.7254C80.5251 92.6748 81.8266 91.2913 81.776 89.6352L79.5553 16.9642C79.5047 15.3081 78.1212 14.0066 76.4651 14.0572Z" fill="#FCFCFC"/>
<path d="M84.5362 53.2054L85.8739 96.9804L17.1729 99.0797L15.8353 55.3047C18.8361 56.8685 21.7916 58.5661 24.767 60.197C27.7424 61.8278 30.6925 63.5256 33.637 65.2235C36.9161 67.0934 40.1964 69.0018 43.4661 70.9217L43.5685 70.8578C43.5356 70.8588 43.5153 70.9147 43.4884 70.932C45.9321 72.3473 48.378 73.7717 50.8259 75.2053C53.1705 73.6161 55.5312 72.0153 57.8875 70.4479C57.8601 70.4487 57.8366 70.3998 57.803 70.3787C57.8361 70.4004 57.8716 70.4178 57.9089 70.4307C61.0537 68.3222 64.2079 66.2245 67.3716 64.1375C70.2092 62.2739 73.0544 60.4247 75.9075 58.5901C78.8057 56.7963 81.6365 54.9495 84.5362 53.2054Z" fill="#999999"/>
<path d="M84.5357 53.2054C81.8207 55.2473 79.0547 57.2357 76.3162 59.2287C73.5778 61.2218 70.7887 63.1722 68.0052 65.128C65.1036 67.1702 62.1959 69.1941 59.2822 71.1999L59.0192 71.3955L51.2611 76.7095L50.8735 76.9587L50.4824 76.7333L42.4249 71.8916L42.1399 71.7237C39.1017 69.8962 36.0721 68.05 33.0511 66.1851C30.1647 64.4136 27.283 62.6144 24.4067 60.815C21.5304 59.0156 18.6685 57.1495 15.8348 55.3047C18.8356 56.8685 21.7911 58.5661 24.7665 60.197C27.742 61.8278 30.692 63.5256 33.6365 65.2235C36.9157 67.0934 40.196 69.0018 43.4656 70.9217C45.9242 72.3439 48.3775 73.7717 50.8254 75.2053C53.17 73.6161 55.5308 72.0154 57.887 70.4479C61.0318 68.3394 64.186 66.2417 67.3497 64.1547C70.1872 62.2911 73.0325 60.442 75.8856 58.6073C78.8052 56.7963 81.636 54.9495 84.5357 53.2054Z" fill="#727272"/>
<path d="M43.5563 70.829C43.5234 70.83 43.5031 70.8857 43.4762 70.9031L42.4077 71.8629C40.7305 73.3765 39.0075 74.8308 37.2559 76.2474C35.1129 77.9684 32.9316 79.6905 30.7314 81.336C28.5312 82.9815 26.2971 84.5949 24.0177 86.1601C21.7382 87.7252 19.4467 89.2576 17.0638 90.6714C19.0916 88.7718 21.2053 86.991 23.3424 85.2591C25.4796 83.5273 27.6777 81.8156 29.8668 80.1649C32.0558 78.5143 34.3117 76.8947 36.5857 75.3297C38.3973 74.0824 40.2424 72.8506 42.1227 71.695C42.5589 71.4223 42.9955 71.1606 43.443 70.8931L43.5563 70.829Z" fill="#727272"/>
<path d="M85.4545 88.5827C82.9897 87.317 80.5925 85.9279 78.2382 84.5044C75.8839 83.0808 73.5277 81.5967 71.2315 80.0996C68.9353 78.6026 66.6477 77.028 64.4084 75.4188C62.5846 74.1115 60.7762 72.7706 59.0208 71.3674L57.8954 70.4637C57.868 70.4645 57.8445 70.4156 57.8109 70.3945C57.8439 70.4162 57.8795 70.4336 57.9168 70.4465C58.3799 70.6917 58.8316 70.9262 59.2837 71.1718C61.2313 72.2159 63.137 73.3276 65.0324 74.4616C67.3977 75.8848 69.7155 77.3702 72.023 78.8779C74.3305 80.3857 76.6067 81.9496 78.8462 83.5642C81.0856 85.1789 83.3145 86.8105 85.4545 88.5827Z" fill="#727272"/>
<path d="M19.4741 12.0418C19.0159 9.0226 18.9223 5.95893 19.1953 2.9174C19.6535 5.93659 19.7471 9.00027 19.4741 12.0418Z" fill="#727272"/>
<path d="M15.6604 13.6097C14.43 12.7141 13.2613 11.7358 12.1623 10.6815C11.0474 9.64626 10.0047 8.53495 9.04181 7.35547C11.4896 9.16573 13.7118 11.2656 15.6604 13.6097Z" fill="#727272"/>
<path d="M14.0674 17.4241C12.5679 17.6663 11.0536 17.8048 9.53522 17.8386C8.01961 17.9019 6.50141 17.8579 4.99187 17.707C6.48917 17.4622 8.00181 17.3237 9.51855 17.2927C11.036 17.2319 12.5558 17.2758 14.0674 17.4241Z" fill="#727272"/>
<path d="M15.6284 21.2587C13.8265 23.7172 11.7388 25.9504 9.40961 27.9107C11.2071 25.4469 13.2952 23.2114 15.6282 21.2532L15.6284 21.2587Z" fill="#727272"/>
<path d="M77.8486 10.2568C77.6118 8.74866 77.4754 7.22636 77.4404 5.70004C77.3829 4.17591 77.4298 2.64964 77.5807 1.13205C78.0389 4.15124 78.1325 7.21491 77.8595 10.2564L77.8486 10.2568Z" fill="#727272"/>
<path d="M81.755 11.5872C83.5569 9.12845 85.6467 6.89683 87.9794 4.94049C87.0903 6.17656 86.1174 7.34947 85.0677 8.45086C84.0352 9.5703 82.9284 10.6181 81.755 11.5872Z" fill="#727272"/>
<path d="M83.5721 15.3031C85.0718 15.0627 86.5861 14.9261 88.1045 14.8942C89.6203 14.8323 91.1385 14.8781 92.648 15.0313C91.1505 15.2743 89.6378 15.4108 88.1212 15.44C86.6035 15.499 85.0836 15.4532 83.5721 15.3031Z" fill="#727272"/>
<path d="M82.2518 19.2227C84.6997 21.0331 86.9203 23.135 88.8652 25.4826C87.6365 24.5848 86.4696 23.6046 85.3724 22.5487C84.2575 21.5133 83.2149 20.402 82.2518 19.2227Z" fill="#727272"/>
<g clip-path="url(#clip0_959_1088)">
<path d="M44.6963 29.9809L43.4719 27.5119C37.7424 30.3547 36.7102 33.4539 35.3765 37.4587L36.6831 37.8938L38.0172 38.2467C39.2913 34.4209 39.9931 32.3134 44.6963 29.9809ZM63.6054 34.217L61.1478 35.4597C63.5121 40.1459 62.8102 42.2534 61.5087 46.1615L64.1494 46.9494C65.4556 43.027 66.4878 39.9277 63.6054 34.217ZM44.9627 56.6179C45.7715 56.8884 46.6446 56.9002 47.4604 56.6516C48.2763 56.4031 48.9944 55.9065 49.515 55.2309L42.151 52.7785C42.1626 53.6313 42.4396 54.4593 42.9435 55.1474C43.4474 55.8355 44.1532 56.3495 44.9627 56.6179ZM57.3351 49.9767L59.3306 43.9846C60.7305 39.7812 59.0548 35.2895 55.5418 32.9366C55.4801 31.8449 54.7709 30.8539 53.6655 30.4858C52.5601 30.1176 51.3983 30.4855 50.6943 31.3223C46.4708 31.0987 42.438 33.6893 41.0381 37.8926L39.0426 43.8848L36.0694 45.3724C35.9075 45.453 35.7631 45.5649 35.6446 45.7015C35.5261 45.8382 35.4358 45.9969 35.3789 46.1686L34.9438 47.4752C34.8284 47.8218 34.8554 48.2 35.0188 48.5266C35.1822 48.8532 35.4687 49.1016 35.8152 49.217L56.721 56.1792C57.0675 56.2946 57.4457 56.2676 57.7724 56.1042C58.099 55.9408 58.3473 55.6543 58.4627 55.3078L58.8979 54.0011C58.9553 53.8296 58.9782 53.6484 58.9653 53.468C58.9524 53.2876 58.9039 53.1115 58.8227 52.9499L57.3351 49.9767Z" fill="#727272"/>
</g>
<defs>
<clipPath id="clip0_959_1088">
<rect width="33.0519" height="33.0519" fill="white" transform="translate(38.7335 22.7109) rotate(18.0848)"/>
</clipPath>
</defs>
</svg>
