<svg width="92" height="100" viewBox="0 0 92 100" fill="none" xmlns="http://www.w3.org/2000/svg">
<path d="M81.8739 96.9786L13.1729 99.0779L11.3875 40.6488L45.0625 17.6732L80.0884 38.5494L81.8739 96.9786Z" fill="#8BC34A"/>
<path opacity="0.2" d="M81.8739 96.9786L13.1729 99.0779L11.3875 40.6488L45.0625 17.6732L80.0884 38.5494L81.8739 96.9786Z" fill="black"/>
<path d="M72.4651 14.0552L17.51 15.7345C15.8539 15.7851 14.5524 17.1687 14.603 18.8248L16.8236 91.4958C16.8742 93.1519 18.2578 94.4534 19.9139 94.4028L74.869 92.7235C76.5251 92.6729 77.8266 91.2893 77.776 89.6332L75.5553 16.9622C75.5047 15.3061 74.1212 14.0046 72.4651 14.0552Z" fill="white"/>
<path d="M80.5362 53.2034L81.8739 96.9784L13.1729 99.0777L11.8353 55.3027C14.8361 56.8665 17.7916 58.5642 20.767 60.195C23.7424 61.8258 26.6925 63.5236 29.637 65.2216C32.9161 67.0914 36.1964 68.9999 39.4661 70.9197L39.5685 70.8559C39.5356 70.8569 39.5153 70.9127 39.4884 70.9301C41.9321 72.3454 44.378 73.7698 46.8259 75.2033C49.1705 73.6141 51.5312 72.0134 53.8875 70.4459C53.8601 70.4468 53.8366 70.3978 53.803 70.3768C53.8361 70.3984 53.8716 70.4159 53.9089 70.4287C57.0537 68.3202 60.2079 66.2225 63.3716 64.1356C66.2092 62.2719 69.0544 60.4228 71.9075 58.5881C74.8057 56.7944 77.6365 54.9475 80.5362 53.2034Z" fill="#8BC34A"/>
<g opacity="0.2">
<path d="M80.5357 53.2034C77.8207 55.2454 75.0547 57.2337 72.3162 59.2268C69.5778 61.2198 66.7887 63.1703 64.0052 65.1261C61.1036 67.1682 58.1959 69.1922 55.2822 71.1979L55.0192 71.3936L47.2611 76.7076L46.8735 76.9567L46.4824 76.7314L38.4249 71.8896L38.1399 71.7218C35.1017 69.8942 32.0721 68.048 29.0511 66.1831C26.1647 64.4116 23.283 62.6124 20.4067 60.813C17.5304 59.0136 14.6685 57.1476 11.8348 55.3027C14.8356 56.8665 17.7911 58.5642 20.7665 60.195C23.742 61.8258 26.692 63.5236 29.6365 65.2216C32.9157 67.0914 36.196 68.9999 39.4656 70.9197C41.9242 72.3419 44.3775 73.7698 46.8254 75.2033C49.17 73.6141 51.5308 72.0134 53.887 70.4459C57.0318 68.3375 60.186 66.2398 63.3497 64.1528C66.1872 62.2892 69.0325 60.44 71.8856 58.6053C74.8052 56.7944 77.636 54.9475 80.5357 53.2034Z" fill="black"/>
<path d="M39.5563 70.829C39.5234 70.83 39.5031 70.8857 39.4762 70.9031L38.4077 71.8629C36.7305 73.3765 35.0075 74.8308 33.2559 76.2474C31.1129 77.9684 28.9316 79.6905 26.7314 81.336C24.5312 82.9815 22.2971 84.5949 20.0177 86.1601C17.7382 87.7252 15.4467 89.2576 13.0638 90.6714C15.0916 88.7718 17.2053 86.991 19.3424 85.2591C21.4796 83.5273 23.6777 81.8156 25.8668 80.1649C28.0558 78.5143 30.3117 76.8947 32.5857 75.3297C34.3973 74.0824 36.2424 72.8506 38.1227 71.695C38.5589 71.4223 38.9955 71.1606 39.443 70.8931L39.5563 70.829Z" fill="black"/>
<path d="M81.4545 88.5807C78.9897 87.3151 76.5925 85.926 74.2382 84.5024C71.8839 83.0789 69.5277 81.5947 67.2315 80.0977C64.9353 78.6006 62.6477 77.026 60.4084 75.4169C58.5846 74.1096 56.7762 72.7687 55.0208 71.3655L53.8954 70.4617C53.868 70.4626 53.8445 70.4136 53.8109 70.3926C53.8439 70.4142 53.8795 70.4317 53.9168 70.4445C54.3799 70.6897 54.8316 70.9243 55.2837 71.1698C57.2313 72.214 59.137 73.3256 61.0324 74.4597C63.3977 75.8829 65.7155 77.3682 68.023 78.876C70.3305 80.3837 72.6067 81.9476 74.8462 83.5623C77.0856 85.177 79.3145 86.8085 81.4545 88.5807Z" fill="black"/>
</g>
<path d="M15.4741 12.0379C15.0159 9.0187 14.9223 5.95503 15.1953 2.9135C15.6535 5.93268 15.7471 8.99636 15.4741 12.0379Z" fill="#263238"/>
<path d="M11.6604 13.6058C10.43 12.7102 9.26132 11.7319 8.16235 10.6776C7.04735 9.64236 6.0047 8.53104 5.04181 7.35156C7.48958 9.16182 9.71178 11.2617 11.6604 13.6058Z" fill="#263238"/>
<path d="M10.0674 17.4241C8.5679 17.6663 7.05362 17.8048 5.53522 17.8386C4.01961 17.9019 2.50141 17.8579 0.991872 17.707C2.48917 17.4622 4.00181 17.3237 5.51855 17.2927C7.036 17.2319 8.55584 17.2758 10.0674 17.4241Z" fill="#263238"/>
<path d="M11.6284 21.2548C9.82649 23.7133 7.73876 25.9465 5.40961 27.9068C7.20708 25.443 9.29519 23.2075 11.6282 21.2493L11.6284 21.2548Z" fill="#263238"/>
<path d="M73.8486 10.2548C73.6118 8.74671 73.4754 7.2244 73.4404 5.69808C73.3829 4.17395 73.4298 2.64769 73.5807 1.1301C74.0389 4.14928 74.1325 7.21296 73.8595 10.2545L73.8486 10.2548Z" fill="#263238"/>
<path d="M77.755 11.5872C79.5569 9.12845 81.6467 6.89683 83.9794 4.94049C83.0903 6.17656 82.1174 7.34947 81.0677 8.45086C80.0352 9.5703 78.9284 10.6181 77.755 11.5872Z" fill="#263238"/>
<path d="M79.5721 15.2992C81.0718 15.0588 82.5861 14.9222 84.1045 14.8903C85.6203 14.8284 87.1385 14.8742 88.648 15.0274C87.1505 15.2704 85.6378 15.4069 84.1212 15.4361C82.6035 15.4951 81.0836 15.4493 79.5721 15.2992Z" fill="#263238"/>
<path d="M78.2518 19.2207C80.6997 21.0311 82.9203 23.1331 84.8652 25.4806C83.6365 24.5829 82.4696 23.6027 81.3724 22.5467C80.2575 21.5114 79.2149 20.4001 78.2518 19.2207Z" fill="#263238"/>
<g clip-path="url(#clip0_305_1338)">
<path d="M40.6963 29.9769L39.4719 27.508C33.7424 30.3508 32.7102 33.45 31.3765 37.4548L32.6831 37.8899L34.0172 38.2428C35.2913 34.417 35.9931 32.3094 40.6963 29.9769ZM59.6054 34.2131L57.1478 35.4558C59.5121 40.142 58.8102 42.2495 57.5087 46.1576L60.1494 46.9455C61.4556 43.0231 62.4878 39.9238 59.6054 34.2131ZM40.9627 56.614C41.7715 56.8845 42.6446 56.8963 43.4604 56.6477C44.2763 56.3992 44.9944 55.9026 45.515 55.227L38.151 52.7746C38.1626 53.6274 38.4396 54.4554 38.9435 55.1435C39.4474 55.8316 40.1532 56.3456 40.9627 56.614ZM53.3351 49.9728L55.3306 43.9807C56.7305 39.7773 55.0548 35.2856 51.5418 32.9327C51.4801 31.841 50.7709 30.85 49.6655 30.4818C48.5601 30.1137 47.3983 30.4816 46.6943 31.3184C42.4708 31.0948 38.438 33.6854 37.0381 37.8887L35.0426 43.8809L32.0694 45.3685C31.9075 45.4491 31.7631 45.561 31.6446 45.6976C31.5261 45.8343 31.4358 45.993 31.3789 46.1647L30.9438 47.4713C30.8284 47.8179 30.8554 48.1961 31.0188 48.5227C31.1822 48.8493 31.4687 49.0977 31.8152 49.2131L52.721 56.1753C53.0675 56.2907 53.4457 56.2637 53.7724 56.1003C54.099 55.9369 54.3473 55.6504 54.4627 55.3038L54.8979 53.9972C54.9553 53.8257 54.9782 53.6445 54.9653 53.4641C54.9524 53.2837 54.9039 53.1076 54.8227 52.946L53.3351 49.9728Z" fill="#8BC34A"/>
</g>
<defs>
<clipPath id="clip0_305_1338">
<rect width="33.0519" height="33.0519" fill="white" transform="translate(34.7335 22.709) rotate(18.0848)"/>
</clipPath>
</defs>
</svg>
