<svg width="100" height="100" viewBox="0 0 100 100" fill="none" xmlns="http://www.w3.org/2000/svg">
<path d="M86.6444 83.2781C78.6149 92.1199 67.6594 97.7603 55.798 99.1593C43.9366 100.558 31.9694 97.6214 22.1032 90.8903C12.237 84.1593 5.1372 74.0879 2.11305 62.5336C-0.911102 50.9792 0.344353 38.721 5.6479 28.0195C10.9514 17.3181 19.9454 8.895 30.9712 4.30366C41.997 -0.287691 54.3111 -0.737691 65.6427 3.03664C76.9742 6.81097 86.559 14.5551 92.6295 24.8409C98.7 35.1267 100.847 47.2606 98.674 59.0049" stroke="#727272" stroke-linecap="round"/>
<path d="M96.6859 66.4522C95.4193 70.0465 93.7418 73.4825 91.6868 76.6919" stroke="#727272" stroke-linecap="round"/>
<path d="M24.3458 17.3793C32.2631 11.1528 42.1748 8.01822 52.2326 8.5601C62.2905 9.10198 71.808 13.2833 79.0105 20.3244C86.2131 27.3655 90.609 36.7858 91.3787 46.8288C92.1483 56.8718 89.2392 66.8519 83.1937 74.9084C77.1482 82.9648 68.379 88.5476 58.5212 90.6157C48.6634 92.6839 38.3899 91.0963 29.6162 86.149C20.8425 81.2016 14.1675 73.2322 10.8359 63.7268C7.5043 54.2213 7.74344 43.8285 11.5087 34.4864" stroke="#727272" stroke-linecap="round"/>
<path d="M86.6444 83.2781C78.6149 92.1199 67.6594 97.7603 55.798 99.1593C43.9366 100.558 31.9694 97.6214 22.1032 90.8903C12.237 84.1593 5.1372 74.0879 2.11305 62.5336C-0.911102 50.9792 0.344353 38.721 5.6479 28.0195C10.9514 17.3181 19.9454 8.895 30.9712 4.30366C41.997 -0.287691 54.3111 -0.737691 65.6427 3.03664C76.9742 6.81097 86.559 14.5551 92.6295 24.8409C98.7 35.1267 100.847 47.2606 98.674 59.0049" stroke="#727272" stroke-linecap="round"/>
<path d="M96.6859 66.4522C95.4193 70.0465 93.7418 73.4825 91.6868 76.6919" stroke="#727272" stroke-linecap="round"/>
<path d="M24.3458 17.3793C32.2631 11.1528 42.1748 8.01822 52.2326 8.5601C62.2905 9.10198 71.808 13.2833 79.0105 20.3244C86.2131 27.3655 90.609 36.7858 91.3787 46.8288C92.1483 56.8718 89.2392 66.8519 83.1937 74.9084C77.1482 82.9648 68.379 88.5476 58.5212 90.6157C48.6634 92.6839 38.3899 91.0963 29.6162 86.149C20.8425 81.2016 14.1675 73.2322 10.8359 63.7268C7.5043 54.2213 7.74344 43.8285 11.5087 34.4864" stroke="#727272" stroke-linecap="round"/>
<path d="M36.6052 45.6052L42.6052 30.6052" stroke="#727272" stroke-width="2.23152" stroke-miterlimit="10" stroke-linecap="round"/>
<path d="M63.6052 45.6052L57.6052 30.6052" stroke="#727272" stroke-width="2.23152" stroke-miterlimit="10" stroke-linecap="round"/>
<path fill-rule="evenodd" clip-rule="evenodd" d="M28.0009 48.4867C27.3792 46.565 28.812 44.5955 30.8318 44.5955H68.7702C70.79 44.5955 72.2228 46.565 71.6011 48.4867L65.3441 67.8265C64.9468 69.0542 63.8036 69.886 62.5132 69.886H37.0888C35.7984 69.886 34.6551 69.0542 34.2579 67.8265L28.0009 48.4867ZM58.7729 52.8239C59.2087 52.3881 59.2087 51.6817 58.7729 51.246C58.3372 50.8102 57.6308 50.8102 57.195 51.246L48.3141 60.1269L43.8962 55.709C43.4604 55.2733 42.754 55.2733 42.3182 55.709C41.8825 56.1447 41.8825 56.8512 42.3182 57.2869L47.5251 62.4938H49.103L58.7729 52.8239Z" fill="#727272"/>
</svg>
