<svg width="187" height="152" viewBox="0 0 187 152" fill="none" xmlns="http://www.w3.org/2000/svg">
<circle cx="97" cy="76" r="76" fill="#F2F2F2"/>
<circle cx="97" cy="76" r="75.5" stroke="#727272" stroke-opacity="0.6"/>
<circle cx="97" cy="76" r="68" fill="#F2F2F2"/>
<circle cx="97" cy="76" r="67.5" stroke="#999999" stroke-opacity="0.3"/>
<path d="M157 76C157 109.137 130.137 136 97 136C63.8629 136 37 109.137 37 76C37 42.8629 63.8629 16 97 16C130.137 16 157 42.8629 157 76Z" fill="#FCFCFC"/>
<path d="M71.4983 69C68.7829 69 66.8566 71.6478 67.6925 74.2313L76.1042 100.231C76.6382 101.882 78.1753 103 79.91 103H114.09C115.825 103 117.362 101.882 117.896 100.231L126.308 74.2313C127.143 71.6478 125.217 69 122.502 69H71.4983Z" stroke="#727272" stroke-width="3" stroke-miterlimit="10"/>
<path d="M79 68L87 50" stroke="#727272" stroke-width="3" stroke-miterlimit="10" stroke-linecap="round"/>
<path d="M115 68L107 50" stroke="#727272" stroke-width="3" stroke-miterlimit="10" stroke-linecap="round"/>
<path d="M88 85L95 92L108 79" stroke="#727272" stroke-width="3" stroke-miterlimit="10" stroke-linecap="round" stroke-linejoin="bevel"/>
<circle opacity="0.2" cx="176" cy="128" r="8" fill="#F2F2F2"/>
<path fill-rule="evenodd" clip-rule="evenodd" d="M180.725 128.416C180.502 128.527 180.266 128.545 180.048 128.525C179.832 128.506 179.613 128.448 179.414 128.389C179.341 128.368 179.272 128.346 179.205 128.326C179.08 128.287 178.963 128.251 178.843 128.22C178.664 128.174 178.52 128.152 178.404 128.16C178.288 128.168 178.152 128.209 177.983 128.28C177.873 128.326 177.766 128.377 177.652 128.432C177.587 128.463 177.521 128.495 177.449 128.528C177.093 128.693 176.615 128.892 176.145 128.734C175.674 128.577 175.417 128.134 175.234 127.79C175.2 127.725 175.168 127.664 175.137 127.604C175.077 127.487 175.021 127.379 174.958 127.272C174.866 127.115 174.779 126.997 174.687 126.918C174.593 126.837 174.461 126.765 174.29 126.694C174.174 126.645 174.056 126.603 173.929 126.557C173.867 126.535 173.802 126.512 173.734 126.487C173.541 126.415 173.333 126.331 173.151 126.217C172.966 126.102 172.789 125.947 172.678 125.725C172.567 125.502 172.549 125.266 172.569 125.048C172.588 124.832 172.646 124.613 172.705 124.414C172.726 124.341 172.748 124.272 172.768 124.205C172.807 124.079 172.843 123.963 172.874 123.843C172.92 123.664 172.942 123.52 172.934 123.403C172.926 123.288 172.885 123.151 172.814 122.983C172.768 122.873 172.717 122.766 172.662 122.652C172.631 122.587 172.599 122.52 172.566 122.449C172.401 122.093 172.202 121.615 172.36 121.145C172.517 120.674 172.961 120.416 173.304 120.234C173.369 120.2 173.43 120.168 173.49 120.137C173.607 120.077 173.715 120.021 173.822 119.958C173.979 119.866 174.097 119.779 174.177 119.686C174.258 119.592 174.329 119.461 174.4 119.29C174.449 119.174 174.491 119.056 174.537 118.929C174.559 118.867 174.582 118.802 174.607 118.734C174.679 118.541 174.763 118.333 174.877 118.15C174.992 117.965 175.147 117.789 175.369 117.678C175.592 117.567 175.828 117.549 176.046 117.569C176.262 117.588 176.481 117.645 176.68 117.704C176.753 117.726 176.822 117.748 176.889 117.768C177.015 117.807 177.131 117.843 177.251 117.874C177.43 117.92 177.574 117.941 177.691 117.933C177.806 117.926 177.943 117.885 178.111 117.814C178.222 117.768 178.328 117.717 178.443 117.662C178.507 117.631 178.574 117.599 178.645 117.566C179.001 117.401 179.479 117.202 179.949 117.36C180.42 117.517 180.678 117.96 180.86 118.304C180.895 118.369 180.926 118.43 180.957 118.49C181.017 118.607 181.073 118.715 181.136 118.822C181.228 118.979 181.315 119.097 181.408 119.176C181.502 119.257 181.633 119.329 181.804 119.4C181.92 119.449 182.038 119.491 182.165 119.536C182.227 119.559 182.292 119.582 182.36 119.607C182.553 119.679 182.761 119.763 182.944 119.877C183.129 119.991 183.306 120.147 183.416 120.369C183.527 120.592 183.545 120.828 183.526 121.046C183.506 121.262 183.449 121.481 183.39 121.68C183.368 121.753 183.347 121.822 183.326 121.889C183.287 122.014 183.251 122.131 183.22 122.251C183.174 122.43 183.153 122.574 183.161 122.69C183.169 122.806 183.209 122.942 183.28 123.111C183.326 123.221 183.377 123.328 183.432 123.442C183.463 123.507 183.495 123.574 183.529 123.645C183.693 124.001 183.892 124.479 183.734 124.949C183.577 125.42 183.134 125.678 182.79 125.86C182.725 125.894 182.664 125.926 182.604 125.957C182.487 126.017 182.379 126.073 182.272 126.136C182.115 126.228 181.998 126.315 181.918 126.408C181.837 126.502 181.765 126.633 181.694 126.804C181.645 126.92 181.603 127.038 181.558 127.165C181.535 127.227 181.512 127.292 181.487 127.36C181.415 127.553 181.331 127.761 181.218 127.944C181.103 128.129 180.947 128.305 180.725 128.416ZM178.36 127.53C178.578 127.515 178.799 127.557 179 127.608C179.134 127.642 179.278 127.687 179.412 127.729C179.475 127.748 179.537 127.767 179.594 127.784C179.786 127.841 179.954 127.883 180.104 127.896C180.252 127.909 180.36 127.892 180.443 127.851C180.526 127.809 180.604 127.734 180.681 127.61C180.759 127.484 180.826 127.327 180.895 127.14C180.914 127.087 180.935 127.03 180.956 126.971C181.004 126.836 181.056 126.692 181.111 126.56C181.192 126.367 181.294 126.164 181.439 125.995C181.586 125.825 181.773 125.696 181.952 125.591C182.074 125.52 182.209 125.45 182.335 125.385C182.39 125.356 182.444 125.329 182.494 125.302C182.859 125.108 183.067 124.952 183.135 124.749C183.204 124.545 183.13 124.288 182.955 123.911C182.93 123.856 182.902 123.797 182.873 123.736C182.813 123.612 182.75 123.479 182.697 123.355C182.618 123.165 182.546 122.952 182.531 122.734C182.516 122.516 182.557 122.295 182.608 122.094C182.643 121.96 182.687 121.816 182.729 121.682C182.748 121.619 182.767 121.558 182.784 121.5C182.841 121.309 182.883 121.14 182.896 120.99C182.91 120.842 182.893 120.734 182.851 120.651C182.81 120.568 182.734 120.49 182.61 120.413C182.485 120.335 182.327 120.269 182.14 120.199C182.087 120.18 182.03 120.159 181.971 120.138C181.837 120.09 181.692 120.038 181.56 119.983C181.367 119.902 181.164 119.8 180.995 119.655C180.825 119.508 180.697 119.321 180.591 119.142C180.52 119.02 180.45 118.885 180.385 118.759C180.357 118.704 180.329 118.65 180.302 118.6C180.109 118.235 179.952 118.027 179.749 117.959C179.545 117.89 179.288 117.964 178.911 118.139C178.856 118.164 178.797 118.192 178.737 118.221C178.612 118.281 178.479 118.344 178.355 118.397C178.165 118.476 177.952 118.549 177.734 118.564C177.517 118.578 177.295 118.537 177.094 118.486C176.96 118.451 176.817 118.407 176.682 118.365C176.619 118.346 176.558 118.327 176.5 118.31C176.309 118.253 176.14 118.211 175.99 118.198C175.842 118.184 175.734 118.201 175.651 118.243C175.568 118.284 175.49 118.36 175.413 118.484C175.335 118.61 175.269 118.767 175.2 118.954C175.18 119.007 175.159 119.064 175.138 119.123C175.09 119.257 175.038 119.402 174.983 119.534C174.902 119.727 174.8 119.93 174.655 120.099C174.508 120.269 174.321 120.398 174.142 120.503C174.02 120.574 173.885 120.644 173.76 120.709C173.704 120.737 173.65 120.765 173.6 120.792C173.235 120.985 173.027 121.142 172.959 121.345C172.891 121.549 172.964 121.806 173.139 122.183C173.164 122.238 173.192 122.297 173.221 122.358C173.281 122.482 173.345 122.615 173.397 122.739C173.476 122.929 173.549 123.142 173.564 123.36C173.579 123.578 173.537 123.799 173.486 124C173.452 124.134 173.407 124.277 173.365 124.412C173.346 124.475 173.327 124.536 173.31 124.594C173.253 124.785 173.211 124.954 173.198 125.104C173.185 125.252 173.202 125.36 173.243 125.443C173.285 125.526 173.36 125.604 173.484 125.681C173.61 125.759 173.767 125.825 173.954 125.895C174.007 125.914 174.064 125.935 174.123 125.956C174.258 126.004 174.402 126.056 174.534 126.111C174.727 126.192 174.93 126.294 175.099 126.439C175.269 126.586 175.398 126.773 175.503 126.952C175.574 127.074 175.644 127.209 175.709 127.334C175.738 127.39 175.765 127.444 175.792 127.494C175.986 127.859 176.142 128.067 176.345 128.135C176.549 128.203 176.806 128.13 177.183 127.955C177.238 127.93 177.297 127.902 177.358 127.873C177.482 127.813 177.615 127.749 177.739 127.697C177.929 127.618 178.142 127.545 178.36 127.53Z" fill="#999999"/>
<path d="M18.8703 22.1104C19.1929 21.8622 19.2532 21.3996 19.0051 21.0771C18.757 20.7545 18.2943 20.6942 17.9718 20.9423L12.6737 25.0177L10.0282 22.9828C9.70565 22.7346 9.24303 22.795 8.99491 23.1175C8.74679 23.4401 8.80713 23.9027 9.12969 24.1508L12.2244 26.5314H13.1229L18.8703 22.1104Z" fill="#999999"/>
<path fill-rule="evenodd" clip-rule="evenodd" d="M14 37C13.4194 37 12.9074 36.7902 12.4725 36.5227C12.0415 36.2576 11.6448 35.9094 11.2909 35.5791C11.1606 35.4575 11.0385 35.3407 10.9207 35.228C10.6993 35.0163 10.4929 34.819 10.2752 34.6305C9.94899 34.348 9.67056 34.1531 9.41925 34.0486C9.17072 33.9452 8.84219 33.8881 8.41785 33.8602C8.13814 33.8418 7.86277 33.8376 7.56619 33.8331C7.39989 33.8305 7.22691 33.8279 7.04276 33.8226C6.1285 33.7963 4.92415 33.7132 4.10549 32.8945C3.28576 32.0748 3.2101 30.8816 3.18691 29.974C3.18254 29.8033 3.18037 29.6416 3.17827 29.4856C3.17415 29.1787 3.17031 28.8937 3.1507 28.6053C3.12191 28.182 3.06234 27.8455 2.95214 27.5824C2.84028 27.3153 2.63996 27.029 2.35806 26.7024C2.16531 26.4792 1.96297 26.2681 1.74624 26.042C1.63872 25.9299 1.5276 25.814 1.41242 25.6911C1.08411 25.3409 0.737702 24.9486 0.47406 24.5209C0.207435 24.0884 0 23.5796 0 23C0 22.4194 0.209779 21.9074 0.47729 21.4725C0.742436 21.0415 1.09057 20.6448 1.42091 20.2909C1.54255 20.1606 1.65929 20.0385 1.77196 19.9207C1.98367 19.6993 2.18103 19.4929 2.36951 19.2752C2.65198 18.949 2.84692 18.6706 2.95144 18.4193C3.05481 18.1707 3.11194 17.8422 3.13983 17.4179C3.15821 17.1381 3.16241 16.8628 3.16693 16.5662C3.16947 16.3999 3.17211 16.2269 3.1774 16.0428C3.2037 15.1285 3.28684 13.9241 4.10549 13.1055C4.92522 12.2858 6.11835 12.2101 7.02599 12.1869C7.19664 12.1825 7.3583 12.1804 7.51429 12.1783C7.82123 12.1741 8.10629 12.1703 8.39466 12.1507C8.81797 12.1219 9.15446 12.0623 9.41759 11.9521C9.68468 11.8403 9.97101 11.64 10.2976 11.3581C10.5208 11.1653 10.7319 10.963 10.958 10.7462C11.0701 10.6387 11.186 10.5276 11.3089 10.4124C11.6591 10.0841 12.0514 9.7377 12.4791 9.47406C12.9116 9.20743 13.4204 9 14 9C14.5806 9 15.0926 9.20978 15.5275 9.47729C15.9585 9.74244 16.3552 10.0906 16.7091 10.4209C16.8394 10.5425 16.9615 10.6593 17.0793 10.772C17.3007 10.9837 17.5071 11.181 17.7248 11.3695C18.051 11.652 18.3294 11.8469 18.5807 11.9514C18.8293 12.0548 19.1578 12.1119 19.5821 12.1398C19.8619 12.1582 20.1372 12.1624 20.4338 12.1669C20.6001 12.1695 20.7731 12.1721 20.9572 12.1774C21.8715 12.2037 23.0759 12.2868 23.8945 13.1055C24.7142 13.9252 24.7899 15.1183 24.8131 16.026C24.8175 16.1966 24.8196 16.3583 24.8217 16.5143C24.8259 16.8212 24.8297 17.1063 24.8493 17.3947C24.8781 17.818 24.9377 18.1545 25.0479 18.4176C25.1597 18.6847 25.36 18.971 25.6419 19.2976C25.8347 19.5208 26.037 19.7319 26.2537 19.9579C26.3612 20.07 26.4724 20.1861 26.5876 20.3089C26.9159 20.6591 27.2623 21.0514 27.5259 21.4791C27.7926 21.9116 28 22.4204 28 23C28 23.5806 27.7902 24.0926 27.5227 24.5275C27.2576 24.9585 26.9094 25.3552 26.5791 25.7091C26.4577 25.8391 26.3412 25.961 26.2287 26.0786C26.017 26.3 25.819 26.5071 25.6305 26.7248C25.348 27.051 25.1531 27.3294 25.0486 27.5807C24.9452 27.8293 24.8881 28.1578 24.8602 28.5821C24.8418 28.8619 24.8376 29.1372 24.8331 29.4338C24.8305 29.6001 24.8279 29.7731 24.8226 29.9572C24.7963 30.8715 24.7132 32.0759 23.8945 32.8945C23.0748 33.7142 21.8817 33.7899 20.974 33.8131C20.8033 33.8175 20.6416 33.8196 20.4856 33.8217C20.1787 33.8259 19.8937 33.8297 19.6053 33.8493C19.182 33.8781 18.8455 33.9377 18.5824 34.0479C18.3153 34.1597 18.029 34.36 17.7024 34.6419C17.4792 34.8347 17.2681 35.037 17.042 35.2538C16.9299 35.3613 16.8139 35.4724 16.6911 35.5876C16.3409 35.9159 15.9486 36.2623 15.5209 36.5259C15.0884 36.7926 14.5796 37 14 37ZM9.9852 32.6879C10.4544 32.8831 10.8742 33.1998 11.2398 33.5164C11.4839 33.7277 11.7374 33.9698 11.9753 34.1972C12.0865 34.3034 12.1947 34.4068 12.2965 34.5018C12.6377 34.8203 12.9456 35.0835 13.2447 35.2675C13.5399 35.4491 13.7835 35.5263 14 35.5263C14.2175 35.5263 14.4579 35.45 14.7476 35.2715C15.042 35.0899 15.3447 34.8298 15.6832 34.5125C15.7798 34.4219 15.8818 34.3242 15.987 34.2233C16.2283 33.9922 16.487 33.7443 16.7394 33.5264C17.1095 33.2069 17.5342 32.8892 18.0131 32.6886C18.4961 32.4863 19.0204 32.412 19.5053 32.379C19.8334 32.3567 20.1879 32.3518 20.5175 32.3472C20.6635 32.3452 20.8046 32.3433 20.9364 32.3399C21.9002 32.3153 22.4989 32.206 22.8525 31.8525C23.2071 31.4978 23.3216 30.8849 23.3495 29.9149C23.3536 29.774 23.356 29.622 23.3585 29.4649C23.3636 29.1429 23.369 28.7993 23.3897 28.4855C23.4212 28.0064 23.4916 27.4868 23.6879 27.0148C23.8831 26.5456 24.1998 26.1258 24.5164 25.7602C24.7277 25.516 24.97 25.2625 25.1973 25.0245C25.3036 24.9132 25.4067 24.8054 25.5018 24.7035C25.8203 24.3623 26.0835 24.0544 26.2675 23.7553C26.4492 23.4601 26.5263 23.2165 26.5263 23C26.5263 22.7825 26.45 22.5421 26.2715 22.2524C26.0899 21.958 25.8298 21.6553 25.5125 21.3168C25.4219 21.2202 25.3242 21.1182 25.2233 21.0129C24.9922 20.7717 24.7443 20.513 24.5264 20.2606C24.2069 19.8905 23.8892 19.4658 23.6886 18.9869C23.4863 18.5039 23.412 17.9796 23.379 17.4947C23.3567 17.1666 23.3518 16.8121 23.3472 16.4825C23.3452 16.3365 23.3433 16.1954 23.3399 16.0636C23.3153 15.0998 23.206 14.5011 22.8525 14.1475C22.4978 13.7929 21.8849 13.6784 20.9149 13.6505C20.774 13.6464 20.622 13.644 20.4649 13.6415C20.1429 13.6364 19.7993 13.631 19.4855 13.6103C19.0064 13.5788 18.4868 13.5084 18.0148 13.3121C17.5456 13.1169 17.1258 12.8002 16.7602 12.4836C16.516 12.2723 16.2625 12.03 16.0245 11.8027C15.9133 11.6964 15.8053 11.5932 15.7035 11.4982C15.3623 11.1797 15.0544 10.9165 14.7553 10.7325C14.4601 10.5508 14.2165 10.4737 14 10.4737C13.7825 10.4737 13.5421 10.55 13.2524 10.7285C12.958 10.9101 12.6553 11.1702 12.3168 11.4875C12.2202 11.5781 12.1182 11.6758 12.0129 11.7767C11.7717 12.0078 11.513 12.2557 11.2606 12.4736C10.8905 12.7931 10.4658 13.1108 9.98686 13.3114C9.50394 13.5137 8.9796 13.588 8.49466 13.621C8.16662 13.6433 7.81212 13.6482 7.48249 13.6528C7.33651 13.6548 7.1954 13.6567 7.06364 13.6601C6.09977 13.6847 5.50109 13.794 5.14754 14.1475C4.79292 14.5022 4.67838 15.1151 4.65048 16.0851C4.64643 16.226 4.64402 16.378 4.64153 16.5351C4.63642 16.8571 4.63097 17.2007 4.61034 17.5145C4.57885 17.9936 4.50845 18.5132 4.31212 18.9852C4.11695 19.4544 3.80017 19.8742 3.48365 20.2398C3.27228 20.484 3.03006 20.7375 2.8027 20.9755C2.69639 21.0867 2.59331 21.1946 2.49817 21.2965C2.1797 21.6377 1.91648 21.9456 1.73248 22.2447C1.55085 22.5399 1.47368 22.7835 1.47368 23C1.47368 23.2175 1.55 23.4579 1.72854 23.7476C1.91006 24.042 2.17021 24.3447 2.48753 24.6832C2.57813 24.7798 2.6758 24.8818 2.77666 24.987C3.00778 25.2283 3.25568 25.487 3.47358 25.7394C3.79306 26.1095 4.11083 26.5342 4.31143 27.0131C4.51368 27.4961 4.58801 28.0204 4.62099 28.5053C4.6433 28.8334 4.64821 29.1879 4.65277 29.5175C4.65479 29.6635 4.65674 29.8046 4.66011 29.9364C4.68474 30.9002 4.794 31.4989 5.14754 31.8525C5.50217 32.2071 6.11513 32.3216 7.08513 32.3495C7.22598 32.3536 7.37795 32.356 7.53506 32.3585C7.85706 32.3636 8.20072 32.369 8.5145 32.3897C8.99364 32.4211 9.51319 32.4916 9.9852 32.6879Z" fill="#999999"/>
<path opacity="0.2" d="M25.774 34.774C26.7471 33.801 26.1019 31.7596 26.599 30.5644C27.0962 29.3692 29 28.3221 29 27C29 25.6779 27.1173 24.6731 26.599 23.4356C26.0808 22.1981 26.7471 20.199 25.774 19.226C24.801 18.2529 22.7596 18.8981 21.5644 18.401C20.3692 17.9038 19.3221 16 18 16C16.6779 16 15.6731 17.8827 14.4356 18.401C13.1981 18.9192 11.199 18.2529 10.226 19.226C9.25288 20.199 9.89808 22.2404 9.40096 23.4356C8.90385 24.6308 7 25.6779 7 27C7 28.3221 8.88269 29.3269 9.40096 30.5644C9.91923 31.8019 9.25288 33.801 10.226 34.774C11.199 35.7471 13.2404 35.1019 14.4356 35.599C15.6308 36.0962 16.6779 38 18 38C19.3221 38 20.3269 36.1173 21.5644 35.599C22.8019 35.0808 24.801 35.7471 25.774 34.774Z" fill="#F2F2F2"/>
<g opacity="0.9">
<mask id="path-14-inside-1_1339_5178" fill="white">
<path d="M127.073 42.446L124.228 41.3373L123.039 38.5251C122.945 38.1728 122.589 38.001 122.235 38.0061C121.882 38.0112 121.531 38.193 121.447 38.5479L120.339 41.393L117.527 42.5827C117.174 42.6761 117.003 43.0322 117.008 43.3858C117.013 43.7394 117.194 44.0905 117.549 44.1738L120.394 45.2825L121.584 48.0947C121.766 48.4458 122.034 48.6188 122.387 48.6137C122.741 48.6087 123.092 48.4268 123.175 48.0719L124.284 45.2268L127.096 44.0371C127.447 43.8553 127.62 43.5876 127.615 43.234C127.61 42.8804 127.428 42.5293 127.073 42.446Z"/>
</mask>
<path d="M121.883 44.2886L243.002 -4.2969L240.656 -10.1438L237.759 -15.7376L121.883 44.2886ZM121.435 43.8529L178.12 -73.6933L174.665 -75.359L171.119 -76.819L121.435 43.8529ZM120.19 43.3403L71.6043 -77.7783L-226.405 41.7653L70.5056 164.012L120.19 43.3403ZM121.333 42.8818L169.918 164L175.765 161.655L181.359 158.757L121.333 42.8818ZM121.768 42.4335L239.315 99.1181L242.051 93.4437L244.228 87.532L121.768 42.4335ZM122.194 41.278L243.312 -7.30743L116.99 -322.216L-0.265841 -3.82041L122.194 41.278ZM122.652 42.4209L1.53376 91.0064L3.87919 96.8533L6.77692 102.447L122.652 42.4209ZM123.101 42.8565L66.416 160.403L72.0905 163.139L78.0022 165.316L123.101 42.8565ZM243.46 -3.15407L243.002 -4.2969L0.764771 92.8741L1.22321 94.0169L243.46 -3.15407ZM237.759 -15.7376C224.68 -40.9851 203.731 -61.3425 178.12 -73.6933L64.7504 161.399C50.1079 154.338 38.9071 145.558 30.7447 137.626C22.5823 129.694 13.4853 118.749 6.00792 104.315L237.759 -15.7376ZM171.119 -76.819L169.874 -77.3317L70.5056 164.012L71.7507 164.525L171.119 -76.819ZM168.775 164.459L169.918 164L72.7472 -78.2367L71.6043 -77.7783L168.775 164.459ZM181.359 158.757C206.606 145.678 226.964 124.73 239.315 99.1181L4.22214 -14.2511C11.2832 -28.8936 20.0632 -40.0943 27.9953 -48.2567C35.9273 -56.4191 46.8721 -65.5162 61.3065 -72.9935L181.359 158.757ZM244.228 87.532L244.654 86.3765L-0.265841 -3.82041L-0.691374 -2.66492L244.228 87.532ZM1.07532 89.8635L1.53376 91.0064L243.771 -6.1646L243.312 -7.30743L1.07532 89.8635ZM6.77692 102.447C19.8557 127.695 40.8045 148.052 66.416 160.403L179.785 -74.6897C194.428 -67.6286 205.628 -58.8486 213.791 -50.9165C221.953 -42.9845 231.05 -32.0397 238.528 -17.6053L6.77692 102.447ZM78.0022 165.316L79.1577 165.742L169.355 -79.1777L168.199 -79.6032L78.0022 165.316ZM127.073 42.446L32.3103 285.635L49.4719 292.322L67.4026 296.533L127.073 42.446ZM124.228 41.3373L-116.149 143.023L-73.2146 244.515L29.4652 284.526L124.228 41.3373ZM123.039 38.5251L-129.237 105.445L-124.514 123.248L-117.338 140.211L123.039 38.5251ZM121.447 38.5479L364.637 133.311L371.324 116.149L375.535 98.2187L121.447 38.5479ZM120.339 41.393L222.024 281.77L323.517 238.836L363.528 136.156L120.339 41.393ZM117.527 42.5827L184.446 294.858L202.249 290.135L219.212 282.96L117.527 42.5827ZM117.549 44.1738L212.312 -199.015L195.151 -205.703L177.22 -209.914L117.549 44.1738ZM120.394 45.2825L360.771 -56.4032L317.837 -157.896L215.158 -197.907L120.394 45.2825ZM121.584 48.0947L-118.793 149.78L-114.837 159.132L-110.167 168.147L121.584 48.0947ZM123.175 48.0719L-120.014 -46.6912L-126.701 -29.5296L-130.912 -11.5989L123.175 48.0719ZM124.284 45.2268L22.5982 -195.15L-78.8941 -152.216L-118.905 -49.5363L124.284 45.2268ZM127.096 44.0371L228.782 284.414L238.133 280.458L247.149 275.788L127.096 44.0371ZM221.836 -200.743L218.991 -201.852L29.4652 284.526L32.3103 285.635L221.836 -200.743ZM364.605 -60.3484L363.415 -63.1606L-117.338 140.211L-116.149 143.023L364.605 -60.3484ZM375.314 -28.3947C332.841 -188.508 186.097 -223.935 118.499 -222.967L125.971 298.979C59.0815 299.937 -86.9509 264.854 -129.237 105.445L375.314 -28.3947ZM118.499 -222.967C50.9022 -221.999 -94.7681 -182.387 -132.64 -21.1229L375.535 98.2187C337.83 258.773 192.862 298.022 125.971 298.979L118.499 -222.967ZM-121.742 -56.2152L-122.85 -53.37L363.528 136.156L364.637 133.311L-121.742 -56.2152ZM18.6531 -198.984L15.8409 -197.794L219.212 282.96L222.024 281.77L18.6531 -198.984ZM50.6067 -209.692C-109.507 -167.22 -144.933 -20.4753 -143.966 47.1219L377.981 39.6498C378.938 106.54 343.855 252.572 184.446 294.858L50.6067 -209.692ZM-143.966 47.1219C-142.998 114.719 -103.385 260.389 57.8785 298.261L177.22 -209.914C337.774 -172.208 377.023 -27.2402 377.981 39.6498L-143.966 47.1219ZM22.7862 287.363L25.6314 288.472L215.158 -197.907L212.312 -199.015L22.7862 287.363ZM-119.982 146.968L-118.793 149.78L361.961 -53.591L360.771 -56.4032L-119.982 146.968ZM-110.167 168.147C-94.153 199.06 -66.166 237.698 -19.7323 267.703C28.3507 298.773 80.28 310.243 126.123 309.587L118.651 -212.36C164.141 -213.011 215.76 -201.625 263.575 -170.727C309.741 -140.896 337.503 -102.52 353.335 -71.9577L-110.167 168.147ZM126.123 309.587C193.721 308.619 339.391 269.006 377.263 107.743L-130.912 -11.5989C-93.207 -172.153 51.761 -211.402 118.651 -212.36L126.123 309.587ZM366.364 142.835L367.473 139.99L-118.905 -49.5363L-120.014 -46.6912L366.364 142.835ZM225.97 285.604L228.782 284.414L25.4104 -196.34L22.5982 -195.15L225.97 285.604ZM247.149 275.788C278.062 259.774 316.7 231.787 346.704 185.354C377.775 137.271 389.245 85.3413 388.588 39.4979L-133.358 46.97C-134.009 1.48028 -122.623 -50.1384 -91.7259 -97.9537C-61.8941 -144.12 -23.5182 -171.882 7.04377 -187.714L247.149 275.788ZM388.588 39.4979C387.621 -28.0995 348.008 -173.77 186.744 -211.641L67.4026 296.533C-93.1513 258.828 -132.401 113.86 -133.358 46.97L388.588 39.4979Z" fill="#999999" mask="url(#path-14-inside-1_1339_5178)"/>
</g>
<g opacity="0.9">
<mask id="path-16-inside-2_1339_5178" fill="white">
<path d="M65.4372 102.948L63.5474 103.28L61.9915 102.157C61.8264 101.998 61.5791 102.022 61.3908 102.14C61.2025 102.258 61.0732 102.47 61.1442 102.688L61.4761 104.578L60.3533 106.134C60.1945 106.299 60.2183 106.546 60.3363 106.735C60.4543 106.923 60.6664 107.052 60.8842 106.981L62.7741 106.649L64.33 107.772C64.5421 107.901 64.7423 107.907 64.9306 107.789C65.1189 107.671 65.2482 107.459 65.1773 107.241L64.8453 105.351L65.9682 103.795C66.0975 103.583 66.1032 103.383 65.9852 103.195C65.8672 103.006 65.655 102.877 65.4372 102.948Z"/>
</mask>
<path d="M63.2498 105.63L141.586 1.25673L136.547 -2.52487L131.168 -5.80354L63.2498 105.63ZM62.867 105.542L50.3411 -24.3554L46.5239 -23.9873L42.7349 -23.3957L62.867 105.542ZM62.031 105.673L-42.3423 27.337L-235.085 284.145L82.1631 234.61L62.031 105.673ZM62.4954 105.054L166.869 183.389L170.65 178.351L173.929 172.972L62.4954 105.054ZM62.5833 104.671L192.481 92.145L191.876 85.8743L190.67 79.691L62.5833 104.671ZM62.4352 103.911L140.771 -0.461755L-130.6 -204.135L-65.6517 128.891L62.4352 103.911ZM63.054 104.376L-15.2816 208.749L-10.2431 212.531L-4.8637 215.809L63.054 104.376ZM63.4369 104.464L75.9628 234.361L82.2336 233.757L88.4169 232.551L63.4369 104.464ZM142.204 1.7212L141.586 1.25673L-15.0858 210.003L-14.467 210.468L142.204 1.7212ZM131.168 -5.80354C106.951 -20.5636 78.5707 -27.0775 50.3411 -24.3554L75.3929 235.44C59.1752 237.003 45.0038 235.305 33.8709 232.75C22.7381 230.195 9.24456 225.543 -4.6679 217.064L131.168 -5.80354ZM42.7349 -23.3957L41.8989 -23.2651L82.1631 234.61L82.9991 234.48L42.7349 -23.3957ZM166.404 184.008L166.869 183.389L-41.8778 26.7181L-42.3423 27.337L166.404 184.008ZM173.929 172.972C188.689 148.755 195.203 120.375 192.481 92.145L-67.3142 117.197C-68.878 100.979 -67.1798 86.8077 -64.6245 75.6749C-62.0692 64.5421 -57.4176 51.0485 -48.9381 37.136L173.929 172.972ZM190.67 79.691L190.522 78.9315L-65.6517 128.891L-65.5036 129.651L190.67 79.691ZM-15.9005 208.285L-15.2816 208.749L141.39 0.0027119L140.771 -0.461755L-15.9005 208.285ZM-4.8637 215.809C19.3533 230.569 47.7332 237.083 75.9628 234.361L50.911 -25.4336C67.1287 -26.9975 81.3001 -25.2993 92.4329 -22.744C103.566 -20.1887 117.059 -15.5371 130.972 -7.05758L-4.8637 215.809ZM88.4169 232.551L89.1763 232.403L39.2164 -23.7712L38.4569 -23.6231L88.4169 232.551ZM65.4372 102.948L110.596 360.012L128.737 356.825L146.25 351.122L65.4372 102.948ZM63.5474 103.28L-89.1913 314.921L0.168145 379.411L108.706 360.344L63.5474 103.28ZM61.9915 102.157L-118.956 290.25L-105.682 303.02L-90.7472 313.798L61.9915 102.157ZM61.1442 102.688L318.208 57.5295L315.021 39.3888L309.318 21.8755L61.1442 102.688ZM61.4761 104.578L273.117 257.317L337.607 167.957L318.54 59.4193L61.4761 104.578ZM60.3533 106.134L248.446 287.081L261.216 273.808L271.994 258.873L60.3533 106.134ZM60.8842 106.981L15.7256 -150.082L-2.41509 -146.896L-19.9285 -141.193L60.8842 106.981ZM62.7741 106.649L215.513 -104.992L126.153 -169.481L17.6155 -150.414L62.7741 106.649ZM64.33 107.772L-88.4087 319.413L-80.1755 325.355L-71.5055 330.639L64.33 107.772ZM65.1773 107.241L-191.886 152.4L-188.7 170.54L-182.997 188.054L65.1773 107.241ZM64.8453 105.351L-146.796 -47.3873L-211.285 41.9721L-192.218 150.51L64.8453 105.351ZM65.9682 103.795L277.609 256.534L283.551 248.301L288.835 239.631L65.9682 103.795ZM20.2786 -154.116L18.3887 -153.784L108.706 360.344L110.596 360.012L20.2786 -154.116ZM216.286 -108.361L214.73 -109.484L-90.7472 313.798L-89.1913 314.921L216.286 -108.361ZM242.939 -85.9359C123.658 -200.685 -20.0255 -154.852 -77.2 -119.024L199.982 323.304C143.184 358.896 -0.00513827 404.682 -118.956 290.25L242.939 -85.9359ZM-77.2 -119.024C-134.375 -83.1959 -238.278 26.119 -187.03 183.501L309.318 21.8755C360.424 178.822 256.78 287.712 199.982 323.304L-77.2 -119.024ZM-195.919 147.847L-195.587 149.737L318.54 59.4193L318.208 57.5295L-195.919 147.847ZM-150.165 -48.1607L-151.288 -46.6048L271.994 258.873L273.117 257.317L-150.165 -48.1607ZM-127.74 -74.8136C-242.489 44.4674 -196.656 188.151 -160.828 245.325L281.5 -31.8563C317.092 24.9416 362.878 168.131 248.446 287.081L-127.74 -74.8136ZM-160.828 245.325C-125 302.5 -15.6849 406.403 141.697 355.155L-19.9285 -141.193C137.018 -192.299 245.908 -88.6542 281.5 -31.8563L-160.828 245.325ZM106.043 364.045L107.933 363.713L17.6155 -150.414L15.7256 -150.082L106.043 364.045ZM-89.9646 318.29L-88.4087 319.413L217.069 -103.869L215.513 -104.992L-89.9646 318.29ZM-71.5055 330.639C-41.8402 348.72 2.07046 367.211 57.2737 368.769C114.44 370.383 164.727 353.264 203.522 328.953L-73.6602 -113.375C-35.0539 -137.567 15.0388 -154.631 72.0048 -153.023C127.008 -151.47 170.712 -133.046 200.165 -115.095L-71.5055 330.639ZM203.522 328.953C260.696 293.125 364.599 183.81 313.351 26.4285L-182.997 188.054C-234.103 31.1078 -130.458 -77.7829 -73.6602 -113.375L203.522 328.953ZM322.241 62.0826L321.909 60.1927L-192.218 150.51L-191.886 152.4L322.241 62.0826ZM276.486 258.09L277.609 256.534L-145.673 -48.9432L-146.796 -47.3873L276.486 258.09ZM288.835 239.631C306.916 209.966 325.407 166.055 326.965 110.852C328.579 53.6855 311.46 3.39857 287.149 -35.3961L-155.179 241.786C-179.371 203.179 -196.435 153.087 -194.827 96.1206C-193.274 41.1176 -174.85 -2.58689 -156.899 -32.0401L288.835 239.631ZM287.149 -35.3961C251.321 -92.5708 142.006 -196.474 -15.3755 -145.226L146.25 351.122C-10.6962 402.228 -119.587 298.584 -155.179 241.786L287.149 -35.3961Z" fill="white" mask="url(#path-16-inside-2_1339_5178)"/>
</g>
<g opacity="0.9">
<mask id="path-18-inside-3_1339_5178" fill="white">
<path d="M32.9342 129.102L29.9267 129.63L27.4506 127.843C27.1879 127.59 26.7944 127.628 26.4948 127.816C26.1951 128.004 25.9893 128.342 26.1022 128.688L26.6305 131.696L24.8436 134.172C24.5909 134.434 24.6288 134.828 24.8166 135.128C25.0044 135.427 25.342 135.633 25.6886 135.52L28.696 134.992L31.1721 136.779C31.5097 136.984 31.8283 136.993 32.128 136.806C32.4276 136.618 32.6334 136.28 32.5205 135.934L31.9922 132.926L33.7791 130.45C33.9849 130.113 33.9939 129.794 33.8061 129.494C33.6183 129.195 33.2807 128.989 32.9342 129.102Z"/>
</mask>
<path d="M29.4532 133.37L107.789 28.9965L102.75 25.2149L97.3709 21.9362L29.4532 133.37ZM28.8439 133.23L16.318 3.33241L12.5008 3.70049L8.71179 4.2921L28.8439 133.23ZM27.5135 133.438L-76.8598 55.1019L-269.603 311.91L47.6456 262.375L27.5135 133.438ZM28.2526 132.453L132.626 210.788L136.407 205.75L139.686 200.371L28.2526 132.453ZM28.3925 131.843L158.29 119.318L157.685 113.047L156.479 106.864L28.3925 131.843ZM28.1568 130.635L106.492 26.2617L-164.878 -177.411L-99.9301 155.615L28.1568 130.635ZM29.1416 131.374L-49.1941 235.747L-44.1556 239.529L-38.7762 242.808L29.1416 131.374ZM29.7509 131.514L42.2768 261.411L48.5475 260.807L54.7308 259.601L29.7509 131.514ZM108.774 29.7356L107.789 28.9965L-48.8825 237.743L-47.8977 238.482L108.774 29.7356ZM97.3709 21.9362C73.0912 7.13794 44.6207 0.603196 16.318 3.33241L41.3698 263.127C25.1887 264.688 11.0581 262.993 -0.0350345 260.447C-11.1282 257.901 -24.5835 253.264 -38.4646 244.803L97.3709 21.9362ZM8.71179 4.2921L7.38136 4.49983L47.6456 262.375L48.976 262.168L8.71179 4.2921ZM131.887 211.773L132.626 210.788L-76.1206 54.1171L-76.8598 55.1019L131.887 211.773ZM139.686 200.371C154.484 176.091 161.019 147.62 158.29 119.318L-101.505 144.369C-103.065 128.188 -101.371 114.058 -98.8244 102.965C-96.2782 91.8714 -91.6413 78.4161 -83.1809 64.535L139.686 200.371ZM156.479 106.864L156.244 105.655L-99.9301 155.615L-99.6944 156.823L156.479 106.864ZM-50.1789 235.008L-49.1941 235.747L107.477 27.0008L106.492 26.2617L-50.1789 235.008ZM-38.7762 242.808C-14.4965 257.606 13.9741 264.141 42.2768 261.411L17.2249 1.61644C33.4061 0.0561078 47.5366 1.7509 58.6298 4.29708C69.723 6.84326 83.1782 11.4801 97.0593 19.9405L-38.7762 242.808ZM54.7308 259.601L55.9394 259.365L5.97947 3.19132L4.77089 3.42702L54.7308 259.601ZM32.9342 129.102L78.0928 386.165L96.2335 382.979L113.747 377.276L32.9342 129.102ZM29.9267 129.63L-122.812 341.271L-33.4526 405.761L75.0853 386.694L29.9267 129.63ZM27.4506 127.843L-153.497 315.936L-140.223 328.706L-125.288 339.484L27.4506 127.843ZM26.1022 128.688L283.166 83.5295L279.979 65.3888L274.276 47.8755L26.1022 128.688ZM26.6305 131.696L238.271 284.434L302.761 195.075L283.694 86.537L26.6305 131.696ZM24.8436 134.172L212.937 315.119L225.706 301.846L236.485 286.91L24.8436 134.172ZM25.6886 135.52L-19.4701 -121.543L-37.6108 -118.357L-55.1241 -112.654L25.6886 135.52ZM28.696 134.992L181.435 -76.6491L92.0753 -141.139L-16.4626 -122.072L28.696 134.992ZM31.1721 136.779L-121.567 348.42L-113.333 354.362L-104.663 359.646L31.1721 136.779ZM32.5205 135.934L-224.543 181.092L-221.356 199.233L-215.653 216.746L32.5205 135.934ZM31.9922 132.926L-179.649 -19.8124L-244.138 69.547L-225.071 178.085L31.9922 132.926ZM33.7791 130.45L245.42 283.189L251.362 274.956L256.646 266.286L33.7791 130.45ZM-12.2245 -127.962L-15.232 -127.433L75.0853 386.694L78.0928 386.165L-12.2245 -127.962ZM182.665 -82.0108L180.189 -83.7978L-125.288 339.484L-122.812 341.271L182.665 -82.0108ZM208.398 -60.2499C89.0195 -175.093 -54.8103 -129.246 -112.096 -93.3479L165.086 348.98C108.399 384.503 -34.6436 430.274 -153.497 315.936L208.398 -60.2499ZM-112.096 -93.3479C-169.382 -57.4502 -273.362 51.9902 -222.072 209.501L274.276 47.8755C325.341 204.693 221.772 313.458 165.086 348.98L-112.096 -93.3479ZM-230.961 173.847L-230.433 176.854L283.694 86.537L283.166 83.5295L-230.961 173.847ZM-185.01 -21.0431L-186.797 -18.5671L236.485 286.91L238.271 284.434L-185.01 -21.0431ZM-163.249 -46.7758C-278.093 72.6028 -232.245 216.433 -196.348 273.718L245.981 -3.4633C281.503 53.2233 327.275 196.266 212.937 315.119L-163.249 -46.7758ZM-196.348 273.718C-160.45 331.004 -51.0094 434.984 106.501 383.694L-55.1241 -112.654C101.693 -163.718 210.459 -60.1498 245.981 -3.4633L-196.348 273.718ZM70.8472 392.584L73.8547 392.055L-16.4626 -122.072L-19.4701 -121.543L70.8472 392.584ZM-124.043 346.633L-121.567 348.42L183.911 -74.8622L181.435 -76.6491L-124.043 346.633ZM-104.663 359.646C-74.9354 377.765 -30.9637 396.276 24.2987 397.836C81.5241 399.451 131.868 382.315 170.719 357.97L-106.463 -84.3584C-67.9122 -108.516 -17.8769 -125.563 39.0298 -123.956C93.9736 -122.405 137.617 -104.002 167.008 -86.0883L-104.663 359.646ZM170.719 357.97C228.005 322.072 331.985 212.632 280.694 55.121L-215.653 216.746C-266.718 59.9292 -163.15 -48.8361 -106.463 -84.3584L170.719 357.97ZM289.584 90.7752L289.056 87.7677L-225.071 178.085L-224.543 181.092L289.584 90.7752ZM243.633 285.665L245.42 283.189L-177.862 -22.2884L-179.649 -19.8124L243.633 285.665ZM256.646 266.286C274.765 236.558 293.276 192.586 294.836 137.324C296.452 80.0982 279.316 29.7538 254.97 -9.09651L-187.358 268.085C-211.516 229.535 -228.562 179.499 -226.956 122.593C-225.405 67.6487 -207.001 24.0052 -189.088 -5.38527L256.646 266.286ZM254.97 -9.09651C219.072 -66.3826 109.632 -170.362 -47.8786 -119.072L113.747 377.276C-43.0704 428.34 -151.836 324.772 -187.358 268.085L254.97 -9.09651Z" fill="#A3A3A3" mask="url(#path-18-inside-3_1339_5178)"/>
</g>
<mask id="path-20-inside-4_1339_5178" fill="white">
<path d="M180.133 43.3062L179.315 41.4653L180.063 39.5946C180.183 39.3861 180.096 39.1402 179.928 38.9783C179.759 38.8165 179.51 38.7387 179.307 38.8663L177.466 39.6851L175.595 38.9366C175.386 38.8168 175.141 38.904 174.979 39.0721C174.817 39.2402 174.739 39.4892 174.867 39.693L175.685 41.534L174.937 43.4047C174.859 43.6537 174.904 43.8591 175.072 44.0209C175.241 44.1828 175.49 44.2606 175.693 44.1329L177.534 43.3142L179.405 44.0626C179.654 44.1404 179.859 44.0953 180.021 43.9272C180.183 43.7591 180.261 43.5101 180.133 43.3062Z"/>
</mask>
<path d="M176.845 41.7596L297.08 92.4927L299.529 86.6884L301.407 80.6753L176.845 41.7596ZM176.837 41.3472L299.836 -2.2578L298.555 -5.87229L297.064 -9.40529L176.837 41.3472ZM176.491 40.5286L227.225 -79.7062L-68.6104 -204.534L56.2649 91.2811L176.491 40.5286ZM177.24 40.8445L126.507 161.079L132.311 163.528L138.324 165.407L177.24 40.8445ZM177.652 40.8367L221.257 163.836L227.195 161.731L232.902 159.064L177.652 40.8367ZM178.389 40.4927L298.623 91.2258L430.529 -221.385L123.138 -77.7346L178.389 40.4927ZM178.073 41.2413L57.8379 -9.49184L55.3888 -3.68758L53.5102 2.32559L178.073 41.2413ZM178.08 41.6537L55.0811 85.2586L57.1861 91.1964L59.8532 96.9037L178.08 41.6537ZM296.764 93.2412L297.08 92.4927L56.61 -8.97349L56.2942 -8.22491L296.764 93.2412ZM301.407 80.6753C309.866 53.5991 309.315 24.4786 299.836 -2.2578L53.8376 84.9522C48.3946 69.5986 46.6115 55.4411 46.3953 44.0243C46.179 32.6075 47.4246 18.3926 52.2823 2.84391L301.407 80.6753ZM297.064 -9.40529L296.718 -10.2239L56.2649 91.2811L56.6104 92.0996L297.064 -9.40529ZM125.758 160.763L126.507 161.079L227.973 -79.3903L227.225 -79.7062L125.758 160.763ZM138.324 165.407C165.401 173.866 194.521 173.314 221.257 163.836L134.047 -82.1627C149.401 -87.6058 163.559 -89.3888 174.975 -89.6051C186.392 -89.8213 200.607 -88.5757 216.156 -83.718L138.324 165.407ZM232.902 159.064L233.639 158.72L123.138 -77.7346L122.402 -77.3906L232.902 159.064ZM58.1538 -10.2404L57.8379 -9.49184L298.307 91.9744L298.623 91.2258L58.1538 -10.2404ZM53.5102 2.32559C45.0511 29.4017 45.6027 58.5223 55.0811 85.2586L301.08 -1.95131C306.523 13.4022 308.306 27.5598 308.522 38.9766C308.738 50.3934 307.493 64.6083 302.635 80.1569L53.5102 2.32559ZM59.8532 96.9037L60.1972 97.6398L296.652 -12.8603L296.308 -13.5964L59.8532 96.9037ZM180.133 43.3062L-58.3471 149.363L-50.8627 166.193L-41.0891 181.804L180.133 43.3062ZM179.315 41.4653L-63.0111 -55.4845L-103.945 46.8308L-59.1658 147.522L179.315 41.4653ZM180.063 39.5946L-46.2457 -90.4261L-55.4211 -74.4558L-62.2627 -57.3551L180.063 39.5946ZM179.307 38.8663L285.364 277.347L302.193 269.862L317.804 260.089L179.307 38.8663ZM177.466 39.6851L80.5158 282.011L182.831 322.945L283.523 278.165L177.466 39.6851ZM175.595 38.9366L45.5742 265.245L61.5445 274.421L78.6452 281.262L175.595 38.9366ZM174.867 39.693L413.347 -66.3641L405.863 -83.1934L396.089 -98.8048L174.867 39.693ZM175.685 41.534L418.011 138.484L458.945 36.1685L414.166 -64.5231L175.685 41.534ZM174.937 43.4047L-67.3887 -53.5451L-71.1602 -44.1181L-74.188 -34.4267L174.937 43.4047ZM175.693 44.1329L69.6363 -194.347L52.807 -186.863L37.1955 -177.089L175.693 44.1329ZM177.534 43.3142L274.484 -199.012L172.169 -239.946L71.4773 -195.166L177.534 43.3142ZM179.405 44.0626L82.4553 286.388L91.8823 290.16L101.574 293.188L179.405 44.0626ZM418.614 -62.7509L417.795 -64.5919L-59.1658 147.522L-58.3471 149.363L418.614 -62.7509ZM421.64 138.415L422.389 136.544L-62.2627 -57.3551L-63.0111 -55.4845L421.64 138.415ZM406.372 169.615C488.831 26.0896 409.568 -102.233 360.954 -149.039L-1.09902 226.995C-49.3763 180.513 -128.466 52.6825 -46.2457 -90.4261L406.372 169.615ZM360.954 -149.039C312.341 -195.845 181.109 -270.192 40.8087 -182.356L317.804 260.089C177.912 347.669 47.1782 273.478 -1.09902 226.995L360.954 -149.039ZM73.2494 -199.614L71.4084 -198.795L283.523 278.165L285.364 277.347L73.2494 -199.614ZM274.415 -202.641L272.545 -203.389L78.6452 281.262L80.5158 282.011L274.415 -202.641ZM305.616 -187.372C162.09 -269.832 33.7677 -190.568 -13.0383 -141.954L362.996 220.099C316.513 268.376 188.683 347.465 45.5742 265.245L305.616 -187.372ZM-13.0383 -141.954C-59.8443 -93.3411 -134.192 37.8909 -46.3557 178.191L396.089 -98.8048C483.67 41.0875 409.478 171.821 362.996 220.099L-13.0383 -141.954ZM-63.6137 145.75L-62.795 147.591L414.166 -64.5231L413.347 -66.3641L-63.6137 145.75ZM-66.6403 -55.4157L-67.3887 -53.5451L417.263 140.354L418.011 138.484L-66.6403 -55.4157ZM-74.188 -34.4267C-84.5498 -1.26026 -91.859 45.8264 -80.0038 99.7693C-67.7271 155.63 -38.9384 200.28 -5.95413 232.038L356.099 -143.996C388.915 -112.4 417.597 -67.9337 429.829 -12.2783C441.639 41.4592 434.346 88.3186 424.062 121.236L-74.188 -34.4267ZM-5.95413 232.038C42.6595 278.844 173.891 353.191 314.191 265.355L37.1955 -177.089C177.088 -264.67 307.822 -190.479 356.099 -143.996L-5.95413 232.038ZM281.75 282.613L283.591 281.795L71.4773 -195.166L69.6363 -194.347L281.75 282.613ZM80.5847 285.64L82.4553 286.388L276.355 -198.263L274.484 -199.012L80.5847 285.64ZM101.574 293.188C134.74 303.549 181.827 310.859 235.77 299.003C291.63 286.727 336.28 257.938 368.038 224.954L-7.99568 -137.099C23.6004 -169.916 68.0667 -198.598 123.722 -210.829C177.46 -222.639 224.319 -215.346 257.236 -205.062L101.574 293.188ZM368.038 224.954C414.844 176.34 489.191 45.1082 401.356 -95.1916L-41.0891 181.804C-128.67 41.912 -54.4782 -88.8219 -7.99568 -137.099L368.038 224.954Z" fill="#A3A3A3" mask="url(#path-20-inside-4_1339_5178)"/>
</svg>
