<svg width="1612" height="559" viewBox="0 0 1612 559" fill="none" xmlns="http://www.w3.org/2000/svg">
<path fill-rule="evenodd" clip-rule="evenodd" d="M29.2118 4.16449C33.4591 2.40527 38.0113 1.49987 42.6086 1.5H291.155C295.752 1.49987 300.304 2.40527 304.551 4.16449C308.799 5.92371 312.658 8.5023 315.909 11.753C319.159 15.0038 321.738 18.8629 323.497 23.1103C325.256 27.3576 326.162 31.9098 326.162 36.507V258.525H326.161V522.707C326.161 527.436 327.092 532.118 328.902 536.487C330.712 540.855 333.364 544.825 336.707 548.168C340.051 551.512 344.02 554.164 348.389 555.974C352.757 557.783 357.44 558.714 362.168 558.714H610.713C615.442 558.714 620.124 557.783 624.493 555.974C628.861 554.164 632.831 551.512 636.174 548.168C639.518 544.825 642.17 540.855 643.979 536.487C645.789 532.118 646.72 527.436 646.72 522.707V257.193L646.72 37.4972C646.72 32.9 647.625 28.3479 649.384 24.1006C651.144 19.8534 653.722 15.9943 656.973 12.7436C660.224 9.49285 664.083 6.91424 668.33 5.15498C672.577 3.39571 677.13 2.49023 681.727 2.49023H930.272C934.869 2.49023 939.421 3.39571 943.668 5.15498C947.916 6.91424 951.775 9.49285 955.025 12.7436C958.276 15.9943 960.855 19.8534 962.614 24.1006C964.373 28.3479 965.279 32.9 965.279 37.4972V302.021H965.28V522.708C965.28 527.436 966.212 532.118 968.021 536.487C969.831 540.856 972.483 544.825 975.826 548.169C979.17 551.512 983.139 554.164 987.508 555.974C991.877 557.783 996.559 558.715 1001.29 558.715H1249.83C1259.38 558.715 1268.54 554.921 1275.29 548.169C1282.05 541.416 1285.84 532.257 1285.84 522.708V258.969L1285.84 37.4972C1285.84 32.9 1286.74 28.3479 1288.5 24.1006C1290.26 19.8534 1292.84 15.9943 1296.09 12.7436C1299.34 9.49285 1303.2 6.91424 1307.45 5.15498C1311.7 3.39571 1316.25 2.49023 1320.85 2.49023H1569.39C1573.99 2.49023 1578.54 3.39571 1582.79 5.15498C1587.03 6.91424 1590.89 9.49285 1594.14 12.7436C1597.4 15.9943 1599.97 19.8534 1601.73 24.1006C1603.49 28.3479 1604.4 32.9 1604.4 37.4972V263.426C1600.71 263.682 1597.8 266.756 1597.8 270.509C1597.8 274.431 1600.98 277.61 1604.9 277.61C1608.82 277.61 1612 274.431 1612 270.509C1612 266.756 1609.09 263.682 1605.4 263.426V37.4972C1605.4 32.7687 1604.47 28.0865 1602.66 23.7179C1600.85 19.3494 1598.2 15.38 1594.85 12.0364C1591.51 8.69289 1587.54 6.04062 1583.17 4.2311C1578.8 2.42158 1574.12 1.49023 1569.39 1.49023H1320.85C1316.12 1.49023 1311.44 2.42158 1307.07 4.2311C1302.7 6.04062 1298.73 8.69289 1295.39 12.0364C1292.04 15.38 1289.39 19.3494 1287.58 23.7179C1285.77 28.0865 1284.84 32.7687 1284.84 37.4972V259.972L1284.84 522.708C1284.84 531.992 1281.15 540.896 1274.59 547.461C1268.02 554.026 1259.12 557.715 1249.83 557.715H1001.29C996.69 557.715 992.138 556.809 987.891 555.05C983.643 553.291 979.784 550.712 976.534 547.461C973.283 544.211 970.704 540.352 968.945 536.104C967.186 531.857 966.28 527.305 966.28 522.708V300.232H966.279V37.4972C966.279 32.7687 965.347 28.0865 963.538 23.7179C961.728 19.3494 959.076 15.38 955.732 12.0364C952.389 8.69289 948.42 6.04062 944.051 4.2311C939.682 2.42158 935 1.49023 930.272 1.49023H681.727C676.998 1.49023 672.316 2.42158 667.947 4.2311C663.579 6.04062 659.609 8.69289 656.266 12.0364C652.922 15.38 650.27 19.3494 648.461 23.7179C646.651 28.0865 645.72 32.7687 645.72 37.4972V259.972L645.72 522.707C645.72 527.305 644.815 531.857 643.056 536.104C641.296 540.351 638.718 544.211 635.467 547.461C632.216 550.712 628.357 553.291 624.11 555.05C619.863 556.809 615.31 557.714 610.713 557.714H362.168C357.571 557.714 353.019 556.809 348.772 555.05C344.524 553.29 340.665 550.712 337.414 547.461C334.164 544.21 331.585 540.351 329.826 536.104C328.067 531.857 327.161 527.305 327.161 522.707V258.982H327.162V36.507C327.162 31.7785 326.23 27.0962 324.421 22.7276C322.611 18.3589 319.959 14.3895 316.616 11.0459C313.272 7.70233 309.303 5.05008 304.934 3.2406C300.565 1.43113 295.883 0.499867 291.155 0.5H42.6086C37.88 0.499867 33.1978 1.43113 28.8291 3.2406C24.4605 5.05008 20.4911 7.70233 17.1475 11.0459C13.8039 14.3895 11.1516 18.3589 9.34216 22.7276C7.53269 27.0962 6.60143 31.7785 6.60156 36.507V294.937C2.91283 295.194 0 298.267 0 302.021C0 305.943 3.17923 309.122 7.101 309.122C11.0228 309.122 14.202 305.943 14.202 302.021C14.202 298.267 11.2898 295.194 7.60156 294.937V36.507C7.60143 31.9098 8.50683 27.3576 10.2661 23.1103C12.0253 18.8629 14.6039 15.0038 17.8546 11.753C21.1053 8.5023 24.9645 5.92371 29.2118 4.16449Z" fill="#8BC34A"/>
</svg>
