<svg width="100" height="100" viewBox="0 0 100 100" fill="none" xmlns="http://www.w3.org/2000/svg">
<path d="M86.6444 83.2781C78.6149 92.1199 67.6594 97.7603 55.798 99.1593C43.9366 100.558 31.9694 97.6214 22.1032 90.8903C12.237 84.1593 5.1372 74.0879 2.11305 62.5336C-0.911102 50.9792 0.344353 38.721 5.6479 28.0195C10.9514 17.3181 19.9454 8.895 30.9712 4.30366C41.997 -0.287691 54.3111 -0.737691 65.6427 3.03664C76.9742 6.81097 86.559 14.5551 92.6295 24.8409C98.7 35.1267 100.847 47.2606 98.674 59.0049" stroke="#727272" stroke-linecap="round"/>
<path d="M96.6859 66.4522C95.4193 70.0465 93.7418 73.4825 91.6868 76.6919" stroke="#727272" stroke-linecap="round"/>
<path d="M24.3458 17.3793C32.2631 11.1528 42.1748 8.01822 52.2326 8.5601C62.2905 9.10198 71.808 13.2833 79.0105 20.3244C86.2131 27.3655 90.609 36.7858 91.3787 46.8288C92.1483 56.8718 89.2392 66.8519 83.1937 74.9084C77.1482 82.9648 68.379 88.5476 58.5212 90.6157C48.6634 92.6839 38.3899 91.0963 29.6162 86.149C20.8425 81.2016 14.1675 73.2322 10.8359 63.7268C7.5043 54.2213 7.74344 43.8285 11.5087 34.4864" stroke="#727272" stroke-linecap="round"/>
<ellipse opacity="0.2" cx="49.5532" cy="78.123" rx="14.0308" ry="0.876923" fill="#BDB5B5"/>
<path d="M49.5065 78.1222C49.5065 78.1222 41.4809 76.0783 34.616 68.1091C28.6533 61.1596 23.5269 49.7134 25.3876 31.2096C25.3876 31.2096 43.2195 28.8602 49.5065 22C53.7354 26.6236 63.2081 29.1985 68.9453 30.3826C71.727 30.9606 73.6441 31.2096 73.6441 31.2096C77.6239 70.9613 49.5065 78.1222 49.5065 78.1222Z" fill="#F2F2F2" stroke="#FCFCFC" stroke-width="0.876923"/>
<path d="M49.5068 73.3446C44.8503 71.6155 28.1274 63.4114 29.6404 35.1059C34.654 34.1662 43.483 32.0235 49.5068 27.9121C55.526 32.0235 64.355 34.1615 69.3686 35.1059C70.8816 63.4114 54.1633 71.6202 49.5068 73.3446Z" fill="#727272"/>
<path d="M38.6143 52.7172L42.143 47.9339C42.143 47.9339 46.0947 49.5127 47.4574 52.5058C47.4574 52.5058 53.2791 42.8921 61.6994 40.0117L62.8882 41.3556C62.8882 41.3556 53.3637 48.4037 49.7927 59.7748L45.451 59.8688C45.451 59.8688 44.4079 55.1042 38.6143 52.7172Z" fill="white"/>
<path opacity="0.2" d="M49.5066 78.1228C49.5066 78.1228 41.4811 76.0789 34.6162 68.1097C39.8788 68.0487 48.8253 66.8505 56.7005 60.2769C65.3133 53.0924 69.7631 41.9093 68.9173 30.3691C71.699 30.9471 73.6161 31.1961 73.6161 31.1961C77.6241 70.9619 49.5066 78.1228 49.5066 78.1228Z" fill="black"/>
</svg>
