<svg width="100" height="100" viewBox="0 0 100 100" fill="none" xmlns="http://www.w3.org/2000/svg">
<path d="M24.3458 17.3793C32.2631 11.1527 42.1748 8.0182 52.2326 8.56008C62.2905 9.10196 71.808 13.2833 79.0105 20.3244C86.2131 27.3655 90.609 36.7858 91.3787 46.8288M58.5212 90.6157C48.6634 92.6839 38.3899 91.0963 29.6162 86.149C20.8425 81.2016 14.1675 73.2322 10.8359 63.7267C7.5043 54.2213 7.74344 43.8285 11.5087 34.4863" stroke="#727272" stroke-linecap="round"/>
<path d="M66.1803 37.7728C65.9589 37.5409 65.6546 37.4064 65.3341 37.3987C65.0136 37.391 64.7031 37.5108 64.4709 37.7318L63.249 38.8963C63.0453 36.1755 62.0007 33.5853 60.2598 31.4844C58.519 29.3835 56.168 27.8759 53.5325 27.1702C50.8969 26.4645 48.1071 26.5956 45.5494 27.5455C42.9917 28.4954 40.7925 30.217 39.2565 32.472C39.0771 32.7367 39.0099 33.0618 39.0696 33.376C39.1294 33.6902 39.3112 33.9679 39.5753 34.1483C39.8394 34.3287 40.1642 34.3971 40.4787 34.3385C40.7931 34.2798 41.0714 34.099 41.2528 33.8356C42.5005 32.0037 44.2843 30.6026 46.3596 29.8243C48.4349 29.046 50.7002 28.9287 52.8448 29.4885C54.9894 30.0482 56.9084 31.2576 58.3386 32.9508C59.7689 34.644 60.6404 36.7382 60.8337 38.9462L59.6732 37.9196C59.5543 37.8144 59.4158 37.7336 59.2657 37.6819C59.1156 37.6302 58.9567 37.6086 58.7982 37.6182C58.6397 37.6279 58.4847 37.6687 58.342 37.7383C58.1992 37.8079 58.0716 37.905 57.9664 38.0239C57.7539 38.264 57.6455 38.5788 57.665 38.8989C57.6747 39.0574 57.7155 39.2124 57.7851 39.3551C57.8547 39.4979 57.9517 39.6255 58.0706 39.7307L61.2882 42.5774C61.5151 42.7779 61.809 42.8861 62.1118 42.8804C62.4145 42.8748 62.7042 42.7557 62.9234 42.5469L66.1388 39.482C66.371 39.2608 66.5057 38.9565 66.5135 38.6359C66.5213 38.3154 66.4014 38.0049 66.1803 37.7728Z" fill="#727272"/>
<path d="M61.3282 45.4898C61.0553 45.3214 60.7268 45.2683 60.4148 45.3422C60.1028 45.416 59.8329 45.6107 59.6645 45.8835C58.4802 47.8067 56.7199 49.3077 54.6338 50.1733C52.5476 51.0388 50.2418 51.2249 48.0438 50.705C45.8459 50.1852 43.8677 48.9858 42.3904 47.2774C40.913 45.569 40.0117 43.4385 39.8144 41.1885L40.9749 42.2151C41.0938 42.3203 41.2323 42.4011 41.3824 42.4528C41.5326 42.5045 41.6914 42.5262 41.8499 42.5165C42.0084 42.5068 42.1635 42.466 42.3062 42.3964C42.4489 42.3268 42.5765 42.2298 42.6818 42.1108C42.787 41.9919 42.8678 41.8534 42.9195 41.7033C42.9712 41.5532 42.9928 41.3943 42.9831 41.2358C42.9735 41.0773 42.9326 40.9223 42.8631 40.7796C42.7935 40.6368 42.6964 40.5092 42.5775 40.404L39.3593 37.557C39.1227 37.348 38.8138 37.2398 38.4986 37.2553C38.1833 37.2709 37.8866 37.4089 37.6717 37.6401L34.8276 40.705C34.6108 40.9403 34.4962 41.2519 34.5087 41.5716C34.5213 41.8912 34.66 42.1929 34.8945 42.4105C35.129 42.628 35.4402 42.7438 35.7598 42.7325C36.0795 42.7211 36.3817 42.5835 36.6001 42.3498L37.411 41.4753C37.6681 44.2236 38.7828 46.8215 40.5973 48.9015C42.4118 50.9816 44.8344 52.4385 47.5223 53.0663C50.2103 53.6941 53.0276 53.4609 55.5757 52.3998C58.1239 51.3387 60.274 49.5033 61.7219 47.1532C61.8052 47.0182 61.8612 46.868 61.8865 46.7113C61.9119 46.5546 61.9061 46.3944 61.8695 46.24C61.833 46.0855 61.7664 45.9397 61.6735 45.811C61.5806 45.6823 61.4633 45.5731 61.3282 45.4898Z" fill="#727272"/>
<path d="M38.5093 56.0631H34.1616C33.9781 56.0631 33.8021 56.136 33.6724 56.2657C33.5426 56.3955 33.4697 56.5715 33.4697 56.7549V71.5929C33.4697 71.7764 33.5426 71.9524 33.6724 72.0821C33.8021 72.2118 33.9781 72.2847 34.1616 72.2847H38.5093C38.7073 72.2847 38.9034 72.2457 39.0863 72.17C39.2693 72.0942 39.4355 71.9831 39.5755 71.8431C39.7155 71.7031 39.8266 71.5369 39.9023 71.3539C39.9781 71.171 40.0171 70.9749 40.0171 70.7769V57.5709C40.0171 57.171 39.8582 56.7875 39.5755 56.5048C39.2927 56.222 38.9092 56.0631 38.5093 56.0631Z" fill="#727272"/>
<path d="M65.9868 57.7613C65.7496 57.3999 65.4261 57.1033 65.0456 56.8983C64.665 56.6933 64.2394 56.5862 63.8071 56.5869H62.1036C61.3565 56.5855 60.6259 56.8066 60.005 57.2221C59.3841 57.6375 58.901 58.2285 58.6173 58.9197C58.3913 59.4631 58.0398 59.9452 57.5915 60.3265C57.0943 60.9732 56.4598 61.5017 55.7338 61.8738C55.0078 62.2459 54.2083 62.4525 53.3929 62.4785L48.3432 62.4789C48.0768 62.4789 47.8214 62.3731 47.6331 62.1847C47.4447 61.9964 47.3389 61.741 47.3389 61.4746C47.3389 61.2083 47.4447 60.9528 47.6331 60.7645C47.8214 60.5761 48.0768 60.4703 48.3432 60.4703H53.366C54.1126 60.4493 54.8305 60.1778 55.4043 59.6996C55.3069 58.8409 54.896 58.0483 54.2502 57.4739C53.6044 56.8995 52.7694 56.5837 51.9051 56.5871H48.202C47.5147 56.5853 46.8339 56.7195 46.1987 56.9818C45.5635 57.2442 44.9865 57.6296 44.5008 58.1158L44.4063 58.2099C43.7548 58.8616 42.9271 59.3087 42.0249 59.4961V69.5686H55.3929C57.4112 69.5699 59.3855 68.9787 61.071 67.8684C62.7565 66.7582 64.0791 65.1776 64.8748 63.3228L66.2049 60.2269C66.3762 59.8302 66.4459 59.397 66.4079 58.9665C66.3698 58.5361 66.2251 58.1219 65.9868 57.7613Z" fill="#727272"/>
<path d="M54.9886 36.9297L54.5829 38.4648H47L47.4114 36.9297H54.9886ZM51.1771 46L47.1771 41.0664L47.1714 39.7656H49.1486C49.621 39.7656 50.0152 39.6855 50.3314 39.5254C50.6514 39.3613 50.8933 39.1328 51.0571 38.8398C51.2248 38.543 51.3086 38.1953 51.3086 37.7969C51.3086 37.1992 51.1371 36.7188 50.7943 36.3555C50.4514 35.9922 49.9029 35.8105 49.1486 35.8105H47L47.4457 34H49.1486C50.1086 34 50.9029 34.1523 51.5314 34.457C52.1638 34.7578 52.6362 35.1836 52.9486 35.7344C53.2648 36.2852 53.4229 36.9297 53.4229 37.668C53.4229 38.3203 53.3067 38.9023 53.0743 39.4141C52.8419 39.9258 52.4762 40.3457 51.9771 40.6738C51.4781 41.002 50.8248 41.2207 50.0171 41.3301L49.9486 41.3535L53.56 45.8945V46H51.1771ZM55 34L54.5829 35.5586L48.4343 35.5352L48.8514 34H55Z" fill="#727272"/>
<path d="M83.5 91C89.8513 91 95 85.8513 95 79.5C95 73.1487 89.8513 68 83.5 68C77.1487 68 72 73.1487 72 79.5C72 85.8513 77.1487 91 83.5 91Z" stroke="#727272"/>
<path d="M78.667 80.2316L82.2225 83.6L89.3337 75.6" stroke="#727272" stroke-width="1.33333" stroke-linecap="round" stroke-linejoin="round"/>
</svg>
