<svg width="100" height="100" viewBox="0 0 100 100" fill="none" xmlns="http://www.w3.org/2000/svg">
<path d="M86.6444 83.2781C78.6149 92.1199 67.6594 97.7603 55.798 99.1593C43.9366 100.558 31.9694 97.6214 22.1032 90.8903C12.237 84.1593 5.1372 74.0879 2.11305 62.5336C-0.911102 50.9792 0.344353 38.721 5.6479 28.0195C10.9514 17.3181 19.9454 8.895 30.9712 4.30366C41.997 -0.287691 54.3111 -0.737691 65.6427 3.03664C76.9742 6.81097 86.559 14.5551 92.6295 24.8409C98.7 35.1267 100.847 47.2606 98.674 59.0049" stroke="#727272" stroke-linecap="round"/>
<path d="M96.6859 66.4522C95.4193 70.0465 93.7418 73.4825 91.6868 76.6919" stroke="#727272" stroke-linecap="round"/>
<path d="M24.3458 17.3793C32.2631 11.1528 42.1748 8.01822 52.2326 8.5601C62.2905 9.10198 71.808 13.2833 79.0105 20.3244C86.2131 27.3655 90.609 36.7858 91.3787 46.8288C92.1483 56.8718 89.2392 66.8519 83.1937 74.9084C77.1482 82.9648 68.379 88.5476 58.5212 90.6157C48.6634 92.6839 38.3899 91.0963 29.6162 86.149C20.8425 81.2016 14.1675 73.2322 10.8359 63.7268C7.5043 54.2213 7.74344 43.8285 11.5087 34.4864" stroke="#727272" stroke-linecap="round"/>
<path d="M86.6444 83.2781C78.6149 92.1199 67.6594 97.7603 55.798 99.1593C43.9366 100.558 31.9694 97.6214 22.1032 90.8903C12.237 84.1593 5.1372 74.0879 2.11305 62.5336C-0.911102 50.9792 0.344353 38.721 5.6479 28.0195C10.9514 17.3181 19.9454 8.895 30.9712 4.30366C41.997 -0.287691 54.3111 -0.737691 65.6427 3.03664C76.9742 6.81097 86.559 14.5551 92.6295 24.8409C98.7 35.1267 100.847 47.2606 98.674 59.0049" stroke="#727272" stroke-linecap="round"/>
<path d="M96.6859 66.4522C95.4193 70.0465 93.7418 73.4825 91.6868 76.6919" stroke="#727272" stroke-linecap="round"/>
<path d="M24.3458 17.3793C32.2631 11.1528 42.1748 8.01822 52.2326 8.5601C62.2905 9.10198 71.808 13.2833 79.0105 20.3244C86.2131 27.3655 90.609 36.7858 91.3787 46.8288C92.1483 56.8718 89.2392 66.8519 83.1937 74.9084C77.1482 82.9648 68.379 88.5476 58.5212 90.6157C48.6634 92.6839 38.3899 91.0963 29.6162 86.149C20.8425 81.2016 14.1675 73.2322 10.8359 63.7268C7.5043 54.2213 7.74344 43.8285 11.5087 34.4864" stroke="#727272" stroke-linecap="round"/>
<path d="M72.1529 39.9111C72.5843 39.4797 72.8196 38.9082 72.8196 38.2976C72.8196 37.6869 72.5824 37.1173 72.1529 36.6897L68.1285 32.6653C67.2414 31.7782 65.7979 31.7782 64.9089 32.6653L55.1085 42.4658C54.9012 42.6693 54.7387 42.6731 54.5295 42.4658L44.7291 32.6634C43.8401 31.7801 42.3966 31.7782 41.5095 32.6653L37.487 36.6897C37.0575 37.1173 36.8203 37.6907 36.8203 38.2994C36.8203 38.9064 37.0556 39.4797 37.487 39.9092L47.2875 49.7078C47.4462 49.8684 47.4462 50.128 47.2875 50.2886L37.487 60.0872C37.0575 60.5168 36.8222 61.0901 36.8222 61.697C36.8222 62.3058 37.0593 62.8791 37.4889 63.3068L41.5133 67.3312C42.4003 68.2182 43.8439 68.2182 44.7328 67.3312L54.5314 57.5307C54.7424 57.3215 54.903 57.3252 55.1122 57.5307L64.9127 67.333C65.3571 67.7737 65.9398 67.9941 66.5224 67.9941C67.107 67.9941 67.6896 67.7737 68.1322 67.3312L72.1547 63.3086C72.5843 62.8791 72.8214 62.3077 72.8233 61.6989C72.8252 61.0901 72.588 60.5168 72.1566 60.0872L62.358 50.2886C62.1992 50.128 62.1992 49.8684 62.358 49.7078L72.1529 39.9111Z" fill="#727272"/>
<path d="M57.9919 66.0126C57.8313 66.1695 57.5717 66.1732 57.4111 66.0126L55.4801 64.0798C55.116 63.7156 54.524 63.7156 54.1598 64.0798C53.7957 64.4439 53.7957 65.0359 54.1598 65.4001L56.0927 67.3348C56.5371 67.7755 57.1198 67.9977 57.7024 67.9977C58.2869 67.9977 58.8696 67.7755 59.3122 67.3329C59.6782 66.9706 59.6782 66.3767 59.3141 66.0126C58.9462 65.6484 58.3542 65.6484 57.9919 66.0126Z" fill="#727272"/>
<path d="M34.5922 66.0104C34.4353 66.171 34.172 66.1747 34.0114 66.0123L29.987 61.986C29.8824 61.8833 29.8675 61.7619 29.8675 61.7003C29.8675 61.6368 29.8824 61.5135 29.987 61.4089L39.7856 51.6103C40.6745 50.7214 40.6745 49.2778 39.7856 48.3889L29.987 38.5903C29.8824 38.4839 29.8675 38.3625 29.8675 38.2971C29.8675 38.2355 29.8824 38.1141 29.987 38.0095L34.0095 33.9851C34.1701 33.8301 34.4316 33.8264 34.5922 33.987C34.9582 34.3493 35.5483 34.3511 35.9125 33.9833C36.2766 33.6191 36.2748 33.0271 35.9106 32.663C35.0217 31.7796 33.5781 31.7778 32.6911 32.6648L28.6686 36.6874C28.2372 37.1187 28 37.6883 28 38.2971C28 38.9059 28.2353 39.4792 28.6667 39.9087L38.4653 49.7074C38.624 49.868 38.624 50.1275 38.4653 50.2881L28.6667 60.0868C28.2353 60.5182 28 61.0896 28 61.7003C28 62.3109 28.2372 62.8805 28.6667 63.3082L32.6911 67.3326C33.1337 67.7751 33.7163 67.9974 34.3008 67.9974C34.8835 67.9974 35.4662 67.7751 35.9106 67.3344C36.2748 66.9703 36.2766 66.3783 35.9125 66.0141C35.5483 65.6481 34.9582 65.6481 34.5922 66.0104Z" fill="#727272"/>
<path d="M56.0908 32.6653L54.1598 34.5981C53.7957 34.9623 53.7957 35.5543 54.1598 35.9184C54.3428 36.1014 54.5819 36.1911 54.8209 36.1911C55.06 36.1911 55.299 36.0996 55.482 35.9184L57.413 33.9875C57.5754 33.8269 57.8369 33.8306 57.9956 33.9856C58.3579 34.3497 58.9518 34.3497 59.3159 33.9856C59.6801 33.6214 59.6801 33.0276 59.3141 32.6653C58.4233 31.7782 56.9778 31.7782 56.0908 32.6653Z" fill="#727272"/>
</svg>
