<svg width="100" height="100" viewBox="0 0 100 100" fill="none" xmlns="http://www.w3.org/2000/svg">
<path d="M86.6444 83.2781C78.6149 92.1199 67.6594 97.7603 55.798 99.1593C43.9366 100.558 31.9694 97.6214 22.1032 90.8903C12.237 84.1593 5.1372 74.0879 2.11305 62.5336C-0.911102 50.9792 0.344353 38.721 5.6479 28.0195C10.9514 17.3181 19.9454 8.895 30.9712 4.30366C41.997 -0.287691 54.3111 -0.737691 65.6427 3.03664C76.9742 6.81097 86.559 14.5551 92.6295 24.8409C98.7 35.1267 100.847 47.2606 98.674 59.0049" stroke="#727272" stroke-linecap="round"/>
<path d="M96.6859 66.4522C95.4193 70.0465 93.7418 73.4825 91.6868 76.6919" stroke="#727272" stroke-linecap="round"/>
<path d="M24.3458 17.3793C32.2631 11.1528 42.1748 8.01822 52.2326 8.5601C62.2905 9.10198 71.808 13.2833 79.0105 20.3244C86.2131 27.3655 90.609 36.7858 91.3787 46.8288C92.1483 56.8718 89.2392 66.8519 83.1937 74.9084C77.1482 82.9648 68.379 88.5476 58.5212 90.6157C48.6634 92.6839 38.3899 91.0963 29.6162 86.149C20.8425 81.2016 14.1675 73.2322 10.8359 63.7268C7.5043 54.2213 7.74344 43.8285 11.5087 34.4864" stroke="#727272" stroke-linecap="round"/>
<path d="M86.6444 83.2781C78.6149 92.1199 67.6594 97.7603 55.798 99.1593C43.9366 100.558 31.9694 97.6214 22.1032 90.8903C12.237 84.1593 5.1372 74.0879 2.11305 62.5336C-0.911102 50.9792 0.344353 38.721 5.6479 28.0195C10.9514 17.3181 19.9454 8.895 30.9712 4.30366C41.997 -0.287691 54.3111 -0.737691 65.6427 3.03664C76.9742 6.81097 86.559 14.5551 92.6295 24.8409C98.7 35.1267 100.847 47.2606 98.674 59.0049" stroke="#727272" stroke-linecap="round"/>
<path d="M96.6859 66.4522C95.4193 70.0465 93.7418 73.4825 91.6868 76.6919" stroke="#727272" stroke-linecap="round"/>
<path d="M24.3458 17.3793C32.2631 11.1528 42.1748 8.01822 52.2326 8.5601C62.2905 9.10198 71.808 13.2833 79.0105 20.3244C86.2131 27.3655 90.609 36.7858 91.3787 46.8288C92.1483 56.8718 89.2392 66.8519 83.1937 74.9084C77.1482 82.9648 68.379 88.5476 58.5212 90.6157C48.6634 92.6839 38.3899 91.0963 29.6162 86.149C20.8425 81.2016 14.1675 73.2322 10.8359 63.7268C7.5043 54.2213 7.74344 43.8285 11.5087 34.4864" stroke="#727272" stroke-linecap="round"/>
<path d="M66.1798 37.7728C65.9584 37.5409 65.6541 37.4064 65.3336 37.3987C65.0131 37.391 64.7027 37.5108 64.4704 37.7318L63.2485 38.8963C63.0448 36.1755 62.0002 33.5853 60.2594 31.4844C58.5185 29.3835 56.1676 27.8759 53.532 27.1702C50.8964 26.4645 48.1066 26.5956 45.5489 27.5455C42.9912 28.4954 40.7921 30.217 39.256 32.472C39.0766 32.7367 39.0094 33.0618 39.0691 33.376C39.1289 33.6902 39.3107 33.9679 39.5748 34.1483C39.8389 34.3287 40.1638 34.3971 40.4782 34.3385C40.7926 34.2798 41.0709 34.099 41.2523 33.8356C42.5 32.0037 44.2838 30.6026 46.3591 29.8243C48.4345 29.046 50.6997 28.9287 52.8443 29.4885C54.9889 30.0482 56.9079 31.2576 58.3381 32.9508C59.7684 34.644 60.6399 36.7382 60.8332 38.9462L59.6728 37.9196C59.5538 37.8144 59.4153 37.7336 59.2652 37.6819C59.1151 37.6302 58.9562 37.6086 58.7977 37.6182C58.6392 37.6279 58.4842 37.6687 58.3415 37.7383C58.1987 37.8079 58.0711 37.905 57.9659 38.0239C57.7534 38.264 57.645 38.5788 57.6645 38.8989C57.6742 39.0574 57.715 39.2124 57.7846 39.3551C57.8542 39.4979 57.9512 39.6255 58.0702 39.7307L61.2877 42.5774C61.5146 42.7779 61.8085 42.8861 62.1113 42.8804C62.414 42.8748 62.7037 42.7557 62.923 42.5469L66.1383 39.482C66.3705 39.2608 66.5053 38.9565 66.513 38.6359C66.5208 38.3154 66.4009 38.0049 66.1798 37.7728Z" fill="#727272"/>
<path d="M61.3282 45.4898C61.0553 45.3214 60.7268 45.2683 60.4148 45.3422C60.1028 45.416 59.8329 45.6107 59.6645 45.8835C58.4802 47.8067 56.7199 49.3077 54.6338 50.1733C52.5476 51.0388 50.2418 51.2249 48.0438 50.705C45.8459 50.1852 43.8677 48.9858 42.3904 47.2774C40.913 45.569 40.0117 43.4385 39.8144 41.1885L40.9749 42.2151C41.0938 42.3203 41.2323 42.4011 41.3824 42.4528C41.5326 42.5045 41.6914 42.5262 41.8499 42.5165C42.0084 42.5068 42.1635 42.466 42.3062 42.3964C42.4489 42.3268 42.5765 42.2298 42.6818 42.1108C42.787 41.9919 42.8678 41.8534 42.9195 41.7033C42.9712 41.5532 42.9928 41.3943 42.9831 41.2358C42.9735 41.0773 42.9326 40.9223 42.8631 40.7796C42.7935 40.6368 42.6964 40.5092 42.5775 40.404L39.3593 37.557C39.1227 37.348 38.8138 37.2398 38.4986 37.2553C38.1833 37.2709 37.8866 37.4089 37.6717 37.6401L34.8276 40.705C34.6108 40.9403 34.4962 41.2519 34.5087 41.5716C34.5213 41.8912 34.66 42.1929 34.8945 42.4105C35.129 42.628 35.4402 42.7438 35.7598 42.7325C36.0795 42.7211 36.3817 42.5835 36.6001 42.3498L37.411 41.4753C37.6681 44.2236 38.7828 46.8215 40.5973 48.9015C42.4118 50.9816 44.8344 52.4385 47.5223 53.0663C50.2103 53.6941 53.0276 53.4609 55.5757 52.3998C58.1239 51.3387 60.274 49.5033 61.7219 47.1532C61.8052 47.0182 61.8612 46.868 61.8865 46.7113C61.9119 46.5546 61.9061 46.3944 61.8695 46.24C61.833 46.0855 61.7664 45.9397 61.6735 45.811C61.5806 45.6823 61.4633 45.5731 61.3282 45.4898Z" fill="#727272"/>
<path d="M38.5093 56.0623H34.1616C33.9781 56.0623 33.8021 56.1352 33.6724 56.265C33.5426 56.3947 33.4697 56.5707 33.4697 56.7541V71.5921C33.4697 71.7756 33.5426 71.9516 33.6724 72.0813C33.8021 72.2111 33.9781 72.2839 34.1616 72.2839H38.5093C38.7073 72.2839 38.9034 72.2449 39.0863 72.1692C39.2693 72.0934 39.4355 71.9823 39.5755 71.8423C39.7155 71.7023 39.8266 71.5361 39.9023 71.3531C39.9781 71.1702 40.0171 70.9741 40.0171 70.7761V57.5701C40.0171 57.1703 39.8582 56.7867 39.5755 56.504C39.2927 56.2212 38.9092 56.0623 38.5093 56.0623Z" fill="#727272"/>
<path d="M65.9873 57.7621C65.7501 57.4007 65.4266 57.1041 65.0461 56.8991C64.6655 56.694 64.2399 56.587 63.8076 56.5877H62.1041C61.357 56.5863 60.6264 56.8074 60.0055 57.2229C59.3846 57.6383 58.9015 58.2293 58.6178 58.9205C58.3918 59.4639 58.0403 59.946 57.592 60.3273C57.0947 60.974 56.4603 61.5025 55.7343 61.8746C55.0083 62.2467 54.2088 62.4532 53.3934 62.4793L48.3437 62.4797C48.0773 62.4797 47.8219 62.3739 47.6336 62.1855C47.4452 61.9972 47.3394 61.7418 47.3394 61.4754C47.3394 61.2091 47.4452 60.9536 47.6336 60.7653C47.8219 60.5769 48.0773 60.4711 48.3437 60.4711H53.3665C54.1131 60.45 54.831 60.1786 55.4048 59.7004C55.3074 58.8417 54.8964 58.0491 54.2507 57.4747C53.6049 56.9003 52.7698 56.5845 51.9056 56.5879H48.2025C47.5152 56.5861 46.8344 56.7203 46.1992 56.9826C45.564 57.245 44.987 57.6304 44.5013 58.1166L44.4068 58.2107C43.7553 58.8624 42.9276 59.3095 42.0254 59.4969V69.5694H55.3934C57.4117 69.5706 59.386 68.9795 61.0715 67.8692C62.757 66.759 64.0796 65.1784 64.8753 63.3236L66.2054 60.2277C66.3767 59.831 66.4464 59.3978 66.4083 58.9673C66.3703 58.5368 66.2256 58.1226 65.9873 57.7621Z" fill="#727272"/>
<path d="M54.9886 36.9297L54.5829 38.4648H47L47.4114 36.9297H54.9886ZM51.1771 46L47.1771 41.0664L47.1714 39.7656H49.1486C49.621 39.7656 50.0152 39.6855 50.3314 39.5254C50.6514 39.3613 50.8933 39.1328 51.0571 38.8398C51.2248 38.543 51.3086 38.1953 51.3086 37.7969C51.3086 37.1992 51.1371 36.7188 50.7943 36.3555C50.4514 35.9922 49.9029 35.8105 49.1486 35.8105H47L47.4457 34H49.1486C50.1086 34 50.9029 34.1523 51.5314 34.457C52.1638 34.7578 52.6362 35.1836 52.9486 35.7344C53.2648 36.2852 53.4229 36.9297 53.4229 37.668C53.4229 38.3203 53.3067 38.9023 53.0743 39.4141C52.8419 39.9258 52.4762 40.3457 51.9771 40.6738C51.4781 41.002 50.8248 41.2207 50.0171 41.3301L49.9486 41.3535L53.56 45.8945V46H51.1771ZM55 34L54.5829 35.5586L48.4343 35.5352L48.8514 34H55Z" fill="#727272"/>
</svg>
