<svg width="64" height="64" viewBox="0 0 64 64" fill="none" xmlns="http://www.w3.org/2000/svg">
<path d="M55.3192 53.177C50.2095 58.8036 43.2378 62.3929 35.6896 63.2832C28.1415 64.1734 20.526 62.3045 14.2475 58.0211C7.96901 53.7377 3.45095 47.3287 1.52649 39.9759C-0.397974 32.6231 0.400952 24.8225 3.77594 18.0124C7.15092 11.2024 12.8744 5.84227 19.8908 2.92051C26.9072 -0.00125801 34.7434 -0.287621 41.9544 2.11423C49.1654 4.51607 55.2648 9.44415 59.1278 15.9897C62.9909 22.5352 64.357 30.2567 62.9744 37.7304" stroke="#727272" stroke-linecap="round"/>
<path d="M61.7092 42.4696C60.9032 44.7569 59.8357 46.9434 58.528 48.9858" stroke="#727272" stroke-linecap="round"/>
<path d="M16.3321 12.0773C21.1677 8.27447 27.2212 6.36005 33.364 6.691C39.5069 7.02196 45.3197 9.5757 49.7186 13.8761C54.1176 18.1764 56.8024 23.9299 57.2725 30.0637C57.7426 36.1974 55.9658 42.2928 52.2735 47.2133C48.5812 52.1337 43.2255 55.5434 37.2048 56.8065C31.1841 58.0697 24.9095 57.1001 19.551 54.0785C14.1925 51.0569 10.1157 46.1896 8.08095 40.3841C6.04617 34.5786 6.19223 28.2312 8.49189 22.5255" stroke="#727272" stroke-linecap="round"/>
<g clip-path="url(#clip0_978_620)">
<path d="M40.6154 27.5985V25.8458C40.6154 21.0877 36.7582 17.2305 32.0001 17.2305C27.2419 17.2305 23.3847 21.0877 23.3847 25.8458V27.5985C21.1447 28.5761 19.6956 30.7865 19.6924 33.2304V40.6151C19.6964 44.012 22.4492 46.7649 25.8462 46.7689H38.1539C41.5508 46.7649 44.3036 44.012 44.3077 40.6151V33.2304C44.3046 30.7865 42.8554 28.5761 40.6154 27.5985ZM33.2308 38.1536C33.2308 38.8333 32.6798 39.3843 32.0001 39.3843C31.3203 39.3843 30.7693 38.8333 30.7693 38.1536V35.692C30.7693 35.0123 31.3203 34.4613 32.0001 34.4613C32.6798 34.4613 33.2308 35.0123 33.2308 35.692V38.1536ZM38.1539 27.0766H25.8462V25.8459C25.8462 22.4472 28.6013 19.692 32.0001 19.692C35.3988 19.692 38.1539 22.4472 38.1539 25.8459V27.0766Z" fill="#727272"/>
</g>
<defs>
<clipPath id="clip0_978_620">
<rect width="29.5385" height="29.5385" fill="white" transform="translate(17.2305 17.2305)"/>
</clipPath>
</defs>
</svg>
