<svg width="20" height="22" viewBox="0 0 20 22" fill="none" xmlns="http://www.w3.org/2000/svg">
<path d="M14.3896 3.74903C13.2966 2.82203 12.1716 1.86203 11.0306 0.722031L10.3826 0.0820312L9.74562 0.728031C7.98677 2.74858 6.79921 5.20205 6.30562 7.83503C5.98377 7.33581 5.74501 6.78769 5.59863 6.21203L5.21362 4.72203L4.09362 5.77503C2.13162 7.61703 0.822624 9.44403 0.822624 12.375C0.804254 14.4858 1.49167 16.5421 2.77568 18.2175C4.05969 19.8928 5.86667 21.0911 7.90962 21.622C8.52534 21.7717 9.15378 21.8631 9.78662 21.895C9.99463 21.91 10.5866 21.925 10.6916 21.919C13.172 21.8444 15.5256 20.8061 17.253 19.0246C18.9804 17.243 19.9455 14.8585 19.9436 12.377C19.9436 8.46503 17.3696 6.28003 14.3896 3.74903ZM10.5596 20.085C10.4596 20.093 10.3776 20.094 10.2816 20.093C9.46255 20.0679 8.68533 19.7253 8.11416 19.1377C7.54298 18.5501 7.22257 17.7635 7.22062 16.944C7.22062 15.79 7.83962 15.215 9.23962 14.023C9.59262 13.723 9.97662 13.396 10.3806 13.023C10.7346 13.344 11.0806 13.635 11.3966 13.906C12.8036 15.1 13.5376 15.778 13.5376 16.943C13.5356 17.7477 13.2261 18.5211 12.6724 19.105C12.1188 19.6889 11.363 20.0401 10.5596 20.085ZM15.1306 18.473L15.1126 18.486C15.2762 17.9883 15.3599 17.4679 15.3606 16.944C15.3606 14.883 14.0086 13.734 12.5776 12.52C12.0706 12.091 11.5476 11.646 11.0256 11.12L10.3816 10.477L9.73063 11.122C9.14062 11.711 8.56362 12.202 8.05562 12.635C6.62862 13.849 5.39562 14.898 5.39562 16.942C5.39802 17.4867 5.49026 18.0273 5.66863 18.542C4.72147 17.8147 3.95527 16.8783 3.42983 15.8059C2.90439 14.7335 2.63395 13.5542 2.63962 12.36C2.62469 10.7632 3.24275 9.2254 4.35862 8.08303C4.55096 8.4729 4.77893 8.84414 5.03962 9.19203C5.22993 9.44893 5.49125 9.64452 5.79138 9.75469C6.0915 9.86486 6.41731 9.88479 6.72862 9.81203C7.04515 9.74165 7.33473 9.58164 7.56277 9.35112C7.79081 9.12059 7.94767 8.8293 8.01462 8.51203C8.39596 6.42232 9.2197 4.4383 10.4306 2.69303C11.3906 3.60303 12.3416 4.40803 13.1996 5.13703C16.0496 7.55803 18.1136 9.30703 18.1136 12.371C18.1157 13.5489 17.8471 14.7115 17.3287 15.7691C16.8103 16.8267 16.0559 17.7512 15.1236 18.471L15.1306 18.473Z" fill="black"/>
</svg>
