<svg xmlns="http://www.w3.org/2000/svg" width="9" height="9" viewBox="0 0 9 9">
  <g id="Polygon_188" data-name="Polygon 188" fill="#f9fcf6">
    <path d="M 6.576478958129883 7.98976993560791 L 4.727650165557861 6.577390193939209 L 4.5 6.40349006652832 L 4.272349834442139 6.577390193939209 L 2.423521041870117 7.98976993560791 L 3.139430046081543 5.673029899597168 L 3.216660022735596 5.423110008239746 L 3.008800029754639 5.264319896697998 L 1.108600974082947 3.812690019607544 L 3.437690019607544 3.812690019607544 L 3.714299917221069 3.812690019607544 L 3.79596996307373 3.548409938812256 L 4.5 1.270132541656494 L 5.20403003692627 3.548409938812256 L 5.285699844360352 3.812690019607544 L 5.562310218811035 3.812690019607544 L 7.891398906707764 3.812690019607544 L 5.991199970245361 5.264319896697998 L 5.783339977264404 5.423110008239746 L 5.860569953918457 5.673029899597168 L 6.576478958129883 7.98976993560791 Z" stroke="none"/>
    <path d="M 4.5 2.540287494659424 L 3.990920066833496 4.187689781188965 L 2.217215061187744 4.187689781188965 L 3.652170181274414 5.283909797668457 L 3.128197193145752 6.979545593261719 L 4.5 5.931580066680908 L 5.871802806854248 6.979545593261719 L 5.347829818725586 5.283909797668457 L 6.782784938812256 4.187689781188965 L 5.009079933166504 4.187689781188965 L 4.5 2.540287494659424 M 4.5 0 L 5.562310218811035 3.437689781188965 L 9 3.437689781188965 L 6.218850135803223 5.562310218811035 L 7.281149864196777 9 L 4.5 6.87539005279541 L 1.718850135803223 9 L 2.781149864196777 5.562310218811035 L 0 3.437689781188965 L 3.437689781188965 3.437689781188965 L 4.5 0 Z" stroke="none" fill="#8bc34a"/>
  </g>
</svg>
