<svg width="89" height="138" viewBox="0 0 89 138" fill="none" xmlns="http://www.w3.org/2000/svg">
<g opacity="0.2">
<path d="M15.1107 10.3376C23.0441 4.04025 33.1874 0.891292 45.5408 0.890625C54.0168 0.890625 61.3444 2.40425 67.5237 5.43158C73.2913 8.09786 78.1537 12.392 81.5128 17.7856C84.6921 23.1077 86.3274 29.2098 86.2357 35.4086C86.2357 42.92 84.2357 49.3389 80.2357 54.6656C76.6972 59.6563 71.6778 63.4069 65.8887 65.3856V66.1126C72.6669 68.0305 78.5724 72.2352 82.6027 78.0126C86.6027 83.7653 88.6027 91.123 88.6027 100.086C88.7233 106.771 87.0282 113.364 83.6978 119.162C80.2584 124.89 75.2016 129.472 69.1638 132.333C62.7424 135.543 55.0514 137.148 46.0908 137.148C33.0101 137.148 22.2611 133.787 13.8438 127.066C5.42642 120.344 0.912734 110.684 0.302734 98.0856H20.2867C20.4317 101.067 21.1645 103.99 22.4428 106.687C23.7212 109.384 25.5199 111.801 27.7357 113.801C32.2151 117.86 38.2708 119.889 45.9028 119.887C53.2888 119.887 58.9814 117.858 62.9808 113.801C66.9801 109.743 68.9801 104.505 68.9808 98.0856C68.9808 89.6096 66.2861 83.5843 60.8967 80.0096C55.5074 76.4349 47.2407 74.6486 36.0967 74.6506H31.3727V57.5736H36.2778C46.0884 57.4536 53.5678 55.8183 58.7158 52.6676C63.8638 49.5169 66.4374 44.5502 66.4368 37.7676C66.4368 31.9536 64.5594 27.3203 60.8047 23.8676C57.0501 20.4149 51.7208 18.689 44.8168 18.6896C38.0334 18.6896 32.7667 20.4156 29.0167 23.8676C25.3238 27.201 22.9405 31.7419 22.2947 36.6746H2.12073C2.84739 25.4153 7.17738 16.6363 15.1107 10.3376Z" fill="white"/>
</g>
</svg>
