<svg id="Group_32224" data-name="Group 32224" xmlns="http://www.w3.org/2000/svg" width="41.454" height="29.644" viewBox="0 0 41.454 29.644">
  <path id="Path_44160" data-name="Path 44160" d="M256.871,260.552h-.494c-3.442,0-6.885.006-10.327-.009a.61.61,0,0,0-.658.4,4.442,4.442,0,0,1-5.174,2.4,3.743,3.743,0,0,1-2.5-2.469.4.4,0,0,0-.454-.325c-1.266.014-2.532.01-3.8.005a1.481,1.481,0,1,1,0-2.959c1.281,0,2.563-.013,3.844.007a.674.674,0,0,0,.734-.435,4.456,4.456,0,0,1,4.878-2.442,3.752,3.752,0,0,1,2.775,2.535c.077.208.133.341.4.339,2.177-.012,4.353-.008,6.53-.01a1.34,1.34,0,0,0,.187-.034l2.294-20.718h-.579q-9.031,0-18.061,0a1.475,1.475,0,0,1-1.583-1.447,1.446,1.446,0,0,1,1.469-1.51q10.212-.006,20.423,0a1.418,1.418,0,0,1,1.459,1.6c-.122,1.428-.294,2.851-.45,4.328h.509c2.408,0,4.817.01,7.225-.006a1.591,1.591,0,0,1,1.613,1.061c1.031,2.356,2.092,4.7,3.106,7.063a2.55,2.55,0,0,1,.157,1.206c-.205,2.117-.453,4.23-.685,6.345-.133,1.21-.246,2.423-.4,3.632a1.506,1.506,0,0,1-1.7,1.448c-.8,0-1.606.013-2.408-.006a.486.486,0,0,0-.513.333,4.451,4.451,0,0,1-3.952,2.626,3.761,3.761,0,0,1-3.706-2.475C256.981,260.887,256.936,260.74,256.871,260.552Zm.561-17.765c-.549,4.953-1.093,9.859-1.641,14.8a6.211,6.211,0,0,1,.764.005.65.65,0,0,0,.768-.453,4.373,4.373,0,0,1,2.4-2.2,3.884,3.884,0,0,1,5.3,2.393c.03.083.067.163.092.224h1.376l.811-7.385h-.559c-1.991,0-3.981.005-5.972,0a1.463,1.463,0,0,1-1.5-1.583c.114-1.181.261-2.359.393-3.538.083-.746.162-1.492.246-2.265Zm5.488-.023-.484,4.425h4.234c-.632-1.438-1.246-2.845-1.876-4.245a.427.427,0,0,0-.324-.172C263.977,242.754,263.484,242.765,262.92,242.765ZM242.962,258.9c.011-.874-.443-1.388-1.011-1.3a1.871,1.871,0,0,0-1.513,1.971.937.937,0,0,0,1.413.831A1.713,1.713,0,0,0,242.962,258.9Zm19.268.028c.017-.889-.429-1.409-.994-1.329a1.876,1.876,0,0,0-1.525,2.006.933.933,0,0,0,1.4.807A1.712,1.712,0,0,0,262.231,258.932Z" transform="translate(-228.953 -233.873)" fill="#319437"/>
  <path id="Path_44161" data-name="Path 44161" d="M240.835,248.025c2.47,0,4.941,0,7.411,0a1.48,1.48,0,0,1,1.447,1.249,1.5,1.5,0,0,1-1.088,1.663,1.981,1.981,0,0,1-.5.044q-7.3,0-14.591,0a1.484,1.484,0,1,1,.006-2.96Q237.176,248.022,240.835,248.025Z" transform="translate(-228.953 -242.095)" fill="#319437"/>
  <path id="Path_44162" data-name="Path 44162" d="M246.976,265.136c-.973,0-1.946,0-2.918,0a1.48,1.48,0,1,1,0-2.958q2.918-.007,5.836,0a1.48,1.48,0,1,1,0,2.958C248.922,265.14,247.949,265.136,246.976,265.136Z" transform="translate(-235.119 -250.315)" fill="#319437"/>
  <path id="Path_44163" data-name="Path 44163" d="M232.083,279.284c-.741,0-1.482.007-2.224,0a1.478,1.478,0,1,1,0-2.957q2.223-.012,4.446,0a1.478,1.478,0,1,1,0,2.957C233.565,279.292,232.824,279.284,232.083,279.284Z" transform="translate(-226.897 -258.535)" fill="#319437"/>
  <path id="Path_44164" data-name="Path 44164" d="M227.055,265.133c-.247,0-.494,0-.741,0a1.479,1.479,0,1,1,.015-2.959c.494-.006.988-.007,1.482,0a1.479,1.479,0,1,1-.015,2.959C227.549,265.137,227.3,265.133,227.055,265.133Z" transform="translate(-224.842 -250.313)" fill="#319437"/>
</svg>
