<svg width="24" height="24" viewBox="0 0 24 24" fill="none" xmlns="http://www.w3.org/2000/svg">
<path d="M21.4036 5.48297C21.1633 5.19459 20.8625 4.96266 20.5225 4.80364C20.1824 4.64463 19.8116 4.56243 19.4362 4.56289H5.62393L5.58805 4.26303C5.51462 3.63975 5.21505 3.06508 4.74613 2.64797C4.27721 2.23085 3.67154 2.00029 3.04395 2L2.8543 2C2.62772 2 2.41043 2.09001 2.25022 2.25022C2.09001 2.41043 2 2.62772 2 2.8543C2 3.08087 2.09001 3.29816 2.25022 3.45838C2.41043 3.61859 2.62772 3.70859 2.8543 3.70859H3.04395C3.2532 3.70862 3.45516 3.78544 3.61152 3.92449C3.76789 4.06353 3.86779 4.25513 3.89227 4.46294L5.06778 14.4582C5.18982 15.4977 5.68926 16.4562 6.47131 17.1518C7.25336 17.8474 8.26358 18.2317 9.31022 18.2316H18.2316C18.4582 18.2316 18.6755 18.1416 18.8357 17.9814C18.9959 17.8212 19.0859 17.6039 19.0859 17.3773C19.0859 17.1508 18.9959 16.9335 18.8357 16.7733C18.6755 16.6131 18.4582 16.523 18.2316 16.523H9.31022C8.78146 16.5216 8.26609 16.3566 7.83479 16.0507C7.40349 15.7448 7.07735 15.313 6.9011 14.8145H17.0843C18.0858 14.8145 19.0555 14.4627 19.8239 13.8204C20.5923 13.1782 21.1106 12.2863 21.2883 11.3007L21.9589 7.58112C22.0259 7.21207 22.0108 6.83281 21.9149 6.47023C21.8189 6.10764 21.6444 5.77059 21.4036 5.48297ZM20.2819 7.27785L19.6105 10.9975C19.5038 11.5895 19.1923 12.1251 18.7304 12.5106C18.2686 12.896 17.6859 13.1068 17.0843 13.1059H6.62943L5.82554 6.27148H19.4362C19.5617 6.27073 19.6858 6.29764 19.7997 6.3503C19.9136 6.40295 20.0146 6.48006 20.0953 6.57613C20.176 6.67221 20.2346 6.78489 20.2669 6.90617C20.2991 7.02745 20.3043 7.15435 20.2819 7.27785Z" fill="white"/>
<path d="M7.98008 22.5031C8.92371 22.5031 9.68867 21.7382 9.68867 20.7945C9.68867 19.8509 8.92371 19.0859 7.98008 19.0859C7.03645 19.0859 6.27148 19.8509 6.27148 20.7945C6.27148 21.7382 7.03645 22.5031 7.98008 22.5031Z" fill="white"/>
<path d="M16.523 22.5031C17.4667 22.5031 18.2316 21.7382 18.2316 20.7945C18.2316 19.8509 17.4667 19.0859 16.523 19.0859C15.5794 19.0859 14.8145 19.8509 14.8145 20.7945C14.8145 21.7382 15.5794 22.5031 16.523 22.5031Z" fill="white"/>
</svg>
