<svg width="24" height="24" viewBox="0 0 24 24" fill="none" xmlns="http://www.w3.org/2000/svg">
<path d="M18 3H6C4.3455 3 3 4.3455 3 6V6.75C3 7.4145 3.29025 8.013 3.75 8.4255V17.25C3.75 19.3177 5.43225 21 7.5 21H9.75C10.164 21 10.5 20.664 10.5 20.25C10.5 19.836 10.164 19.5 9.75 19.5H7.5C6.2595 19.5 5.25 18.4905 5.25 17.25V9H18.75V9.75C18.75 10.164 19.086 10.5 19.5 10.5C19.914 10.5 20.25 10.164 20.25 9.75V8.4255C20.7097 8.013 21 7.41525 21 6.75V6C21 4.3455 19.6545 3 18 3ZM5.25 7.5C4.83675 7.5 4.5 7.16325 4.5 6.75V6C4.5 5.17275 5.17275 4.5 6 4.5H18C18.8273 4.5 19.5 5.17275 19.5 6V6.75C19.5 7.16325 19.1632 7.5 18.75 7.5H5.25ZM15.75 10.5C12.855 10.5 10.5 12.855 10.5 15.75C10.5 18.645 12.855 21 15.75 21C18.645 21 21 18.645 21 15.75C21 12.855 18.645 10.5 15.75 10.5ZM15.75 19.5C13.6823 19.5 12 17.8177 12 15.75C12 13.6823 13.6823 12 15.75 12C17.8177 12 19.5 13.6823 19.5 15.75C19.5 17.8177 17.8177 19.5 15.75 19.5ZM18.1658 14.841C18.453 15.1395 18.4432 15.6143 18.144 15.9015L16.485 17.4945C16.1452 17.8298 15.696 17.9977 15.2452 17.9977C14.7945 17.9977 14.3422 17.8298 13.9972 17.4923L13.1483 16.662C12.852 16.3717 12.8475 15.897 13.137 15.6007C13.428 15.306 13.9028 15.3007 14.1982 15.5895L15.0472 16.4205C15.1552 16.5277 15.3307 16.5262 15.4387 16.4205L17.106 14.82C17.4045 14.5328 17.8793 14.5425 18.1665 14.8417L18.1658 14.841Z" fill="white"/>
</svg>
