<svg width="24" height="24" viewBox="0 0 24 24" fill="none" xmlns="http://www.w3.org/2000/svg">
<path d="M6.47099 3.29289C6.10005 2.90237 5.49865 2.90237 5.12771 3.29289L3.89968 4.58579L3.62148 4.29289C3.25054 3.90237 2.64914 3.90237 2.2782 4.29289C1.90727 4.68342 1.90727 5.31658 2.2782 5.70711L3.22804 6.70712C3.59898 7.09764 4.20038 7.09764 4.57132 6.70712L6.47099 4.70711C6.84193 4.31658 6.84193 3.68342 6.47099 3.29289ZM20.0502 16.9933H9.59824L9.48747 17C9.01508 17.0578 8.6484 17.4805 8.6484 17.9933C8.6484 18.5456 9.07367 18.9933 9.59824 18.9933H20.0502L20.161 18.9866C20.6334 18.9288 21 18.5061 21 17.9933C21 17.441 20.5748 16.9933 20.0502 16.9933ZM20.0502 11H9.59824L9.48747 11.0067C9.01508 11.0645 8.6484 11.4872 8.6484 12C8.6484 12.5523 9.07367 13 9.59824 13H20.0502L20.161 12.9933C20.6334 12.9355 21 12.5128 21 12C21 11.4477 20.5748 11 20.0502 11ZM20.0502 5.00004H9.59824L9.48747 5.00677C9.01508 5.06453 8.6484 5.4872 8.6484 6.00004C8.6484 6.55233 9.07367 7.00005 9.59824 7.00005H20.0502L20.161 6.99332C20.6334 6.93556 21 6.51288 21 6.00004C21 5.44775 20.5748 5.00004 20.0502 5.00004ZM6.47099 16.2929C6.10005 15.9024 5.49865 15.9024 5.12771 16.2929L3.89968 17.5858L3.62148 17.2929C3.25054 16.9024 2.64914 16.9024 2.2782 17.2929C1.90727 17.6834 1.90727 18.3166 2.2782 18.7071L3.22804 19.7071C3.59898 20.0976 4.20038 20.0976 4.57132 19.7071L6.47099 17.7071C6.84193 17.3166 6.84193 16.6834 6.47099 16.2929ZM5.12771 9.7929C5.49865 9.40238 6.10005 9.40238 6.47099 9.7929C6.84193 10.1834 6.84193 10.8166 6.47099 11.2071L4.57132 13.2071C4.20038 13.5976 3.59898 13.5976 3.22804 13.2071L2.2782 12.2071C1.90727 11.8166 1.90727 11.1834 2.2782 10.7929C2.64914 10.4024 3.25054 10.4024 3.62148 10.7929L3.89968 11.0858L5.12771 9.7929Z" fill="white"/>
</svg>
