<svg width="24" height="24" viewBox="0 0 24 24" fill="none" xmlns="http://www.w3.org/2000/svg">
<g clip-path="url(#clip0_689_10745)">
<path d="M6.13907 20.3602C7.26867 20.3602 8.1844 19.4445 8.1844 18.3149C8.1844 17.1853 7.26867 16.2695 6.13907 16.2695C5.00947 16.2695 4.09375 17.1853 4.09375 18.3149C4.09375 19.4445 5.00947 20.3602 6.13907 20.3602Z" stroke="white" stroke-width="1.3" stroke-linecap="round" stroke-linejoin="round"/>
<path d="M18.4086 20.3602C19.5382 20.3602 20.4539 19.4445 20.4539 18.3149C20.4539 17.1853 19.5382 16.2695 18.4086 16.2695C17.279 16.2695 16.3633 17.1853 16.3633 18.3149C16.3633 19.4445 17.279 20.3602 18.4086 20.3602Z" stroke="white" stroke-width="1.3" stroke-linecap="round" stroke-linejoin="round"/>
<path d="M3.66005 17.6355H1.22002V13.0903M0 4H13.4202V17.6355M8.54012 17.6355H15.8602M20.7403 17.6355H23.1803V10.8177M23.1803 10.8177H13.4202M23.1803 10.8177L20.4063 6.5116C19.854 5.65432 18.9041 5.13629 17.8843 5.13629H13.4202" stroke="white" stroke-width="1.3" stroke-linecap="round" stroke-linejoin="round"/>
<path d="M1.36328 8.0918H6.81748" stroke="white" stroke-width="1.3" stroke-linecap="round" stroke-linejoin="round"/>
</g>
<defs>
<clipPath id="clip0_689_10745">
<rect width="24" height="24" fill="white"/>
</clipPath>
</defs>
</svg>
