<svg id="Group_32225" data-name="Group 32225" xmlns="http://www.w3.org/2000/svg" xmlns:xlink="http://www.w3.org/1999/xlink" width="47.979" height="41.125" viewBox="0 0 47.979 41.125">
  <defs>
    <clipPath id="clip-path">
      <rect id="Rectangle_11858" data-name="Rectangle 11858" width="47.979" height="41.125" transform="translate(0 0)" fill="none"/>
    </clipPath>
  </defs>
  <g id="Group_25168" data-name="Group 25168" transform="translate(0 0)" clip-path="url(#clip-path)">
    <path id="Path_44167" data-name="Path 44167" d="M51.15,25.409l-.488.662a1.625,1.625,0,0,0-.312,1.072l.056.821a1.624,1.624,0,0,1-.525,1.309l-.607.555a1.623,1.623,0,0,0-.515.991l-.105.816a1.624,1.624,0,0,1-.771,1.182l-.7.425a1.623,1.623,0,0,0-.7.871l-.263.78a1.623,1.623,0,0,1-.987,1.008l-.773.28a1.625,1.625,0,0,0-.856.718l-.409.713a1.623,1.623,0,0,1-1.164.8l-.813.124a1.623,1.623,0,0,0-.979.537l-.541.62a1.622,1.622,0,0,1-1.3.554l-.822-.037a1.624,1.624,0,0,0-1.065.336l-.652.5a1.624,1.624,0,0,1-1.38.29l-.8-.2a1.624,1.624,0,0,0-1.111.122l-.736.365a1.624,1.624,0,0,1-1.411.016l-.745-.349a1.623,1.623,0,0,0-1.112-.1l-.794.215a1.623,1.623,0,0,1-1.386-.26l-.662-.487a1.622,1.622,0,0,0-1.073-.312l-.82.056a1.623,1.623,0,0,1-1.309-.525l-.555-.608a1.622,1.622,0,0,0-.99-.515l-.817-.106a1.624,1.624,0,0,1-1.181-.771l-.426-.7a1.625,1.625,0,0,0-.871-.7l-.78-.262a1.624,1.624,0,0,1-1.008-.986l-.28-.773A1.623,1.623,0,0,0,14.9,33.6l-.714-.41a1.623,1.623,0,0,1-.8-1.164l-.123-.814a1.624,1.624,0,0,0-.538-.98l-.619-.541a1.623,1.623,0,0,1-.554-1.3l.037-.821a1.621,1.621,0,0,0-.336-1.065l-.5-.652a1.624,1.624,0,0,1-.291-1.38l.2-.8a1.624,1.624,0,0,0-.122-1.11l-.366-.738a1.623,1.623,0,0,1-.016-1.41l.349-.746a1.623,1.623,0,0,0,.1-1.112l-.215-.794a1.624,1.624,0,0,1,.26-1.386l.488-.662a1.622,1.622,0,0,0,.312-1.073l-.056-.821a1.624,1.624,0,0,1,.525-1.309l.608-.555a1.624,1.624,0,0,0,.515-.99l.105-.815a1.626,1.626,0,0,1,.771-1.182l.7-.426a1.623,1.623,0,0,0,.7-.872l.262-.779a1.624,1.624,0,0,1,.987-1.009l.773-.28a1.624,1.624,0,0,0,.856-.718l.409-.713a1.623,1.623,0,0,1,1.164-.8l.813-.123a1.624,1.624,0,0,0,.979-.537l.541-.62a1.625,1.625,0,0,1,1.3-.554l.822.037a1.624,1.624,0,0,0,1.065-.337l.651-.5a1.625,1.625,0,0,1,1.38-.291l.8.2a1.622,1.622,0,0,0,1.11-.122L29.96.169A1.622,1.622,0,0,1,31.37.153L32.116.5a1.623,1.623,0,0,0,1.112.1l.794-.215a1.623,1.623,0,0,1,1.386.259l.662.487a1.625,1.625,0,0,0,1.072.312l.821-.056a1.625,1.625,0,0,1,1.309.525l.555.608a1.623,1.623,0,0,0,.991.515l.815.105a1.623,1.623,0,0,1,1.182.771l.426.7a1.621,1.621,0,0,0,.871.7l.78.263a1.625,1.625,0,0,1,1.008.986l.28.773a1.625,1.625,0,0,0,.718.856l.714.41a1.624,1.624,0,0,1,.8,1.164l.124.813a1.625,1.625,0,0,0,.537.98l.62.54a1.625,1.625,0,0,1,.554,1.3l-.037.822a1.625,1.625,0,0,0,.336,1.065l.5.651a1.623,1.623,0,0,1,.291,1.38l-.2.8a1.624,1.624,0,0,0,.122,1.11l.366.737a1.625,1.625,0,0,1,.016,1.41l-.349.745a1.623,1.623,0,0,0-.1,1.112l.215.794a1.623,1.623,0,0,1-.26,1.386" transform="translate(-6.908 -0.335)" fill="#319437"/>
    <path id="Path_44168" data-name="Path 44168" d="M54.59,26.447A18.143,18.143,0,1,1,36.447,8.3,18.143,18.143,0,0,1,54.59,26.447" transform="translate(-12.458 -5.885)" fill="#fff"/>
    <ellipse id="Ellipse_141" data-name="Ellipse 141" cx="12.007" cy="12.007" rx="12.007" ry="12.007" transform="translate(11.983 8.556)" fill="none" stroke="#040504" stroke-width="1.043"/>
    <path id="Path_44169" data-name="Path 44169" d="M46.84,58.34H1.591A1.59,1.59,0,0,1,0,56.75v-6a1.591,1.591,0,0,1,1.591-1.591H46.84a1.59,1.59,0,0,1,1.59,1.591v6a1.59,1.59,0,0,1-1.59,1.59" transform="translate(-0.225 -33.185)" fill="#319437"/>
    <path id="Path_44170" data-name="Path 44170" d="M39.415,24.343a1.511,1.511,0,0,1,.164-.842,2.268,2.268,0,0,1,.647-.777,2.137,2.137,0,0,1,1.04-.465,1.237,1.237,0,0,1,.9.2q-.35.217-.69.454a.73.73,0,0,0-.46-.038,1.227,1.227,0,0,0-.485.243,1.293,1.293,0,0,0-.377.454.869.869,0,0,0-.086.5.84.84,0,0,0,.222.453.9.9,0,0,0,.9.279,1.236,1.236,0,0,0,.471-.238,1.137,1.137,0,0,0,.317-.368.773.773,0,0,0,.087-.432q.317-.221.644-.424a1.4,1.4,0,0,1-.12.868,2.064,2.064,0,0,1-.617.744,2.182,2.182,0,0,1-.754.394,1.69,1.69,0,0,1-.786.043,1.278,1.278,0,0,1-.68-.359,1.138,1.138,0,0,1-.34-.7" transform="translate(-26.561 -15.203)" fill="#1a1818"/>
    <path id="Path_44171" data-name="Path 44171" d="M48.89,17.847l.315.622q.52-.264,1.056-.485l.169.408q-.52.215-1.026.471l.332.657q.542-.274,1.1-.5l.169.421a13.391,13.391,0,0,0-1.613.776L48.024,17.8a16.177,16.177,0,0,1,1.945-.936l.169.421q-.634.254-1.249.565" transform="translate(-32.319 -11.603)" fill="#1a1818"/>
    <path id="Path_44172" data-name="Path 44172" d="M58.225,17.38q-.447-.453-.943-.878c-.1.028-.2.057-.3.087l.315,1.036q-.293.089-.581.191L55.789,15.2q.652-.231,1.319-.4a1.816,1.816,0,0,1,.729-.056.923.923,0,0,1,.492.215.689.689,0,0,1,.218.4.751.751,0,0,1-.1.523,1.082,1.082,0,0,1-.492.414q.51.461.964.955-.346.06-.69.138m-1.363-1.191q.272-.083.546-.154a.676.676,0,0,0,.374-.206.373.373,0,0,0,.066-.327.345.345,0,0,0-.2-.258.693.693,0,0,0-.445,0q-.289.076-.576.163l.238.781" transform="translate(-37.509 -10.173)" fill="#1a1818"/>
    <path id="Path_44173" data-name="Path 44173" d="M67.727,13.353q0,.225-.009.45-.472-.009-.944.01.047,1.163.095,2.327-.3.012-.605.038-.1-1.16-.2-2.32-.471.04-.939.108l-.065-.445a16.317,16.317,0,0,1,2.667-.168" transform="translate(-43.704 -9.257)" fill="#1a1818"/>
    <path id="Path_44174" data-name="Path 44174" d="M75.145,13.469q-.134,1.383-.268,2.765-.3-.029-.6-.045.072-1.387.144-2.774.365.018.729.054" transform="translate(-49.861 -9.3)" fill="#1a1818"/>
    <path id="Path_44175" data-name="Path 44175" d="M80.486,14.3l-.124.432q-.715-.2-1.445-.341l-.132.7q.533.1,1.06.238l-.113.427q-.51-.134-1.029-.231l-.217,1.154q-.3-.056-.6-.1l.39-2.751a16.282,16.282,0,0,1,2.209.47" transform="translate(-52.276 -9.58)" fill="#1a1818"/>
    <path id="Path_44176" data-name="Path 44176" d="M86.205,15.951l-.973,2.6q-.288-.107-.579-.2l.853-2.645q.351.113.7.242" transform="translate(-56.799 -10.834)" fill="#1a1818"/>
    <path id="Path_44177" data-name="Path 44177" d="M89.669,17.96l-.3.628q.525.252,1.033.548l-.222.382q-.494-.287-1-.532l-.319.664q.546.262,1.072.575l-.232.39a13.387,13.387,0,0,0-1.6-.811l1.09-2.561a16.163,16.163,0,0,1,1.93.979l-.232.39q-.6-.355-1.217-.652" transform="translate(-59.1 -11.859)" fill="#1a1818"/>
    <path id="Path_44178" data-name="Path 44178" d="M97.685,22.884a1.434,1.434,0,0,1,.183.835,1.134,1.134,0,0,1-.345.692,1.261,1.261,0,0,1-.675.36,1.574,1.574,0,0,1-.78-.064,2.6,2.6,0,0,1-.8-.439q-.439-.341-.9-.641L95.894,21.3q.554.362,1.083.773a2.577,2.577,0,0,1,.709.812M96.324,24.21a.845.845,0,0,0,.669-.3.79.79,0,0,0,.217-.715,1.349,1.349,0,0,0-.544-.764q-.208-.161-.421-.315L95.173,23.6q.188.136.372.279a1.354,1.354,0,0,0,.779.331" transform="translate(-63.296 -14.569)" fill="#1a1818"/>
    <path id="Path_44179" data-name="Path 44179" d="M18.393,59.683a2.666,2.666,0,0,1-1.011-.992,2.931,2.931,0,0,1,0-2.863,2.672,2.672,0,0,1,1.011-.992,2.927,2.927,0,0,1,2.8,0,2.649,2.649,0,0,1,1,.992,2.956,2.956,0,0,1,0,2.863,2.637,2.637,0,0,1-1.007.992,2.917,2.917,0,0,1-2.8,0m2.264-.836a1.521,1.521,0,0,0,.583-.634,2.076,2.076,0,0,0,.21-.957,2.053,2.053,0,0,0-.21-.953,1.5,1.5,0,0,0-.583-.627,1.685,1.685,0,0,0-.864-.218,1.706,1.706,0,0,0-.867.218,1.491,1.491,0,0,0-.587.627,2.057,2.057,0,0,0-.21.953,2.08,2.08,0,0,0,.21.957,1.511,1.511,0,0,0,.587.634,1.678,1.678,0,0,0,.867.222,1.658,1.658,0,0,0,.864-.222" transform="translate(-11.592 -36.742)" fill="#fff"/>
    <path id="Path_44180" data-name="Path 44180" d="M39.02,60.143l-1.2-2.116h-.513v2.116H36.219V54.712h2.039a2.379,2.379,0,0,1,1.074.222,1.547,1.547,0,0,1,.665.6,1.688,1.688,0,0,1-.089,1.813,1.6,1.6,0,0,1-.926.6l1.3,2.2ZM37.308,57.21h.911A.909.909,0,0,0,38.88,57a.8.8,0,0,0,.218-.6.76.76,0,0,0-.218-.58.932.932,0,0,0-.661-.206h-.911Z" transform="translate(-24.43 -36.899)" fill="#fff"/>
    <path id="Path_44181" data-name="Path 44181" d="M54.5,56.205a1.276,1.276,0,0,0-.513-.521,1.562,1.562,0,0,0-.763-.179,1.667,1.667,0,0,0-.856.218,1.506,1.506,0,0,0-.584.622,2.2,2.2,0,0,0,0,1.883,1.515,1.515,0,0,0,.6.623,1.755,1.755,0,0,0,.887.218,1.538,1.538,0,0,0,1.019-.331,1.576,1.576,0,0,0,.521-.922H52.946v-.833h2.941v.949a2.553,2.553,0,0,1-.467,1.051,2.637,2.637,0,0,1-.922.774,2.708,2.708,0,0,1-1.264.292,2.864,2.864,0,0,1-1.42-.354,2.578,2.578,0,0,1-1-.985,3.02,3.02,0,0,1,0-2.867,2.57,2.57,0,0,1,1-.988,3.033,3.033,0,0,1,3.007.094,2.285,2.285,0,0,1,.934,1.257Z" transform="translate(-33.945 -36.758)" fill="#fff"/>
    <path id="Path_44182" data-name="Path 44182" d="M71.925,59.094H69.762L69.4,60.129H68.26l1.953-5.439h1.268l1.953,5.439H72.283Zm-.3-.871-.786-2.272-.786,2.272Z" transform="translate(-45.843 -36.884)" fill="#fff"/>
    <path id="Path_44183" data-name="Path 44183" d="M90.709,60.128H89.62L87.153,56.4v3.727H86.064V54.689h1.089l2.467,3.735V54.689h1.089Z" transform="translate(-57.741 -36.884)" fill="#fff"/>
    <rect id="Rectangle_11857" data-name="Rectangle 11857" width="1.089" height="5.431" transform="translate(34.042 17.814)" fill="#fff"/>
    <path id="Path_44184" data-name="Path 44184" d="M109.391,55.844a2.583,2.583,0,0,1,.988-.988,2.8,2.8,0,0,1,1.4-.354,2.76,2.76,0,0,1,1.595.467,2.44,2.44,0,0,1,.957,1.292h-1.253a1.3,1.3,0,0,0-.525-.583,1.542,1.542,0,0,0-.782-.195,1.606,1.606,0,0,0-.844.222,1.509,1.509,0,0,0-.576.626,2.281,2.281,0,0,0,0,1.895,1.506,1.506,0,0,0,.576.63,1.609,1.609,0,0,0,.844.222,1.517,1.517,0,0,0,.782-.2,1.32,1.32,0,0,0,.525-.587h1.253a2.426,2.426,0,0,1-.953,1.3,2.98,2.98,0,0,1-3,.109,2.591,2.591,0,0,1-.988-.984,3.021,3.021,0,0,1,0-2.867" transform="translate(-73.088 -36.758)" fill="#fff"/>
    <path id="Path_44185" data-name="Path 44185" d="M40.433,94.013a1.681,1.681,0,0,1,.788.042,2.171,2.171,0,0,1,.754.394,2.053,2.053,0,0,1,.614.745,1.407,1.407,0,0,1,.123.867q-.326-.2-.644-.424a.762.762,0,0,0-.088-.43,1.163,1.163,0,0,0-.318-.366,1.231,1.231,0,0,0-.471-.238.892.892,0,0,0-.9.279.841.841,0,0,0-.221.452.863.863,0,0,0,.085.5,1.3,1.3,0,0,0,.377.454,1.208,1.208,0,0,0,.486.242.743.743,0,0,0,.461-.04q.34.237.69.454a1.225,1.225,0,0,1-.9.207,2.142,2.142,0,0,1-1.041-.468,2.263,2.263,0,0,1-.647-.777,1.514,1.514,0,0,1-.165-.84,1.131,1.131,0,0,1,.339-.694,1.288,1.288,0,0,1,.681-.36" transform="translate(-26.559 -63.144)" fill="#1a1818"/>
    <path id="Path_44186" data-name="Path 44186" d="M49.726,99.545l-.315.622q.5.256,1.024.47l-.169.408q-.534-.22-1.055-.484l-.332.657q.614.311,1.249.566l-.169.421a16.22,16.22,0,0,1-1.946-.936l1.37-2.422A13.359,13.359,0,0,0,51,99.622l-.169.421q-.559-.224-1.1-.5" transform="translate(-32.311 -66.393)" fill="#1a1818"/>
    <path id="Path_44187" data-name="Path 44187" d="M57.6,104.936q-.274-.617-.492-1.242l-.311-.091-.315,1.036q-.353-.107-.7-.23l.928-2.62q.542.192,1.095.335a1.62,1.62,0,0,1,.561.249.913.913,0,0,1,.312.375.78.78,0,0,1,.051.448.723.723,0,0,1-.274.454.966.966,0,0,1-.626.18q.272.64.607,1.27-.418-.072-.833-.166m-.682-1.732q.268.081.538.152a.6.6,0,0,0,.419-.009.413.413,0,0,0,.137-.585.616.616,0,0,0-.348-.195q-.255-.067-.509-.144l-.238.781" transform="translate(-37.5 -68.361)" fill="#1a1818"/>
    <path id="Path_44188" data-name="Path 44188" d="M68.352,103.831q0,.225.009.45-.416.007-.833-.009-.047,1.164-.095,2.327-.365-.015-.73-.046.1-1.16.2-2.32-.415-.036-.829-.1l.065-.445a13.583,13.583,0,0,0,2.213.139" transform="translate(-44.381 -69.632)" fill="#1a1818"/>
    <path id="Path_44189" data-name="Path 44189" d="M74.879,103.93q.134,1.383.268,2.765-.365.035-.73.054l-.143-2.775q.3-.015.605-.045" transform="translate(-49.862 -69.791)" fill="#1a1818"/>
    <path id="Path_44190" data-name="Path 44190" d="M79.724,102.541l.124.432q-.631.181-1.274.3l.132.7q.518-.1,1.029-.232l.113.428q-.526.138-1.06.238l.217,1.154q-.361.068-.723.119l-.391-2.751a13.514,13.514,0,0,0,1.833-.39" transform="translate(-52.279 -68.862)" fill="#1a1818"/>
    <path id="Path_44191" data-name="Path 44191" d="M85.245,101.556l.973,2.6q-.347.129-.7.242l-.853-2.645q.291-.094.579-.2" transform="translate(-56.807 -68.204)" fill="#1a1818"/>
    <path id="Path_44192" data-name="Path 44192" d="M88.866,99.386l.3.628q.509-.244,1-.53l.222.382q-.507.3-1.031.547l.319.664q.619-.3,1.217-.653l.232.39a16.131,16.131,0,0,1-1.931.979l-1.09-2.561a13.357,13.357,0,0,0,1.6-.812l.232.39q-.526.313-1.073.576" transform="translate(-59.106 -66.108)" fill="#1a1818"/>
    <path id="Path_44193" data-name="Path 44193" d="M96.09,94.09a1.564,1.564,0,0,1,.783-.062,1.28,1.28,0,0,1,.678.363,1.12,1.12,0,0,1,.341.689,1.445,1.445,0,0,1-.187.833,2.575,2.575,0,0,1-.709.812q-.529.412-1.083.774L94.4,95.17q.459-.3.9-.642a2.614,2.614,0,0,1,.8-.439m1.143,1.518a.773.773,0,0,0-.213-.711.864.864,0,0,0-.674-.309,1.333,1.333,0,0,0-.784.327q-.184.143-.373.279l1.073,1.489q.212-.154.421-.315a1.371,1.371,0,0,0,.548-.759" transform="translate(-63.309 -63.157)" fill="#1a1818"/>
    <path id="Path_44194" data-name="Path 44194" d="M110.68,34.068l.3.917h.964l-.78.567.3.917-.78-.567-.78.567.3-.917-.78-.567h.964Z" transform="translate(-73.348 -23.102)" fill="#1a1818"/>
    <path id="Path_44195" data-name="Path 44195" d="M30.68,34.54l.3.917h.964l-.78.567.3.917-.78-.567-.78.567.3-.917-.78-.567h.964Z" transform="translate(-19.885 -23.418)" fill="#1a1818"/>
    <path id="Path_44196" data-name="Path 44196" d="M110.68,84.068l.3.917h.964l-.78.567.3.917-.78-.567-.78.567.3-.917-.78-.567h.964Z" transform="translate(-73.348 -56.517)" fill="#1a1818"/>
    <path id="Path_44197" data-name="Path 44197" d="M30.68,84.54l.3.917h.964l-.78.567.3.917-.78-.567-.78.567.3-.917-.78-.567h.964Z" transform="translate(-19.885 -56.832)" fill="#1a1818"/>
  </g>
</svg>
