<svg width="90" height="134" viewBox="0 0 90 134" fill="none" xmlns="http://www.w3.org/2000/svg">
<g opacity="0.2">
<path d="M14.0774 107.48C25.7048 97.4277 34.8794 89.161 41.6014 82.6797C47.9814 76.6137 53.6216 69.8145 58.4044 62.4237C62.8838 55.401 65.1241 48.3767 65.1254 41.3507C65.1254 34.084 63.3998 28.3914 59.9484 24.2727C56.4971 20.154 51.0771 18.0953 43.6884 18.0967C36.5398 18.0967 30.9988 20.3674 27.0654 24.9087C23.1321 29.45 21.0451 35.536 20.8044 43.1667H0.81543C1.17876 29.36 5.32676 18.7933 13.2594 11.4667C21.1921 4.14001 31.2738 0.475323 43.5044 0.472656C56.7044 0.472656 67.0297 4.10601 74.4804 11.3727C81.9311 18.6393 85.6554 28.3287 85.6534 40.4407C85.6279 49.2564 83.3447 57.9187 79.0214 65.6017C74.7321 73.4757 69.4171 80.7458 63.2155 87.2217C57.0988 93.5803 49.3171 100.938 39.8704 109.296L31.7044 116.56H89.2954V133.819H0.997437V118.745L14.0774 107.48Z" fill="#6BF4A6"/>
</g>
</svg>
