<svg width="20" height="20" viewBox="0 0 20 20" fill="none" xmlns="http://www.w3.org/2000/svg">
<path d="M15.2499 4.90921H13.6921C13.4401 3.52521 12.3774 2.38266 10.9366 2.02339C10.5399 1.92375 10.1274 2.15793 10.0231 2.5463C9.91963 2.93539 10.1619 3.33175 10.5631 3.43139C11.5561 3.67939 12.2499 4.54848 12.2499 5.54484V13.6365H3.99988C3.17263 13.6365 2.49988 12.9841 2.49988 12.1819V9.27284H4.37488C4.78963 9.27284 5.12488 8.94702 5.12488 8.54557C5.12488 8.14411 4.78963 7.8183 4.37488 7.8183H2.49988C1.67263 7.8183 0.999878 8.47066 0.999878 9.27284V12.1819C0.999878 13.5492 1.97788 14.699 3.29113 15.0088C3.26413 15.155 3.24988 15.3041 3.24988 15.4547C3.24988 16.8583 4.42738 18.0001 5.87488 18.0001C7.32238 18.0001 8.49988 16.8583 8.49988 15.4547C8.49988 15.3318 8.49013 15.211 8.47213 15.091H11.5276C11.5096 15.211 11.4999 15.3318 11.4999 15.4547C11.4999 16.8583 12.6774 18.0001 14.1249 18.0001C15.5724 18.0001 16.7499 16.8583 16.7499 15.4547C16.7499 15.3041 16.7356 15.155 16.7086 15.0088C18.0219 14.699 18.9999 13.5492 18.9999 12.1819V8.54557C18.9999 6.54048 17.3176 4.90921 15.2499 4.90921ZM17.4999 8.54557V9.27284H13.7499V6.36375H15.2499C16.4904 6.36375 17.4999 7.34266 17.4999 8.54557ZM6.99988 15.4547C6.99988 16.0561 6.49513 16.5456 5.87488 16.5456C5.25463 16.5456 4.74988 16.0561 4.74988 15.4547C4.74988 15.3172 4.77763 15.1958 4.81813 15.091H6.93238C6.97288 15.1958 7.00063 15.3172 7.00063 15.4547H6.99988ZM14.1249 16.5456C13.5046 16.5456 12.9999 16.0561 12.9999 15.4547C12.9999 15.3172 13.0276 15.1958 13.0681 15.091H15.1824C15.2229 15.1958 15.2506 15.3172 15.2506 15.4547C15.2506 16.0561 14.7451 16.5456 14.1249 16.5456ZM15.9999 13.6365H13.7499V10.7274H17.4999V12.1819C17.4999 12.9841 16.8271 13.6365 15.9999 13.6365ZM0.999878 2.72739C0.999878 2.32593 1.33513 2.00011 1.74988 2.00011H7.86538C8.28013 2.00011 8.61538 2.32593 8.61538 2.72739C8.61538 3.12884 8.28013 3.45466 7.86538 3.45466H1.74988C1.33513 3.45466 0.999878 3.12884 0.999878 2.72739ZM0.999878 5.63648C0.999878 5.23502 1.33513 4.90921 1.74988 4.90921H6.36538C6.78013 4.90921 7.11538 5.23502 7.11538 5.63648C7.11538 6.03793 6.78013 6.36375 6.36538 6.36375H1.74988C1.33513 6.36375 0.999878 6.03793 0.999878 5.63648Z" fill="#727272"/>
</svg>
