<svg width="20" height="20" viewBox="0 0 20 20" fill="none" xmlns="http://www.w3.org/2000/svg">
<g clip-path="url(#clip0_978_540)">
<path d="M4.58325 14.1668C5.27361 14.1668 5.83325 13.6071 5.83325 12.9168C5.83325 12.2264 5.27361 11.6668 4.58325 11.6668C3.8929 11.6668 3.33325 12.2264 3.33325 12.9168C3.33325 13.6071 3.8929 14.1668 4.58325 14.1668Z" fill="#727272"/>
<path d="M15.8332 2.50011H4.16654C3.06188 2.50144 2.00284 2.94085 1.22173 3.72196C0.440613 4.50308 0.00120114 5.56212 -0.00012207 6.66678L-0.00012207 13.3334C0.00120114 14.4381 0.440613 15.4972 1.22173 16.2783C2.00284 17.0594 3.06188 17.4988 4.16654 17.5001H15.8332C16.9379 17.4988 17.9969 17.0594 18.778 16.2783C19.5591 15.4972 19.9986 14.4381 19.9999 13.3334V6.66678C19.9986 5.56212 19.5591 4.50308 18.778 3.72196C17.9969 2.94085 16.9379 2.50144 15.8332 2.50011ZM4.16654 4.16678H15.8332C16.4963 4.16678 17.1321 4.43017 17.601 4.89901C18.0698 5.36786 18.3332 6.00374 18.3332 6.66678H1.66654C1.66654 6.00374 1.92994 5.36786 2.39878 4.89901C2.86762 4.43017 3.5035 4.16678 4.16654 4.16678ZM15.8332 15.8334H4.16654C3.5035 15.8334 2.86762 15.5701 2.39878 15.1012C1.92994 14.6324 1.66654 13.9965 1.66654 13.3334V8.33345H18.3332V13.3334C18.3332 13.9965 18.0698 14.6324 17.601 15.1012C17.1321 15.5701 16.4963 15.8334 15.8332 15.8334Z" fill="#727272"/>
</g>
<defs>
<clipPath id="clip0_978_540">
<rect width="20" height="20" fill="white"/>
</clipPath>
</defs>
</svg>
