<svg width="20" height="20" viewBox="0 0 20 20" fill="none" xmlns="http://www.w3.org/2000/svg">
<g clip-path="url(#clip0_978_553)">
<path d="M18.1259 10.6617L18.1286 4.37731C18.1292 2.99231 17.0136 1.87729 15.6286 1.87729H4.37616C2.99116 1.87729 1.87684 2.99231 1.87616 4.37731L1.87129 15.6224C1.87061 17.0074 2.98629 18.1224 4.37129 18.1224H9.36514" stroke="#727272" stroke-width="1.2" stroke-linecap="round" stroke-linejoin="round"/>
<path d="M12.207 2.07018V3.32018C12.207 4.35893 11.3707 5.19517 10.332 5.19517H9.66791C8.62916 5.19517 7.79291 4.35893 7.79291 3.32018V2.07018" stroke="#727272" stroke-width="1.2" stroke-linecap="round" stroke-linejoin="round"/>
<path d="M13.0483 13.5343H15.8276C17.0985 13.5343 18.1217 14.5575 18.1217 15.8284C18.1217 17.0993 17.0985 18.1224 15.8276 18.1224H12.3206" stroke="#727272" stroke-width="1.2" stroke-linecap="round" stroke-linejoin="round"/>
<path d="M14.4643 12.1183L13.0483 13.5343L14.4643 14.9503" stroke="#727272" stroke-width="1.2" stroke-linecap="round" stroke-linejoin="round"/>
<path d="M4.79987 15.9999H6.29987" stroke="#727272" stroke-width="1.2" stroke-linecap="round"/>
</g>
<defs>
<clipPath id="clip0_978_553">
<rect width="20" height="20" fill="white"/>
</clipPath>
</defs>
</svg>
